<svg xmlns="http://www.w3.org/2000/svg" viewBox="0 0 241.02 139.41"><defs><style>.cls-1{opacity:0.11;}.cls-2{fill:#020202;}.cls-3{fill:#858585;}.cls-4{fill:#dcdcdc;}.cls-5{fill:#fff;}</style></defs><title>keyboard_1</title><g id="Layer_2" data-name="Layer 2"><g id="_2D_Desktop" data-name="2D Desktop"><g id="Keyboard"><g class="cls-1"><path class="cls-2" d="M239.19,97.51c2.44,1.41,2.45,3.69,0,5.1l-61.51,35.74a9.71,9.71,0,0,1-8.81,0L1.84,41.9c-2.44-1.41-2.45-3.69,0-5.1L63.32,1.06a9.7,9.7,0,0,1,8.81,0Z"/></g><path class="cls-3" d="M219.32,88.76c0,.05,0,.11,0,.16s0,.09,0,.13,0,.1,0,.15l-.05.12-.07.16-.07.11-.12.18-.14.17,0,0-.22.21-.16.13-.14.11-.18.12-.19.12L167.41,120a5.29,5.29,0,0,1-.48.24l-.15.06-.4.15-.15.05-.26.08-.2.05-.28.06-.19,0-.58.08-.18,0-.35,0h-1l-.24,0-.25,0-.23,0-.27,0-.21,0-.32-.08-.18,0-.55-.18-.26-.11-.13-.06-.37-.2-137-79.1a2.55,2.55,0,0,1-1.51-2.1v3a2.55,2.55,0,0,0,1.51,2.1l137,79.1.37.2.13.06.23.1h0l.55.19h0l.13,0,.32.08.08,0,.13,0,.27,0,.11,0h.12l.26,0h1.23l.35,0h.18l.58-.08h0l.16,0,.28-.06.2-.05.26-.08.06,0,.09,0,.4-.15.15-.06a5.31,5.31,0,0,0,.48-.24l50.44-29.31.06,0,.13-.09.18-.12.14-.11.16-.13,0,0,.18-.18,0,0,.1-.12,0-.05.12-.18.05-.07,0,0,.07-.16,0-.09v0c0-.05,0-.1,0-.15s0-.07,0-.1v0c0-.05,0-.11,0-.16s0-.07,0-.1v-3S219.33,88.71,219.32,88.76Z"/><path class="cls-4" d="M217.83,86.51c2,1.16,2,3,0,4.18L167.41,120a8,8,0,0,1-7.22,0l-137-79.1c-2-1.16-2-3,0-4.18L73.61,7.41a8,8,0,0,1,7.22,0Z"/><path class="cls-5" d="M76.1,56l-6.36,3.7a.6.6,0,0,0,0,1.14l44.12,25.47a2.16,2.16,0,0,0,2,0l6.36-3.7a.6.6,0,0,0,0-1.14L78.06,56a2.16,2.16,0,0,0-2,0"/><path class="cls-5" d="M45.26,27.67l-6.36,3.7a.6.6,0,0,0,0,1.14L57.37,43.17a2.17,2.17,0,0,0,2,0l6.36-3.7a.6.6,0,0,0,0-1.14L47.23,27.67a2.16,2.16,0,0,0-2,0"/><path class="cls-5" d="M173.83,109.27l6.36-3.7a.6.6,0,0,0,0-1.14L162.41,94.17a2.17,2.17,0,0,0-2,0l-6.36,3.7a.6.6,0,0,0,0,1.14l17.78,10.26a2.16,2.16,0,0,0,2,0"/><path class="cls-5" d="M54.42,22.35,48.06,26a.6.6,0,0,0,0,1.14l13.75,7.94a2.16,2.16,0,0,0,2,0l6.36-3.7a.6.6,0,0,0,0-1.14L56.38,22.35a2.16,2.16,0,0,0-2,0"/><path class="cls-5" d="M183,103.95l6.36-3.7a.6.6,0,0,0,0-1.14l-13.59-7.85a2.16,2.16,0,0,0-2,0L167.43,95a.6.6,0,0,0,0,1.14L181,103.95a2.16,2.16,0,0,0,2,0"/><path class="cls-5" d="M63.54,17l-6.36,3.7a.6.6,0,0,0,0,1.14l11.36,6.56a2.16,2.16,0,0,0,2,0l6.36-3.7a.6.6,0,0,0,0-1.14L65.5,17a2.16,2.16,0,0,0-2,0"/><path class="cls-5" d="M201.16,93.39l6.36-3.7c.64-.37.42-.89,0-1.14L196.19,82a2.16,2.16,0,0,0-2,0l-6.36,3.7a.6.6,0,0,0,0,1.14l11.33,6.54a2.16,2.16,0,0,0,2,0"/><path class="cls-5" d="M127.52,93l6.36-3.7a.6.6,0,0,0,0-1.14l-9-5.21a2.17,2.17,0,0,0-2,0l-6.36,3.7a.6.6,0,0,0,0,1.14l9,5.21a2.16,2.16,0,0,0,2,0"/><path class="cls-5" d="M68.91,59.18l6.36-3.7a.6.6,0,0,0,0-1.14l-9-5.21a2.16,2.16,0,0,0-2,0l-6.36,3.7a.6.6,0,0,0,0,1.14l9,5.21a2.16,2.16,0,0,0,2,0"/><path class="cls-5" d="M150.66,88.52l-6.36,3.7a.6.6,0,0,0,0,1.14l6.7,3.87a2.17,2.17,0,0,0,2,0l6.36-3.7a.6.6,0,0,0,0-1.14l-6.7-3.87a2.17,2.17,0,0,0-2,0"/><path class="cls-5" d="M93.83,55.71a.6.6,0,0,0,0-1.14l-6.7-3.87a2.17,2.17,0,0,0-2,0L78.8,54.4a.6.6,0,0,0,0,1.14l6.7,3.87a2.16,2.16,0,0,0,2,0l6.36-3.7"/><path class="cls-5" d="M103.88,61.51l-6.36,3.7a.6.6,0,0,0,0,1.14l6.7,3.87a2.17,2.17,0,0,0,2,0l6.36-3.7a.6.6,0,0,0,0-1.14l-6.7-3.87a2.17,2.17,0,0,0-2,0"/><path class="cls-5" d="M131.95,77.72l-6.36,3.7a.6.6,0,0,0,0,1.14l6.7,3.87a2.16,2.16,0,0,0,2,0l6.36-3.7a.6.6,0,0,0,0-1.14l-6.7-3.87a2.17,2.17,0,0,0-2,0"/><path class="cls-5" d="M113.23,66.91l-6.36,3.7a.6.6,0,0,0,0,1.14l6.7,3.87a2.17,2.17,0,0,0,2,0l6.36-3.7a.6.6,0,0,0,0-1.14l-6.7-3.87a2.17,2.17,0,0,0-2,0"/><path class="cls-5" d="M114.3,45.22l-6.7-3.87a2.16,2.16,0,0,0-2,0l-6.36,3.7a.6.6,0,0,0,0,1.14l6.7,3.87a2.17,2.17,0,0,0,2,0l6.36-3.7a.6.6,0,0,0,0-1.14"/><path class="cls-5" d="M93.61,31.29,100,27.6a.6.6,0,0,0,0-1.14l-6.7-3.87a2.16,2.16,0,0,0-2,0l-6.36,3.7a.6.6,0,0,0,0,1.14l6.7,3.87a2.17,2.17,0,0,0,2,0"/><path class="cls-5" d="M122.93,81a2.16,2.16,0,0,0,2,0l6.36-3.7a.6.6,0,0,0,0-1.14l-6.7-3.87a2.16,2.16,0,0,0-2,0L116.23,76a.6.6,0,0,0,0,1.14l6.7,3.87"/><path class="cls-5" d="M78.11,54l6.36-3.7a.6.6,0,0,0,0-1.14l-6.7-3.87a2.16,2.16,0,0,0-2,0L69.45,49a.6.6,0,0,0,0,1.14L76.15,54a2.16,2.16,0,0,0,2,0"/><path class="cls-5" d="M174.14,89.41l6.7,3.87a2.17,2.17,0,0,0,2,0l6.36-3.7a.6.6,0,0,0,0-1.14l-6.7-3.87a2.16,2.16,0,0,0-2,0l-6.36,3.7a.6.6,0,0,0,0,1.14"/><path class="cls-5" d="M133,56l-6.7-3.87a2.16,2.16,0,0,0-2,0L118,55.86A.6.6,0,0,0,118,57l6.7,3.87a2.17,2.17,0,0,0,2,0l6.36-3.7A.6.6,0,0,0,133,56"/><path class="cls-5" d="M177.82,79.91l6.36-3.7a.6.6,0,0,0,0-1.14l-6.7-3.87a2.16,2.16,0,0,0-2,0l-6.36,3.7a.6.6,0,0,0,0,1.14l6.7,3.87a2.17,2.17,0,0,0,2,0"/><path class="cls-5" d="M112.32,42.1l6.36-3.7a.6.6,0,0,0,0-1.14L112,33.4a2.16,2.16,0,0,0-2,0l-6.36,3.7a.6.6,0,0,0,0,1.14l6.7,3.87a2.17,2.17,0,0,0,2,0"/><path class="cls-5" d="M146.07,103.73l6.36-3.7a.6.6,0,0,0,0-1.14L145.73,95a2.17,2.17,0,0,0-2,0l-6.36,3.7a.6.6,0,0,0,0,1.14l6.7,3.87a2.16,2.16,0,0,0,2,0"/><path class="cls-5" d="M77.57,25.15l-6.36,3.7a.6.6,0,0,0,0,1.14l6.7,3.87a2.17,2.17,0,0,0,2,0l6.36-3.7a.6.6,0,0,0,0-1.14l-6.7-3.87a2.16,2.16,0,0,0-2,0"/><path class="cls-5" d="M170.44,77.64l-6.7-3.87a2.16,2.16,0,0,0-2,0l-6.36,3.7a.6.6,0,0,0,0,1.14l6.7,3.87a2.17,2.17,0,0,0,2,0l6.36-3.7a.6.6,0,0,0,0-1.14"/><path class="cls-5" d="M151.73,66.83,145,63a2.16,2.16,0,0,0-2,0l-6.36,3.7a.6.6,0,0,0,0,1.14l6.7,3.87a2.17,2.17,0,0,0,2,0l6.36-3.7a.6.6,0,0,0,0-1.14"/><path class="cls-5" d="M149.75,63.71l6.36-3.7a.6.6,0,0,0,0-1.14L149.4,55a2.16,2.16,0,0,0-2,0l-6.36,3.7a.6.6,0,0,0,0,1.14l6.7,3.87a2.17,2.17,0,0,0,2,0"/><path class="cls-5" d="M131,52.9l6.36-3.7a.6.6,0,0,0,0-1.14l-6.7-3.87a2.16,2.16,0,0,0-2,0l-6.36,3.7a.6.6,0,0,0,0,1.14l6.7,3.87a2.17,2.17,0,0,0,2,0"/><path class="cls-5" d="M141.3,83.12l-6.36,3.7A.6.6,0,0,0,135,88l6.7,3.87a2.16,2.16,0,0,0,2,0l6.36-3.7A.6.6,0,0,0,150,87l-6.7-3.87a2.16,2.16,0,0,0-2,0"/><path class="cls-5" d="M94.52,56.11l-6.36,3.7a.6.6,0,0,0,0,1.14l6.7,3.87a2.16,2.16,0,0,0,2,0l6.36-3.7a.6.6,0,0,0,0-1.14l-6.7-3.87a2.16,2.16,0,0,0-2,0"/><path class="cls-5" d="M73.91,42.11,80.61,46a2.17,2.17,0,0,0,2,0l6.36-3.7a.6.6,0,0,0,0-1.14l-6.7-3.87a2.16,2.16,0,0,0-2,0L73.91,41a.6.6,0,0,0,0,1.14"/><path class="cls-5" d="M130.05,74.52l6.7,3.87a2.16,2.16,0,0,0,2,0l6.36-3.7a.6.6,0,0,0,0-1.14l-6.7-3.87a2.16,2.16,0,0,0-2,0L130,73.38a.6.6,0,0,0,0,1.14"/><path class="cls-5" d="M158.12,90.73l6.7,3.87a2.17,2.17,0,0,0,2,0l6.36-3.7a.6.6,0,0,0,0-1.14l-6.7-3.87a2.16,2.16,0,0,0-2,0l-6.36,3.7a.6.6,0,0,0,0,1.14"/><path class="cls-5" d="M111.34,63.72l6.7,3.87a2.17,2.17,0,0,0,2,0l6.36-3.7a.6.6,0,0,0,0-1.14l-6.7-3.87a2.16,2.16,0,0,0-2,0l-6.36,3.7a.6.6,0,0,0,0,1.14"/><path class="cls-5" d="M142.37,61.43l-6.7-3.87a2.16,2.16,0,0,0-2,0l-6.36,3.7a.6.6,0,0,0,0,1.14l6.7,3.87a2.16,2.16,0,0,0,2,0l6.36-3.7a.6.6,0,0,0,0-1.14"/><path class="cls-5" d="M95.59,34.42l-6.7-3.87a2.16,2.16,0,0,0-2,0l-6.36,3.7a.6.6,0,0,0,0,1.14l6.7,3.87a2.16,2.16,0,0,0,2,0l6.36-3.7a.6.6,0,0,0,0-1.14"/><path class="cls-5" d="M179.8,83l-6.7-3.87a2.16,2.16,0,0,0-2,0l-6.36,3.7a.6.6,0,0,0,0,1.14l6.7,3.87a2.16,2.16,0,0,0,2,0l6.36-3.7a.6.6,0,0,0,0-1.14"/><path class="cls-5" d="M121.68,47.5,128,43.8a.6.6,0,0,0,0-1.14l-6.7-3.87a2.16,2.16,0,0,0-2,0L113,42.5a.6.6,0,0,0,0,1.14l6.7,3.87a2.16,2.16,0,0,0,2,0"/><path class="cls-5" d="M136.71,98.32l6.36-3.7a.6.6,0,0,0,0-1.14l-6.7-3.87a2.16,2.16,0,0,0-2,0L128,93.32a.6.6,0,0,0,0,1.14l6.7,3.87a2.16,2.16,0,0,0,2,0"/><path class="cls-5" d="M75.59,22l6.7,3.87a2.16,2.16,0,0,0,2,0l6.36-3.7a.6.6,0,0,0,0-1.14l-6.7-3.87a2.16,2.16,0,0,0-2,0l-6.36,3.7a.6.6,0,0,0,0,1.14"/><path class="cls-5" d="M72.59,11.79l-6.36,3.7a.6.6,0,0,0,0,1.14l6.7,3.87a2.17,2.17,0,0,0,2,0l6.36-3.7a.6.6,0,0,0,0-1.14l-6.7-3.87a2.16,2.16,0,0,0-2,0"/><path class="cls-5" d="M159.1,69.11l6.36-3.7a.6.6,0,0,0,0-1.14l-6.7-3.87a2.16,2.16,0,0,0-2,0l-6.36,3.7a.6.6,0,0,0,0,1.14l6.7,3.87a2.17,2.17,0,0,0,2,0"/><path class="cls-5" d="M168.46,74.51l6.36-3.7a.6.6,0,0,0,0-1.14l-6.7-3.87a2.16,2.16,0,0,0-2,0l-6.36,3.7a.6.6,0,0,0,0,1.14l6.7,3.87a2.16,2.16,0,0,0,2,0"/><path class="cls-5" d="M92.63,52.91l6.7,3.87a2.16,2.16,0,0,0,2,0l6.36-3.7a.6.6,0,0,0,0-1.14l-6.7-3.87a2.16,2.16,0,0,0-2,0l-6.36,3.7a.6.6,0,0,0,0,1.14"/><path class="cls-5" d="M192.11,98.65l6.36-3.7a.6.6,0,0,0,0-1.14l-6.7-3.87a2.16,2.16,0,0,0-2,0l-6.36,3.7a.6.6,0,0,0,0,1.14l6.7,3.87a2.16,2.16,0,0,0,2,0"/><path class="cls-5" d="M164.78,114.53l6.36-3.7a.6.6,0,0,0,0-1.14l-6.7-3.87a2.16,2.16,0,0,0-2,0l-6.36,3.7a.6.6,0,0,0,0,1.14l6.7,3.87a2.16,2.16,0,0,0,2,0"/><path class="cls-5" d="M89.93,40.79l6.7,3.87a2.16,2.16,0,0,0,2,0L105,41a.6.6,0,0,0,0-1.14L98.25,36a2.16,2.16,0,0,0-2,0l-6.36,3.7a.6.6,0,0,0,0,1.14"/><path class="cls-5" d="M123.66,50.63,117,46.76a2.16,2.16,0,0,0-2,0l-6.36,3.7a.6.6,0,0,0,0,1.14l6.7,3.87a2.16,2.16,0,0,0,2,0l6.36-3.7a.6.6,0,0,0,0-1.14"/><path class="cls-5" d="M161.09,72.24l-6.7-3.87a2.16,2.16,0,0,0-2,0l-6.36,3.7a.6.6,0,0,0,0,1.14l6.7,3.87a2.16,2.16,0,0,0,2,0l6.36-3.7a.6.6,0,0,0,0-1.14"/><path class="cls-5" d="M94.3,31.69a.6.6,0,0,0,0,1.14l6.7,3.87a2.16,2.16,0,0,0,2,0l6.36-3.7a.6.6,0,0,0,0-1.14L102.62,28a2.16,2.16,0,0,0-2,0l-6.36,3.7"/><path class="cls-5" d="M187.17,85.31l6.36-3.7a.6.6,0,0,0,0-1.14l-6.7-3.87a2.16,2.16,0,0,0-2,0l-6.36,3.7a.6.6,0,0,0,0,1.14l6.7,3.87a2.16,2.16,0,0,0,2,0"/><path class="cls-5" d="M140.39,58.3l6.36-3.7a.6.6,0,0,0,0-1.14L140,49.6a2.16,2.16,0,0,0-2,0l-6.36,3.7a.6.6,0,0,0,0,1.14l6.7,3.87a2.16,2.16,0,0,0,2,0"/><path class="cls-5" d="M155.43,109.13l6.36-3.7a.6.6,0,0,0,0-1.14l-6.7-3.87a2.16,2.16,0,0,0-2,0l-6.36,3.7a.6.6,0,0,0,0,1.14l6.7,3.87a2.16,2.16,0,0,0,2,0"/><path class="cls-5" d="M89.62,42.68l-6.36,3.7a.6.6,0,0,0,0,1.14L90,51.38a2.16,2.16,0,0,0,2,0l6.36-3.7a.6.6,0,0,0,0-1.14l-6.7-3.87a2.16,2.16,0,0,0-2,0"/><path class="cls-5" d="M102,58.31l6.7,3.87a2.16,2.16,0,0,0,2,0l6.36-3.7a.6.6,0,0,0,0-1.14l-6.7-3.87a2.16,2.16,0,0,0-2,0L102,57.18a.6.6,0,0,0,0,1.14"/><path class="cls-5" d="M120.7,69.12l6.7,3.87a2.16,2.16,0,0,0,2,0l6.36-3.7a.6.6,0,0,0,0-1.14L129,64.29a2.16,2.16,0,0,0-2,0L120.69,68a.6.6,0,0,0,0,1.14"/><path class="cls-5" d="M139.41,79.92l6.7,3.87a2.16,2.16,0,0,0,2,0l6.36-3.7a.6.6,0,0,0,0-1.14l-6.7-3.87a2.16,2.16,0,0,0-2,0l-6.36,3.7a.6.6,0,0,0,0,1.14"/><path class="cls-5" d="M148.77,85.32l6.7,3.87a2.16,2.16,0,0,0,2,0l6.36-3.7a.6.6,0,0,0,0-1.14l-6.7-3.87a2.16,2.16,0,0,0-2,0l-6.36,3.7a.6.6,0,0,0,0,1.14"/><path class="cls-5" d="M70.91,31.87l-6.36,3.7a.6.6,0,0,0,0,1.14l6.7,3.87a2.16,2.16,0,0,0,2,0l6.36-3.7a.6.6,0,0,0,0-1.14l-6.7-3.87a2.16,2.16,0,0,0-2,0"/><path class="cls-5" d="M66.45,39.9l-6.36,3.7a.6.6,0,0,0,0,1.14l6.59,3.81a2.17,2.17,0,0,0,2,0L75,44.85c.5-.29.55-.75.1-1.08l-6.7-3.87a2.17,2.17,0,0,0-2,0"/><path class="cls-5" d="M47.77,47l6.36-3.7a.6.6,0,0,0,0-1.14l-6.59-3.81a2.16,2.16,0,0,0-2,0L39.21,42a.6.6,0,0,0,0,1.14L45.8,47a2.16,2.16,0,0,0,2,0"/><path class="cls-5" d="M57.12,52.37l6.36-3.7a.6.6,0,0,0,0-1.14l-6.59-3.81a2.17,2.17,0,0,0-2,0l-6.36,3.7a.6.6,0,0,0,0,1.14l6.59,3.81a2.16,2.16,0,0,0,2,0"/><path class="cls-5" d="M38.41,41.57l6.36-3.7a.6.6,0,0,0,0-1.14l-6.59-3.81a2.16,2.16,0,0,0-2,0l-6.36,3.7a.6.6,0,0,0,0,1.14l6.59,3.81a2.16,2.16,0,0,0,2,0"/><path class="cls-5" d="M77.14,9.14l-2,1.14a.6.6,0,0,0,0,1.14L86.56,18a2.16,2.16,0,0,0,2,0l2-1.14a.6.6,0,0,0,0-1.14L79.1,9.14a2.16,2.16,0,0,0-2,0"/><path class="cls-5" d="M109.84,28l-2,1.14a.6.6,0,0,0,0,1.14l6.7,3.87a2.17,2.17,0,0,0,2,0l2-1.14a.6.6,0,0,0,0-1.14L111.8,28a2.16,2.16,0,0,0-2,0"/><path class="cls-5" d="M147.26,49.63l-2,1.14a.6.6,0,0,0,0,1.14l6.7,3.87a2.17,2.17,0,0,0,2,0l2-1.14a.6.6,0,0,0,0-1.14l-6.7-3.87a2.16,2.16,0,0,0-2,0"/><path class="cls-5" d="M128.55,38.83l-2,1.14a.6.6,0,0,0,0,1.14L133.3,45a2.17,2.17,0,0,0,2,0l2-1.14a.6.6,0,0,0,0-1.14l-6.7-3.87a2.16,2.16,0,0,0-2,0"/><path class="cls-5" d="M184.69,71.24l-2,1.14a.6.6,0,0,0,0,1.14l6.7,3.87a2.17,2.17,0,0,0,2,0l2-1.14a.6.6,0,0,0,0-1.14l-6.7-3.87a2.16,2.16,0,0,0-2,0"/><path class="cls-5" d="M166,60.44l-2,1.14a.6.6,0,0,0,0,1.14l6.7,3.87a2.17,2.17,0,0,0,2,0l2-1.14a.6.6,0,0,0,0-1.14l-6.7-3.87a2.16,2.16,0,0,0-2,0"/><path class="cls-5" d="M175.33,65.84l-2,1.14a.6.6,0,0,0,0,1.14l6.7,3.87a2.16,2.16,0,0,0,2,0l2-1.14a.6.6,0,0,0,0-1.14l-6.7-3.87a2.16,2.16,0,0,0-2,0"/><path class="cls-5" d="M100.48,22.62l-2,1.14a.6.6,0,0,0,0,1.14l6.7,3.87a2.16,2.16,0,0,0,2,0l2-1.14a.6.6,0,0,0,0-1.14l-6.7-3.87a2.16,2.16,0,0,0-2,0"/><path class="cls-5" d="M137.91,44.23l-2,1.14a.6.6,0,0,0,0,1.14l6.7,3.87a2.16,2.16,0,0,0,2,0l2-1.14a.6.6,0,0,0,0-1.14l-6.7-3.87a2.16,2.16,0,0,0-2,0"/><path class="cls-5" d="M91.12,17.22l-2,1.14a.6.6,0,0,0,0,1.14l6.7,3.87a2.16,2.16,0,0,0,2,0l2-1.14a.6.6,0,0,0,0-1.14l-6.7-3.87a2.16,2.16,0,0,0-2,0"/><path class="cls-5" d="M119.19,33.42l-2,1.14a.6.6,0,0,0,0,1.14l6.7,3.87a2.16,2.16,0,0,0,2,0l2-1.14a.6.6,0,0,0,0-1.14l-6.7-3.87a2.16,2.16,0,0,0-2,0"/><path class="cls-5" d="M210.11,88.18l2-1.14a.6.6,0,0,0,0-1.14L205.37,82a2.16,2.16,0,0,0-2,0l-2,1.14a.6.6,0,0,0,0,1.14l6.7,3.87a2.16,2.16,0,0,0,2,0"/><path class="cls-5" d="M156.62,55l-2,1.14a.6.6,0,0,0,0,1.14l6.7,3.87a2.16,2.16,0,0,0,2,0l2-1.14a.6.6,0,0,0,0-1.14L158.58,55a2.16,2.16,0,0,0-2,0"/><path class="cls-5" d="M194,76.64l-2,1.14a.6.6,0,0,0,0,1.14l6.7,3.87a2.17,2.17,0,0,0,2,0l2-1.14a.6.6,0,0,0,0-1.14L196,76.64a2.16,2.16,0,0,0-2,0"/></g></g></g></svg>