<svg xmlns="http://www.w3.org/2000/svg" xmlns:xlink="http://www.w3.org/1999/xlink" viewBox="0 0 459.98 459.98"><defs><style>.cls-1,.cls-5,.cls-8{fill:none;}.cls-1{clip-rule:evenodd;}.cls-2{fill:#334152;}.cls-10,.cls-2{stroke:#334152;}.cls-3{fill:#dea677;}.cls-4{fill:#f47421;stroke:#dea677;stroke-width:0.5px;}.cls-5,.cls-6,.cls-8,.cls-9{stroke:#c1836a;}.cls-5{stroke-width:8px;}.cls-5,.cls-6,.cls-9{fill-rule:evenodd;}.cls-6,.cls-9{fill:#796567;}.cls-6{stroke-width:2px;}.cls-7{clip-path:url(#clip-path);}.cls-8{stroke-width:0.75px;}.cls-9{stroke-width:5px;}.cls-10,.cls-11{fill:#48535e;}.cls-10{stroke-width:3px;}.cls-12{fill:url(#linear-gradient);}</style><clipPath id="clip-path"><path class="cls-1" d="M177.6,142.72V257.56c0,41.78,53.5,61.89,53.5,61.89s53.49-20.12,53.49-61.89V142.72l-53.5-7.05Z"/></clipPath><linearGradient id="linear-gradient" x1="232.32" y1="209.92" x2="263.02" y2="209.92" gradientUnits="userSpaceOnUse"><stop offset="0" stop-color="#231f20" stop-opacity="0.2"/><stop offset="0.99" stop-color="#231f20" stop-opacity="0"/></linearGradient></defs><title>metropolis-crest-on-sunset</title><g id="Layer_2" data-name="Layer 2"><g id="Logo"><g id="on_sunset"><rect id="black_bg" class="cls-2" x="0.5" y="0.5" width="458.98" height="458.98" rx="15" ry="15"/><g id="on_seahawks"><path class="cls-3" d="M135.2,368.37h1.14v15.84h-1V370.46h0l-3.67,8.8-3.67-8.8,0,0v13.71h-1V368.37H128l3.61,8.71Z"/><path class="cls-3" d="M158.06,369.25h-6.71v6.38h4.82v.88h-4.82v6.82h6.87v.88h-7.9V368.37h7.75Z"/><path class="cls-3" d="M180.67,369.25H176.1v15h-1v-15h-4.55v-.88h10.17Z"/><path class="cls-3" d="M194.16,368.37h3.76c2.66,0,4.2,1.78,4.2,4.36a4.47,4.47,0,0,1-3.06,4.4l4.27,7.08H202l-3.94-6.84h-2.9v6.84h-1Zm1,8.12h2.57c1.41,0,3.26-1.08,3.26-3.85,0-1.85-.88-3.39-3.1-3.39h-2.73Z"/><path class="cls-3" d="M214.93,376.29c0-3.61.44-8.23,4.71-8.23,4.66,0,4.64,5.54,4.64,8.23,0,6.73-2.11,8.23-4.64,8.23S214.93,383.07,214.93,376.29Zm4.71,7.35c2.11,0,3.54-1.65,3.54-7.35,0-5.9-1.52-7.35-3.54-7.35-2.29,0-3.61,1.89-3.61,7.35C216,382.21,217.65,383.64,219.63,383.64Z"/><path class="cls-3" d="M238.18,368.37h3.56c3.28,0,4.36,2.33,4.36,4.73,0,3.12-1.92,4.67-4.88,4.67h-2v6.45h-1Zm1,.88v7.63h1.85c2.77,0,3.94-1.52,3.94-3.76,0-3-1.58-3.87-3.19-3.87Z"/><path class="cls-3" d="M258.92,376.29c0-3.61.44-8.23,4.71-8.23,4.67,0,4.64,5.54,4.64,8.23,0,6.73-2.11,8.23-4.64,8.23S258.92,383.07,258.92,376.29Zm4.71,7.35c2.11,0,3.54-1.65,3.54-7.35,0-5.9-1.52-7.35-3.54-7.35-2.29,0-3.61,1.89-3.61,7.35C260,382.21,261.65,383.64,263.63,383.64Z"/><path class="cls-3" d="M283.74,383.33h7v.88h-8V368.37h1Z"/><path class="cls-3" d="M310.29,369.25h-2.2v14.08h2.2v.88h-5.43v-.88h2.2V369.25h-2.2v-.88h5.43Z"/><path class="cls-3" d="M333.09,370.62a5.48,5.48,0,0,0-3.48-1.67,2.77,2.77,0,0,0-2.93,2.77c0,1.23.55,2,2.49,3.24l1.3.79c2.51,1.52,3.65,2.42,3.65,4.38a4.15,4.15,0,0,1-4.49,4.4,5.49,5.49,0,0,1-4.47-2.33l.79-.64a4.55,4.55,0,0,0,3.67,2.09,3.28,3.28,0,0,0,3.39-3.26c0-1.5-.18-2.07-3.1-3.81l-1.47-.88c-1.52-.9-2.86-2-2.86-3.87,0-2.38,1.8-3.76,4.09-3.76a6.22,6.22,0,0,1,4,1.78Z"/><g id="Rule_Line"><line class="cls-4" x1="108.99" y1="349.71" x2="350.99" y2="349.71"/><circle class="cls-3" cx="108.99" cy="349.71" r="2.76"/><circle class="cls-3" cx="350.99" cy="349.71" r="2.76"/><circle class="cls-2" cx="108.99" cy="349.71" r="1.69"/><circle class="cls-2" cx="350.99" cy="349.71" r="1.69"/></g><g id="Insignia"><path id="Spaceneedle" class="cls-3" d="M261.5,120.61l-3.62-2,.77-4.11,10.53-2.3-7.11-2.72.84-3.21a83.37,83.37,0,0,0-22.65-7.74V96l2.86-4.6h-3.41V88.33h-5.86V85H233l-1.19-22-.71-.91-.71.91L229.2,85h-.84v3.35H222.5V91.4h-3.42l2.86,4.6v2.51a83.37,83.37,0,0,0-22.65,7.74l.84,3.21L193,112.17l10.53,2.3.77,4.11-3.62,2s3.88,2.76,11.54,4.59l8.68,50.88-.08.09v25.55h20.53V176.16l-.13-.14,8.67-50.81C257.61,123.38,261.5,120.61,261.5,120.61Zm-35.19,41.61-2.63-35.51c.85,0,1.73.05,2.63.05Zm9.56-35.45c.88,0,1.73,0,2.57-.05l-2.57,34.7Zm-21.29-1.07a59.71,59.71,0,0,0,6.86.89l3.35,45.25-2,2.15Zm24.74,48.24-2-2.16,3.35-45.18a59.58,59.58,0,0,0,6.86-.88Z"/><path id="Main_Outline" class="cls-5" d="M168.41,153V259.76c0,47.54,62.69,70.42,62.69,70.42s62.68-22.89,62.68-70.42V153H168.41Z"/><path id="Narrow_Shield" class="cls-6" d="M177.6,142.72V257.56c0,41.78,53.5,61.89,53.5,61.89s53.49-20.12,53.49-61.89V142.72l-53.5-7.05Z"/><g id="Honeycomb"><g class="cls-7"><polygon class="cls-8" points="163.03 226.84 170.49 222.53 177.95 226.84 177.95 235.45 170.49 239.76 163.03 235.45 163.03 226.84"/><polygon class="cls-8" points="163.03 257.42 170.5 253.12 177.95 257.42 177.95 266.04 170.5 270.34 163.03 266.04 163.03 257.42"/><polygon class="cls-8" points="163.03 288.01 170.49 283.7 177.95 288.01 177.95 296.62 170.49 300.93 163.03 296.62 163.03 288.01"/><polygon class="cls-8" points="163.03 196.26 170.49 191.95 177.95 196.26 177.95 204.87 170.49 209.18 163.03 204.87 163.03 196.26"/><polygon class="cls-8" points="215.21 288.01 222.67 283.7 230.13 288.01 230.13 296.62 222.67 300.93 215.21 296.62 215.21 288.01"/><polygon class="cls-8" points="215.21 196.26 222.67 191.95 230.13 196.26 230.13 204.87 222.67 209.18 215.21 204.87 215.21 196.26"/><polygon class="cls-8" points="215.21 257.42 222.67 253.12 230.13 257.42 230.13 266.04 222.67 270.34 215.21 266.04 215.21 257.42"/><polygon class="cls-8" points="215.21 226.84 222.67 222.53 230.13 226.84 230.13 235.45 222.67 239.76 215.21 235.45 215.21 226.84"/><polygon class="cls-8" points="258.69 211.3 266.15 206.99 273.61 211.3 273.61 219.91 266.15 224.22 258.69 219.91 258.69 211.3"/><polygon class="cls-8" points="258.69 303.05 266.15 298.74 273.61 303.05 273.61 311.66 266.15 315.97 258.69 311.66 258.69 303.05"/><polygon class="cls-8" points="258.69 272.46 266.15 268.16 273.61 272.46 273.61 281.08 266.15 285.39 258.69 281.08 258.69 272.46"/><polygon class="cls-8" points="258.69 180.72 266.15 176.41 273.61 180.72 273.61 189.33 266.15 193.63 258.69 189.33 258.69 180.72"/><polygon class="cls-8" points="258.69 241.88 266.15 237.57 273.61 241.88 273.61 250.5 266.15 254.8 258.69 250.5 258.69 241.88"/><polygon class="cls-8" points="197.82 226.84 205.28 222.53 212.74 226.84 212.74 235.45 205.28 239.76 197.82 235.45 197.82 226.84"/><polygon class="cls-8" points="197.82 257.42 205.28 253.12 212.74 257.42 212.74 266.04 205.28 270.34 197.82 266.04 197.82 257.42"/><polygon class="cls-8" points="197.82 196.26 205.28 191.95 212.74 196.26 212.74 204.87 205.28 209.18 197.82 204.87 197.82 196.26"/><polygon class="cls-8" points="197.82 288.01 205.28 283.7 212.74 288.01 212.74 296.62 205.28 300.93 197.82 296.62 197.82 288.01"/><polygon class="cls-8" points="276.08 180.72 283.54 176.41 291 180.72 291 189.33 283.54 193.63 276.08 189.33 276.08 180.72"/><polygon class="cls-8" points="276.08 241.88 283.54 237.57 291 241.88 291 250.5 283.54 254.8 276.08 250.5 276.08 241.88"/><polygon class="cls-8" points="276.08 211.3 283.54 206.99 291 211.3 291 219.91 283.54 224.22 276.08 219.91 276.08 211.3"/><polygon class="cls-8" points="276.08 272.46 283.54 268.16 291 272.46 291 281.08 283.54 285.39 276.08 281.08 276.08 272.46"/><polygon class="cls-8" points="276.08 303.05 283.54 298.74 291 303.05 291 311.66 283.54 315.97 276.08 311.66 276.08 303.05"/><polygon class="cls-8" points="180.43 226.84 187.89 222.53 195.34 226.84 195.34 235.45 187.89 239.76 180.43 235.45 180.43 226.84"/><polygon class="cls-8" points="180.43 257.42 187.88 253.12 195.34 257.42 195.34 266.04 187.88 270.34 180.43 266.04 180.43 257.42"/><polygon class="cls-8" points="180.43 288.01 187.88 283.7 195.34 288.01 195.34 296.62 187.88 300.93 180.43 296.62 180.43 288.01"/><polygon class="cls-8" points="180.43 196.26 187.89 191.95 195.34 196.26 195.34 204.87 187.89 209.18 180.43 204.87 180.43 196.26"/><polygon class="cls-8" points="232.6 196.26 240.06 191.95 247.52 196.26 247.52 204.87 240.06 209.18 232.6 204.87 232.6 196.26"/><polygon class="cls-8" points="232.6 288.01 240.06 283.7 247.52 288.01 247.52 296.62 240.06 300.93 232.6 296.62 232.6 288.01"/><polygon class="cls-8" points="232.6 257.42 240.06 253.12 247.52 257.42 247.52 266.04 240.06 270.34 232.6 266.04 232.6 257.42"/><polygon class="cls-8" points="232.6 226.84 240.06 222.53 247.52 226.84 247.52 235.45 240.06 239.76 232.6 235.45 232.6 226.84"/><polygon class="cls-8" points="284.77 288.01 292.23 283.7 299.69 288.01 299.69 296.62 292.23 300.93 284.77 296.62 284.77 288.01"/><polygon class="cls-8" points="284.77 196.26 292.23 191.95 299.69 196.26 299.69 204.87 292.23 209.18 284.77 204.87 284.77 196.26"/><polygon class="cls-8" points="284.77 226.84 292.23 222.53 299.69 226.84 299.69 235.45 292.23 239.76 284.77 235.45 284.77 226.84"/><polygon class="cls-8" points="284.77 257.42 292.23 253.12 299.69 257.42 299.69 266.04 292.23 270.34 284.77 266.04 284.77 257.42"/><polygon class="cls-8" points="249.99 196.26 257.45 191.95 264.91 196.26 264.91 204.87 257.45 209.18 249.99 204.87 249.99 196.26"/><polygon class="cls-8" points="249.99 226.84 257.45 222.53 264.91 226.84 264.91 235.45 257.45 239.76 249.99 235.45 249.99 226.84"/><polygon class="cls-8" points="249.99 288.01 257.45 283.7 264.91 288.01 264.91 296.62 257.45 300.93 249.99 296.62 249.99 288.01"/><polygon class="cls-8" points="249.99 257.42 257.45 253.12 264.91 257.42 264.91 266.04 257.45 270.34 249.99 266.04 249.99 257.42"/><polygon class="cls-8" points="267.38 257.42 274.84 253.12 282.3 257.42 282.3 266.04 274.84 270.34 267.38 266.04 267.38 257.42"/><polygon class="cls-8" points="267.38 196.26 274.84 191.95 282.3 196.26 282.3 204.87 274.84 209.18 267.38 204.87 267.38 196.26"/><polygon class="cls-8" points="267.38 226.84 274.84 222.53 282.3 226.84 282.3 235.45 274.84 239.76 267.38 235.45 267.38 226.84"/><polygon class="cls-8" points="267.38 288.01 274.84 283.7 282.3 288.01 282.3 296.62 274.84 300.93 267.38 296.62 267.38 288.01"/><polygon class="cls-8" points="223.9 241.88 231.36 237.57 238.82 241.88 238.82 250.5 231.36 254.8 223.9 250.5 223.9 241.88"/><polygon class="cls-8" points="223.9 211.3 231.36 206.99 238.82 211.3 238.82 219.91 231.36 224.22 223.9 219.91 223.9 211.3"/><polygon class="cls-8" points="223.9 180.72 231.36 176.41 238.82 180.72 238.82 189.33 231.36 193.63 223.9 189.33 223.9 180.72"/><polygon class="cls-8" points="223.9 303.05 231.36 298.74 238.82 303.05 238.82 311.66 231.36 315.97 223.9 311.66 223.9 303.05"/><polygon class="cls-8" points="223.9 272.46 231.36 268.16 238.82 272.46 238.82 281.08 231.36 285.39 223.9 281.08 223.9 272.46"/><polygon class="cls-8" points="189.12 180.72 196.58 176.41 204.04 180.72 204.04 189.33 196.58 193.63 189.12 189.33 189.12 180.72"/><polygon class="cls-8" points="189.12 303.05 196.58 298.74 204.04 303.05 204.04 311.66 196.58 315.97 189.12 311.66 189.12 303.05"/><polygon class="cls-8" points="189.12 211.3 196.58 206.99 204.04 211.3 204.04 219.91 196.58 224.22 189.12 219.91 189.12 211.3"/><polygon class="cls-8" points="189.12 241.88 196.58 237.57 204.04 241.88 204.04 250.5 196.58 254.8 189.12 250.5 189.12 241.88"/><polygon class="cls-8" points="189.12 272.46 196.58 268.16 204.04 272.46 204.04 281.08 196.58 285.39 189.12 281.08 189.12 272.46"/><polygon class="cls-8" points="154.34 180.72 161.8 176.41 169.26 180.72 169.26 189.33 161.8 193.63 154.34 189.33 154.34 180.72"/><polygon class="cls-8" points="154.34 303.05 161.8 298.74 169.26 303.05 169.26 311.66 161.8 315.97 154.34 311.66 154.34 303.05"/><polygon class="cls-8" points="154.34 211.3 161.8 206.99 169.26 211.3 169.26 219.91 161.8 224.22 154.34 219.91 154.34 211.3"/><polygon class="cls-8" points="154.34 241.88 161.8 237.57 169.26 241.88 169.26 250.5 161.8 254.8 154.34 250.5 154.34 241.88"/><polygon class="cls-8" points="154.34 272.46 161.8 268.16 169.26 272.46 169.26 281.08 161.8 285.39 154.34 281.08 154.34 272.46"/><polygon class="cls-8" points="241.29 272.46 248.75 268.16 256.21 272.46 256.21 281.08 248.75 285.39 241.29 281.08 241.29 272.46"/><polygon class="cls-8" points="241.29 241.88 248.75 237.57 256.21 241.88 256.21 250.5 248.75 254.8 241.29 250.5 241.29 241.88"/><polygon class="cls-8" points="241.29 211.3 248.75 206.99 256.21 211.3 256.21 219.91 248.75 224.22 241.29 219.91 241.29 211.3"/><polygon class="cls-8" points="241.29 180.72 248.75 176.41 256.21 180.72 256.21 189.33 248.75 193.63 241.29 189.33 241.29 180.72"/><polygon class="cls-8" points="241.29 303.05 248.75 298.74 256.21 303.05 256.21 311.66 248.75 315.97 241.29 311.66 241.29 303.05"/><polygon class="cls-8" points="206.51 272.46 213.97 268.16 221.43 272.46 221.43 281.08 213.97 285.39 206.51 281.08 206.51 272.46"/><polygon class="cls-8" points="206.51 180.72 213.97 176.41 221.43 180.72 221.43 189.33 213.97 193.63 206.51 189.33 206.51 180.72"/><polygon class="cls-8" points="206.51 211.3 213.97 206.99 221.43 211.3 221.43 219.91 213.97 224.22 206.51 219.91 206.51 211.3"/><polygon class="cls-8" points="206.51 241.88 213.97 237.57 221.43 241.88 221.43 250.5 213.97 254.8 206.51 250.5 206.51 241.88"/><polygon class="cls-8" points="206.51 303.05 213.97 298.74 221.43 303.05 221.43 311.66 213.97 315.97 206.51 311.66 206.51 303.05"/><polygon class="cls-8" points="171.73 211.3 179.19 206.99 186.65 211.3 186.65 219.91 179.19 224.22 171.73 219.91 171.73 211.3"/><polygon class="cls-8" points="171.73 180.72 179.19 176.41 186.65 180.72 186.65 189.33 179.19 193.63 171.73 189.33 171.73 180.72"/><polygon class="cls-8" points="171.73 272.46 179.19 268.16 186.65 272.46 186.65 281.08 179.19 285.39 171.73 281.08 171.73 272.46"/><polygon class="cls-8" points="171.73 241.88 179.19 237.57 186.65 241.88 186.65 250.5 179.19 254.8 171.73 250.5 171.73 241.88"/><polygon class="cls-8" points="171.73 303.05 179.19 298.74 186.65 303.05 186.65 311.66 179.19 315.97 171.73 311.66 171.73 303.05"/></g></g><path id="Main_Shield" class="cls-9" d="M154.55,163.9l19,113.39H288.64l20-113.39-77.54-17Z"/><g id="Banner"><path class="cls-10" d="M163.93,254.36s68.31,22.59,134.34,0l6.11,25.2s-67.55,26.72-145.61,0Z"/><path class="cls-11" d="M161,261.33l-3.82,18.87,10.57,3.12s-9.47-1.15-22.34,7.21c0,0,1.55-9.25,4.31-14.9,0,0-7.64-4.44-8.43-6.35C141.33,269.28,146,263.66,161,261.33Z"/><path class="cls-11" d="M301.72,261.57,306,280.44l-10.58,3.12s20.32,1.71,25.57-3.2a22.81,22.81,0,0,1-7.6-8.63s8.49-6.6,8.49-12.21C321.87,259.52,312,264.13,301.72,261.57Z"/></g><g id="M"><path class="cls-3" d="M192.83,173.27,231.3,201.4l38.35-28.13-2,73.3H246.24V220.19l-14.95,11-15.06-11v26.38H194.83Z"/></g><g id="M-2" data-name="M"><path class="cls-12" d="M231.3,201.4l38.35-28.13-2,73.3H246.24V220.19l-14.95,11Z"/></g></g></g></g></g></g></svg>