<svg xmlns="http://www.w3.org/2000/svg" xmlns:xlink="http://www.w3.org/1999/xlink" viewBox="0 0 458.98 458.98"><defs><style>.cls-1,.cls-5,.cls-8{fill:none;}.cls-1{clip-rule:evenodd;}.cls-2{fill:#fee111;}.cls-3,.cls-6,.cls-9{fill:#171717;}.cls-4{fill:#f47421;stroke:#171717;stroke-width:0.5px;}.cls-5,.cls-6,.cls-8,.cls-9{stroke:#fff;}.cls-5{stroke-width:8px;}.cls-5,.cls-6,.cls-9{fill-rule:evenodd;}.cls-6{stroke-width:2px;}.cls-7{clip-path:url(#clip-path);}.cls-8{stroke-width:0.75px;}.cls-9{stroke-width:5px;}.cls-10,.cls-11{fill:#fff;}.cls-10{stroke:#fee111;stroke-width:3px;}.cls-12{fill:url(#linear-gradient);}</style><clipPath id="clip-path"><path class="cls-1" d="M177.1,142.22V257.06c0,41.78,53.5,61.89,53.5,61.89s53.49-20.12,53.49-61.89V142.22l-53.5-7.05Z"/></clipPath><linearGradient id="linear-gradient" x1="231.82" y1="209.42" x2="262.52" y2="209.42" gradientUnits="userSpaceOnUse"><stop offset="0" stop-color="#231f20" stop-opacity="0.2"/><stop offset="0.99" stop-color="#231f20" stop-opacity="0"/></linearGradient></defs><title>metropolis-crest-on-yellow</title><g id="Layer_2" data-name="Layer 2"><g id="Logo"><g id="on_yellow"><rect id="black_bg" class="cls-2" width="458.98" height="458.98" rx="15" ry="15"/><g id="on_black"><path class="cls-3" d="M134.7,367.87h1.14v15.84h-1V370h0l-3.67,8.8-3.67-8.8,0,0v13.71h-1V367.87h1.14l3.61,8.71Z"/><path class="cls-3" d="M157.56,368.75h-6.71v6.38h4.82V376h-4.82v6.82h6.87v.88h-7.9V367.87h7.75Z"/><path class="cls-3" d="M180.17,368.75H175.6v15h-1v-15H170v-.88h10.17Z"/><path class="cls-3" d="M193.66,367.87h3.76c2.66,0,4.2,1.78,4.2,4.36a4.47,4.47,0,0,1-3.06,4.4l4.27,7.08h-1.3l-3.94-6.84h-2.9v6.84h-1Zm1,8.12h2.57c1.41,0,3.26-1.08,3.26-3.85,0-1.85-.88-3.39-3.1-3.39h-2.73Z"/><path class="cls-3" d="M214.43,375.79c0-3.61.44-8.23,4.71-8.23,4.66,0,4.64,5.54,4.64,8.23,0,6.73-2.11,8.23-4.64,8.23S214.43,382.57,214.43,375.79Zm4.71,7.35c2.11,0,3.54-1.65,3.54-7.35,0-5.9-1.52-7.35-3.54-7.35-2.29,0-3.61,1.89-3.61,7.35C215.53,381.71,217.15,383.14,219.13,383.14Z"/><path class="cls-3" d="M237.68,367.87h3.56c3.28,0,4.36,2.33,4.36,4.73,0,3.12-1.92,4.67-4.88,4.67h-2v6.45h-1Zm1,.88v7.63h1.85c2.77,0,3.94-1.52,3.94-3.76,0-3-1.58-3.87-3.19-3.87Z"/><path class="cls-3" d="M258.42,375.79c0-3.61.44-8.23,4.71-8.23,4.67,0,4.64,5.54,4.64,8.23,0,6.73-2.11,8.23-4.64,8.23S258.42,382.57,258.42,375.79Zm4.71,7.35c2.11,0,3.54-1.65,3.54-7.35,0-5.9-1.52-7.35-3.54-7.35-2.29,0-3.61,1.89-3.61,7.35C259.52,381.71,261.15,383.14,263.13,383.14Z"/><path class="cls-3" d="M283.24,382.83h7v.88h-8V367.87h1Z"/><path class="cls-3" d="M309.79,368.75h-2.2v14.08h2.2v.88h-5.43v-.88h2.2V368.75h-2.2v-.88h5.43Z"/><path class="cls-3" d="M332.59,370.12a5.48,5.48,0,0,0-3.48-1.67,2.77,2.77,0,0,0-2.93,2.77c0,1.23.55,2,2.49,3.24l1.3.79c2.51,1.52,3.65,2.42,3.65,4.38a4.15,4.15,0,0,1-4.49,4.4,5.49,5.49,0,0,1-4.47-2.33l.79-.64a4.55,4.55,0,0,0,3.67,2.09,3.28,3.28,0,0,0,3.39-3.26c0-1.5-.18-2.07-3.1-3.81l-1.47-.88c-1.52-.9-2.86-2-2.86-3.87,0-2.38,1.8-3.76,4.09-3.76a6.22,6.22,0,0,1,4,1.78Z"/><g id="Rule_Line"><line class="cls-4" x1="108.49" y1="349.21" x2="350.49" y2="349.21"/><circle class="cls-3" cx="108.49" cy="349.21" r="2.76"/><circle class="cls-3" cx="350.49" cy="349.21" r="2.76"/><circle class="cls-2" cx="108.49" cy="349.21" r="1.69"/><circle class="cls-2" cx="350.49" cy="349.21" r="1.69"/></g><g id="Insignia"><path id="Spaceneedle" class="cls-3" d="M261,120.11l-3.62-2,.77-4.11,10.53-2.3L261.56,109l.84-3.21A83.37,83.37,0,0,0,239.74,98V95.5l2.86-4.6h-3.41V87.83h-5.86V84.49h-.84l-1.19-22-.71-.91-.71.91-1.18,22h-.84v3.35H222V90.9h-3.42l2.86,4.6V98a83.37,83.37,0,0,0-22.65,7.74l.84,3.21-7.11,2.72L203,114l.77,4.11-3.62,2s3.88,2.76,11.54,4.59l8.68,50.88-.08.09v25.55h20.53V175.66l-.13-.14,8.67-50.81C257.11,122.88,261,120.11,261,120.11Zm-35.19,41.61-2.63-35.51c.85,0,1.73.05,2.63.05Zm9.56-35.45c.88,0,1.73,0,2.57-.05l-2.57,34.7Zm-21.29-1.07a59.71,59.71,0,0,0,6.86.89l3.35,45.25-2,2.15Zm24.74,48.24-2-2.16,3.35-45.18a59.58,59.58,0,0,0,6.86-.88Z"/><path id="Main_Outline" class="cls-5" d="M167.91,152.45V259.26c0,47.54,62.69,70.42,62.69,70.42s62.68-22.89,62.68-70.42V152.45H167.91Z"/><path id="Narrow_Shield" class="cls-6" d="M177.1,142.22V257.06c0,41.78,53.5,61.89,53.5,61.89s53.49-20.12,53.49-61.89V142.22l-53.5-7.05Z"/><g id="Honeycomb"><g class="cls-7"><polygon class="cls-8" points="162.53 226.34 169.99 222.03 177.45 226.34 177.45 234.95 169.99 239.26 162.53 234.95 162.53 226.34"/><polygon class="cls-8" points="162.53 256.92 170 252.62 177.45 256.92 177.45 265.54 170 269.84 162.53 265.54 162.53 256.92"/><polygon class="cls-8" points="162.53 287.51 169.99 283.2 177.45 287.51 177.45 296.12 169.99 300.43 162.53 296.12 162.53 287.51"/><polygon class="cls-8" points="162.53 195.76 169.99 191.45 177.45 195.76 177.45 204.37 169.99 208.68 162.53 204.37 162.53 195.76"/><polygon class="cls-8" points="214.71 287.51 222.17 283.2 229.63 287.51 229.63 296.12 222.17 300.43 214.71 296.12 214.71 287.51"/><polygon class="cls-8" points="214.71 195.76 222.17 191.45 229.63 195.76 229.63 204.37 222.17 208.68 214.71 204.37 214.71 195.76"/><polygon class="cls-8" points="214.71 256.92 222.17 252.62 229.63 256.92 229.63 265.54 222.17 269.84 214.71 265.54 214.71 256.92"/><polygon class="cls-8" points="214.71 226.34 222.17 222.03 229.63 226.34 229.63 234.95 222.17 239.26 214.71 234.95 214.71 226.34"/><polygon class="cls-8" points="258.19 210.8 265.65 206.49 273.11 210.8 273.11 219.41 265.65 223.72 258.19 219.41 258.19 210.8"/><polygon class="cls-8" points="258.19 302.55 265.65 298.24 273.11 302.55 273.11 311.16 265.65 315.47 258.19 311.16 258.19 302.55"/><polygon class="cls-8" points="258.19 271.96 265.65 267.66 273.11 271.96 273.11 280.58 265.65 284.89 258.19 280.58 258.19 271.96"/><polygon class="cls-8" points="258.19 180.22 265.65 175.91 273.11 180.22 273.11 188.83 265.65 193.13 258.19 188.83 258.19 180.22"/><polygon class="cls-8" points="258.19 241.38 265.65 237.07 273.11 241.38 273.11 250 265.65 254.3 258.19 250 258.19 241.38"/><polygon class="cls-8" points="197.32 226.34 204.78 222.03 212.24 226.34 212.24 234.95 204.78 239.26 197.32 234.95 197.32 226.34"/><polygon class="cls-8" points="197.32 256.92 204.78 252.62 212.24 256.92 212.24 265.54 204.78 269.84 197.32 265.54 197.32 256.92"/><polygon class="cls-8" points="197.32 195.76 204.78 191.45 212.24 195.76 212.24 204.37 204.78 208.68 197.32 204.37 197.32 195.76"/><polygon class="cls-8" points="197.32 287.51 204.78 283.2 212.24 287.51 212.24 296.12 204.78 300.43 197.32 296.12 197.32 287.51"/><polygon class="cls-8" points="275.58 180.22 283.04 175.91 290.5 180.22 290.5 188.83 283.04 193.13 275.58 188.83 275.58 180.22"/><polygon class="cls-8" points="275.58 241.38 283.04 237.07 290.5 241.38 290.5 250 283.04 254.3 275.58 250 275.58 241.38"/><polygon class="cls-8" points="275.58 210.8 283.04 206.49 290.5 210.8 290.5 219.41 283.04 223.72 275.58 219.41 275.58 210.8"/><polygon class="cls-8" points="275.58 271.96 283.04 267.66 290.5 271.96 290.5 280.58 283.04 284.89 275.58 280.58 275.58 271.96"/><polygon class="cls-8" points="275.58 302.55 283.04 298.24 290.5 302.55 290.5 311.16 283.04 315.47 275.58 311.16 275.58 302.55"/><polygon class="cls-8" points="179.93 226.34 187.39 222.03 194.84 226.34 194.84 234.95 187.39 239.26 179.93 234.95 179.93 226.34"/><polygon class="cls-8" points="179.93 256.92 187.38 252.62 194.84 256.92 194.84 265.54 187.38 269.84 179.93 265.54 179.93 256.92"/><polygon class="cls-8" points="179.93 287.51 187.38 283.2 194.84 287.51 194.84 296.12 187.38 300.43 179.93 296.12 179.93 287.51"/><polygon class="cls-8" points="179.93 195.76 187.39 191.45 194.84 195.76 194.84 204.37 187.39 208.68 179.93 204.37 179.93 195.76"/><polygon class="cls-8" points="232.1 195.76 239.56 191.45 247.02 195.76 247.02 204.37 239.56 208.68 232.1 204.37 232.1 195.76"/><polygon class="cls-8" points="232.1 287.51 239.56 283.2 247.02 287.51 247.02 296.12 239.56 300.43 232.1 296.12 232.1 287.51"/><polygon class="cls-8" points="232.1 256.92 239.56 252.62 247.02 256.92 247.02 265.54 239.56 269.84 232.1 265.54 232.1 256.92"/><polygon class="cls-8" points="232.1 226.34 239.56 222.03 247.02 226.34 247.02 234.95 239.56 239.26 232.1 234.95 232.1 226.34"/><polygon class="cls-8" points="284.27 287.51 291.73 283.2 299.19 287.51 299.19 296.12 291.73 300.43 284.27 296.12 284.27 287.51"/><polygon class="cls-8" points="284.27 195.76 291.73 191.45 299.19 195.76 299.19 204.37 291.73 208.68 284.27 204.37 284.27 195.76"/><polygon class="cls-8" points="284.27 226.34 291.73 222.03 299.19 226.34 299.19 234.95 291.73 239.26 284.27 234.95 284.27 226.34"/><polygon class="cls-8" points="284.27 256.92 291.73 252.62 299.19 256.92 299.19 265.54 291.73 269.84 284.27 265.54 284.27 256.92"/><polygon class="cls-8" points="249.49 195.76 256.95 191.45 264.41 195.76 264.41 204.37 256.95 208.68 249.49 204.37 249.49 195.76"/><polygon class="cls-8" points="249.49 226.34 256.95 222.03 264.41 226.34 264.41 234.95 256.95 239.26 249.49 234.95 249.49 226.34"/><polygon class="cls-8" points="249.49 287.51 256.95 283.2 264.41 287.51 264.41 296.12 256.95 300.43 249.49 296.12 249.49 287.51"/><polygon class="cls-8" points="249.49 256.92 256.95 252.62 264.41 256.92 264.41 265.54 256.95 269.84 249.49 265.54 249.49 256.92"/><polygon class="cls-8" points="266.88 256.92 274.34 252.62 281.8 256.92 281.8 265.54 274.34 269.84 266.88 265.54 266.88 256.92"/><polygon class="cls-8" points="266.88 195.76 274.34 191.45 281.8 195.76 281.8 204.37 274.34 208.68 266.88 204.37 266.88 195.76"/><polygon class="cls-8" points="266.88 226.34 274.34 222.03 281.8 226.34 281.8 234.95 274.34 239.26 266.88 234.95 266.88 226.34"/><polygon class="cls-8" points="266.88 287.51 274.34 283.2 281.8 287.51 281.8 296.12 274.34 300.43 266.88 296.12 266.88 287.51"/><polygon class="cls-8" points="223.4 241.38 230.86 237.07 238.32 241.38 238.32 250 230.86 254.3 223.4 250 223.4 241.38"/><polygon class="cls-8" points="223.4 210.8 230.86 206.49 238.32 210.8 238.32 219.41 230.86 223.72 223.4 219.41 223.4 210.8"/><polygon class="cls-8" points="223.4 180.22 230.86 175.91 238.32 180.22 238.32 188.83 230.86 193.13 223.4 188.83 223.4 180.22"/><polygon class="cls-8" points="223.4 302.55 230.86 298.24 238.32 302.55 238.32 311.16 230.86 315.47 223.4 311.16 223.4 302.55"/><polygon class="cls-8" points="223.4 271.96 230.86 267.66 238.32 271.96 238.32 280.58 230.86 284.89 223.4 280.58 223.4 271.96"/><polygon class="cls-8" points="188.62 180.22 196.08 175.91 203.54 180.22 203.54 188.83 196.08 193.13 188.62 188.83 188.62 180.22"/><polygon class="cls-8" points="188.62 302.55 196.08 298.24 203.54 302.55 203.54 311.16 196.08 315.47 188.62 311.16 188.62 302.55"/><polygon class="cls-8" points="188.62 210.8 196.08 206.49 203.54 210.8 203.54 219.41 196.08 223.72 188.62 219.41 188.62 210.8"/><polygon class="cls-8" points="188.62 241.38 196.08 237.07 203.54 241.38 203.54 250 196.08 254.3 188.62 250 188.62 241.38"/><polygon class="cls-8" points="188.62 271.96 196.08 267.66 203.54 271.96 203.54 280.58 196.08 284.89 188.62 280.58 188.62 271.96"/><polygon class="cls-8" points="153.84 180.22 161.3 175.91 168.76 180.22 168.76 188.83 161.3 193.13 153.84 188.83 153.84 180.22"/><polygon class="cls-8" points="153.84 302.55 161.3 298.24 168.76 302.55 168.76 311.16 161.3 315.47 153.84 311.16 153.84 302.55"/><polygon class="cls-8" points="153.84 210.8 161.3 206.49 168.76 210.8 168.76 219.41 161.3 223.72 153.84 219.41 153.84 210.8"/><polygon class="cls-8" points="153.84 241.38 161.3 237.07 168.76 241.38 168.76 250 161.3 254.3 153.84 250 153.84 241.38"/><polygon class="cls-8" points="153.84 271.96 161.3 267.66 168.76 271.96 168.76 280.58 161.3 284.89 153.84 280.58 153.84 271.96"/><polygon class="cls-8" points="240.79 271.96 248.25 267.66 255.72 271.96 255.72 280.58 248.25 284.89 240.79 280.58 240.79 271.96"/><polygon class="cls-8" points="240.79 241.38 248.25 237.07 255.72 241.38 255.72 250 248.25 254.3 240.79 250 240.79 241.38"/><polygon class="cls-8" points="240.79 210.8 248.25 206.49 255.71 210.8 255.71 219.41 248.25 223.72 240.79 219.41 240.79 210.8"/><polygon class="cls-8" points="240.79 180.22 248.25 175.91 255.72 180.22 255.72 188.83 248.25 193.13 240.79 188.83 240.79 180.22"/><polygon class="cls-8" points="240.79 302.55 248.25 298.24 255.71 302.55 255.71 311.16 248.25 315.47 240.79 311.16 240.79 302.55"/><polygon class="cls-8" points="206.01 271.96 213.47 267.66 220.93 271.96 220.93 280.58 213.47 284.89 206.01 280.58 206.01 271.96"/><polygon class="cls-8" points="206.01 180.22 213.47 175.91 220.93 180.22 220.93 188.83 213.47 193.13 206.01 188.83 206.01 180.22"/><polygon class="cls-8" points="206.01 210.8 213.47 206.49 220.93 210.8 220.93 219.41 213.47 223.72 206.01 219.41 206.01 210.8"/><polygon class="cls-8" points="206.01 241.38 213.47 237.07 220.93 241.38 220.93 250 213.47 254.3 206.01 250 206.01 241.38"/><polygon class="cls-8" points="206.01 302.55 213.47 298.24 220.93 302.55 220.93 311.16 213.47 315.47 206.01 311.16 206.01 302.55"/><polygon class="cls-8" points="171.23 210.8 178.69 206.49 186.15 210.8 186.15 219.41 178.69 223.72 171.23 219.41 171.23 210.8"/><polygon class="cls-8" points="171.23 180.22 178.69 175.91 186.15 180.22 186.15 188.83 178.69 193.13 171.23 188.83 171.23 180.22"/><polygon class="cls-8" points="171.23 271.96 178.69 267.66 186.15 271.96 186.15 280.58 178.69 284.89 171.23 280.58 171.23 271.96"/><polygon class="cls-8" points="171.23 241.38 178.69 237.07 186.15 241.38 186.15 250 178.69 254.3 171.23 250 171.23 241.38"/><polygon class="cls-8" points="171.23 302.55 178.69 298.24 186.15 302.55 186.15 311.16 178.69 315.47 171.23 311.16 171.23 302.55"/></g></g><path id="Main_Shield" class="cls-9" d="M154.05,163.4l19,113.39H288.14l20-113.39-77.54-17Z"/><g id="Banner"><path class="cls-10" d="M163.43,253.86s68.31,22.59,134.34,0l6.11,25.2s-67.55,26.72-145.61,0Z"/><path class="cls-11" d="M160.52,260.83l-3.82,18.87,10.57,3.12s-9.47-1.15-22.34,7.21c0,0,1.55-9.25,4.31-14.9,0,0-7.64-4.44-8.43-6.35C140.83,268.78,145.52,263.16,160.52,260.83Z"/><path class="cls-11" d="M301.22,261.07l4.27,18.87-10.58,3.12s20.32,1.71,25.57-3.2a22.81,22.81,0,0,1-7.6-8.63s8.49-6.6,8.49-12.21C321.37,259,311.54,263.63,301.22,261.07Z"/></g><g id="M"><path class="cls-2" d="M192.33,172.77,230.8,200.9l38.35-28.13-2,73.3H245.74V219.69l-14.95,11-15.06-11v26.38H194.33Z"/></g><g id="M-2" data-name="M"><path class="cls-12" d="M230.8,200.9l38.35-28.13-2,73.3H245.74V219.69l-14.95,11Z"/></g></g></g></g></g></g></svg>