<svg xmlns="http://www.w3.org/2000/svg" viewBox="0 0 341.13 448.62"><defs><style>.cls-1{opacity:0.11;}.cls-2{fill:#020202;}.cls-3{fill:#858585;}.cls-4{fill:#e6e6e6;}.cls-5{fill:#d1d3d4;stroke:#919191;}.cls-5,.cls-8{stroke-miterlimit:10;}.cls-6{fill:#414042;}.cls-7{fill:none;}.cls-8{fill:#bbbcbd;stroke:#5e5e5e;}.cls-9{fill:#767578;}</style></defs><title>monitor</title><g id="Layer_2" data-name="Layer 2"><g id="_2D_Desktop" data-name="2D Desktop"><g id="Monitor"><g class="cls-1"><path class="cls-2" d="M236.48,357.28c3.34,1.93,3.37,5.06,0,7L163,419.49a13.31,13.31,0,0,1-12.07,0L70.15,372.86c-3.34-1.93-3.36-5.06,0-7L163.35,322a13.29,13.29,0,0,1,12.07,0Z"/></g><path class="cls-3" d="M218.56,361c0,.07,0,.14,0,.2s0,.11,0,.17,0,.13-.06.19l-.07.16-.09.2-.09.14-.15.23-.17.22,0,0-.27.27-.2.16-.18.14-.23.16-.25.16-56,42.06a6.74,6.74,0,0,1-.61.31l-.19.08-.51.19-.19.06-.33.1-.26.07-.36.08-.25,0-.74.1-.23,0-.44,0h-.94l-.33,0-.3,0-.32,0-.29,0-.34-.06-.27-.05-.4-.1-.22-.06c-.24-.07-.47-.15-.7-.24l-.33-.14-.17-.07-.48-.25L90,370a3.25,3.25,0,0,1-1.92-2.68v3.82A3.25,3.25,0,0,0,90,373.78l61.51,35.52.48.25.17.07.29.13h0c.23.09.46.17.7.24l.06,0,.17,0,.4.1.11,0,.16,0,.34.06.14,0,.15,0,.32,0,.15,0h.15l.33,0h.94l.44,0h.23l.74-.1h0l.21,0,.36-.08.25-.07.34-.1.07,0,.11,0,.51-.19.19-.08a6.76,6.76,0,0,0,.61-.31l56-42.06.08,0,.17-.11.23-.16.18-.14.2-.17,0,0,.23-.24,0-.05.13-.15,0-.07.15-.23.06-.1,0,0c0-.07.07-.13.1-.2l.06-.12v0c0-.06,0-.13.06-.19s0-.09,0-.13v0c0-.07,0-.14,0-.21s0-.09,0-.13,0,0,0-.06v-3.82C218.58,360.83,218.57,360.9,218.56,361Z"/><path class="cls-4" d="M216.66,358.09c2.55,1.47,2.56,3.85,0,5.33l-56,42.06a10.14,10.14,0,0,1-9.2,0L90,370c-2.55-1.47-2.56-3.85,0-5.33l71-33.4a10.13,10.13,0,0,1,9.19,0Z"/><path class="cls-5" d="M.57,223.14.5,248.75c0,6.73,4.71,14.93,10.57,18.31L322.14,446.66c5.86,3.38,10.62.67,10.64-6.07l.07-25.61Z"/><path class="cls-2" d="M322.88,185.72c5.86,3.38,10.59,11.58,10.57,18.32L332.85,415,.57,223.14l.6-210.95C1.19,5.46,6,2.74,11.81,6.12ZM14.22,219.52l305,176.12.56-198.18L14.78,21.35l-.56,198.18"/><polygon class="cls-6" points="14.78 21.34 14.22 219.52 319.27 395.64 319.83 197.46 14.78 21.34"/><polygon class="cls-7" points="332.85 414.98 332.85 414.98 332.85 414.98 332.85 414.98"/><path class="cls-8" d="M11.44,1.21l.06,0,.07,0L12,1l.07,0,.06,0,.48-.17h0c.17,0,.35-.09.53-.12h.15l.48-.06h.1c.2,0,.41,0,.61,0h.14c.23,0,.47,0,.71.07h0a8.5,8.5,0,0,1,.88.19h.08l.57.18L17,1l.47.18.06,0,.12.05.51.23.19.09L19,2,330.05,181.55c.34.2.68.41,1,.64l.32.23.67.5.36.3.6.52.36.34.22.21.23.24q.36.37.71.75l.23.24.18.22.41.5.27.33.21.28.3.4.2.27.32.48.21.31.09.13q.28.44.55.9l0,.06.1.18.36.65.15.31.16.32.14.28c.12.25.23.5.34.75l.06.13,0,0q.21.47.39,1l.06.18.13.35c.06.16.12.32.17.48s.07.25.11.37l.13.44.08.27c0,.16.08.32.12.49s.09.36.13.54l0,.19c0,.13,0,.26.07.39.05.28.11.57.15.85,0,.08,0,.16,0,.23s0,.35.05.53,0,.25,0,.38c0,.39,0,.79,0,1.17L340,410.81h0L340,436.43c0,3.34-1.19,5.7-3.09,6.8l-3.59,2.09-3.59,2.09c1.9-1.11,3.09-3.46,3.09-6.8l.07-25.61h0l3.59-2.08h0l.6-210.95c0-.39,0-.78,0-1.17,0-.12,0-.25,0-.38s-.06-.51-.09-.76-.09-.56-.15-.85-.07-.39-.11-.58-.09-.36-.13-.54-.13-.5-.2-.76l-.13-.44q-.13-.42-.28-.85l-.13-.35c-.15-.39-.3-.78-.47-1.16l-.06-.13q-.23-.52-.48-1l-.16-.32q-.25-.48-.52-1l-.1-.19c-.21-.37-.44-.73-.67-1.09l-.21-.31-.52-.76-.3-.4-.48-.61-.41-.5-.4-.46q-.35-.39-.71-.75l-.45-.45-.36-.33-.6-.52-.36-.3-.67-.5-.32-.23c-.33-.23-.67-.45-1-.64L15.4,4l-.67-.36-.19-.09L14,3.35l-.18-.08-.47-.18-.11,0-.57-.18-.08,0a8.53,8.53,0,0,0-.88-.19h0c-.24,0-.48-.06-.71-.07h-.14c-.21,0-.41,0-.61,0h-.1l-.48.06-.15,0c-.18,0-.36.07-.53.12H9L8.51,3,8.37,3,8,3.23l-.13.07Z"/><path class="cls-2" d="M7.85,3.3l.06,0,.07,0L8.37,3l.07,0,.06,0L9,2.81H9c.17,0,.35-.09.53-.12h.15l.48-.06h.1c.2,0,.41,0,.61,0H11c.23,0,.47,0,.71.07h0a8.5,8.5,0,0,1,.88.19h.08l.57.18.12,0,.47.18.06,0,.12.05.51.23.19.09L15.4,4,326.47,183.63c.34.2.68.41,1,.64l.32.23.67.5.36.3.6.52.36.34.22.21.23.24q.36.37.71.75l.23.24.18.22.41.5.27.33.21.28.3.4.2.27.32.48.21.31.09.13q.28.44.55.9l0,.06.1.18.36.65.15.31.16.32.14.28c.12.25.23.5.34.75l.06.13,0,0q.21.47.39,1l.06.18.13.35c.06.16.12.32.17.48s.07.25.11.37l.13.44.08.27c0,.16.08.32.12.49s.09.36.13.54l0,.19c0,.13,0,.26.07.39.05.28.11.57.15.85,0,.08,0,.16,0,.23s0,.35.05.53,0,.25,0,.38c0,.39,0,.79,0,1.17l-.6,210.95L332.85,415l.6-210.95c0-.39,0-.78,0-1.17,0-.12,0-.25,0-.38s-.06-.51-.09-.76-.09-.56-.15-.85-.07-.39-.11-.58-.09-.36-.13-.54-.13-.5-.2-.76l-.13-.44q-.13-.42-.28-.85l-.13-.35c-.15-.39-.3-.78-.47-1.16l-.06-.13q-.23-.52-.48-1l-.16-.32q-.25-.48-.52-1l-.1-.19c-.21-.37-.44-.73-.67-1.09l-.21-.31-.52-.76-.3-.4-.48-.61-.41-.5-.4-.46q-.35-.39-.71-.75l-.45-.45-.36-.33-.6-.52-.36-.3-.67-.5-.32-.23c-.33-.23-.67-.45-1-.64L11.81,6.12l-.67-.36-.19-.09-.5-.23-.18-.08-.47-.18-.11,0L9.11,5,9,4.94a8.53,8.53,0,0,0-.88-.19h0c-.24,0-.48-.06-.71-.07H7.29c-.21,0-.41,0-.61,0h-.1l-.48.06-.15,0c-.18,0-.36.07-.53.12h0l-.48.17-.14.06-.39.19-.13.07Z"/><polygon class="cls-9" points="332.85 414.98 332.85 414.98 332.85 414.98 332.85 414.98"/></g></g></g></svg>