<svg xmlns="http://www.w3.org/2000/svg" viewBox="0 0 63.74 42.64"><defs><style>.cls-1{fill:#ccc;}.cls-2{fill:#fff;}</style></defs><title>Asset 3</title><g id="Layer_2" data-name="Layer 2"><g id="_2D_Desktop" data-name="2D Desktop"><g id="Mouse"><path class="cls-1" d="M63.73,12.51c0,.1,0,.21,0,.31s0,.18,0,.27,0,.21,0,.31,0,.18-.06.28,0,.2-.07.3l-.08.28-.1.3-.1.27-.13.32-.12.26-.16.31-.18.33,0,.08q-.14.24-.31.47l-.06.09-.35.47-.07.09-.34.4-.1.11-.43.45-.08.08-.36.33-.3.26-.29.24-.33.26-.31.23-.35.25-.33.22-.38.24-.48.3-22,12.8L35,33.8l-.18.1-.64.32-.08,0-.73.33-.19.08-.64.26-.14.06-.77.28-.19.06-.53.17-.51.15-.43.12-.52.14L29,36l-.53.12-.44.1-.54.11-.42.08-1.18.19-.17,0-1,.12-.4,0-.67.06-.42,0-.7,0-.4,0H20l-.6,0-.42,0-.64,0-.37,0-.77-.07-.23,0-1-.13-.15,0L15,36.45l-.35-.07L14,36.26l-.34-.07-.7-.16-.39-.1-.63-.17-.54-.15-.2-.06-.8-.26-.15-.05L9.57,35l-.22-.08-.51-.2-.35-.14L8,34.36l-.31-.14L7.18,34l-.26-.13-.75-.41A14.86,14.86,0,0,1,2,29.94,9.74,9.74,0,0,1,.88,28.28Q.73,28,.61,27.71a7.38,7.38,0,0,1-.6-2.9L0,30.5c0,3.11,2,6.23,6.16,8.6l.75.41.26.13.52.26L8,40l.49.22.35.14.33.14.17.07.22.08.65.23.15.05.8.26.2.06.35.1.19.05.63.17.39.1.7.16.26.06h.07l.64.12.35.07.86.13.14,0h0l1,.13.23,0,.77.07h0l.35,0,.64,0,.42,0,.6,0h2.47l.7,0,.42,0,.67-.06.24,0,.16,0,1-.12.17,0L27,42.11l.11,0,.31-.06.54-.11.44-.1.53-.12.44-.11.52-.14.43-.12.51-.15.22-.07.31-.1.19-.06.77-.28.14-.06.64-.26.19-.08.73-.33.08,0,.64-.32.18-.1.69-.38,22-12.8.25-.15.23-.14.38-.24.33-.22.35-.25.31-.23.33-.26.29-.24.3-.26.12-.11L60.8,24l.08-.08.44-.45.1-.11.34-.4.07-.09,0,0,.32-.43.06-.09q.16-.24.31-.47l0-.08.11-.18.08-.15.16-.31.12-.26.13-.32.06-.14,0-.13.1-.3.08-.28c0-.1.05-.2.07-.3l0-.16s0-.07,0-.11,0-.21,0-.31,0-.18,0-.27,0-.21,0-.31,0-.12,0-.18,0-.12,0-.18l0-5.68C63.74,12.26,63.73,12.38,63.73,12.51Z"/><path class="cls-2" d="M57.59,3.54c8.17,4.72,8.21,12.37.1,17.08l-22,12.8c-8.12,4.72-21.32,4.72-29.49,0S-2,21.05,6.08,16.33l22-12.8C36.21-1.18,49.42-1.18,57.59,3.54Z"/></g></g></g></svg>