<svg xmlns="http://www.w3.org/2000/svg" viewBox="0 0 114 114"><defs><style>.cls-1{fill:#29abe2;}.cls-2{opacity:0.27;}.cls-3{fill:#fff;}</style></defs><title>quote-insignia_1</title><g id="Layer_2" data-name="Layer 2"><g id="Layer_1-2" data-name="Layer 1"><g id="SECTION_01"><g id="quote"><circle class="cls-1" cx="57" cy="57" r="57"/><g class="cls-2"><path class="cls-3" d="M26.3,74.84q1.81-7.6,3.17-15.56a65.14,65.14,0,0,1,4.16-14.57,29.88,29.88,0,0,1,8.05-11.13q5.25-4.52,14.66-5.43l-1.81,8.69a13.31,13.31,0,0,0-6,2.26,15,15,0,0,0-3.89,4.16,22.17,22.17,0,0,0-2.44,5.43q-.91,3-1.63,6.06H50.73L46.39,74.84Zm32.93,0Q61,67.24,62.4,59.28a65.14,65.14,0,0,1,4.16-14.57,29.88,29.88,0,0,1,8.05-11.13q5.25-4.52,14.66-5.43l-1.81,8.69a13.3,13.3,0,0,0-6,2.26,15,15,0,0,0-3.89,4.16,22.15,22.15,0,0,0-2.44,5.43q-.91,3-1.63,6.06H83.66L79.32,74.84Z"/></g></g></g></g></g></svg>