<svg xmlns="http://www.w3.org/2000/svg" viewBox="0 0 450.78 105.17"><defs><style>.cls-1{fill:#fff;}</style></defs><title>spotworm-logo</title><g id="Layer_2" data-name="Layer 2"><g id="Layer_1-2" data-name="Layer 1"><path class="cls-1" d="M56.67,30.09c-.65.52-.52,1.69-.52,2.2,0,.13.13.52,0,.65a6.32,6.32,0,0,0-.91,4.54v.65a4,4,0,0,1-.13,1.43,2.52,2.52,0,0,0-1.82,1.17,2.4,2.4,0,0,1-2.85.91l-1.69-1c-1.43-1.17-2.46-1.82-2.85-2.2a8.72,8.72,0,0,1-1.69-2.46c-.13-.13-.26-.65-.65-.78a2.84,2.84,0,0,1-.91-2.2c0-.52,0-.91.13-1a2.67,2.67,0,0,0,1.3-2.33c.13-1.69.65-3.24.78-4.41a45.32,45.32,0,0,0,.52-6.22,9.93,9.93,0,0,0-.13-2.33L45.13,16c-.39-1-.39-1.17-1.43-1a22.07,22.07,0,0,1-3,0l-1,.26a4,4,0,0,1-2.2.39,3.1,3.1,0,0,0-1.17.39L31.25,18c-1.95,1-3.37,2.07-4.54,2.72a17.65,17.65,0,0,0-4.41,3,73.11,73.11,0,0,0-6.48,5.84c-.39.39-1,1.43-2.46,3.37-.91,1.17-1.95,2.59-2.85,4a7.52,7.52,0,0,0-.65,1.82A13.07,13.07,0,0,0,9.47,42c0,.52.13,1.3.26,2.33a1.54,1.54,0,0,0,1,1.3,9.61,9.61,0,0,0,3.63,1.43c.13,0,.91.13.52.78a4.47,4.47,0,0,1,1.56.13l1.43.65c.13,0,.52-.78.91-.13l-.52.52c.52,0,1.3.13,1.43,0a.83.83,0,0,1,1.17.13c0,.39.13.65.52.65l-.52-.65c.39,0,1.17-.13,1.3.78h.65c.39-.39.65-.26.78.26l.65.65v-.65a9.76,9.76,0,0,0,1.95.52V51h-.91c.39.39,1,1,1.56.13H27c.13,0,.13.13.26.13l2.33.91L29.7,52a4.56,4.56,0,0,1,1,.65l-.39.13h.39v-.26c1.17.13,1.82.52,2.07,1.43l.52-.13A3.14,3.14,0,0,1,35,54.6l.91.52.52.26a12.94,12.94,0,0,0,2.46,1.56c1,.65,2.46,1.56,4.41,3,.39.13.65.65,1.3,1a13.43,13.43,0,0,1,4.28,4.28A9.88,9.88,0,0,1,51,72.1l.13,2.46v.26c-.52.91-.91,3.76-1.56,4.93l-2.08,3.89a2.09,2.09,0,0,1-.52.91,39.09,39.09,0,0,0-2.46,3.24c-.91,1.43-2.46,2.46-4,4l-.52.52-2.33,2.33-2.33,1.56a22.58,22.58,0,0,1-3,1.43,5.22,5.22,0,0,1-1.43,0c0,.39-.52.78-1.43,1.17-1.17.13-5.19,1.3-7.91,1.3a6.78,6.78,0,0,1-4-1,5.15,5.15,0,0,0-1.95-.91A9.42,9.42,0,0,1,13,96c-1.82-1.56-2.85-2.33-3-2.72a2.77,2.77,0,0,1-.65-2.46c-.91-.91-1.3-1.56-1.3-2.2a3.83,3.83,0,0,1,.91-2.08c1.17.52,1.43.91,1.82,2.59h.91l.13.13a1.85,1.85,0,0,0,1.95,1.43,14.54,14.54,0,0,0,5.32-.78l1.56-.26a1,1,0,0,0,.52-.26l2.59-1.43-.26.91c.39-.13.91-.65,1.3-.52.13.13.26,0,.39-.26l2.2-1.56c1.43-1,2.72-1.69,3.37-2.33,1-1.17,3.11-3,4.15-4,0-.13-.13-.52,0-.65.91-.65,1.43-2.59,1.82-3.11A7.27,7.27,0,0,0,38,74.44,12.67,12.67,0,0,0,39,72c.13-.39.65-1.56,1.3-3.63a1.42,1.42,0,0,0,0-1,6.5,6.5,0,0,1-.26-1.56c0-.39-.13-1.17-.26-2.2a2,2,0,0,0-.78-1,44.32,44.32,0,0,0-5.84-2.59l-2.46-1a29.56,29.56,0,0,0-4-1.3L24,56.67,22.56,56l-1.17-.39a26,26,0,0,1-2.72-.52l-4.93-1.69a16.66,16.66,0,0,1-8-5.71L3,44a8.84,8.84,0,0,0-1.43-2.07C.65,41,.26,39.55.13,37.61A6.41,6.41,0,0,1,0,35.66a6.16,6.16,0,0,1,.52-3A45.5,45.5,0,0,1,2.59,28.4a7.6,7.6,0,0,1,1.82-2.33A11.46,11.46,0,0,0,6,23.86a20.48,20.48,0,0,1,1.56-1.94l1.95-1.43a.28.28,0,0,0,.26-.26L9.6,20a26.81,26.81,0,0,0,3.5-2.59c.39-.13.65-1.17,1-1.3a4.58,4.58,0,0,0,1.43-1.17c.13-.39.78-.65,1.17-1a2.87,2.87,0,0,0,1.17-.13l.39-1.17a4.2,4.2,0,0,0,.78-.26,4.53,4.53,0,0,0,3.24-2.2c.13-.39.39-.26.52-.39l1.43-.78c.39-.13,1.3-.91,2.2-.78.13.13.78-.39,1.17-.52a2.72,2.72,0,0,1,.52-.78c-.13-.13-.26-.26-.39-.26L28,6.35a11,11,0,0,1,2.46-.26h.39c.13,0,.52-.13,1-.26a3.27,3.27,0,0,1,2.2-.78c.13,0,.91.13,2.46.39s3,.26,3.89.65a10.83,10.83,0,0,1,2.59,1.3,2.61,2.61,0,0,1,1,.52l1.56,1.17a3.44,3.44,0,0,0,2.59,1.56V9.86c1.17.13,2.2.91,3.37,2.33.13.39.65.65,1,1.3A21.22,21.22,0,0,0,55,16.34l.39,1.3L56,20.1c.13.39,0,.65.13,1l.52,4.28a3.28,3.28,0,0,1,.13,1.43c-.26,1.3-.39,1.95-.39,2.08S56.54,29.44,56.67,30.09Zm-53.82,4q-.78-.19-.78.78ZM13.1,21.66a3.58,3.58,0,0,0-1.82,1.95H10.5L10,25c-.52-.39-.39.52-.78.52H9.08c-.52,0-.78.52-.39,1l.26,1c-.39,0-.52-.13-.52-.26s-.13-.52-.26-.65a2.71,2.71,0,0,1-.52.78l-.91-.78a5.51,5.51,0,0,1-1.69,2.59c-.65.52-1.82,2.33-2.33,2.85a1,1,0,0,0,.13,1.43l.78-1.3L4,33.59l.39-.13a8.13,8.13,0,0,0-.13-2.2L5.45,29.7l1-1.69.78,1.17a3.21,3.21,0,0,0,1.69-1.56c.13-.13.91-.65.52-1.3.65-.13.52-.91.52-1.3l.52.65a13.31,13.31,0,0,0,1.82-1.95,3.07,3.07,0,0,1,1.56-1.17c0-.13.13-.26.26-.39ZM4,34.63l.13.13c0-.13,0-.13.13-.13Zm.78-2.33v.26h.13v-.26Zm1.3-2.46L6,30.09H6.1L6.22,30Zm1.43-3.37h.13v-.13H7.39Zm.65-.78H8l.13.13Zm5.19-2.08.26-.13v-.13c-.13,0-.26.13-.39.26Zm1.43-2.85-.52.91c.52,0,.78-.13.78-.52ZM15.56,18l-.39.65c.39,0,.91.52,1.43,0Zm1.3-2.46v.13h.26v-.13Zm.91,3-.52.26.52-.13Zm1.43-5.71v-.13l-.26.13.13.13Zm.13,1v-.13l-.13.13.13.13Zm.91,82.22h.13c.13,0,.13,0,.13-.13Zm.52-83,.26.13.26-.39-.13-.13Zm2.46,79.76-.26.26v.13ZM31.12,90l-.52-.52-1.17.26-.26-.52-.78-.39A1.92,1.92,0,0,0,28,90.91a3.58,3.58,0,0,1-1.17.65l.52-1c-1.17,0-1.43-.13-1.56,1.3a.48.48,0,0,0-.39-.13c-.39,0-.78.52-1.17.39-.13,0-.13.39-.26.52.39.13.52.39.39.65-.39.13-1.17.26-1.3.91l.26.13A39.44,39.44,0,0,0,27.1,93c.39-.13.78-.52,1.17-.65a34.84,34.84,0,0,0,3.37-2.08,1.34,1.34,0,0,0,.26-1.56ZM24.51,11l.65-.26c0-.13,0-.13-.13-.13Zm.26,76.38-.26.26ZM25.29,9.6h.26c0-.13-.13-.13-.26-.13Zm3,42.41-.78-.39-.13.13C28,51.87,28.4,52,28.27,52Zm.26.13c.39.39.78.39,1,0Zm.39,37.61a.48.48,0,0,0-.13.39h-.13a.48.48,0,0,1,.13-.39Zm4.93-2.85c-.52,0-.91,1-1.3,1.17v1l1.3-.91q.78-.58.39-1.17Zm1,.13-.13-.13v.26Zm.39-5.58v-.39h-.13a.48.48,0,0,0-.13.39Zm.26,4.15-.26.78.39.13c0-.13.13-.39.26-.91Z"/><path class="cls-1" d="M114,23.6c0,.26-.26.52-.78.91l-.91.52,1.43-.13a3,3,0,0,0-.26,1v.39c0,.65-.26,1-.65,1.17,0-.13-.13-.65-.26-1.56l-.52.78a2.64,2.64,0,0,1-1.17,2.2c-.13,0,0,.65,0,.78a.48.48,0,0,1,.39.13l.65-1.56q1,.39.78,1.17c-.13.65-1.17.65-1.69.78.13.91.26,1.43.26,1.56s0,.26-.26.52v.26c0,.52-.65.91-.78,1v-.13l-.78.26.13-.26-.26.13-.39.78.65.26-.91,1.43-.65-.26a2.7,2.7,0,0,0-1,2.08l1.17-1.43v.39c0,.65-.39.91-1,1l-.26.52-.13.13.13-.13.65.65-.78.65c-.13,1-.26,1-1.17.65l.39-.26-.13-.26-.26.52c-.39.52-.65.91,0,1.3-.13.39-1,.52-.52,1.17l-.91,1.3c-.13.39-.52.52-.52.65a.48.48,0,0,1,.13.39c0,.39-.65.91-.78,1.43s-.26.52-.65.52A4.9,4.9,0,0,0,100.77,49l-1.17,2.2c-.78,0-1.17.39-1.17,1-.13-.13-.26-.13-.65-.13l-.13.13-.39,1.43A2.52,2.52,0,0,1,95.32,55l.13.26v.13l-.13-.26.13.26h-.13L93.25,58l-1.82,1.69a13.36,13.36,0,0,0-1.82,1.95c-.13.39-.65.26-.65.39a3.08,3.08,0,0,1-.39.91c0,.13-.13.13-.52.13l-.52.78c-.13.39-.39.65-.52.65-1.17.13-2.07,1.43-2.46,1.82a3.33,3.33,0,0,1-2.07,1.3A3.67,3.67,0,0,1,80.8,69.9,39.56,39.56,0,0,1,76,73.66c-.52.39-.91,1-1.43,1.43L74.83,72l-.26.13c-.26.26-.39.39-.26.39a4.19,4.19,0,0,0-.39,2.08v.13c0,.39-.65,1.17-.26,1.82a4,4,0,0,0-.26.91c-.13,1.95-.39,3.37-.52,4.54,0,.52-.13,1.43-.26,2.59,0,.52-.52,1.43-.13,2.08.13.13,0,.39-.26.91l.39.39a1.34,1.34,0,0,0-.52,1,1.86,1.86,0,0,0,.52,1.3A4.41,4.41,0,0,0,72,92.59c0,.13-.13.65-.26,1.56,0,.13.26.26.26.39l-.26,4.41.13,3.11c0,.91-.26,1.3-.91,1.43s-1,1.56-1.56,1.69l-1.82-.26-.78-1.17a6.22,6.22,0,0,0-1.43-1,1.1,1.1,0,0,1-.91-.91l-.78-2.33c-.13.39-.39,1.17-.91,1h.13l-.78-.91v.13a5.62,5.62,0,0,0-.52-1.43,8.42,8.42,0,0,0,.78-4.67l-.13-1.56.13-1.56A6.85,6.85,0,0,1,63,88.57a5.91,5.91,0,0,1-.52-2.85,11.78,11.78,0,0,1,1.17-4.8l-.39-.52c.13-1.56.26-2.59.26-3.11A8.58,8.58,0,0,1,63.94,75c.13-.91.26-1.43.26-1.56a3.86,3.86,0,0,0-.65-1.82l-.65-1.3a7.47,7.47,0,0,0-1-1.56l.78-1.3c1.56-.13,2.59-.52,2.72-1.95h.26c0-.13-.13-.26-.39-.52.52-.13.78-.52.78-1.3,0-.13-.13-1,.26-1.43,0-.13-.26-.39-.26-.52.52-1,.52-3.63.91-4.67a9.3,9.3,0,0,0,.26-2.2V54.6c0-.52.52-1.56.39-2.07l-.13-1c0-.13.13-.65.26-1.3a19,19,0,0,0,.65-3.76,5.25,5.25,0,0,1,.39-1.3L68,44.35c0-.13,0-.26.13-.26a1.07,1.07,0,0,0,.65-1.3c0-.52.52-1.82,0-2.46a3.65,3.65,0,0,0,.39-1.95,6.41,6.41,0,0,1,.13-1.95,1.63,1.63,0,0,1,.52-.91L69,33.72a6.16,6.16,0,0,1,.65-1.82l-.26-.13a26.32,26.32,0,0,0-1.69,3.37,3.28,3.28,0,0,0-.13,1.43l-.39,1.17.26.39A4.69,4.69,0,0,0,65.23,42l-.78-.13-.78,1.43-1.43.52A11.46,11.46,0,0,1,60,42.28a2.81,2.81,0,0,0-1.17-1,4.15,4.15,0,0,1-2.2-2.46c-.65-1.17-1-3.11-1.17-6a4.12,4.12,0,0,1,1.43-2.33c.13-.13.13-.26.13-.65l-.39-.65,1-2.46.26.13v.78l.78-1.82,1.56-2.59h-.13c.26,0,.39,0,.39-.13a48.25,48.25,0,0,1,4.93-6c-.13.13.52-.65,1.69-2.08l.65-.65a7.54,7.54,0,0,1,2.33-2.2c.26.26.52.26.91-.13l-.91.13c.91-1.43,1.3-1.82,2.46-1.69a1.32,1.32,0,0,0,1-.65l-.78.26-.13-.26,1-.91c1-.91,1.95-1.3,2.59-1.82a2,2,0,0,1,1.56-.39c.13,0,.52-.65.91-.52.91-1,3.37-1.56,4-2.08C84,3.5,86.63,3,88.06,2.46a5.22,5.22,0,0,0,1.43,0A7.67,7.67,0,0,1,91.3,2.2l3.5-.13a13.48,13.48,0,0,1,3.76.65,20.55,20.55,0,0,0,2.08.91c.39.13,1.17.78,2.85,1.69a15.82,15.82,0,0,1,3,2.72c1,1,2.72,3.11,3.76,4.15a6.49,6.49,0,0,0-1.17-3.24l.78-.13c.52.91,1.95,2.2,2.07,3.76a3.28,3.28,0,0,0,1.95,2.72v.13c0,.39-.78,1,.26,1.56l-.52.52v3c0,.65,0,.91.13,1A4.42,4.42,0,0,1,114,23.6ZM57.45,28.79v.13l.13-.13Zm1.43-4-.26.52.13.52-.65.26.52-.91a.48.48,0,0,1,.13-.39Zm.52-.91c0-.39.13-.52.52-.65Zm1-1.17-.26.52h-.26c.13-.13.13-.26.13-.52Zm2.33,67.7v.13h.13v-.13Zm0,5.71h.13L62.77,96Zm.91-52.65h-.13c0-.13,0-.13.13-.13Zm.39,50.19v.26l.13-.13Zm.52-15.69-.13.13c.13,0,.13,0,.13-.13.39.26.52.52.13.91s-.26.65.13.91A1.76,1.76,0,0,0,65,77.68C64.84,77.81,64.71,77.94,64.58,77.94ZM64.46,84v.39l.26.13V84Zm.13,6.1v-.26c0,.13,0,.13-.13.13ZM65,82l-.13-.26-.13.26c0,.13,0,.13.13.13S65,82.09,65,82Zm-.13,3.5.39-.39-.13-.13-.26.52v0Zm.39-8.95c0,.13,0,.13-.13.13.13.13.26.26.26.39Zm.52-1.69h0a.28.28,0,0,0-.26-.26l-.13.13Zm-.13,4.93-.13.13h.13Zm1.3-9.21c-.91-.52-.91.26-.91.39Zm-.13,18.67h-.52v.13l.52-.13c.39.13.52,0,.39-.65A1.18,1.18,0,0,0,66.79,89.22Zm.78-5.45-.13.13h.13Zm1,9.21-.91.65.91.13Zm-.39-16.34.13-.13h-.13ZM68.73,86c0-.13,0-.13-.13-.13V86c0,.13,0,.13.13.13Zm.65-2.59.26-.13-.39-.52c0,.13,0,.13-.13.13Zm.52,9.34q-1.17.19-.39.78ZM69.25,80.4v.13c.13,0,.13,0,.13-.13Zm.65-3.5-.26-.26-.26.13.26.26Zm-.26,1.43v.13l.13-.13-.13-.13Zm.26,6.61.39-.39L70,84.42Zm.39.26-.26.65.13.52a.48.48,0,0,1,.39-.13Zm1.56-73.66-.13-.26q0,.19-.39.39Zm.91,76.51a.23.23,0,1,1,.26.26Zm2.59-76.38c0-.13.13-.26.26-.39a2.82,2.82,0,0,1,1-.65l1.17-.78a7.32,7.32,0,0,0,2.08-1.17l.52-.39c1.17-.13,2.46-1.43,3-1.82l.13.13L87,5.45c.52-.13,1.43-.78,2.33-.65.13,0,.26-.13.52-.39s1.69-.13,2.33-.78a5.91,5.91,0,0,0-1.82.13l-.52.65-2.46-.26c-1.17.91-1.69,1-2.59.52-.65,1.17-1.43,1.43-3.37,1.82a.48.48,0,0,1,.13.39l-3.5,2.07c-.39.26-.52.52-.26.91h-.13c-.13,0-.65-.39-1,.13-.78.39-1.17.91-1,1.3l-.26.13v.26H74.7l-.52.39h-.39A1.85,1.85,0,0,0,73,13.62ZM73.4,81.57a8.43,8.43,0,0,1,.26-1.3C73.66,80.4,74.44,81.18,73.4,81.57ZM73.53,83v.13H73.4V83Zm.91-73.79h.13l-.13-.13-.13.13Zm.13,66.92h-.26a9.47,9.47,0,0,0,.26-1Zm1-5.06,2.85-1.17H77l.65-.65L77.55,69l-1.3.91a2.51,2.51,0,0,0-.65,1.17,1.48,1.48,0,0,0,0,.78c0,.13.26.26.65.52ZM75.74,73l-.13.13.13.13c0-.13,0-.13.13-.13C75.74,73.14,75.74,73.14,75.74,73Zm.13-8,.13-.52c-.13,0-.26,0-.26.13l.13.39c0,.13,0,.13.13.13Zm.13-1v-.26l-.13.13ZM77,60v-.13L76.9,60l-.78.78A.69.69,0,0,0,76.9,60Zm-.39,6.74-.26.26-.13.13.13-.13.39-.13Zm-.13-4.15h-.13v.13h.13ZM76.65,10c0,.13,0,.13.13.13l-.13.13Zm.52,61.73L77,71.59v.13Zm21-61.21c-2.46,0-5.19.91-8.43,2.46L86.63,14.4l-1.82,1-3.89,2.72a1.82,1.82,0,0,0-1,2.46c.13.39.78,1.56.65,2.2-.13.91.39,3,0,3.89V27c0,.65.39,1.43.39,2.07a1.58,1.58,0,0,1-.52,1.17l.52.39c-.26.78-.39,1.17-.26,1.3a4.2,4.2,0,0,0,.26.78c0,.39-.39.91-1,1.43l.78.39-.91.65.52.52a7.48,7.48,0,0,0-.13,1.95A23.79,23.79,0,0,0,79.89,41c-.65.65-.78,1.82-.65,3.24,0,.39,0,.65-.13.78-.52.13-.39.91-.39,1.3l.65.52.26.26c0-.13-.13.13-.26.65l-.26-.52-.91.13c.39.39.52.65.52.78s-.26.39-.78.91l1.69-.39a1.79,1.79,0,0,1-1.82,1.3L77.68,53a1.41,1.41,0,0,0-.26,1.56h.13a4.63,4.63,0,0,0-.26,2.2l1.56-1.69L80.92,53l1-1L84,50.06A16.79,16.79,0,0,0,86,47.85c.39-.52,1.43-1.3,1.82-1.82l2.85-3.5L92.6,40.2l5.32-7.65,1.95-3.37c.91-1.69,1.56-2.46,1.69-2.85l1.43-3.5c.39-1,.52-2.08.91-3.11.13-.39.39-.65.39-1V17a4.93,4.93,0,0,1,.13-1.69c0-.52-.52-2.07,0-3A8.93,8.93,0,0,0,98.17,10.5ZM77.68,55.63l-.13-1h.52Zm-.13,6.74,1.43.39c0-.39,0-.65-.13-.78.65-.13.65-.65.26-1.3Zm.39-8.82h-.13c-.13-.13-.13-.26-.13-.52ZM79.5,51.1l-1.56.26c.13-.39.39-.52.52-.91A1.78,1.78,0,0,0,79.5,51.1Zm-1.3,1.43h-.26v-.13c0-.13,0-.13.13-.13Zm.26,11.67-.26.13Zm.78,4V68h.52c-.13-.26-.26-.26-.52,0-.65-.13-.78-.13-.78.78ZM78.59,7.78l.13.13V7.78Zm.26,55.89-.26.26c.13,0,.26-.13.39-.26ZM79,58c-.13-.13-.13-.13-.26,0v.13l.13.13Zm.91-14.52v.91h-.13v-.91Zm0-1.43H80l-.13.13Zm1.3,13.62L80,56.93l.65.39Zm-.78,4.15h-.13v.13ZM80.67,63v.13c0-.13,0-.13.13-.13Zm0,2.72c.65.26.91.65.91,1-.13,0-.13,0-.13.13,0-.13,0-.13.13-.13a.87.87,0,0,0,.13-1.3Zm.26-3v0Zm2.2-8-.52-.13-.52-.13c-.39,0-.78.78-.91.91h.26c.52,0,1.17.39,1.17-.52Zm-.78,3c-.65,0-1,.26-1,.91A1.26,1.26,0,0,0,82.35,57.71Zm-.91,4.67v.13l.13-.13ZM82,9.08l1.17-.65L83,8.17a3.58,3.58,0,0,0-1.17.65Zm.13,50.58.13.13c0-.13.13-.13.26-.13l-.13-.13Zm.52,4.93-.52.39.13.26.52-.39Zm-.13-10.89h0Zm.91-47.21h0Zm1,45.78a.88.88,0,0,0-.78,1.17ZM83.78,66.4l-.13.13h.13ZM84,63.55v.13l.13-.13Zm.26-4.15.13.13-.13-.26c0,.13,0,.13-.13.13Zm.65-5.71v.13l-.52.65a.57.57,0,0,0,.65-.13Zm-.39-1.43c.65,0,1-.26,1-.91C84.95,51.35,84.69,52.13,84.56,52.26Zm.78,10.5-.13-.26-.39.65Zm1-6.48c-.78.13-1.17.39-1.3,1Zm0-6.23v.26c-.39,0-.65.26-.78.91l.78-.91.13-.13Zm-.13-.13v0ZM87,52l-.26-.13a.48.48,0,0,1-.13.39Zm1.56-4.41-.91,1c-.13,0-1.17,0-.78.91a.86.86,0,0,0,.78-.91A1.11,1.11,0,0,0,88.58,47.59Zm-.91,8.56.39-.39c-.13,0-.13,0-.13-.13ZM88.84,55l-.39-.78-.26.13a2.72,2.72,0,0,0,.52.78Zm.39,4.15c-.13,0-.13,0-.13-.13l-.65.52.13.13c0-.13.13-.13.26-.13Zm1-13.36L90,45.65l-.39.65.26.13ZM90,6.87h.13L90,6.61c-.13.13-.13.13,0,.13ZM90.26,8l-.13-.26L90,7.91l.13.13Zm.52,39.55-.13-.26a1,1,0,0,0-.52.52c.13,0,.13,0,.13.13Zm-.65,5.58.26.26.13-.26ZM91.69,6.35l.13.13c.26,0,.78-.13,1.69-.26a.48.48,0,0,0-.13-.39Zm.65,44.35-.39.39c0,.13,0,.13.13.13l.13.13c-.13,0,.13-.13.65-.26Zm.13-42.54h.13V7.78h-.13ZM93,48.89l.13-.52-.39.52Zm.65-1.17a.28.28,0,0,1-.26.26.48.48,0,0,0,.39-.13C93.76,47.72,93.76,47.72,93.63,47.72Zm.13-41v.13l.13-.13Zm.65-.65L94.54,6h-.13Zm.26.65.13-.13h-.13Zm1.69-.65.39.13c.13,0,.13,0,.13-.13h-.52c-.39-.52-.65-.78-1.17.13A2.87,2.87,0,0,1,96.36,6.1Zm-.91,39a.28.28,0,0,1-.26.26.48.48,0,0,0,.39-.13Zm0-6.61h.26l.13-.13-.26-.26Zm0,8.43v.13h.13v-.13Zm.91-8.43-.13.65.26.13c0-.39,0-.52.13-.65Zm.78.26L97,38.65v.13Zm-.13.52.13.13v-.13Zm.26,3h-.13l.13.13Zm.26-6.48.78-1.3a1.84,1.84,0,0,0-1,1.17ZM99,6.61v.13l.91.52c-.39-.65-.65-.91-1-.91Zm0,26.46h-.13v.13Zm3.76-12.19H103l-.13.13Zm1.43,23.34v-.13l.13.13Zm2.46-4.67-.13-.26-.13.13Zm2.2-30.86.26.26ZM110,31.77l.78-.52v-.39c-.13.13-.52.13-1,.13Zm.78.52-.52.39.13.13Zm-.52,2.33.13-.13v.13Zm.13-1,.26.26h-.13Zm1.82-3L112,31.77c-.91-.65-.13-1.17-.13-1.3Z"/><path class="cls-1" d="M156.53,50.19l-.91,3.89a29.55,29.55,0,0,1-1.3,4,5.87,5.87,0,0,1-1.43,2.46c-.52.52,0,.65,0,1-.52.39-1.17,1.95-1.82,2.46l.13.39c0,.52-1,1.43-1,1.82-.13,1-.65,1.43-1.43,1.3,0,.65,0,1-.13,1.17h.13l-.91.65c.13.13.13.26.13.52,0,.65-.78,1.43-.91,1.82l-1.69,2.46-2.46,3.37A8.87,8.87,0,0,1,140.19,80a20.49,20.49,0,0,0-1.69,1.69c-.13.13-.65.91-1,.78h-.26c-.65,0-1.82.52-2.33.39v-.13h-.13l.13.13a3.47,3.47,0,0,1-2.33,1.43,12.79,12.79,0,0,1-3.11.39,11.44,11.44,0,0,1-2.2-.26c-.52-.13-1-.52-1.56-.65s-1.3-1.3-1.95-1.43c-.91-.13-1.95-1.43-2.08-1.56-.52-.52-.91-1.43-1.43-1.95-1.17-.91-2.59-3.63-3.24-4.28a1.1,1.1,0,0,1-.26-.78l-.26-.91a22.09,22.09,0,0,1-2.59-6.1l-.39-1.3-.13-1.43v-.52a4,4,0,0,1-.52-2.2l.13-2.07q0-.39.78-1.17a4.16,4.16,0,0,1-.78.26,27.54,27.54,0,0,1,.39-6.61l.52-1.56h.65c0-.39.13-1,.26-2.07a2.09,2.09,0,0,0-.91-.52c.13-.13.39-.65.52-.65a.82.82,0,0,0,.65-.78c-.13,0-.26.13-.52.39,0-.13-.39-.52-.26-.65.13-.52.13-2.33,1.17-3.24-.13-.13-.13-.26-.13-.65,0-.13.13-.65.26-1.3.65-2.72,1.95-5.32,3-8.43l1.43-4c.65-1,1-1.95,1.43-2.59l1-1.17v-.39a2,2,0,0,1,1.3-2.08,3.75,3.75,0,0,1,1.82-2.59c1-2.46,3.76-4,4.67-4.93l.78.39c-.13-.52-.26-.78-.26-.65.13-.13.65-.78,1.3-.26a2.64,2.64,0,0,1,3.24-1.3c1.17.52,2.72,1.43,4.8,2.59l1.69,1.17a30.5,30.5,0,0,0,3.11,1.43,9.31,9.31,0,0,1,3.63,2.59l.13.26c-.13,1.17,1.56,3.24,1.69,3.89,0,.39.39,1.17.26,1.82v.78c0,.78.26,1.17.91,1.3.39,0,.78,1.3,1.3,1.43v.26c0,.52.65.91,1,1.3a12.36,12.36,0,0,1,2.46,6.22,27.9,27.9,0,0,1,.39,5.06c.13,1.56.26,2.72.26,3.63C156.92,46.56,156.79,47.85,156.53,50.19Zm-42.67,3.24-.26.52h.13l.39-.39Zm-.13,1.43-.13.13h.13Zm.26-6.1c.52.65-.13,1.3-.13,1.43C113.35,49.67,113.87,49.15,114,48.76Zm.13,1.82c-.39.91-.13,1,.52,1ZM114,52.65h.13v-.13c-.13,0-.13,0-.13-.13Zm1.17-8v.91l.26-.91Zm.13,3.24-.13.13h.39Zm0,21V68.6l-.13.13ZM118,67l-.13.13H118Zm.65-25c0,.13,0,.13-.13.13v.13l.13-.26q.58-.19,0-.78Zm.91-2.72v.13a2.44,2.44,0,0,0-.65,1.43c1-.52,1-.52.65-1.43Zm.91-1-.52.13a.28.28,0,0,1,.26.26Zm0-.13a2.48,2.48,0,0,0,.78-1.95A1.48,1.48,0,0,0,120.48,38.13Zm1.17-2.85-.26.13.26.26h.13Zm.26,39.55v.26c.13-.13.52-.13.65-.26Zm11.8-4.41,3.76-5.58a16.81,16.81,0,0,0,1.82-3,20.47,20.47,0,0,1,1.82-3,33,33,0,0,0,2.46-4.8h0c.39-1,.91-3.89,2.07-5.06l.26-1.56c.13-1.17.52-2.21.65-3.37v-.91a6.5,6.5,0,0,0-.26-1.56c-.13-.13-.13-.26-.13-.65s.39-.91,1-1.17l-1-.39a2,2,0,0,0,.26-2.33,2.09,2.09,0,0,1-.26-1.43v-.39a29.58,29.58,0,0,1-.26-3.37c-1.17-2.85-2.46-4.8-4-6-.13-.13-.78-1-1.3-1.17h-.13a6.32,6.32,0,0,0-1.43.52c-.13,0-.91-.13-1,.52-.91.39-2.2,1.82-2.85,2.2-.13,0-.39.52-.52.65l-1,1.17-1.3,1.43c-.39.91-2.07,3.11-2.2,4.54-1.43,1.69-2.33,5.06-2.85,6.48a2.72,2.72,0,0,0-.39,1.56c-.13,0-.13,0-.13-.13v.13h.13a7.65,7.65,0,0,0-1.17,2.59v.26c0,.65-.65,2.07-.26,2.72l-.52.26c.13.13.39.78.26.91a34.73,34.73,0,0,0-1,4.28,45.14,45.14,0,0,0-.78,4.54,9.91,9.91,0,0,1-.65,2.72c-.13,0-.13.13-.13.26s.13.13.65.26c-.13.39-.39.52-.39,1l.13,1-.39,1.17a15.11,15.11,0,0,1,.52,2.33c0,.65.26,1.17.26,1.69a6.43,6.43,0,0,1,.39,1.69,26.79,26.79,0,0,0,1,2.59c.26,1.17.91,1.43,1.95,1l1.43-.91A4.93,4.93,0,0,0,131,71.59l.65.13c.78,0,1.3-.52,1.43-1.43l.65-1.3c0-.13.13-.13.26-.13ZM122.81,28.14l.65-.39-.13-.26-.65.39Zm10.37,44.35-.78-.13c-.39,0-.65.26-.91.91Zm3.11-1c-.13,0,0,1.17-.65,1.3l-.39-.39-.78,1.94c.13.13.26.26.39.26.65-.91,1.95-2.08,2.46-3,0-.13.65-.91,0-1.3C136.95,70.42,136.82,71.33,136.3,71.46Zm-1.17-4.15v.39h-.26a.48.48,0,0,0,.13-.39Zm.78,3.24c.52-.65,2.07-2.07,2.2-3.5A8.74,8.74,0,0,0,135.91,70.55Zm3.76-1.82h-.26c-.91,0-1.3.52-1.3,1.69Zm-1.3-6.35h-.13l.13-.13Zm0,4.28.91-1,.78-.91a3.7,3.7,0,0,0,1.17-2.46A18.9,18.9,0,0,0,138.38,66.66Zm.39-5.06.13-.26Zm.65-1.17.26-.52.26.13c-.13.13-.26.26-.26.39Zm1.43,8.3c-.13,0-.13,0-.13-.13-.13.13-.13.26-.13.52Zm3-9.6.13.52.26-.52H144v-.52l.52.26.78-.78c.39-.65.52-1.43.91-1.95a1.58,1.58,0,0,0,.52-1.17,2.09,2.09,0,0,0-.39-1.17l-1.56,2.33c-.39-.39-.52-.26-.52.26l.65-.26a2.39,2.39,0,0,1-1,1.82v-.91l-1.56,2.21c-.13.13.13.78.13,1.17a1.92,1.92,0,0,0-1.17,1.69.67.67,0,0,0,.91-.39l.52-1,.13-.13-.13-.13.91-.65c.13.13.13.26.13.52l.13-.52h-.26v-.65Zm-2.2,8-.13-.13-.26.52.13.13Zm.65-.91-.26.13.13.13Zm.39-5.84v.26l-.26-.39h.26Zm-.13,8.43c.78-.13,1.17-.78,1.3-1.82Zm.39-14.65h-.13l.13-.26Zm.13-.39h-.13l.13-.13Zm.39,7.52-.26.26.13.13Zm-.13,3.11v0ZM144,58l-.13.65h-.26Zm-.39,3.24.26-.26h-.13Zm.78,5.45h-.13c0,.13,0,.13.13.13Zm1.3-2.72-.78.91.78.26V63.93a3.38,3.38,0,0,0,1.17-2.33A3.38,3.38,0,0,0,145.64,63.93Zm-.52-9.21h0Zm0-.13q.78-.19.39-1.17Zm.39-8.43V46l.13.13c0,.13,0,.13-.13.13Zm0,14.65h.13l.13-.13c0-.13-.13-.13-.26-.13Zm1.3-11.93.65.39c-.91.52-1.3,1-1.3,1.69a3.94,3.94,0,0,0,.39,1.43c.13.13,0,.26-.26.52-.13-.13-.26-.13-.52-.13v.13h.52l.26.52c1.43-1.69,2.08-3.89,1.95-6.87A4.2,4.2,0,0,1,146.81,48.89ZM146,44.22h-.13l.13-.13Zm0-1.69a1.18,1.18,0,0,1,0,1.56Zm.13,16.34h.26l-.13-.13Zm.91-17.38-.13-.26-.26.13c0,.13,0,.26.13.26Zm-.13,8.95h.26v.91a.48.48,0,0,0-.39-.13Zm.26,4h-.13l.13.13h.13Zm.52,6.09c0-.13-.13-.13-.26-.13v.26c.13,0,.13,0,.13.13ZM148.1,46l-.13-.52h-.13V46Zm0,12.58c-.13.52-.26.78-.26.91h.26v-.91a2.61,2.61,0,0,0,1.17-1.43C148.1,57.58,148.1,58.23,148.1,58.62Zm0-4,.13.13.39-1a.48.48,0,0,1-.39-.13Zm.65-18.54.26-.13-.39-1.56h-.26Zm-.13,2.33V38l-.13.26Zm.65,1.56c-1,0-.39,1-.39,1.17ZM149,43.31h-.26v.13l.13.13Zm-.26,25.55v0ZM149,37c0,.39,0,.52.13.65h.13c0-.39,0-.52-.13-.65Zm.65,18.67-.26.13h.39Zm.13-5.45-.13.13h.13Zm.26-1a1.5,1.5,0,0,0,.78-1.69C149.79,48,149.92,48,150,49.15Zm.52-11.41h.13c-.13,0-.13,0-.13-.13Zm.26,7.65a9.25,9.25,0,0,0,.65-2.59,9.65,9.65,0,0,0-.65-2.85Zm.13,4.93c-.13,0-.13,0-.13.13a.28.28,0,0,1,.26.26l.13-.13Zm.26-4.15c-.13,0-.13,0-.13.13l.39.39c.13,0,.13,0,.13-.13Zm2.2,11.93v.13c.13,0,.13,0,.13-.13Z"/><path class="cls-1" d="M220.08,19.84h-1.17l-1,1.3-4.8-.26h-.52c-1.17-.13-2.08-.26-2.59-.26-1.56,0-4.28.39-5.71.52l-4.67.39A32.57,32.57,0,0,0,193.1,23l-2.33.39c1,.26,1.43.78,1.17,1.43-.13.13.13.65.13,1,0,1,0,1.17,1.43,1.69A9,9,0,0,1,192.07,29l-.26-.26c-.13,0-.13.13-.13.26a6.62,6.62,0,0,1-.26,3.11c-.13,1.17-.26,2.08-.26,2.59a20.39,20.39,0,0,1-.39,3.11l-.52.39c.13.13.13.52.13,1a8.58,8.58,0,0,1-.39,2.33c-.13.39,0,.65-.13,1l-.52,2.07.26.65-.52.65c0,.13.13.39.26.91l-2.2,3,.52.26a5,5,0,0,1,.13,1.69,33.7,33.7,0,0,1-.65,4.67c0,.39-.39.52-.52.91.65.65.65,1,.26,1.17-1.17.65-1.17,1.69-1.56,3.37q-.39,3.89-.39,5.84c-.13.13-.13.26-.13.52-.52,1.17-.39,3.5-.78,4.93,0,.39-.26.78-.26,1.17s.13.78.26,1.69l-.13,1.43a80.2,80.2,0,0,0-.52,9.47v.52l.13,2.33v.26l-.26,1,.26.39c-.13-.13-.26-.26-.39-.26a.48.48,0,0,1-.13.39l.52-.13c.13.26,0,.52-.26.78a2.2,2.2,0,0,1,.52,1.69l-.13,2.07-2.46,1.3c-.65-.39-1-2.46-2.08-2.59l-.39.78c-.39,0-.52,0-.65-.13L177.8,94h-.26v.39l-.26.78a5.44,5.44,0,0,0-.39-1.82c-.65-.39-.39-1.43-.52-1.56,0,.13-.13.26-.26.39v-.26c0-.91-1.95-1.56-1.95-2.46,1.69-.91,1.3-2.72,1.3-3.24,0-.91-.26-1.56-.26-2.46V81.18c0-1.17-.13-3,0-5.19a31.27,31.27,0,0,1,.65-6.1c-.13-.13-.13-.26-.13-.65s.39-1.43.26-1.95v-.78a4.82,4.82,0,0,1,.78-3,7.64,7.64,0,0,1-.26-1.82,4.48,4.48,0,0,1,.13-1.56,17.47,17.47,0,0,0,.65-5.06v-.26c0-.39.39-1.3-.13-1.82a3,3,0,0,0,.52-1.95,21.6,21.6,0,0,0,.65-4,6.38,6.38,0,0,0,.39-1.95,2.07,2.07,0,0,0-.39-1l.39-1.3a15.45,15.45,0,0,0,.78-6c0,.13.13-.26.26-.91l-.91-.52,1.3-1.17-.39-3.63a1.32,1.32,0,0,0,.65-1c0-.39-.26-1.43.26-1.95a1,1,0,0,0-1.43-.52,43,43,0,0,0-4.15,1.56,4.34,4.34,0,0,0-1.69.91c-2.46,1-4.28,1.82-5.45,2.46h-.13l-3.37,2.46-.78.78A4.69,4.69,0,0,1,160.29,37c-.39,0-.91.65-1.3.78l-4.54-1.43c0-.13-1.43-.52-1.3-1.56l-1.3-.78.13-.91v-.13c-1-.39-1.17-1.17-1.17-2.33L151,27a1.56,1.56,0,0,1,.65-.65,47.77,47.77,0,0,1,4.54-3.24L159.77,21c1.17-.65,3.24-1.3,3.89-1.69a.48.48,0,0,1,.39-.13c.91-1,1.69-1.3,3.63-1.69.13,0,.26-.13.52-.39a2.71,2.71,0,0,1,.78-.52h.26c1,0,2.33-.91,2.85-1s1.43-.13,1.95-.65,1.56-.78,1.95-.91v1c.13-.13.39-1.3,1.3-.91,1.17-1.17,3.76-1.56,4.41-1.69a30.72,30.72,0,0,1,4.54-.91,4.15,4.15,0,0,1,.78-.26c.13,0,.91-.52,1.56,0q.78-.78,1.17-.78a13.8,13.8,0,0,0,3.11-.13,22.64,22.64,0,0,1,3,0h.26a17.16,17.16,0,0,0,1.69-.39l1.43-.13H200L201.14,11a2.55,2.55,0,0,1,2.72-1.17,4.9,4.9,0,0,0,1.95,0l.78-.13a4,4,0,0,1,1.69.65c.13.13.52,0,.65.13,1.17,0,4,.39,5.45,1.82.65.65.91,1.17.78,1.69v.26a2.06,2.06,0,0,0,.65,1.3,4.62,4.62,0,0,1,1.3,1.43c.39,1.17,1.17,1.69,2.59,2.33.13.13.26.26.26.39ZM166,19.32h.78v-.26l-.78.26-.52-.65c-.65.39-.78.65-.39,1Zm1.95-.78.13-.26h-.26c-.13,0-.13.13-.13.26Zm1.95-.91-1,.26.13.65a2.29,2.29,0,0,0,1-.65Zm1.3,0-.52-.13-.26.13c0,.26.13.26.26.13Zm2.2-1.43c-.39,0-.65.26-.65.78a1,1,0,0,0,.91-.78Zm2.08,1.17.52-.52-.13-.26-.65.39ZM178.58,16c-.13-.13-.52-.13-.91-.13s-.78.26-.91.91Zm1.3.26v-.52c.13,0-.26.13-1.17.26Zm-.39-1.82h.13v-.91a.48.48,0,0,0-.39.13Zm.91-.26a.28.28,0,0,0-.26.26l.13.13a.28.28,0,0,0,.26-.26Zm.39,12.58h-.13v.13Zm4-12.06a.67.67,0,0,0-.65-.65l-1.17.26a4.53,4.53,0,0,0-1-.65,4.25,4.25,0,0,0-.78,1ZM182.6,97.39h-.26c0-.13.13-.13.26-.13Zm.13-1.56.13-1.17h-.26c-.13.13-.13.52-.13,1Zm1.43-80.27.26-.13c-.13-.13-.26-.26-.39-.26s-.13,0-.13.13Zm1.3,53.82-.26.13-.13-.26c.13,0,.26,0,.26-.13Zm.26-56.15-.39,1.43,2.2-.65v-.26Zm-.13,54.08v.52h-.13v-.52Zm.39-3.5-.13-.13.13-.13c0,.13,0,.13.13.13Zm0,1v.65h-.13v-.65Zm.52-3.11-.13.26-.13-.26.13-.13ZM186.36,58l.26.13c0-.26,0-.39-.13-.52Zm.39-3.11c-.39.39-.39.78.13,1.17Zm0,4.93v-.13c.13,0,.13,0,.13.13Zm.13-5.84h.26c.13-.65.13-1-.26-1.43Zm1.82-39.81h-.26l.26.65.26-.13Zm1,1.95v-.26h-.26c0,.13,0,.26.13.26Zm-.13-1.82v.26h.78v-.26Zm1.56.52-.39.26v.13l.52-.13Zm1.69.91c-.65-.39-.52-.26-.91.39Zm-.39-1.56h.13l-.13-.13Zm1.3,1.3h-.13l.13.52Zm.91-3.63v-.26l-.13.13Zm3.11,3.37v-.39h-.91a2.07,2.07,0,0,0-1.56.52Zm-1-2.72a5.87,5.87,0,0,1,1.69-.13c-.13-.65-.52-.91-.91-.78Zm2.33-.78c0,1.43.13,1.3-1.3,1.69l-.78.39.78.13q.39.58.78,0l.13.13.26-.13V14c.65-.13,1-1.3,1.43-1.69Zm-.39-1.3v-.13h-.13v.13Zm-.13,3.5h0Zm.26,1.43c.13-.13.26-.26.26-.39s-.26.13-.39.26Zm1.3-.65c.39.39.65.39.91,0Zm.13-.91h.52v-.26h-.52Zm.52,3.89-.26.13h.26Zm.65-4.41c0,.52,0,.91-.13,1a2.61,2.61,0,0,0,.52-1Zm1.3,1.17v-.13c-.13,0-.13,0-.13.13Zm5.45-.52a.71.71,0,0,0-.78-.52h-.78c-.91,0-1-.13-1.17-1.17a1.19,1.19,0,0,0-.39-.65L204.64,13v-.13c0,.91-.78.52-.91.52l-.13,1.43c.65,0,.91-.26,1-.65.78-.26,1.17-.39,1.3-.26s.39.13.78.13l1.56-.13a1.16,1.16,0,0,0,1.56-.13Zm-4-1.82c0-.13.13-.26.26-.39l-.39-.13c-.13,0-.13.13-.13.26Zm1.82-.91h-.13l.13.13Zm2.72,3.63-.13.13h.13Zm4.15-.52a10.27,10.27,0,0,1-1.17-.52v-1a.48.48,0,0,1-.39.13c-.13,0-.78-.39-.91.52l.39.13c0,.39-.91.52-.39,1.17a1.18,1.18,0,0,1,.91-.39c.13,0,.65.13,1.56.26Z"/><path class="cls-1" d="M277.27,46.95l.39.39a3.5,3.5,0,0,0-.65,3.24v.13h-.13a4.31,4.31,0,0,0-.39,2.33v.39c0,.13-.13.91-.39,2.2l-1.17,5.71-.78,3.76c-.39,1-.65,2.33-1,3.76-.13.65-1.3,2.46-1.17,3.89-.91.39-.91,1.69-1,2.2a10.67,10.67,0,0,0-.78,2.46l-.65,1.3c-1,1.17-1.69,3.37-2.08,4A8.33,8.33,0,0,1,264.3,86l-1.56,1.17c-.13-.13-.26-.13-.65-.13a6.45,6.45,0,0,0-1.69.39c-.65.13-1,.26-1.17.26a6.2,6.2,0,0,1-2.59-1,6.79,6.79,0,0,0-1.43-.91c0-.13-.26-.13-.26-.26-.39-1-2.2-2.59-2.59-3.5,0,0-.26-.52-.65-1.56-.91-.13-1-1.82-1.43-2.33a3.59,3.59,0,0,1-.65-1.17,11.65,11.65,0,0,1-1-2.46,19.23,19.23,0,0,0-1-3,3.14,3.14,0,0,1-.52-1.69v-.26c0-.52-.52-1.17-.65-1.56l-1.17-4.41a9.47,9.47,0,0,1,.26-1c0-.65-.26-1.3-.26-2.2a3.22,3.22,0,0,0-1-2.59c0-.65.91-1.3-.26-1.69l-.13-.52c0-.13.13-.52.26-1,.13-.13.13-.52.13-1a3.24,3.24,0,0,0-.52-1.82c.13,0,.26-.13.52-.39,0-.39-1.17-.91-.78-1.56h.26v-.78a3.25,3.25,0,0,0-.39-1.69c0-.13-.78-.91-.13-1.43.13-.13.13-.39-.13-.65-.91-1-.78-2.85-.78-3.37,0-1.17-.26-2.33-.26-3.37a15.1,15.1,0,0,1-.13-3,8.21,8.21,0,0,0-2.07,3.37,37.44,37.44,0,0,1-2.2,4.54l-1.82,4-.52.78c-.39.39-.65.65-.52.78s0,.39-.13.52c-1,.91-1.17,3.24-1.56,3.89l-1.69,3.89a.48.48,0,0,0-.13.39c0,1.69-1.3,4-1.69,5.06a28.17,28.17,0,0,1-1.3,2.72l-1.43,3.24a20.41,20.41,0,0,1-1.43,3L224.23,74l-.13.26c.39,1.95-1.43,3.89-2.2,5.32a42,42,0,0,1-3.11,5.45l-1.95,3.37-.65,1.3-.78-.13a3.59,3.59,0,0,1-.65,1.17,2.28,2.28,0,0,1-1.95-.78c-.52-.52-.91-.78-1.3-.78h-.26a1,1,0,0,1-.91-.65,7.69,7.69,0,0,0-1.43-2.46A2.76,2.76,0,0,1,208,84v-.26c0-.39-.65-1.3-.65-1.82l-.52-2.2c-.13-.91-1.43-4.54-1-7.13v-.39c0-.39-.13-.91-.26-1.82v-.65h.13l-.13-.26V67.44a3.83,3.83,0,0,0,.26-1.3,3.78,3.78,0,0,0-.26-1.17V63.8a6.35,6.35,0,0,0,.39-2.85,29.82,29.82,0,0,1,.52-4.41l-.39-.52L207,54.6c.39-.78.39-1.43,0-1.82l-.26-.65a25.08,25.08,0,0,1,.52-3.11l.78-2.08a10.82,10.82,0,0,1-.26-1.69c0-.52,0-.91.13-1a20.37,20.37,0,0,0,.65-2.85,8.75,8.75,0,0,0,.13-2.33c.65-.52.65-1.95.78-2.46a30.14,30.14,0,0,1,.65-3.5c0-.39.39-.39.39-.78V30.48l.13-.91c0-.39-.26-.52-.91-.52l1.56-1-.65-1a3,3,0,0,0,.78-1.56c.13-.52.26-.78.26-.65,0-.39-.26-.65-.65-.91a.48.48,0,0,1-.13-.39c0-.13.26-.65.13-1s-.26-.78-.26-.91a17,17,0,0,1,.39-1.69,1.93,1.93,0,0,1,1.94-.65l2.59,2.2c.26.26.39.39.52.39h.39c.91,0,1.3,1,1.43,1.17a5.66,5.66,0,0,0,1.95,1.3c.65.39,1.56,1.43,2.2,1.95l.26,1.43a8.43,8.43,0,0,1,.13,2.46c-.39,1.17-1.3,3.63-1.17,5.19,0,.39-.39.78-.39,1.17s-1,1.69-1,2.33v.39a4.45,4.45,0,0,1-.52,2.07,24.67,24.67,0,0,0-1.17,4.15c-.13,1-1.17,3.76-1,5.45-.52.52-.26,1.95-.65,2.46-.13.52-.13,1.69-.26,2.33h-.78v.26a2.47,2.47,0,0,1,.65,1.69,2.91,2.91,0,0,1-.13,1.3l-.78,2.85v.52a14.06,14.06,0,0,1,0,2.33,3.49,3.49,0,0,1-.52,2.07c-.39.52-.26,1.82-.26,2.72q.78-.58.78-.78a33.44,33.44,0,0,0,1.56-3.11l.39-.39c1.17-.13,1.3-.65,1.43-2.07a4.2,4.2,0,0,1,.26-.78c.13-.52.52-2.46,1.95-3.11,0-.39.78-1.3.78-1.82a1.76,1.76,0,0,1,.91-1.69l.13-2.08h.26c.52,0,.91.26,1.3.91l1.17-.39a18.44,18.44,0,0,1-2.72,5.32v.78c.91.39.78-.52.78-.65,0-1,.39-1.56,1.3-1.56.65-1.69,1.56-3.5,2.33-5.19l1.3-2.72,2.08-4.54,1.82-3.24a1.86,1.86,0,0,0,.52-1.3,6.69,6.69,0,0,1,1.56-2.46l-.13-.78,1-.91.26-.13.26-.26-.13-.13c-.13,0-.26.13-.39.26v.26l-.52-.65a2.29,2.29,0,0,0,1-.65c.91-.91,1.17-1,.65-1.95a.61.61,0,0,1,.13-.78c.52-.39.52-1.43.91-1.94.65-.91,1.3-3.37,1.82-4a3.52,3.52,0,0,0,0-1.17l-4.67,8.95h-.26V32.81a4.93,4.93,0,0,0,1.43-2.07h-.26c-.52,0-1,1.3-1.95.91.13-.91.91-2.2,1-2.85,0-.13.65-.39,1.17-.78a2,2,0,0,1-.52-.78c.52-.13.39-1.69,1.43-1.69V25a4.57,4.57,0,0,1,.91-2.72l.65,1c.91,0,.39-.65.39-.78a1.25,1.25,0,0,1,1.17,1c-.52.52.39.91.39,1l.91-.26c.13,0,.39.26.91.78,1.95,2.2,2.85,3.37,2.85,3.24a9.34,9.34,0,0,1,1.95,3.5A16.61,16.61,0,0,1,248,36.05l.52,4.93.39,2.72.39-1.43a2.26,2.26,0,0,1,.39.91l.65,4.54.52,1.95.91,3.63c-.13.13-.13.26-.13.52,0,.52.52,1.3.39,1.95v.39a11.85,11.85,0,0,1,.13,2.2v.26A2.09,2.09,0,0,0,252.5,60c.52.52.39,1.69.39,1.82.13,1.17.39,2.21.52,2.85a7.68,7.68,0,0,1,.52,2.72l.91,3.76a14.11,14.11,0,0,1,.65,2.46c0,.39.65.78.78.91l2.59-4.67c0-.13,0-.26.13-.26A5.8,5.8,0,0,0,260.15,66c.13.13.52.13.65.26l1-.65c-.91-.13-1.3-.26-1.17-.26A5.39,5.39,0,0,1,262.1,62c0-.13.39-.91.26-1v-.39c0-.39.39-.78,1-.91l-.52-.65c.13-.52,1-1.43.91-2.07l.65.26-.13-1H264l-.26.78c-.39-.26-.52-.52-.52-.65a2,2,0,0,1,.52-1c.91-1.17.78-3.11.78-3.63L266.12,49a1,1,0,0,1-.52-.91c0-.39.26-1,.13-1.43v-.13a1.34,1.34,0,0,1,.52-1,5.65,5.65,0,0,0,.91-2.2c.13,0-.13-.13-.65-.26a11.52,11.52,0,0,0,.26-1.43h.78L267,40.2c.91-.52.78-2.33.91-2.85.13-.13-.39-.39-.52-.78l.52-.26c.13-1.17.39-2.85.52-4.93l-.91-.39.52-.78.13-.78a5.5,5.5,0,0,0-.65.26l-.13-.26.13-3.89a4.16,4.16,0,0,1-.26-.78l-.26-.26V24c0-1.43-1-2.59-1.17-3.11l-1-2.08a1.75,1.75,0,0,0-1.69-1.3l.13-1.17,1.69.39c.13.39.78.78.78,1.43.13.91,1.3,1.3,2.33.91l1.69,2.21h.13c.13,0,.13,0,.26-.13l2.59,2.59.39-.52A34.17,34.17,0,0,1,275.06,27a12.57,12.57,0,0,1,1.3,5.19,12.31,12.31,0,0,0,.78,2.33c-.13.13-.13.26-.13.65a3.86,3.86,0,0,0,.65,1.82l-.65.65c.39.52.52.91.39,1.3a26.9,26.9,0,0,0,0,3.24l-.13,2.08-.13.65.13.78a3.27,3.27,0,0,1-.52,1.17Zm-67-20.1.13-.13c.13,0,.13,0,.13.13Zm6.1,42.8v-.13h-.26l.13.13Zm6.23-10.37-.13-.91-2.07,2.46.52.52-1.69,1v1c0,1.17-.39,1.94-1.17,2.2V66a7.71,7.71,0,0,1-.78,2.08c-.26.78-.26,1.3.13,1.69.39-.91.52-1.56,1.56-1.56l-.39-.65.65-.39c-.39-.13-.52-.26-.13-.65a1,1,0,0,1,.26.52c.65-.52-.13-.52-.26-.52,0-.91.91-.91,1-.91s-.65-.78,0-1.17l.78.65c-.13-.13-.13-.52-.13-1a11,11,0,0,1,.65-2.33c0-.13,1-1.17.39-2.08Zm-.91,3.5-.13.26.13.26c.13,0,.26-.13.39-.26Zm.39-.52.39-.39v-.52h-.26a4.15,4.15,0,0,0-.26.78Zm.78-7.39,1.17,1,.13-1.43Zm.78-3.11a18.12,18.12,0,0,0,1.3-2.07l.78-.26a8.61,8.61,0,0,1-.52,1.43,5.26,5.26,0,0,1-1,1.3Zm0,1.17.65-.65.26.39-.65.39Zm1.82.39h.13l.13.13-.13.13Zm.39-.91c0-.39-.13-.91,0-1,.13-.39.65-.65,1.3-1.3a4,4,0,0,1-.91,2.33Zm2.33-9.47L228,44.48c-.13.52.13.78.65.91.39-.13.26-1.17,1.17-1a11.09,11.09,0,0,1-1.69,3.76l.13-2.33c-.91.39-1.17,2.46-2.2,2.85A12.83,12.83,0,0,1,228.12,42.93Zm-.78,6.87v.13c-.13,0-.13,0-.13-.13Zm.52-1.17-.13.52-.26-.13.13-.65a.48.48,0,0,0,.39-.13Zm1.3-8.17v1.43l-.65,1a1,1,0,0,1-.26-.52A2.7,2.7,0,0,1,229.16,40.46Zm1.43-2.59.13,1.17a4.54,4.54,0,0,1-1.17.78,7.11,7.11,0,0,1,.65-2.21c.13-.39.65-.52,1-.91a5.25,5.25,0,0,1,1.3-2.85c.13.52.26.78.26.65,0,.39-.39.65-.52,1l-.26.52c0,.13.26.39.91.65l.26-1.43,1-.13c-.52,1.17-1.3,4.15-2.72,5.71-.39.65-.78,2.46-1.43,3.11-.13-.13-.13-.39-.13-.78a3.57,3.57,0,0,1,1.3-2.59v-1.3c.78-.13,1-.52.91-1.43Zm2.07-4.8c0-.65.26-.91.91-1a5.48,5.48,0,0,0-.78,1.82C232.66,33.72,232.66,33.46,232.66,33.07Zm.78,11.41c-.13,0-.26.13-.52.39.13,0,.26.26.39.26s.39-.13.52-.13C233.69,44.61,233.56,44.48,233.44,44.48Zm2.33-.91.13,1.3a2.4,2.4,0,0,0-.91,1.56l-1-.26.78,1.43c.13-.91.26-1.3.26-1.17a1.69,1.69,0,0,0,.91-1.56,1.92,1.92,0,0,0,.52-1.69Zm.13-13.23.52-1.56c-.13.13-.52.13-1.17.13ZM237.46,42c-.65.39-.91.65-1,1Zm.13-.78.78-1.56-1.3,1Zm-.13-5.06.39-.65-.13-.13a1,1,0,0,0-.52.52Zm.39-10.25,1-1.56-.65-.39c-.39,1.17-.65,1.82-.65,1.82Zm.26,10.5.13.26.13-.13c0-.13,0-.26-.13-.26Zm.52-14h-.13v-.13Zm1.3,1.3c-.13,0-.13,0-.13-.13C239.79,23.73,239.79,23.73,239.92,23.73Zm2.85,19.32v.78h.13v-.78Zm.26,6.23.26-.13v.39Zm3.24-2.33.26-.13c0-.13,0-.13-.13-.13l-.13.13Zm1.56,16h-.13v.39L248,63Zm1-21.53c.13,0,.13.13.13.26h-.13c0-.13,0-.13-.13-.13Zm12.71,32.55.65-.39-.13-.26a.48.48,0,0,0-.39.13c-.13,0-.26.13-.26.39Zm1.3-2.46a3.77,3.77,0,0,0-.65-1.3,1.1,1.1,0,0,0-.26.78,1.79,1.79,0,0,0,.65,1.17Zm3.89-16.21a12.61,12.61,0,0,0,1.43-4.93l.26-2.2c-.13.13-.78.52-.78.65a2.92,2.92,0,0,0-.13,1.3,1.26,1.26,0,0,1-1,1.3c.13.13.13.39.13.78,0,.65-.78,2.46-.65,3.11-.39.13-.52.26-.52.52s.39.78.26,1.17l-.65.39.39.13a21.06,21.06,0,0,1-.39,2.59l-1.56,5.58-.91,3.5a3.7,3.7,0,0,0,1.3-2.08c.13-1.17,1-3.11,1.17-4.28a14.1,14.1,0,0,0,.65-2.46,2.73,2.73,0,0,1,.52-1.43,1.52,1.52,0,0,0,.52-1.82A4,4,0,0,1,266.76,55.25Zm-3.5,5.19h-.13l-.13.26c.13,0,.26,0,.26.13l.13-.26Zm.65,9.47v-.26c-.13,0-.26,0-.26.13s0,.13.13.13Zm.91-1.56-.26.13.13.26.26-.13Zm-.13-9.21.13.13V59Zm.39-6.23.39-.26-.13-.39c-.26.26-.39.39-.39.26Zm1.43,11.93.26-.26-.26-.26a.28.28,0,0,0-.26.26ZM267,60.3c0,.13.13.52.26,1.17.13-.65,1.17-1.69.78-2.59A1.82,1.82,0,0,0,267,60.3Zm.91-13.75c.39.13.65-.13.91-.52.91-2.2,1.3-5.58,1.69-7-.52-.52.13-1.17.26-1.3a2.71,2.71,0,0,1-.78-.52l.39-.39a14.15,14.15,0,0,0,.39-3.11,1.34,1.34,0,0,0-.52-1,.48.48,0,0,0-.39.13l-.13.52c-.13,1.69-.52,4.67-1,8.82l.13.52c0,.39.26.91.13,1l-.91.65a1.19,1.19,0,0,1,.39.65C268.45,45.39,267.8,46.17,267.93,46.56Zm.13,11.54c.39-.39.52-.78.13-1C268.06,57.19,268.06,57.45,268.06,58.1Zm1.17-5.71a18.19,18.19,0,0,0-.91,4.28l.91-.52c.39-1.95.52-3.24.65-4.15C269.49,52,269.23,52.13,269.23,52.39Zm-.78,11.54c.91-1,.91-.91,0-1.3Zm1.95-18-.91,5.45.91.13v.91L271.3,51l-.91.52a5,5,0,0,1,.13-1.69c.13-1,.52-1.95.65-3l.39-4.15a4.17,4.17,0,0,0,.26-.78c.39-.65.26-1-.39-1.43C271,42,270.78,43.83,270.4,45.91ZM270,26.72v-.39h-.26a.48.48,0,0,1,.13.39Zm-.26,1.56v1c0,.65.13,1.69.26,2.85.39-.13.52-.26.52-.39-.13-1.56-.26-2.59-.26-3.5Zm0,30.86.13.52.26-.13a.48.48,0,0,1-.13-.39Zm1.69-4.41-.26-.52-.39.52a1,1,0,0,0,.52.26ZM271.17,49c-.13,0-.13,0-.13.13l.13.13c.13,0,.13,0,.13-.13Zm1.56-12.84c-.39-.39-.78-.26-.91-.39C271.82,36.44,272.08,36.57,272.73,36.18Zm.26,1.43-.65-.65c-.39.39-.39.78,0,1.3Z"/><path class="cls-1" d="M326.81,50.19l-.91,3.89a29.55,29.55,0,0,1-1.3,4,5.87,5.87,0,0,1-1.43,2.46c-.52.52,0,.65,0,1-.52.39-1.17,1.95-1.82,2.46l.13.39c0,.52-1,1.43-1,1.82-.13,1-.65,1.43-1.43,1.3,0,.65,0,1-.13,1.17H319l-.91.65c.13.13.13.26.13.52,0,.65-.78,1.43-.91,1.82l-1.69,2.46-2.46,3.37A8.87,8.87,0,0,1,310.47,80a20.49,20.49,0,0,0-1.69,1.69c-.13.13-.65.91-1,.78h-.26c-.65,0-1.82.52-2.33.39v-.13H305l.13.13a3.47,3.47,0,0,1-2.33,1.43,12.79,12.79,0,0,1-3.11.39,11.44,11.44,0,0,1-2.2-.26c-.52-.13-1-.52-1.56-.65s-1.3-1.3-1.95-1.43c-.91-.13-1.95-1.43-2.08-1.56-.52-.52-.91-1.43-1.43-1.95-1.17-.91-2.59-3.63-3.24-4.28a1.1,1.1,0,0,1-.26-.78l-.26-.91a22.09,22.09,0,0,1-2.59-6.1l-.39-1.3-.13-1.43v-.52a4,4,0,0,1-.52-2.2l.13-2.07q0-.39.78-1.17a4.16,4.16,0,0,1-.78.26,27.54,27.54,0,0,1,.39-6.61l.52-1.56h.65c0-.39.13-1,.26-2.07a2.09,2.09,0,0,0-.91-.52c.13-.13.39-.65.52-.65a.82.82,0,0,0,.65-.78c-.13,0-.26.13-.52.39,0-.13-.39-.52-.26-.65.13-.52.13-2.33,1.17-3.24-.13-.13-.13-.26-.13-.65,0-.13.13-.65.26-1.3.65-2.72,1.95-5.32,3-8.43l1.43-4c.65-1,1-1.95,1.43-2.59l1-1.17v-.39A2,2,0,0,1,294,22a3.75,3.75,0,0,1,1.82-2.59c1-2.46,3.76-4,4.67-4.93l.78.39c-.13-.52-.26-.78-.26-.65.13-.13.65-.78,1.3-.26a2.64,2.64,0,0,1,3.24-1.3c1.17.52,2.72,1.43,4.8,2.59L312,16.47a30.5,30.5,0,0,0,3.11,1.43,9.31,9.31,0,0,1,3.63,2.59l.13.26c-.13,1.17,1.56,3.24,1.69,3.89,0,.39.39,1.17.26,1.82v.78c0,.78.26,1.17.91,1.3.39,0,.78,1.3,1.3,1.43v.26c0,.52.65.91,1,1.3a12.36,12.36,0,0,1,2.46,6.22,27.9,27.9,0,0,1,.39,5.06c.13,1.56.26,2.72.26,3.63C327.2,46.56,327.07,47.85,326.81,50.19Zm-42.67,3.24-.26.52H284l.39-.39ZM284,54.86l-.13.13H284Zm.26-6.1c.52.65-.13,1.3-.13,1.43C283.62,49.67,284.14,49.15,284.27,48.76Zm.13,1.82c-.39.91-.13,1,.52,1Zm-.13,2.07h.13v-.13c-.13,0-.13,0-.13-.13Zm1.17-8v.91l.26-.91Zm.13,3.24-.13.13h.39Zm0,21V68.6l-.13.13ZM288.29,67l-.13.13h.13Zm.65-25c0,.13,0,.13-.13.13v.13l.13-.26q.58-.19,0-.78Zm.91-2.72v.13a2.44,2.44,0,0,0-.65,1.43c1-.52,1-.52.65-1.43Zm.91-1-.52.13a.28.28,0,0,1,.26.26Zm0-.13a2.48,2.48,0,0,0,.78-1.95A1.48,1.48,0,0,0,290.75,38.13Zm1.17-2.85-.26.13.26.26h.13Zm.26,39.55v.26c.13-.13.52-.13.65-.26ZM304,70.42l3.76-5.58a16.81,16.81,0,0,0,1.82-3,20.47,20.47,0,0,1,1.82-3,33,33,0,0,0,2.46-4.8h0c.39-1,.91-3.89,2.07-5.06l.26-1.56c.13-1.17.52-2.21.65-3.37v-.91a6.5,6.5,0,0,0-.26-1.56c-.13-.13-.13-.26-.13-.65s.39-.91,1-1.17l-1-.39a2,2,0,0,0,.26-2.33,2.09,2.09,0,0,1-.26-1.43v-.39a29.58,29.58,0,0,1-.26-3.37c-1.17-2.85-2.46-4.8-4-6-.13-.13-.78-1-1.3-1.17h-.13a6.32,6.32,0,0,0-1.43.52c-.13,0-.91-.13-1,.52-.91.39-2.2,1.82-2.85,2.2-.13,0-.39.52-.52.65l-1,1.17-1.3,1.43c-.39.91-2.07,3.11-2.2,4.54-1.43,1.69-2.33,5.06-2.85,6.48a2.72,2.72,0,0,0-.39,1.56c-.13,0-.13,0-.13-.13v.13h.13a7.65,7.65,0,0,0-1.17,2.59v.26c0,.65-.65,2.07-.26,2.72l-.52.26c.13.13.39.78.26.91a34.73,34.73,0,0,0-1,4.28,45.14,45.14,0,0,0-.78,4.54,9.91,9.91,0,0,1-.65,2.72c-.13,0-.13.13-.13.26s.13.13.65.26c-.13.39-.39.52-.39,1l.13,1-.39,1.17a15.11,15.11,0,0,1,.52,2.33c0,.65.26,1.17.26,1.69a6.43,6.43,0,0,1,.39,1.69,26.79,26.79,0,0,0,1,2.59c.26,1.17.91,1.43,1.95,1l1.43-.91a4.93,4.93,0,0,0,2.85-2.72l.65.13c.78,0,1.3-.52,1.43-1.43L304,69c0-.13.13-.13.26-.13ZM293.09,28.14l.65-.39-.13-.26-.65.39Zm10.37,44.35-.78-.13c-.39,0-.65.26-.91.91Zm3.11-1c-.13,0,0,1.17-.65,1.3l-.39-.39-.78,1.94c.13.13.26.26.39.26.65-.91,1.95-2.08,2.46-3,0-.13.65-.91,0-1.3C307.22,70.42,307.1,71.33,306.58,71.46Zm-1.17-4.15v.39h-.26a.48.48,0,0,0,.13-.39Zm.78,3.24c.52-.65,2.07-2.07,2.2-3.5A8.74,8.74,0,0,0,306.19,70.55Zm3.76-1.82h-.26c-.91,0-1.3.52-1.3,1.69Zm-1.3-6.35h-.13l.13-.13Zm0,4.28.91-1,.78-.91a3.7,3.7,0,0,0,1.17-2.46A18.9,18.9,0,0,0,308.65,66.66ZM309,61.6l.13-.26Zm.65-1.17.26-.52.26.13c-.13.13-.26.26-.26.39Zm1.43,8.3c-.13,0-.13,0-.13-.13-.13.13-.13.26-.13.52Zm3-9.6.13.52.26-.52h-.26v-.52l.52.26.78-.78c.39-.65.52-1.43.91-1.95A1.58,1.58,0,0,0,317,55a2.09,2.09,0,0,0-.39-1.17L315,56.15c-.39-.39-.52-.26-.52.26l.65-.26a2.39,2.39,0,0,1-1,1.82v-.91l-1.56,2.21c-.13.13.13.78.13,1.17a1.92,1.92,0,0,0-1.17,1.69.67.67,0,0,0,.91-.39l.52-1,.13-.13-.13-.13.91-.65c.13.13.13.26.13.52l.13-.52h-.26v-.65Zm-2.2,8-.13-.13-.26.52.13.13Zm.65-.91-.26.13.13.13Zm.39-5.84v.26l-.26-.39h.26Zm-.13,8.43c.78-.13,1.17-.78,1.3-1.82Zm.39-14.65h-.13l.13-.26Zm.13-.39h-.13l.13-.13Zm.39,7.52-.26.26.13.13Zm-.13,3.11v0Zm.65-6.48-.13.65h-.26Zm-.39,3.24.26-.26H314Zm.78,5.45h-.13c0,.13,0,.13.13.13Zm1.3-2.72-.78.91.78.26V63.93a3.38,3.38,0,0,0,1.17-2.33A3.38,3.38,0,0,0,315.91,63.93Zm-.52-9.21h0Zm0-.13q.78-.19.39-1.17Zm.39-8.43V46l.13.13c0,.13,0,.13-.13.13Zm0,14.65h.13l.13-.13c0-.13-.13-.13-.26-.13Zm1.3-11.93.65.39c-.91.52-1.3,1-1.3,1.69a3.94,3.94,0,0,0,.39,1.43c.13.13,0,.26-.26.52-.13-.13-.26-.13-.52-.13v.13h.52l.26.52c1.43-1.69,2.08-3.89,1.95-6.87A4.2,4.2,0,0,1,317.08,48.89Zm-.78-4.67h-.13l.13-.13Zm0-1.69a1.18,1.18,0,0,1,0,1.56Zm.13,16.34h.26l-.13-.13Zm.91-17.38-.13-.26-.26.13c0,.13,0,.26.13.26Zm-.13,8.95h.26v.91a.48.48,0,0,0-.39-.13Zm.26,4h-.13l.13.13h.13Zm.52,6.09c0-.13-.13-.13-.26-.13v.26c.13,0,.13,0,.13.13ZM318.38,46l-.13-.52h-.13V46Zm0,12.58c-.13.52-.26.78-.26.91h.26v-.91a2.61,2.61,0,0,0,1.17-1.43C318.38,57.58,318.38,58.23,318.38,58.62Zm0-4,.13.13.39-1a.48.48,0,0,1-.39-.13ZM319,36.05l.26-.13-.39-1.56h-.26Zm-.13,2.33V38l-.13.26Zm.65,1.56c-1,0-.39,1-.39,1.17Zm-.26,3.37H319v.13l.13.13ZM319,68.86v0Zm.26-31.9c0,.39,0,.52.13.65h.13c0-.39,0-.52-.13-.65Zm.65,18.67-.26.13h.39Zm.13-5.45-.13.13h.13Zm.26-1a1.5,1.5,0,0,0,.78-1.69C320.06,48,320.19,48,320.32,49.15Zm.52-11.41H321c-.13,0-.13,0-.13-.13Zm.26,7.65a9.25,9.25,0,0,0,.65-2.59,9.65,9.65,0,0,0-.65-2.85Zm.13,4.93c-.13,0-.13,0-.13.13a.28.28,0,0,1,.26.26l.13-.13Zm.26-4.15c-.13,0-.13,0-.13.13l.39.39c.13,0,.13,0,.13-.13Zm2.2,11.93v.13c.13,0,.13,0,.13-.13Z"/><path class="cls-1" d="M381.27,72.75l1.17,1.17-.78.13.91.52-.65.39-.26.65h-1v.26l1.17.39v.26l-1.3.39a5.08,5.08,0,0,1-1.17.52c-.39,0-.78.13-1.69.26l1.43.39c-.39.13-.78.65-.91.65l-5.06-.13a5.83,5.83,0,0,0-2.2.52,3.18,3.18,0,0,1-2.59.39,6.06,6.06,0,0,0-2.07-.13l-.39.13a3.38,3.38,0,0,1-1.69-.91c-.65.65-1,.78-1.43.65a35.46,35.46,0,0,0-3.76,0l.13-.91-.26-.13c-.13.52-.26.78-.26.91-2.08.13-2.72.26-2.85-.26a5,5,0,0,1-2.46.65l-2.46-.13a8.48,8.48,0,0,1-2.2-.39L347,78.46c0-.13-.13,0-.39.26-.65-.13-2.33-1-3.5-.65a3.1,3.1,0,0,1-1.17-.39c-.52-.13-.78-.26-.91-.26A3.35,3.35,0,0,1,338,75.61c-.39,2.2-.65,3.37-.65,3.76l-.26,2.85-.65,1.3c0,.13.13.39.26.91a2.71,2.71,0,0,1-.78.52l-.39,3.37c.39,0,.65.26,1,.39l-.26.26c-.39,0-.78,0-.91.13-.39,1.95-.52,3.37-.65,4.28-.13.26,0,.65.13,1.3.39.39,0,.65,0,.78-.26.65-.13.91.39,1q.19,0,.39.78a2.34,2.34,0,0,0-1.3.13,2.07,2.07,0,0,1,.39,1,11,11,0,0,1-.78,2.2,8.36,8.36,0,0,0,1.3.26l-.26.39h-1.69L332.12,103q-1-.19-.78-.78h-1.17c-.13,0-.26-.13-.26-.39v-.39c0-.26-.26-.39-.65-.39-.13,0-.39-.91-1-.78-.13-.39-.78-1.17-.91-1.69s-.78-1.82-.39-2.72c.13-.13-.26-.52-.26-.65l-.39.78c-.91-.65-.52-1.95-.52-2.08a2.18,2.18,0,0,0-.26-1.43c-.39-.39-.13-.65.65-.91l.26-2.46c.26-2.07.52-3.63.65-4.67.52-3.24,1-6,1.56-8a1.63,1.63,0,0,1,.52-.91,1.1,1.1,0,0,1-.26-.78l1.3-5.84.65-3.37v-.26a1.72,1.72,0,0,0-.39-1.3,3.09,3.09,0,0,1-.52-1.56,2.24,2.24,0,0,1,.78-1.56,5.35,5.35,0,0,0,1.95-3.63A6.06,6.06,0,0,0,333,55v-.26c1-1,1-3.11,1.17-4a12.78,12.78,0,0,0,.65-4c0-.65.78-2.08.65-3v-.26c0-.65.52-1.95.52-2.46v-.39c0-.65.91-2.59.52-3.63.91-.39.52-1.94.65-2.33a4.93,4.93,0,0,0,.39-2.33l.26-2.59a10.22,10.22,0,0,1,.39-1.69c.52-1.69.26-4.54.26-6l-.65.39c-.39.39-.65,1.3-1.17,1.69A10,10,0,0,0,333.94,28c-.13,0-.26.13-.39.26-.13-.13-.26-.13-.52-.13s-.78.26-1.17.91a2.26,2.26,0,0,1-2.46,1.17l-.52.26-.78-.91a2.32,2.32,0,0,1-1.17-1.3,7,7,0,0,0-1.56-1.43,1.39,1.39,0,0,1-.78-1.56.24.24,0,0,0,0-.39c-.65-.65-.52-2.2-.65-2.59a2.39,2.39,0,0,1-.13-1.69l3-3.37h.26c.26-.26.39-.39.39-.26.52-1.17,2.33-2.33,3-3l.39.13c.13-.39.39-1.17.78-1.3.39-.52,1-.65,1.43-1.17s1.56-.52,1.95-1.17a4,4,0,0,1,1.82-1.3l.52.39c.39-1,.65-1.3,1.69-1.17a4.41,4.41,0,0,0,1.3-1q.19-.58.39,0c.91-.39,2.59-.91,3.5-1.43a7.81,7.81,0,0,1,3.24-.78,8.22,8.22,0,0,0,2.72-.52,1.63,1.63,0,0,1,.91.52,3.13,3.13,0,0,1,2.33-.91c1.17.13,2.72,0,3.89.13a4.54,4.54,0,0,1,1.56.39,8.67,8.67,0,0,1,2.2.13,1.12,1.12,0,0,1,.78.39l.13-.13c.39,0,1-.13,2.08-.26v.13a2.61,2.61,0,0,1-1,.52c.13.13.26.26.39.26l.91.39V6.1a.87.87,0,0,0,1.3,0l-.13.13,1.95,1.3c.13.13.26.26.39.26s.39-.13.78-.13c.91,0,1.69,1.17,2.08,1.3a27.47,27.47,0,0,0,3.76,3.11l2.2,1.56a5.24,5.24,0,0,1,2.46,3.5,16.12,16.12,0,0,0,.78,2.59l.65.13-.78.78.52,1.3-.52.26.26.91-.39,1.82a22.44,22.44,0,0,0-1,2.72c-.13.13-.78,1-.13,1.56l.13-.13-.13.26L377,30.87l-1,1.3-.52,1h-.13v.13c0-.13,0-.13.13-.13s1-.65,1.17.39c-.39.13-2.46.91-3,2.59l.39.13,1-1.17c.13,0,.13,0,.13.13,0,.39,0,.78-.13.91a1.56,1.56,0,0,0-.65.65c-.65.39-.91.26-1-.39l-.78.39A9.47,9.47,0,0,1,370,41.89v.26c-1,.39-1.43.91-1.17,1.82,0,.13-.13.26-.39.52,0-.26,0-.39-.13-.52a10.33,10.33,0,0,0-2.46,2.72l-1,.78.52.52a5.12,5.12,0,0,0-1.82.65l.13.78-.78-.13v.13c0,.91-1.43,1.17-1.56,1.56a5.54,5.54,0,0,1-1.82,1.69l-.52.26c-.52.91-2.2,1.95-2.59,2.59-.65,1-2.46,1.69-3.11,2.2-.13.13-.78,0-1.17,0,0,.39,0,.52-.13.65a9.75,9.75,0,0,1-2.46,2.33,9.17,9.17,0,0,0-2.59,2.08,3.77,3.77,0,0,1-2.2,1.17c-.13,0-.13.13-.13.39v.13l-.13-.13c-1,1.3-1.56,1.95-1.43,1.82L341.2,67l.52.52a17.54,17.54,0,0,0,3.76.52,4.66,4.66,0,0,1,1.43.52,5.54,5.54,0,0,0-.65.26l-1.43-.39c.52,1,1.3.39,1.43.39l.52.26c.39,0,.65-.65,1-.78v.13c0,.65,1,.78,1.43.91l.52-.65H354l.39,1c.13-.13.52-.78.91-.91l1.3-.13a2.5,2.5,0,0,1,1.3.39v.26l.13-.26a9.1,9.1,0,0,1,3.24.78c-.26.26-.39.39-.52.39v1l2.07.13-.39-.78a8.08,8.08,0,0,1,2.07.13c.52-.65-.39-.78-.52-.78a8.58,8.58,0,0,1,2.33-.39c1,.13,3.37.52,4.54.52a22.84,22.84,0,0,0,2.46.26,6.5,6.5,0,0,0,1.56-.26,1.19,1.19,0,0,1,.65.39l1.69-.13c.65.13,1.56,0,2.2.13a6.93,6.93,0,0,1,2.33.65,4,4,0,0,1,.91,1ZM326,96.87h.39v.39c-.13,0-.13,0-.13.13Zm4.15-15-.13.52c0,.13.13.26.26.39s.13-.13.26-.65ZM330.44,93l-.13-.52a.48.48,0,0,0-.13.39ZM331,78.72a5.11,5.11,0,0,0,.65-1.82C330.7,77.29,330.57,77.55,331,78.72Zm.13-2.46h.13v-.13Zm1.69,10.89h-.26l-.39-.26V87a.48.48,0,0,0,.39.13l-1.17,2.2L332,90l-.26,1c.91-.39,1-1.17,1-3.89.39-.52.39-.91,0-1.3Zm-.39,7.91c-.13-.91-.26-1.56-.26-1.94a3.79,3.79,0,0,0-.78,1.3C331.35,94.54,331.73,94.8,332.38,95.06Zm-.13-23.47-.78-.39.26,1.3a2.09,2.09,0,0,1,.52-.91c0,.39,0,.78.13.91.52-.39.65-.65.39-1ZM332,75.48h.13V75H332Zm.26-2.33h.13V73h-.13Zm.91,12.32.26-1.43a1.14,1.14,0,0,0-.78.91Zm.13-6.61-.13.13v.26l.13-.13Zm.39,4.67V81.83l-.26-.13a4,4,0,0,0-.13,1.43l.39.39c0,.13,0,.13.13.13C333.68,83.65,333.68,83.65,333.68,83.52Zm1-9.47c0,1.17-.13,3.37-1.3,4.28l.91,1.3c.65-3.24,1-4.8,1-4.93s0-.26-.26-.65Zm-.78,28.14h-.26c-.13-.13-.26-.26-.26-.39s.13-.13.26-.13Zm.13-21.4c-.13-.13-.13-.26-.13-.52h-.26c.13.13.13.26.13.65Zm1.17,12.84v-1h.13c.13.13.13.52.13,1Zm1.43-9.21.26.13Zm1.43-6.1v.26l-.13-.26ZM339,56.15h-.13l.13.52.13-.13Zm3.11,2.46h.13v-.13l-.13.13a.85.85,0,0,0-.26,1Zm2.2-1.3-.13-.39a1.83,1.83,0,0,0-1.69,1.3ZM343,55.38l-.26.91c.13-.13.91-.39.26-.91,0-.13.52-.65-.39-.78Zm-.13-1.43c.13.13.13.13.13,0l.13-.13-.13-.13ZM347,50.19a1.34,1.34,0,0,0-1.56.26,5,5,0,0,1-1.95,1.82c-.65,0-.65.26-.26.91C344.18,52.52,345.35,51.35,347,50.19Zm-3.63.13c1,0,1.95-1.43,2.46-1.56l-.39-1a3.31,3.31,0,0,0,.91.26,1.34,1.34,0,0,0,1-.52l5.06-4.15,4.67-4A4.66,4.66,0,0,0,358.71,37l.52.65,1.43-1.69a4.12,4.12,0,0,1,1.43-1.56,4.06,4.06,0,0,0,1.56-1.82c.13-.52.65-.91,1-1.56l1-1a.48.48,0,0,1-.13-.39c0-.13.78-.39.65-.78s.65-1.17.78-1.3l.52.52c.13-.39-.13-.52-.52-.52,0-.26,0-.39.13-.52l1.56-2.33a6.48,6.48,0,0,1,1.43-2.2,9,9,0,0,0,1.43-4.8c-1.56-1.56-4.8-2.2-5.32-2.33a43.25,43.25,0,0,0-5.84-1,9.93,9.93,0,0,0-2.33-.13c-.91,0-2.2.13-3.76.26-.52,0-3.76.13-5.71,1.56a1,1,0,0,0,.26.65,5.89,5.89,0,0,1,.52,2.33c0,.65,0,1-.13,1.17s0,.39.13,1a25,25,0,0,0-.65,2.85l.91.26-.78.39c.13.13.78.52.13,1-.39-.52-.78-.26-.78.26l.13.78c0,.13-.26,1.17-.65,2.85l.13.13.65-.78.26.26a4,4,0,0,1-.65,1.43,7.34,7.34,0,0,0-1,5.06l-1.17,1a2.09,2.09,0,0,1,.91.52,21.46,21.46,0,0,1-.91,1.95l1-.52a2.84,2.84,0,0,1-.39,1c-.91.13-.78,1.17-.78,1.3-.91.13-.26,1.17-.65,1.3a2.88,2.88,0,0,0,1.17.13,5.24,5.24,0,0,1-1.3,1c.13.39,1,.78.39,1.3l-.65-.26a5.22,5.22,0,0,1,0,1.43,1.88,1.88,0,0,0,.13,1.43,4.17,4.17,0,0,0,.26.78c0,.26-.26.52-.65.78s-.78,1-1.17,1.43Zm.26,4.54.13.13v-.13Zm.78-7-.13-.13-.52.13v.26l.65-.13Zm.26,6.23v-.13l-.13.13Zm1.3-1.17c-.39-.13-.78-.39-1.3.52ZM345.74,41H346l-.13.52h-.13Zm.13,6.1.26.13c-.26,0-.39,0-.39-.13Zm.91-3.5c0,.39-.26.39-.65.26C346.65,43.7,346.91,43.57,346.78,43.57Zm-.13,11.15c-.13.13-.26.13-.52.13l.13.26.39-.39.52.39V55c.39-.26.26-.52-.13-.78ZM346.52,42l.65.13c-.26.26-.39.39-.52.39s-.13.13-.39-.13C346.52,42.15,346.65,42,346.52,42Zm0,10.89c.65-.39.91-.78.91-1.17Zm1-7.39.26.26-.52.65L347,46.3Zm-.13,4.15v.13c0-.13,0-.13.13-.13Zm.65-14.14-.13.52h-.26a1,1,0,0,1,.26-.52ZM349,48.76c-.91-.39-.78-.39-1.17.52l1,.91,1.69-1.69c-.13-.13-.26-1-.91-1.17-.65.39,0,.78,0,1.17C349.5,48.5,349.11,48.89,349,48.76Zm-.52-3.5-.13-.26h.26Zm0,.26h-.13v-.13Zm.13,5.58V51c-.13,0-.13,0-.13.13s.13,0,.13.13ZM349,68.73h-.39c-.13-.13-.13-.13,0-.13l.13-.13Zm0-42.15c-.39-.52-.39-.78,0-.91Zm-.26,1.17v-.26l.26.13Zm.91,24.9c-.91-.39-.91.52-.91.65Zm1.43-10a2.79,2.79,0,0,1,.91-.52c0,.91-.39,1.43-1,1.56a4,4,0,0,0-.91,1,.8.8,0,0,1-.65-1A2.21,2.21,0,0,0,351.06,42.67Zm-.52,8.95c-.13.13-.26.26-.26.39s.26-.13.39-.26Zm2.72-6.35-.39-.13c-.26,0-.52.13-.91.52l-1.43.91a.82.82,0,0,0,.52,1,5.4,5.4,0,0,1,.26.65l1.17-1.17c.13-.13.13-.39.13-1Zm-2.07,2.21c0,.13,0,.13-.13.13Zm1,2.85h-.91c.13,1,.78.39.91.39Zm-.39,18.93q.58.58.78,0Zm1.3-26.84L352,42.15a1.55,1.55,0,0,1,1.95-.65Zm-.13,4,.52.26c.26,0,.52-.26.78-.91Zm5.19-4.8a6.33,6.33,0,0,1-1.43-.52,4.14,4.14,0,0,1-2.85,2.46L353.65,45c.78,0,1.3-.26,1.43-.65l.78-1h.91c.13-.13.13-.39.13-.91Zm-3.11,28.79a4.15,4.15,0,0,0-.78.26l-.65-.13v.39a4,4,0,0,1,1.43-.13Zm.13-30a2.71,2.71,0,0,1-.78.52c-.39-.26-.52-.52-.13-.91S355.08,40.07,355.21,40.46Zm0,6.61-.26.39-.13.52a.82.82,0,0,0,1-.52Zm.91-.91H356l.13.13Zm1.95,24.77c-.91-.65-.78-.65-1.69-.13Zm-1.43,8,.13-.26h.13v-.13c0,.13,0,.13-.13.13s0,.13-.13.13Zm1.17-33.33-.91.39.13.26.91-.39Zm.91-1.3.26.13a5.44,5.44,0,0,0,.26-.65Zm.13,25.81v.13h.52v-.13ZM360,40.72l-.13-.26-.39.52Zm.65,29.7c-.52-.39-.65,0-1,.65Zm.52-65.1c.26.39.52.39.65,0Zm1,28.14-.26.26.13-.39.65-.78a.28.28,0,0,1,.26.26Zm0,36.44V70c0-.13,0-.13-.13-.13Zm.91-33.07L363,37l.26.52c0-.13,0-.13.13-.13ZM364,70c0,.13,0,.13-.13.13Zm.39-63.93c.39-.39.65-.39.91,0Zm.13,24.9h.13l-.13.13Zm.26,40.46h.52c-.13-.13-.26-.13-.52-.13ZM366,46.95c-.13,0-.13-.13-.13-.26Zm.39,24.51h0Zm0,.78h-.13v.13Zm1-.52,1-.13h-1.95Zm.26-43.57h0ZM368,44.87v-.26h.26Zm1.69,27v-.52a1,1,0,0,0-.52.26l.52.26c.39.65.52.78,1.17.26C370,71.85,369.6,71.72,369.73,71.85Zm.39-28.92-.26.13-.26-.13.26-.13Zm.65-1.17c0,.65.13.78-.78.39Zm1.3,30.74v.13h.52v-.13Zm.26-33.07c-.26-.26-.13-.52.26-.78A4.15,4.15,0,0,0,372.33,39.42Zm0,39.94v-.13l.13-.13.13.13Zm.78-39.94c-.39.39-.52.39-.65,0Zm0,30.48L373,70l-.13-.26c.13,0,.13,0,.13.13Zm.52,2.59a.48.48,0,0,0-.39.13v.13a.48.48,0,0,1,.39-.13Zm.13,7.13a.83.83,0,0,1,1.17.13Zm1-7-.13.13.26.52.13-.13A1,1,0,0,0,374.79,72.62Zm.65-35.79-.39-.65.78-.26c-.13.13-.13.52-.13.91Zm-.13,35.27h.52q0-.19-.39-.39Zm2.85-53.17c.39-.52.52-.78.39-.91a3,3,0,0,0-.52-1.56l-2.46-2.59c-.13,0-.13,0-.13.13C375.83,14.91,376.73,16.47,378.16,18.93ZM376.73,73l-.91-.26v.39c.39,0,.65,0,.78.13Zm-.26-.65V72.1a.48.48,0,0,0-.39.13A.48.48,0,0,1,376.48,72.36Zm2.72.13.39.52.26-.13-.52-.52a3.1,3.1,0,0,0-1.17-.39,1.34,1.34,0,0,0-1,.52Zm1.82.39h-.26l-.13.13c0,.13.13.13.26.13Z"/><path class="cls-1" d="M450,10l-.39,4.67-.39,2.72L448.84,20l-.39,4.28a15,15,0,0,1-.39,4c-.65,2.07-1.17,5.32-1.56,6.87a21,21,0,0,0-.39,2.59l-.39,1.69a13.74,13.74,0,0,0-.52,3.76,7.58,7.58,0,0,0-.52,2.46c-.52.13,0,.91-.39,1h.13v1.17a4.1,4.1,0,0,1-.39,2.2l-.52,1.17c-.13.91-.26,1.3-.26,1.43l.13,1.56c-.39.39-.39.78-.26,1.43s.26,1,.26,1.17-.13.65-.26,1.3v1.17a5.69,5.69,0,0,1-.26,1.3,4.63,4.63,0,0,0-.26,2.21l.13,1.17c0,.13-.13.65-.26,1.56a15.77,15.77,0,0,0-.13,2.33,10.62,10.62,0,0,0-.13,2.46l.13,5.71-.13,1.69c.13,0-.26.13-.91.26a1.18,1.18,0,0,1,1,1.3l-.78-.26-.13,1a2.14,2.14,0,0,0,.91,2.07,2.09,2.09,0,0,0-.39,1.17,5.44,5.44,0,0,0,.39,1.82,36.88,36.88,0,0,0,.78,3.76c0,.26,0,.39.13.52a3.46,3.46,0,0,1,.91,1.82l.65,2.2-.65-.39-.39,1.3-1.69-.13c0-.13,0-.13-.13-.13a2.3,2.3,0,0,1-1,.65c-.13.13-.39.13-.78.13a1.66,1.66,0,0,1-1.3-.52c-1.95-1.56-3-4.67-3.5-5.58a11.1,11.1,0,0,1-1.43-3.89c-.52-2.46-1.3-4.41-1.56-6l-.78-4.8c-.13-1.17-.26-2.2-.26-2.85a3.76,3.76,0,0,1,.39-1.43,2.56,2.56,0,0,1-.26-.91,3.59,3.59,0,0,1,0-1.69l.13-.91c0-.13-.13-.52-.26-1.17l-.13-1,.13-1a8.12,8.12,0,0,0,.26-2.08V59.78l.39-5.06a22.1,22.1,0,0,1,.52-3l.39-.13-.39-1.95c.13,0,.13,0,.13-.13l.39.39h.13a31.52,31.52,0,0,1,.65-4.54c.39-1.95.65-5.06.78-6.48a1.47,1.47,0,0,1,.39-1,1.06,1.06,0,0,0,0-.91c0-.39.39-1.56-.26-2.2-.13,0-.13-.39,0-.39.39-.13.13-1.17.65-1.56L435,31.9c1.17-.91.78-2.46.78-2.85s-.39-.39-.39-.78c0-.13.52-1,.13-1.69l.13-.26c.65-.91.78-.91.39-2.08,0-.39,0-.65.13-.78a1,1,0,0,0,.26-1.17h-.13c.91-.91.39-3,.52-3.63l-.39.52V16l-.78.78-.52.65a25.52,25.52,0,0,1-1.95,4.41,20.58,20.58,0,0,1-1.3,3.11l-2.2,5.19-1.3,3.37-.26,1.43c-.52,1.56-1.56,4.67-1.94,6.35a33.68,33.68,0,0,0-1.3,5.19,1.19,1.19,0,0,1-.39.65,2.32,2.32,0,0,0-.52,1.69c0,.39,0,.52-.13.65l-.52,1.82-1.69,5.45v1a4,4,0,0,1-.78,2.85c-.13.13-.13.39-.13.78a2.45,2.45,0,0,1-.91,1.82c-.13,0-.13,0-.13.13v.52c-.26,1.43-1.17,1.95-2.59,1.56a2.92,2.92,0,0,0-1.3-.13l-.13.91-.26.13a8.1,8.1,0,0,0-1.82,0l-1.56.39-.13.91-1.3.39a8.2,8.2,0,0,1-2.46-2.85A6.71,6.71,0,0,0,407,62.9l-1.69-3.63c-.91-2.08-1.43-3.63-1.82-4.8a26.78,26.78,0,0,1-.91-3.76,6.77,6.77,0,0,0-.78-2.07,10.32,10.32,0,0,1-.39-1.95c-.13-.65-.26-1.17-.26-1.3l-.39-1.82-.65-1.43a3,3,0,0,0,.13-1.95c-.39-.91-.39-2.72-1-3.76a.61.61,0,0,0,.13-.78,2.5,2.5,0,0,0-.39-1.3c0-.13-.13-.13-.52-.13v.52a3.24,3.24,0,0,1-.52,1.82,1.59,1.59,0,0,0-.39,1.17,11.53,11.53,0,0,1-.39,1.82c-.39,1-.65,3.5-1,4.54a48,48,0,0,0-1.43,8.3,53.38,53.38,0,0,0-.52,6.61,30.52,30.52,0,0,0-.13,3.5l.13.52a16.18,16.18,0,0,1-.52,2.07l-.13,1.82.13,1.94v3.37L393.46,74a3.8,3.8,0,0,0,.26,1.17c.13.13.13.39.13.78a2.91,2.91,0,0,0-.13,1.3,3.26,3.26,0,0,1-.13,1.3c-.13.13-.13.52-.13,1.17l.13,2.46a10,10,0,0,0,.13,2.33l-.13.39.78,4.28a6.66,6.66,0,0,0,.65,1.56,2.84,2.84,0,0,1-1,1.82,2.07,2.07,0,0,0-1,2.33c0,.13-.13.39-.26.91a4.43,4.43,0,0,1-3.24,1.43c-.13-.13-.39-.13-1-.13l-.52.13c-.65,0-1.43-.65-1.82-.78-1.69-1.17-2.85-1.69-3.37-2.08a4.08,4.08,0,0,1-2.85-3.24c-.13-.13-.13-.52-.13-1.17,0-.39.13-1,.26-1.95a7.74,7.74,0,0,0,.26-2.85V81.05l.26-5.71v-.26l-.13-1.82c-.13-1.69.39-4.54.39-5.71,0-2.46,0-4.15.13-5.32.13-2.07.39-3.5.52-4.41.13-1.69.39-3.11.52-4l.52-4.28a53.37,53.37,0,0,0,.91-6.1L384.52,39c0-.52.91-2.08.78-3,0-.13.13-.26.39-.52,0-.13-.65-1,.26-1.43a1.58,1.58,0,0,0,.39-1.17,7.32,7.32,0,0,1,0-1.69c.39-1.95,1.3-4.54,2.2-8.17l1-4c.39-1.43.78-2.85,1.43-4.8a7.44,7.44,0,0,1,.91-2.21c1-2.46,1.95-3.63,3.89-4.28.13-.13.39-.13.91-.13A2.9,2.9,0,0,1,398,8a11.31,11.31,0,0,0,3.5,1.82c.39.13.39.52.78.65.13.13.39.13,1,.13,0,.13,0,.26.13.26.65.13,1.56,1.56,2.59,4.28a9.66,9.66,0,0,0,1.82,3.37c.52.39.78.78.78,1,.13.52.78,1,.91,1.56l-.13,2.46c0,.39.13.91.26,1.82,0,.13.13.26.52.39a1.94,1.94,0,0,0-.39,1.82,15.28,15.28,0,0,1,.26,2.85,3.85,3.85,0,0,0,.26,1.3,9.17,9.17,0,0,1,.26,3.63c0,.39.13,1,.26,1.95v.91c0,.91.39,2.72.52,3.76v1.3c.39.26.65.13.78-.26l.65-2.33a.48.48,0,0,1,.13-.39A23.14,23.14,0,0,0,415,34.76a24.18,24.18,0,0,1,1.3-3.37,57.85,57.85,0,0,1,3-7.13l1.82-3.5H421A68.2,68.2,0,0,1,425,13a30.19,30.19,0,0,1,2.2-3.37l.65-.65a2.51,2.51,0,0,0,1.43-1.82l.52-.52V6.35a23.23,23.23,0,0,1,4-3.76,35.3,35.3,0,0,1,3.37-2.2,1.73,1.73,0,0,1,1-.39c.13,0,.52.13,1.17.26l2.08.65,1.69.39a8.83,8.83,0,0,0,3.76.65c1,0,2.07,1.3,2.2,1.43l1,1a3.23,3.23,0,0,1,.52,2.85A8.39,8.39,0,0,0,450,10ZM383.35,48.5c-.39.52-.52.91-.26,1.17Zm0-2.46h.13a.48.48,0,0,0-.13-.39Zm.39-1-.13-.13c0,.13,0,.13-.13.13l.13.13Zm.13-1.56v.39H384l.13-.39Zm1.95-8.82h-.13l.13.13Zm.26-1.43c0,.13,0,.13-.13.13Zm2.59,8.3-.26-.13a.48.48,0,0,0,.13.39Zm0-1,.39-.52-.26-.13-.13.65h-.13l.13.13Zm.26,4.54-.13.13c.13,0,.13,0,.13.13l.13-.13Zm1-3.24a.48.48,0,0,1-.39-.13,4.43,4.43,0,0,0-.39,2.72Zm.52-7.65.13-.39c0-.13,0-.13-.13-.13s-.13.26-.26.39Zm-.26,2.33c.13.13.26.13.52.13v-.13c-.26,0-.39,0-.52-.13Zm.26-3.5.13-.52h-.13l-.13.52Zm.39,4h-.26l.13.26H391Zm.52-.52h-.13c0,.13,0,.13.13.13Zm.26-3.63v-.13c0-.13,0-.13-.13-.13s0,.13-.13.13Zm0-5.06v.13h.13v-.13Zm.39.91h.13l-.13-.13ZM392.3,25v.52h.26c0-.26,0-.39-.13-.52Zm.26,4h.13c-.13,0-.13,0-.13-.13,0,.13,0,.13-.13.13ZM395,22.18l-.13.13H395Zm4,11.41c-.26,0-.39,0-.52.13v.13c.26,0,.39,0,.52-.13Zm20.75,29.57-.13.26Zm8.43-45.39-.13-.13v.13ZM433,66.53v.26h.13v-.26Zm1-28.27h.13l-.13.13Zm.39-4.8v.26h-.13Zm1.3-10.63h.13c0,.39,0,.52-.13.65Zm.52,29.44h-.13l.13.13Zm.39-30v-.13c-.13,0-.13,0-.13.13Zm-.13,28.4v.13h.13v-.13ZM436.78,18c.39-.39.39-.65.13-.91C436.78,17.25,436.78,17.51,436.78,18Zm1.43,57.45q.78-1,0-1.56Zm.26-2.72v-.26h-.13v.26ZM439.37,86a2.15,2.15,0,0,0-.65-1.56c-.13.39-.26.65-.13.78Zm-.26.39h.13l-.13-.13c-.13,0-.13,0-.13.13Zm2.2,5.45-.52-2.08a4.4,4.4,0,0,1-.65-2.33,1.19,1.19,0,0,0-.39-.65.54.54,0,0,0-.39.78c0-.13,0-.13.13-.13s0-.13.13-.13a.48.48,0,0,1,.13.39,2,2,0,0,0-.13,1,16.38,16.38,0,0,1,1,3c0,.13,0,.13.13.13Zm-.26-20.62-.26.39.13.26v-.13h.26a.48.48,0,0,1,.13-.39ZM441.71,93l-.13-.39h-.13V93Zm.13-28v.26l.26-.13.13-.26c0-.13-.13-.13-.26-.13Zm0,15.69c.13,0,.13,0,.13-.13a1,1,0,0,1,.13-.65C442.48,80.4,442.35,80.66,441.84,80.66Zm.39-18.93h-.13v.13Zm.78,21.4h-.39V83l.13-.13ZM443.52,55h-.26c.13-.13.13-.39.13-.78Z"/></g></g></svg>