<svg xmlns="http://www.w3.org/2000/svg" viewBox="0 0 474.17 565.29"><defs><style>.cls-1{fill:#c8d1da;}.cls-2{fill:#5f8fbf;}</style></defs><title>unsullied-logo</title><g id="Layer_2" data-name="Layer 2"><g id="Layer_1-2" data-name="Layer 1"><circle class="cls-1" cx="274.02" cy="313.33" r="200.16"/><g id="Layer_1-3" data-name="Layer 1"><g id="insignia"><g id="insignia-2" data-name="insignia"><path class="cls-2" d="M134.82,419.14c-22.37,4.22-57.13,3.94-93.71-22.19a3.73,3.73,0,0,0-5.23.92c-8.07,12.1-13.66,19.71-16.32,23.2a1.81,1.81,0,0,0,.92,2.84c12.84,4.22,72.26,21.82,116.64,2C141.15,424.27,139,418.31,134.82,419.14Z"/><path class="cls-2" d="M69.81,440.13c-15-.09-33.47-3.12-49.06-7.43a2.87,2.87,0,0,0-3.12,1.1A283.65,283.65,0,0,1,.39,457a1.57,1.57,0,0,0,.92,2.57c9.08,1.1,38.33,3.67,70.05-2.48C81.45,455.26,80.08,440.13,69.81,440.13Z"/><path class="cls-2" d="M298.13,339.73c-9.9-15.86-24-25.58-42.09-28.52A62.87,62.87,0,0,0,184,363.29s-5.87,39.61-47.68,47.86S58.44,400.89,44,389.24a5.42,5.42,0,0,1-.09-8.34c3.39-2.84,8.8-7.24,17.24-13.39,20.72-15.22,36.77-30.44,50.16-52.36S128,267.57,128,267.57c13.11-82,90.41-138,172.39-124.8,63,10.18,111.59,57.58,124.15,116.45l.28,1.93C452.82,145,381.29,29.71,264.93,1.74V0C383.13,18.8,462.17,128,443.19,246.11L432.46,299s-22.19,110-40.53,179.26c-.92,3.85-8.8,6.42-9.72,10.18-6.05,22.92-10.54,39.61-11.65,43.74-3.3,12.75-20.54,27.14-28,32.92a.73.73,0,0,1-1.1-.92c16.87-31.36-40.71-77.67-48.41-93.71-8.89-18.8,2.84-55.11,11-85.64,4.68-17.7.83-28.79-2.2-37.41-.83-2.48,27.23,2.29,45.66,9.08s33.19,19.71,46,16,16.32-18.34,16.32-18.34a243.79,243.79,0,0,0-44.29-20.81c-23.47-7.79-39.89-7.15-45.48-5.32C314.63,329.46,298.13,339.73,298.13,339.73Z"/><path class="cls-2" d="M193.78,461.32c-18.89-41.08-2.48-86.38,1.93-103.89a51.05,51.05,0,1,1,98.94,25.22c-6.42,24.94-31.91,103.34-11.83,153.77C288.32,550,218.26,514.59,193.78,461.32Z"/></g></g></g></g></g></svg>