<?xml version="1.0" encoding="utf-8"?>
<!-- Generator: Adobe Illustrator 21.0.0, SVG Export Plug-In . SVG Version: 6.00 Build 0)  -->
<svg version="1.1" id="bg_xA0_Image_1_" xmlns="http://www.w3.org/2000/svg" xmlns:xlink="http://www.w3.org/1999/xlink" x="0px"
	 y="0px" viewBox="0 0 132.3 49" style="enable-background:new 0 0 132.3 49;" xml:space="preserve">
<style type="text/css">
	.st0{fill:#FFFFFF;}
</style>
<path class="st0" d="M123.8,39.8H8.3L5.5,7.1l123.7,1.6l-6,17L123.8,39.8z M23.1,27.4l-2.9-10.2h-4.1l5,13.8H25l5-13.8h-3.9
	L23.1,27.4z M32.1,31h3.7V17.2h-3.7V31z M38.4,26.6c0,1.4,0.5,2.6,1.6,3.5c1,0.9,2.6,1.4,4.8,1.4c2.1,0,3.7-0.4,4.7-1.3
	s1.5-2,1.5-3.4c0-1-0.4-1.9-1.1-2.6c-0.7-0.7-1.8-1.2-3.2-1.5c-2.2-0.5-3.4-0.8-3.8-1c-0.4-0.2-0.5-0.5-0.5-0.9
	c0-0.3,0.2-0.6,0.5-0.9c0.3-0.2,0.9-0.4,1.7-0.4c1,0,1.6,0.2,2,0.7c0.2,0.3,0.3,0.6,0.4,1.1h3.6c-0.2-1.7-0.8-2.9-1.9-3.6
	s-2.5-1-4.2-1c-1.8,0-3.2,0.5-4.2,1.4s-1.5,2-1.5,3.3c0,1.1,0.3,1.9,1,2.5c0.6,0.6,1.7,1.1,3.3,1.5c2.2,0.5,3.4,0.9,3.8,1.1
	c0.3,0.2,0.5,0.5,0.5,0.9s-0.2,0.7-0.6,1c-0.4,0.2-1,0.3-1.7,0.3c-1.2,0-2-0.2-2.5-0.7c-0.3-0.3-0.4-0.7-0.5-1.4H38.4z M57.9,23.5
	c-3.1,0.4-4.7,1.8-4.7,4.1c0,0.7,0.1,1.2,0.4,1.7c0.2,0.5,0.6,0.9,1,1.2c0.4,0.3,0.9,0.6,1.4,0.7s1.1,0.2,1.7,0.2
	c1,0,1.9-0.2,2.8-0.6c0.8-0.4,1.6-0.9,2.3-1.7c0,0.2,0,0.5,0.1,0.7c0,0.2,0.1,0.4,0.2,0.6c0.1,0.2,0.2,0.3,0.4,0.5
	c0.2,0.1,0.4,0.2,0.6,0.2c0.2,0.1,0.5,0.1,0.7,0.1s0.5,0,0.7-0.1s0.4-0.1,0.5-0.2v-1.2c-0.7,0.2-1.1,0.3-1.3,0.1s-0.3-0.5-0.3-1.2
	v-7.3c0-0.8-0.1-1.4-0.4-2c-0.3-0.5-0.6-1-1-1.3s-1-0.6-1.6-0.7s-1.2-0.2-1.9-0.2s-1.4,0.1-2.1,0.2c-0.6,0.2-1.2,0.4-1.7,0.8
	s-0.9,0.8-1.2,1.4s-0.5,1.2-0.5,2h1.6c0.1-0.6,0.2-1.1,0.4-1.5s0.5-0.7,0.8-0.9c0.3-0.2,0.7-0.4,1.2-0.5c0.4-0.1,0.9-0.1,1.5-0.1
	c1.2,0,2.1,0.3,2.6,0.8s0.8,1.2,0.8,2c0,0.2,0,0.5-0.1,0.8s-0.2,0.5-0.5,0.6s-0.6,0.2-1,0.3s-0.8,0.1-1.1,0.2L57.9,23.5z M62.7,26.1
	c0,0.7-0.1,1.3-0.4,1.8s-0.6,0.9-1.1,1.2c-0.5,0.3-1,0.6-1.6,0.7C59,29.9,58.4,30,57.7,30c-0.4,0-0.7,0-1.1-0.1
	c-0.4-0.1-0.7-0.2-0.9-0.4c-0.3-0.2-0.5-0.5-0.6-0.8s-0.2-0.7-0.2-1.1c0-0.9,0.3-1.6,1-2.1c0.7-0.4,1.6-0.7,2.8-0.8
	c0.7-0.1,1.4-0.1,2-0.2c0.7-0.1,1.3-0.3,2-0.5V26.1z M77.4,24.9c0,0.7-0.1,1.4-0.3,2.1s-0.5,1.2-0.8,1.6s-0.8,0.8-1.3,1
	c-0.5,0.3-1.1,0.4-1.7,0.4c-1.2,0-2.1-0.3-2.6-0.9s-0.8-1.5-0.8-2.7v-8.8h-1.6v8.9c0,0.7,0.1,1.4,0.2,2c0.2,0.6,0.4,1.1,0.8,1.6
	s0.9,0.8,1.5,1.1c0.6,0.3,1.4,0.4,2.3,0.4c0.6,0,1.1-0.1,1.6-0.2c0.4-0.1,0.8-0.3,1.2-0.5s0.6-0.5,0.9-0.7c0.3-0.3,0.5-0.5,0.7-0.8
	V31H79V17.6h-1.6V24.9z M93.1,19.8c-0.5-0.8-1.2-1.5-2.1-1.9s-1.8-0.6-2.7-0.6c-1,0-1.9,0.2-2.7,0.6c-0.8,0.4-1.4,0.9-1.9,1.6
	c-0.5,0.6-0.9,1.4-1.1,2.3s-0.4,1.8-0.4,2.7c0,1,0.1,1.9,0.3,2.8c0.2,0.9,0.6,1.6,1.1,2.2s1.1,1.1,1.9,1.5s1.7,0.5,2.8,0.5
	c0.4,0,0.9-0.1,1.3-0.2s0.9-0.3,1.3-0.5s0.8-0.5,1.2-0.8c0.4-0.3,0.6-0.7,0.9-1.2h0.1V31h1.6V12.4h-1.6L93.1,19.8L93.1,19.8z
	 M92.8,26.5c-0.2,0.7-0.5,1.3-0.9,1.8s-0.9,0.9-1.4,1.2c-0.6,0.3-1.2,0.4-1.9,0.4c-0.7,0-1.3-0.1-1.8-0.4c-0.6-0.2-1-0.6-1.5-1
	c-0.4-0.4-0.7-1-1-1.6c-0.2-0.6-0.4-1.4-0.4-2.2c0-0.8,0-1.6,0.2-2.4c0.2-0.7,0.5-1.4,0.8-1.9c0.4-0.6,0.9-1,1.5-1.3
	s1.3-0.5,2.1-0.5c0.7,0,1.3,0.2,1.9,0.5s1,0.7,1.4,1.2s0.7,1.1,0.9,1.8c0.2,0.7,0.3,1.4,0.3,2.2C93.1,25.1,93,25.8,92.8,26.5z
	 M100.4,31V17.6h-1.6V31H100.4z M100.4,13.9v-1.6h-1.6v1.6H100.4z M112.3,30.9c0.8-0.3,1.4-0.8,2-1.4c0.5-0.6,1-1.4,1.3-2.2
	c0.3-0.9,0.4-1.8,0.4-2.9c0-1-0.1-1.9-0.4-2.8s-0.6-1.6-1.2-2.2c-0.5-0.6-1.2-1.1-1.9-1.5c-0.8-0.4-1.7-0.6-2.8-0.6
	c-1,0-1.9,0.2-2.7,0.6c-0.8,0.4-1.4,0.9-1.9,1.5s-0.9,1.4-1.2,2.2c-0.3,0.9-0.4,1.8-0.4,2.8c0,1.2,0.2,2.2,0.5,3.1s0.8,1.6,1.3,2.2
	c0.6,0.6,1.2,1,2,1.3s1.6,0.5,2.4,0.5C110.6,31.4,111.5,31.2,112.3,30.9z M114,26.4c-0.2,0.7-0.4,1.3-0.8,1.8s-0.8,1-1.4,1.3
	s-1.3,0.5-2.1,0.5c-0.7,0-1.4-0.1-2-0.4s-1-0.7-1.4-1.2s-0.7-1.1-0.9-1.8c-0.2-0.7-0.3-1.5-0.3-2.3c0-0.7,0.1-1.4,0.3-2.1
	s0.4-1.3,0.8-1.8s0.8-1,1.4-1.3s1.3-0.5,2.1-0.5c0.8,0,1.5,0.1,2.1,0.4s1,0.7,1.4,1.2s0.6,1.1,0.8,1.8c0.2,0.7,0.3,1.4,0.3,2.2
	C114.3,25,114.2,25.7,114,26.4z"/>
</svg>
