<?xml version="1.0" encoding="utf-8"?>
<!-- Generator: Adobe Illustrator 21.0.2, SVG Export Plug-In . SVG Version: 6.00 Build 0)  -->
<svg version="1.1" id="Layer_1" xmlns="http://www.w3.org/2000/svg" xmlns:xlink="http://www.w3.org/1999/xlink" x="0px" y="0px"
	 viewBox="0 0 200 33" style="enable-background:new 0 0 200 33;" xml:space="preserve">
<style type="text/css">
	.st0{fill:#02516E;}
	.st1{fill:#28B4E9;}
	.st2{fill:#FFFFFF;}
</style>
<path class="st0" d="M142.7,28.6c7.4-2.5,15.6-5,18.7-9.5c3.1-4.4,2-10.6-2.4-13.7s-10.6-2.1-13.7,2.4
	C142.1,12.2,142.5,20.7,142.7,28.6"/>
<path class="st1" d="M142.7,28.6c4.6-6.3,9.9-13.1,9.9-18.5s-4.4-9.8-9.9-9.8c-5.4,0-9.9,4.4-9.9,9.8S138,22.2,142.7,28.6"/>
<path class="st2" d="M147.5,9.9c0,2.7-2.2,4.9-4.9,4.9s-4.9-2.2-4.9-4.9s2.2-4.9,4.9-4.9C145.3,5.1,147.5,7.2,147.5,9.9"/>
<path class="st2" d="M0,24.5L0,24.5c0-3.1,2.3-4.6,5.7-4.6c1.4,0,2.5,0.2,3.5,0.6v-0.2c0-1.7-1-2.6-3-2.6c-1.5,0-2.6,0.3-3.9,0.8
	l-1-3.1c1.6-0.7,3.1-1.1,5.5-1.1c2.2,0,3.8,0.6,4.8,1.6c1.1,1.1,1.5,2.6,1.5,4.5v8.2h-4V27c-1,1.1-2.3,1.8-4.3,1.8
	C2.2,28.8,0,27.3,0,24.5 M9.2,23.6v-0.7c-0.7-0.3-1.6-0.5-2.6-0.5c-1.7,0-2.8,0.7-2.8,2v0.1c0,1.1,0.9,1.7,2.2,1.7
	C7.9,26,9.2,25,9.2,23.6"/>
<path class="st2" d="M15.7,14.4h4v2c1-1.3,2.3-2.3,4.4-2.3c3.3,0,6.4,2.6,6.4,7.3v0.1c0,4.7-3.1,7.3-6.4,7.3c-2.1,0-3.5-1-4.4-2.1v6
	h-4C15.7,32.7,15.7,14.4,15.7,14.4z M26.6,21.5L26.6,21.5c0-2.4-1.6-4-3.5-4s-3.4,1.6-3.4,3.9v0.1c0,2.3,1.6,3.9,3.4,3.9
	C25,25.4,26.6,23.9,26.6,21.5"/>
<path class="st2" d="M31.7,24.5L31.7,24.5c0-3.1,2.3-4.6,5.7-4.6c1.4,0,2.5,0.2,3.5,0.6v-0.2c0-1.7-1-2.6-3-2.6
	c-1.5,0-2.6,0.3-3.9,0.8l-1-3.1c1.6-0.7,3.1-1.1,5.5-1.1c2.2,0,3.8,0.6,4.8,1.6c1.1,1.1,1.5,2.6,1.5,4.5v8.2h-3.9V27
	c-1,1.1-2.3,1.8-4.3,1.8C33.9,28.8,31.7,27.3,31.7,24.5 M40.9,23.6v-0.7c-0.7-0.3-1.6-0.5-2.6-0.5c-1.7,0-2.8,0.7-2.8,2v0.1
	c0,1.1,0.9,1.7,2.2,1.7C39.6,26,40.9,25,40.9,23.6"/>
<path class="st2" d="M47.4,14.4h4v2.9c0.8-2,2.1-3.2,4.5-3.1v4.2h-0.2c-2.7,0-4.3,1.6-4.3,5v5.2h-4V14.4z"/>
<path class="st2" d="M67.4,14.4h4v2c0.9-1.2,2.1-2.3,4.2-2.3c1.8,0,3.2,0.8,4,2.2c1.2-1.5,2.7-2.2,4.6-2.2c3,0,4.8,1.8,4.8,5.2v9.2
	h-4v-7.9c0-1.9-0.8-2.9-2.3-2.9s-2.4,1-2.4,2.9v7.9h-4v-7.9c0-1.9-0.8-2.9-2.3-2.9s-2.4,1-2.4,2.9v7.9h-4V14.4H67.4z"/>
<path class="st2" d="M91,21.6L91,21.6c0-4.1,2.9-7.4,7-7.4c4.7,0,6.9,3.7,6.9,7.7c0,0.3,0,0.7-0.1,1.1H95c0.4,1.8,1.7,2.8,3.5,2.8
	c1.3,0,2.3-0.4,3.4-1.5l2.3,2c-1.3,1.6-3.2,2.6-5.8,2.6C94.2,28.9,91,25.9,91,21.6 M101,20.4c-0.2-1.8-1.3-3-3-3s-2.7,1.2-3.1,3H101
	z"/>
<path class="st2" d="M107,14.4h4v2c0.9-1.2,2.1-2.3,4.1-2.3c3,0,4.8,2,4.8,5.3v9.2h-4v-7.9c0-1.9-0.9-2.9-2.4-2.9s-2.5,1-2.5,2.9
	v7.9h-4V14.4z"/>
<path class="st2" d="M57.8,24V10.2h4v4.2h3.3v3.4h-3.3V24c0,0.9,0.4,1.4,1.3,1.4c0.7-0.1,1.3-0.3,1.6-0.5l1,2.9
	c-0.8,0.5-2.1,1-3.5,1C59.7,28.8,57.8,27.3,57.8,24"/>
<path class="st2" d="M122.2,24V10.2h4v4.2h3.3v3.4h-3.3V24c0,0.9,0.4,1.4,1.3,1.4c0.7-0.1,1.3-0.3,1.6-0.5l1,2.9
	c-0.8,0.5-2.1,1-3.5,1C124.2,28.8,122.2,27.3,122.2,24"/>
<path class="st2" d="M191.9,24V10.2h4v4.2h3.3v3.4h-3.3V24c0,0.9,0.4,1.4,1.3,1.4c0.7-0.1,1.3-0.3,1.6-0.5l1,2.9
	c-0.8,0.5-2.1,1-3.5,1C193.9,28.8,191.9,27.3,191.9,24"/>
<rect x="166.4" y="10.2" class="st2" width="4" height="18.3"/>
<path class="st2" d="M173.3,10.2h4.2v3.6h-4.2V10.2z M173.4,15.3h4v13.2h-4V15.3z"/>
<path class="st2" d="M179.1,26.7l1.7-2.6c1.5,1.1,3.1,1.7,4.5,1.7c1.2,0,1.7-0.4,1.7-1.1v-0.1c0-0.9-1.4-1.2-2.9-1.6
	c-2-0.6-4.2-1.5-4.2-4.3v-0.1c0-2.9,2.3-4.5,5.2-4.5c1.8,0,3.7,0.6,5.3,1.6l-1.5,2.8c-1.4-0.8-2.8-1.3-3.8-1.3s-1.5,0.4-1.5,1v0.1
	c0,0.8,1.3,1.2,2.9,1.7c2,0.7,4.3,1.6,4.3,4.2v0.1c0,3.1-2.4,4.6-5.4,4.6C183.2,28.8,181,28.2,179.1,26.7"/>
</svg>
