<?xml version="1.0" encoding="utf-8"?>
<!-- Generator: Adobe Illustrator 21.0.2, SVG Export Plug-In . SVG Version: 6.00 Build 0)  -->
<svg version="1.1" id="Layer_1" xmlns="http://www.w3.org/2000/svg" xmlns:xlink="http://www.w3.org/1999/xlink" x="0px" y="0px"
	 viewBox="0 0 2500 2729.7" style="enable-background:new 0 0 2500 2729.7;" xml:space="preserve">
<style type="text/css">
	.st0{fill:#FFFFFF;}
	.st1{fill:#002A41;}
	.st2{fill:#0071B5;}
</style>
<g>
	<path class="st0" d="M507.4,1249.8h65.2c29.4,0,51,5,64.7,15c13.8,10,20.7,25,20.7,45.2c0,13.8-4.2,25.2-12.6,34.4
		c-8.4,9.2-20.7,15-36.8,17.6v1c19,2.8,32.9,8.8,41.9,18c8.9,9.2,13.4,21.9,13.4,38.3c0,21.9-7.3,38.8-21.8,50.6
		c-14.5,11.8-35.1,17.7-61.8,17.7h-72.9L507.4,1249.8L507.4,1249.8z M524,1355.7h52.4c22.3,0,38.6-3.7,48.7-11.1
		c10.1-7.4,15.2-19.1,15.2-34.9c0-15.8-5.7-27.3-17.2-34.5c-11.4-7.2-28.5-10.7-51.1-10.7h-48L524,1355.7L524,1355.7z M524,1370.3
		v102.6h55.9c44,0,66-17.9,66-53.7c0-32.6-23.2-49-69.6-49H524z M830.7,1403.7h-96.6l-33.2,83.9h-18.4l95.6-238.7h10.6l93.7,238.7
		h-18.7L830.7,1403.7L830.7,1403.7z M740.1,1388.7h85.1l-32.4-85.7c-2.7-6.7-6-16-9.8-28c-2.9,10.4-6.1,19.8-9.6,28.3L740.1,1388.7z
		 M1017.4,1261.4c-29.8,0-53.3,9.5-70.4,28.6c-17.1,19.1-25.7,45.2-25.7,78.4c0,33.9,8.1,60.3,24.2,79
		c16.2,18.8,39.2,28.1,69.3,28.1c20,0,38.3-2.5,55-7.6v14.6c-15.7,5.5-35.3,8.3-58.9,8.3c-33.4,0-59.7-10.8-78.9-32.4
		c-19.2-21.6-28.8-51.7-28.8-90.4c0-24.2,4.6-45.5,13.7-63.9c9.2-18.4,22.3-32.7,39.5-42.7c17.2-10,37.2-15,59.9-15
		c23.2,0,44,4.3,62.3,13l-6.7,15C1054.7,1265.7,1036.5,1261.4,1017.4,1261.4L1017.4,1261.4z M1282.6,1487.6h-20.3l-91.2-125.5
		l-31.7,28v97.6h-16.6v-237.8h16.6v123.6l26.3-26.3l93.2-97.3h21.1l-97.4,100.5L1282.6,1487.6L1282.6,1487.6z M1316.6,1249.8h65.2
		c29.4,0,51,5,64.7,15c13.8,10,20.7,25,20.7,45.2c0,13.8-4.2,25.2-12.6,34.4c-8.4,9.2-20.7,15-36.8,17.6v1c19,2.8,32.9,8.8,41.9,18
		c8.9,9.2,13.4,21.9,13.4,38.3c0,21.9-7.3,38.8-21.8,50.6c-14.5,11.8-35.1,17.7-61.8,17.7h-72.9V1249.8z M1333.2,1355.7h52.4
		c22.3,0,38.6-3.7,48.7-11.1c10.1-7.4,15.2-19.1,15.2-34.9c0-15.8-5.7-27.3-17.2-34.5c-11.4-7.2-28.5-10.7-51.1-10.7h-48V1355.7
		L1333.2,1355.7z M1333.2,1370.3v102.6h55.9c44,0,66-17.9,66-53.7c0-32.6-23.2-49-69.6-49H1333.2L1333.2,1370.3z M1725.3,1368.4
		c0,37.7-9.4,67.6-28.3,89.5c-18.9,22-44.9,32.9-78.1,32.9c-33.1,0-59-11-77.9-32.9c-18.9-22-28.3-51.9-28.3-89.9
		c0-37.8,9.5-67.6,28.5-89.4c19-21.7,45-32.6,78-32.6c33.2,0,59.1,10.9,77.9,32.8C1716,1300.7,1725.3,1330.5,1725.3,1368.4
		L1725.3,1368.4z M1530.8,1368.4c0,34,7.6,60.4,22.8,79c15.2,18.6,37,27.9,65.4,27.9c28.6,0,50.5-9.2,65.6-27.6
		c15.1-18.4,22.7-44.8,22.7-79.2c0-34.3-7.6-60.5-22.7-78.8c-15.1-18.3-36.9-27.4-65.3-27.4c-28.3,0-50.1,9.2-65.5,27.6
		C1538.5,1308.3,1530.8,1334.4,1530.8,1368.4L1530.8,1368.4z M1952.7,1487.6h-16.7l-140.8-211.1h-1.3c1.3,25.2,2,44.1,2,56.9v154.2
		h-15.9v-237.8h16.6l140.7,210.8h1c-1-19.5-1.5-38.1-1.5-55.6v-155.1h16.1L1952.7,1487.6L1952.7,1487.6z M2149.8,1487.6h-129.9
		v-237.8h129.9v15.3h-113.4v89.9h107v15.3h-107v102h113.4L2149.8,1487.6L2149.8,1487.6z M2196.6,1474.9c0-10.6,4.3-15.9,13-15.9
		c8.9,0,13.3,5.3,13.3,15.9c0,10.6-4.4,15.9-13.3,15.9C2201,1490.8,2196.6,1485.5,2196.6,1474.9z M2244.3,1547.6
		c-10,0-18.2-1.5-24.6-4.4v-14.3c8.5,2.2,16.5,3.3,24.2,3.3c26.2,0,39.4-14.3,39.4-42.9v-239.4h16.6v237.8
		C2299.9,1527.6,2281.4,1547.6,2244.3,1547.6L2244.3,1547.6z M2497.2,1426.3c0,19.8-7.3,35.6-21.9,47.2
		c-14.6,11.6-34,17.4-58.1,17.4c-29.1,0-51.3-3.2-66.8-9.6v-16.6c17.1,7.3,39,10.9,65.5,10.9c19.5,0,35-4.5,46.4-13.4
		c11.4-8.9,17.2-20.7,17.2-35.2c0-9-1.9-16.5-5.7-22.4c-3.8-5.9-10-11.3-18.5-16.2c-8.6-4.9-21.1-10.1-37.7-15.8
		c-24.3-8.3-41.1-17.4-50.3-27.1c-9.3-9.7-13.9-22.6-13.9-38.8c0-17.8,7-32.3,20.9-43.5c13.9-11.2,31.8-16.8,53.7-16.8
		c22.3,0,43.3,4.2,62.9,12.7l-6,14.3c-19.7-8.2-38.6-12.4-56.6-12.4c-17.6,0-31.6,4.1-42,12.2c-10.4,8.1-15.6,19.2-15.6,33.2
		c0,8.8,1.6,16,4.8,21.6c3.2,5.6,8.4,10.7,15.7,15.2c7.3,4.5,19.7,9.9,37.4,16.2c18.5,6.4,32.5,12.6,41.8,18.6
		c9.3,6,16.1,12.9,20.4,20.5C2495,1406.2,2497.2,1415.4,2497.2,1426.3L2497.2,1426.3z"/>
</g>
<path class="st1" d="M1.4,1143v240.7l179.2,102.1v-69.4L60.7,1348v-107.3l119.8,68.3v-64L1.4,1143z"/>
<path class="st2" d="M359.7,1143v240.7l-179.1,102.1v-69.4l119.8-68.3v-107.3l-119.8,68.3v-64L359.7,1143z"/>
<path class="st2" d="M1.4,1588v-240.7l179.2-102.1v69.4l-119.8,68.3v101.8l119.8-68.3v69.4L1.4,1588L1.4,1588z"/>
<path class="st1" d="M359.7,1588v-240.7l-179.1-102.1v69.4l119.8,68.3v101.8l-119.8-68.3v69.4L359.7,1588L359.7,1588z"/>
</svg>
