<?xml version="1.0" encoding="utf-8"?>
<!-- Generator: Adobe Illustrator 21.0.2, SVG Export Plug-In . SVG Version: 6.00 Build 0)  -->
<svg version="1.1" id="Layer_1" xmlns="http://www.w3.org/2000/svg" xmlns:xlink="http://www.w3.org/1999/xlink" x="0px" y="0px"
	 viewBox="0 0 2500 2199.2" style="enable-background:new 0 0 2500 2199.2;" xml:space="preserve">
<style type="text/css">
	.st0{fill:#FFFFFF;}
	.st1{fill:#E24B31;}
</style>
<path class="st0" d="M2498.5,1207.1c-6.1-59.6-49.3-86.1-89.9-86.1c-18.6,0-33.4,5.3-39.1,7.6l-8,3.4l-6.8,4.9
	c-9.5,7.2-26.2,17.1-41,22.4c-0.8-12.1-0.4-27.7,1.5-40.6l0.4-2.3c11-104.7-11-165.8-65.2-181.3c-9.1-2.7-18.6-3.8-28.1-3.8
	c-33,0-62.2,15.9-81.2,29.6c-15.9-20.1-42.5-31.5-75.9-31.5c-49.7,0-89.5,23.1-103.9,60.3c-1.5,3.8-3.4,9.5-5.7,17.1
	c-29.2-64.5-88.8-89.1-144.1-89.1c-52.4,0-103.2,20.5-122.2,34.9c-0.8,0.8-1.9,1.1-3,2.3c-49.7,35.3-88.4,79.7-115.7,133.1
	c-13.3-46.3-42.5-89.5-94.8-122.1l-0.8-0.8c-1.5-0.8-2.7-1.5-4.2-2.3c51.2-91,96.7-211.7,69.4-326.6
	c-28.8-122.5-100.9-140.7-141.5-140.7c-16.7,0-33.8,3-51.2,9.1l-1.1,0.4l-1.1,0.4c-76.2,30-109.6,75.1-116.8,85.7
	c-7.6,11.4-91,138.1-111.1,323.6c-2.3,20.5-4.6,41.7-6.8,63c-11.8-16.7-31.1-31.9-61.8-41.4c-9.5-3-19.3-4.2-29.2-4.2
	c-42.1,0-76.3,25.8-94.5,42.9l-0.4-0.4c-15.9-23.5-41.3-37.6-69.4-38.7h-6.8c-44.8,0-80.4,19.7-106.6,42.1
	c-16.7-29.2-47.4-47.4-83.5-47.4c-3,0-5.7,0-8.3,0.4h-6.1c-49.7,0-88.8,23.5-104.7,62.6c-1.1,3-2.7,6.8-4.2,11.8
	C496,956.7,446.3,934,379.5,934h-6.4c-41.7,0.8-145.7,18.2-209.4,161.6c-9.9,22-17.5,44.4-23.1,66.4c-11.4-5.3-23.8-8-36.4-8
	c-33.4,0-58.4,19-70.6,36.8c-9.9,14.4-41.4,65.6-25.8,115.7c8.3,26.9,27.7,47.4,55,58c23.9,9.5,54.2,18.6,77,25
	c14,31.9,39.1,68.7,83.5,102.4c31.5,23.9,71.7,36,119.1,36c79.7,0,156.7-34.5,165-38.3l3-1.5l0.8-0.8c15.2,15.9,35.3,27.3,60.7,32.2
	c7.6,1.5,17.5,2.7,28.8,2.7c43.2,0,73.2-22,100.9-63.4c22.8,35.7,64.1,55.8,113,55.8h0.4c2.7,0,5.3,1.9,8.3,1.9
	c25.8,0,58-9.1,85-52.4c22.4,40.2,63.3,63.3,111.9,63.3c43.2,0,80.8-17.8,87.6-21.2l1.5-0.8c14.4-7.6,26.6-14.4,36-19.7
	c32.2,17.1,81.2,36,141.1,36c10.2,0,20.5-0.4,30.7-1.5l2.7-0.4l2.7-0.4c127.1-25,209.8-55.4,259.1-78.5
	c34.5,38.7,89.5,75.9,168.1,81.6c8.7,0.8,17.8,1.1,26.6,1.1c64.5,0,116.1-18.2,154-38.3c12.1,12.9,27.3,24.7,47,32.6
	c11.8,4.9,23.9,7.2,36.4,7.2c78.9,0,115.7-94.1,125.9-125.9l19-50.8c16.7,17.8,37.9,32.2,64.9,39.8c14.8,4.2,30.7,6.4,47,6.4
	c86.9,0,170.3-61.5,183.6-71.7C2478.1,1303.5,2504.2,1262.9,2498.5,1207.1"/>
<path class="st1" d="M1702.7,1232.8c0,0-11-38.7,30-113.4c40.6-74.4,72.5-33.8,72.5-33.8s34.9,37.9-4.9,94.5
	C1760.4,1237,1702.7,1232.8,1702.7,1232.8 M1389.7,1286.7c-46.7,122.1-160.1,72.5-160.1,72.5s-12.9-43.6,23.9-166.2
	c36.8-122.2,123.3-74.4,123.3-74.4S1436.4,1164.5,1389.7,1286.7 M1305.2,774.9c0,0,70.6-184,87.6-94.5
	c17.1,89.5-147.9,355.8-147.9,355.8C1246.3,976.4,1305.2,774.9,1305.2,774.9 M296.1,1232.8c3-118.4,80.4-169.9,107.4-144.1
	c26.9,25.8,17.1,81.6-33.8,116.5C319.2,1240,296.1,1232.8,296.1,1232.8 M2434.1,1213.5c-3.8-39.8-39.8-25-39.8-25
	s-57.7,44.8-108.5,39.8c-50.5-5.3-34.5-118.4-34.5-118.4s11-103.9-19-112.7c-30-8.7-66.8,26.9-66.8,26.9s-45.9,50.8-67.5,115.3
	l-6.1,1.9c0,0,6.8-113.4-1.1-139.2c-6.1-12.9-60.7-11.8-69.4,11c-9.1,22.8-52.7,181.7-55.8,248.5c0,0-85.4,72.5-160.1,84.6
	c-74.7,11.8-92.6-34.9-92.6-34.9s203-56.5,195.7-218.5c-6.8-162-163.5-102-181.3-88.8c-17.1,12.9-108.5,67.9-135.4,220.8
	c-0.8,5.3-2.7,28.1-2.7,28.1s-78.5,52.7-122.1,66.8c0,0,122.1-205.6-26.9-299.3c-67.5-40.6-121.4,44.8-121.4,44.8
	s201.8-224.6,157-414.6c-21.2-90.3-66.4-100.1-108.1-85.3c-63,25-86.9,61.5-86.9,61.5S1199.3,745,1180.3,921
	c-19,176-46.7,388.5-46.7,388.5s-38.7,37.9-74.4,39.8c-35.7,1.9-19.7-106.2-19.7-106.2s27.7-165,25.8-192.7
	c-1.9-27.7-3.8-42.9-36.8-52.7c-32.6-9.9-68.7,31.9-68.7,31.9s-94.5,143-102.4,165l-4.9,9.1l-4.9-6.1c0,0,66.8-195,3-197.6
	c-63.7-3-105.5,69.4-105.5,69.4s-72.5,121.4-75.5,135.1l-4.9-6.1c0,0,30-141.1,23.9-176c-6.1-34.9-38.7-27.7-38.7-27.7
	s-41.7-4.9-52.7,22c-11,26.9-50.8,204.9-55.8,261.4c0,0-104.3,74.7-173,75.5c-68.7,1.1-61.5-43.6-61.5-43.6s251.5-86.1,182.8-256.1
	c-30.7-43.6-66.8-57.3-117.2-56.5c-50.8,1.1-110.4,31.9-151.4,123.3c-19.3,43.6-27.3,85-27.3,116.5c0,0-47,9.1-70.9-11
	c-23.9-19.7-37.6,0-37.6,0s-41.7,59.6-1.1,75.5c40.6,15.9,103.6,30.7,103.6,30.7c5.7,25.8,22.8,67.9,72.5,105.5
	c74.4,56.5,217.7-8.7,217.7-8.7L537,1394c0,0,1.9,52.7,44.8,60.7c42.9,8,60.7-0.8,135-181.3c43.6-92.6,46.7-87.6,46.7-87.6l4.9-1.1
	c0,0-33.8,176.8-20.9,224.6c12.9,47.8,69.4,42.9,69.4,42.9s30.7,11,55.8-76.6c25-87.6,72.5-179.1,72.5-179.1h6.1
	c0,0-20.9,176,11,233.7c31.9,57.7,114.2,17.1,114.2,17.1s57.7-30.3,66.8-39.5c0,0,68.3,57.7,165,47
	c215.9-42.5,292.5-100.1,292.5-100.1s37.2,93.7,151.7,102.4c131.3,9.9,203-72.8,203-72.8s-1.1,53.5,44.8,72.5
	c45.9,19,76.6-81.2,76.6-81.2l76.6-205.2h6.8c0,0,3.8,131.3,79.7,153.3c76.3,21.6,174.5-54.2,174.5-54.2
	S2438.3,1253.3,2434.1,1213.5"/>
</svg>
