<?xml version="1.0" encoding="utf-8"?>
<!-- Generator: Adobe Illustrator 21.0.2, SVG Export Plug-In . SVG Version: 6.00 Build 0)  -->
<svg version="1.1" id="Layer_1" xmlns="http://www.w3.org/2000/svg" xmlns:xlink="http://www.w3.org/1999/xlink" x="0px" y="0px"
	 viewBox="0 0 2500 3167.3" style="enable-background:new 0 0 2500 3167.3;" xml:space="preserve">
<style type="text/css">
	.st0{fill:#F7DF1E;}
</style>
<path class="st0" d="M0,667.3h2500v2500H0V667.3z"/>
<path d="M657.3,2756.4l191.3-115.8c36.9,65.4,70.5,120.8,151,120.8c77.2,0,125.9-30.2,125.9-147.7V1815h234.9v802.1
	c0,243.3-142.6,354.1-350.7,354.1C821.8,2971.2,712.7,2873.9,657.3,2756.4 M1488.1,2731.3l191.3-110.8
	c50.4,82.2,115.8,142.6,231.6,142.6c97.4,0,159.4-48.7,159.4-115.8c0-80.5-63.8-109.1-171.2-156.1l-58.7-25.2
	c-169.5-72.1-281.9-162.8-281.9-354.1c0-176.2,134.2-310.5,344-310.5c149.4,0,256.8,52,333.9,188L2053.6,2107
	c-40.3-72.2-83.9-100.7-151-100.7c-68.8,0-112.4,43.6-112.4,100.7c0,70.5,43.6,99,144.3,142.7l58.7,25.2
	c199.7,85.6,312.1,172.9,312.1,369.2c0,211.5-166.1,327.2-389.3,327.2C1697.9,2971.2,1556.9,2867.2,1488.1,2731.3"/>
</svg>
