<?xml version="1.0" encoding="utf-8"?>
<!-- Generator: Adobe Illustrator 21.0.2, SVG Export Plug-In . SVG Version: 6.00 Build 0)  -->
<svg version="1.1" id="Layer_1" xmlns="http://www.w3.org/2000/svg" xmlns:xlink="http://www.w3.org/1999/xlink" x="0px" y="0px"
	 viewBox="0 0 2500 2782" style="enable-background:new 0 0 2500 2782;" xml:space="preserve">
<style type="text/css">
	.st0{fill:#FFFFFF;}
	.st1{fill:#21609B;}
</style>
<g>
	<path class="st0" d="M2220.8,1186l89,0.5c0,0-165.4,224.1-178.9,242.4c-4.4,5.9-11,12.3-14.4,20.2c-8.5,19.9-17.3,63.5-17.3,63.5
		l-81.4,0.4c0,0,12.7-45.5,12.1-69.7c-0.5-21.2-11.3-42.3-17.3-63.5c-6.1-21.5-14.4-63.5-14.4-63.5h83.7l11.5,46.2L2220.8,1186"/>
	<path class="st0" d="M2052.4,1233.3c16.4,9.9,26.5,64.5,26.5,64.5s-85.9,1.3-132.7,1.3h-40.4l-49.1,213.6h-75
		c0,0,46.7-232.1,57.7-274.2c3.6-13.6,24.5-11.3,59.8-11.3h56.4C1991.9,1227.2,2034.5,1222.5,2052.4,1233.3 M1703,1337.3
		c0,0,2.3-13.7-7.9-29.6c-8.8-13.5-16.9-16.7-40-17.4c-65.2-2-63.9,46.3-63.9,46.3L1703,1337.3z M1773.7,1282
		c9.6,34.5-8.7,115.4-8.7,115.4s-95.1-1.6-147.2,0c-16.2,0.5-35.6-1.8-40.4,5.8c-6.8,10.6,2.5,26.8,10.3,33.7c9,7.9,26.6,8.8,33,9.6
		c42.3,5.4,130.8,1.4,130.8,1.4l-15.3,67.9c0,0-125,6.3-187.6-8.7c-12.3-2.9-23.9-8.9-31.7-17.3c-2.1-2.3-4-5.4-6-8.2
		c-1.6-2.2-6.3-9.3-8.4-14.9c-14.3-38.1,1.7-111,17.3-150.1c1.8-4.5,4.1-10.3,6.5-15.2c3-6.1,5.5-13,7.9-16.6
		c1.6-2.5,3.6-4.1,5.3-6.5c1.9-2.8,4.2-5.5,6.3-7.9c5.8-6.7,12.3-11.4,20.2-17.3c26.1-19.5,73.2-34.7,129.9-28.9
		c21.3,2.2,53.5,9.8,69.3,31.7C1769.3,1261.9,1771.4,1273.5,1773.7,1282L1773.7,1282z M1429.6,1226.9l72.8-0.4
		c0,0-40.5,192.3-61.2,286.1h-83.7c-58.5,0-110.6,7.2-132.7-34.6c-21.5-40.7-1-107.5,8.7-153c6.8-32.1,21.2-97.9,21.2-97.9l75.4-0.7
		c0,0-21.3,102.3-30.2,153.4c-3.2,18.3-9.7,35.5-2.9,49.1c6.5,12.9,15.6,13.8,43.3,14.4c8.8,0.2,37.5,0,37.5,0L1429.6,1226.9
		 M1089.1,1365.4c7.6-27.1,18.7-56.4,17.3-80.8c-1.5-26.1-23.4-49.8-37.5-54.8c-42.5-15-82.3,6-98.1,23.1
		c-20.5,22.2-27.4,48.1-34.6,83.7c-5.4,26.5-9.8,54.4,0,75c17.4,36.5,71.5,28.5,129.9,28.9
		C1074.6,1417.3,1081.8,1391.2,1089.1,1365.4L1089.1,1365.4z M1190.1,1258.7c8.3,60.4-23.6,127.1-45.5,185.1c22.4,2,42-0.3,43.4,1.4
		c1.5,2.2-15,69.2-20.8,69.4c-17.8,0.5-76.7,1-101.2,1c-80.1,0-155.1,5.2-193.4-34.6c-15.5-16.2-26.3-44-28.9-63.5
		c-4.3-32.6,1.1-68.5,8.7-98.1c6.8-26.7,15.6-51.9,28.9-75c33.7-58.8,92.3-102.4,190.5-92.3c19,2,46.4,10.3,63.5,20.2
		c1.2,0.7,5.3,4,6.3,4.6C1164.6,1191.3,1185.6,1226.4,1190.1,1258.7L1190.1,1258.7z M835.5,1227.3c-4.8,22.1-9.7,47.1-14.8,68.9
		h-80.8c6.3-24.2,11.1-48.2,17.3-69.3C783,1226.9,807.1,1227.3,835.5,1227.3 M737,1316.4h77.9c-10.2,56.4-30.4,147.4-46.2,210.7
		c-9.9,39.6-16.5,68.5-43.3,89.5c-2.4,1.9-3.8,1-5.8,2.9c-4.9,4.7-27.8,10.2-40.4,11.5c-20.5,2.2-43.8,0.3-69-0.2
		c6.6-24.2,14.1-53.2,20-74.8c61.6,7.5,63.1-50.7,75-106.8C712.1,1416.8,733,1329.4,737,1316.4"/>
	<g>
		<path class="st1" d="M555.2,1463.6l-1.7,4.3c-28.5,55.4-78.9,89.4-150.8,90.9c-33.6,0.7-65.7-7.9-86.6-17.3
			c-45.2-20.3-83.1-57.9-103.9-98.1c-29.8-57.6-35.1-137.8,26.7-197.7c1,0-7.5,13-6.6,13l-1.7,5.5
			c-44.6,139.6,92.8,259.2,226.3,245.5C489.1,1506.5,530.1,1488.9,555.2,1463.6"/>
		<path class="st1" d="M474.4,1405.9c33.6,0.2,68.7-15.5,89.5-37.5c-18.2,46.1-70.8,75.8-141.4,66.4c-59.1-7.9-115.4-67.4-121.2-127
			c-4.2-43.4,10.9-69.3,35.8-100.7c-8.7,16.4-11.9,29.1-12.7,37.2C314.8,1338.1,399.2,1405.4,474.4,1405.9"/>
		<path class="st1" d="M560.5,1289.3c-5.2,12-35.3,34.6-48.6,37.4c-52.6,11.2-86.3-13.7-103.9-42.1c-2.6-4.2-7.5-15.8-8.3-18.8
			c-6.8-23.3-3.7-58.4,16.7-76.7c-6.1,17.3-7,37.4-3.8,50.5c2,7.9,7.9,21.7,13.9,30.4c10.9,15.8,17.8,19.7,31.7,28.1
			c6.3,3.8,13,6.8,16,7.6C487.4,1309.7,515.4,1320,560.5,1289.3"/>
	</g>
</g>
</svg>
