<svg xmlns="http://www.w3.org/2000/svg" viewBox="0 0 105.22 243.03"><defs><style>.cls-1{fill:none;stroke:#fff;stroke-linecap:round;stroke-linejoin:round;stroke-width:4.58px;}</style></defs><title>left-brain</title><g id="Layer_2" data-name="Layer 2"><g id="icons"><path class="cls-1" d="M78.91,192.71a24,24,0,1,0,24,24V22.19A19.9,19.9,0,1,0,83,42.09"/><path class="cls-1" d="M63.14,23a24.19,24.19,0,1,0-6,47.61"/><path class="cls-1" d="M38,142.61A24.19,24.19,0,1,0,62.16,166.8"/><path class="cls-1" d="M34.19,190.69a20.66,20.66,0,0,0,19.67,26.92l1.05,0"/><path class="cls-1" d="M34.4,54.79A29.17,29.17,0,0,0,19,102.37"/><path class="cls-1" d="M31.45,99.58a29.17,29.17,0,0,0-14.14,54.67"/><path class="cls-1" d="M82.1,108.78a19.21,19.21,0,1,0-38.41,0"/><path class="cls-1" d="M81,136.6a10.49,10.49,0,0,0-10.49,10.49"/></g></g></svg>