<?xml version="1.0" encoding="utf-8"?>
<!-- Generator: Adobe Illustrator 21.0.2, SVG Export Plug-In . SVG Version: 6.00 Build 0)  -->
<svg version="1.1" id="Layer_1" xmlns="http://www.w3.org/2000/svg" xmlns:xlink="http://www.w3.org/1999/xlink" x="0px" y="0px"
	 viewBox="0 0 649.4 151.5" style="enable-background:new 0 0 649.4 151.5;" xml:space="preserve">
<style type="text/css">
	.st0{fill:#FFFFFF;}
</style>
<title>logo_spotworm_white</title>
<path class="st0" d="M81.7,43.3c-0.9,0.8-0.8,2.4-0.8,3.2c0,0.2,0.2,0.8,0,0.9c-1.2,1.9-1.7,4.3-1.3,6.5v0.9c0.1,0.7,0,1.4-0.2,2.1
	c-1.1,0.2-2,0.8-2.6,1.7C76.2,60,74,60.6,72.7,60l-2.4-1.5c-2.1-1.7-3.6-2.6-4.1-3.2c-1-1.1-1.8-2.3-2.4-3.6
	c-0.2-0.2-0.4-0.9-0.9-1.1c-0.9-0.8-1.4-2-1.3-3.2c0-0.8,0-1.3,0.2-1.5c1.1-0.6,1.7-1.7,1.9-3.4c0.2-2.4,0.9-4.7,1.1-6.3
	c0.5-3,0.7-6,0.8-9c0.1-1.1,0-2.3-0.2-3.4L65,23c-0.6-1.5-0.6-1.7-2.1-1.5c-1.4,0.1-2.9,0.1-4.3,0l-1.5,0.4c-1,0.5-2.1,0.7-3.2,0.6
	c-0.6,0.1-1.2,0.3-1.7,0.6L45,26c-2.8,1.5-4.9,3-6.5,3.9c-2.3,1.1-4.5,2.6-6.3,4.3c-3.3,2.6-6.4,5.4-9.3,8.4
	c-0.6,0.6-1.5,2.1-3.5,4.9c-1.3,1.7-2.8,3.7-4.1,5.8c-0.4,0.8-0.7,1.7-0.9,2.6c-0.4,1.5-0.6,3.1-0.6,4.7c0,0.8,0.2,1.9,0.4,3.4
	c0.1,0.9,0.7,1.6,1.5,1.9c1.6,1,3.4,1.7,5.2,2.1c0.2,0,1.3,0.2,0.8,1.1c0.8-0.1,1.5,0,2.2,0.2l2.1,0.9c0.2,0,0.8-1.1,1.3-0.2
	l-0.8,0.8c0.8,0,1.9,0.2,2.1,0c0.5-0.4,1.3-0.3,1.7,0.2c0,0.6,0.2,0.9,0.8,0.9l-0.8-0.9c0.6,0,1.7-0.2,1.9,1.1h0.9
	c0.6-0.6,0.9-0.4,1.1,0.4l0.9,0.9v-0.9c0.9,0.3,1.8,0.6,2.8,0.8v0.4h-1.3c0.6,0.6,1.5,1.5,2.2,0.2h0.2c0.2,0,0.2,0.2,0.4,0.2
	l3.4,1.3l0.2-0.2c0.5,0.2,1,0.6,1.5,0.9L43.7,76h0.6v-0.3c1.7,0.2,2.6,0.8,3,2.1l0.8-0.2c0.9,0.1,1.8,0.5,2.4,1.1l1.3,0.8l0.8,0.4
	c0.8,0.9,2.8,1.7,3.5,2.2c1.5,0.9,3.6,2.2,6.3,4.3c0.6,0.2,0.9,0.9,1.9,1.5c2.4,1.3,4.1,3.4,6.2,6.2c2.4,3.6,3.4,6.7,3,9.9l0.2,3.6
	v0.4c-0.8,1.3-1.3,5.4-2.2,7.1l-3,5.6c-0.1,0.5-0.4,0.9-0.8,1.3c-1.3,1.5-2.4,3.1-3.6,4.7c-1.3,2.1-3.6,3.6-5.8,5.8l-0.8,0.8
	l-3.4,3.4l-3.4,2.2c-1.4,0.8-2.8,1.5-4.3,2.1c-0.7,0.1-1.4,0.1-2.1,0c0,0.6-0.8,1.1-2.1,1.7c-1.7,0.2-7.5,1.9-11.4,1.9
	c-2,0.1-4.1-0.4-5.8-1.6c-0.8-0.6-1.8-1.1-2.8-1.3c-1.4-0.8-2.7-1.9-3.7-3.2c-2.6-2.2-4.1-3.4-4.3-3.9c-0.9-1.3-1.3-2.6-0.9-3.6
	c-1.3-1.3-1.9-2.2-1.9-3.2c0.1-1.1,0.6-2.2,1.3-3c1.7,0.8,2.1,1.3,2.6,3.7h1.3l0.2,0.2c0.3,1.3,1.5,2.2,2.8,2.1
	c2.6,0.1,5.2-0.3,7.7-1.1l2.2-0.4c0.3,0,0.5-0.2,0.8-0.4l3.7-2l-0.4,1.3c0.6-0.2,1.3-0.9,1.9-0.8c0.2,0.2,0.4,0,0.6-0.4l3.2-2.2
	c2.1-1.5,3.9-2.4,4.9-3.4c1.5-1.7,4.5-4.3,6-5.8c0-0.2-0.2-0.8,0-0.9c1.3-0.9,2.1-3.7,2.6-4.5c0.8-0.8,1.4-1.8,1.9-2.8
	c0.6-1.1,1.1-2.3,1.5-3.6c0.2-0.6,0.9-2.2,1.9-5.2c0.2-0.5,0.2-1,0-1.5c-0.2-0.7-0.3-1.5-0.4-2.3c0-0.6-0.2-1.7-0.4-3.2
	c-0.2-0.6-0.6-1.1-1.1-1.5c-2.1-1.3-4.9-2.2-8.4-3.7l-3.5-1.5c-1.9-0.8-3.8-1.4-5.8-1.9l-3.9-1.3l-2.1-0.9l-1.7-0.6
	c-1.3-0.2-2.6-0.4-3.9-0.8L19.8,77c-4.6-1.5-8.7-4.4-11.6-8.3l-3.9-5.4c-0.5-1.1-1.2-2.1-2.1-3C0.9,59,0.4,57,0.2,54.2
	C0,53.3-0.1,52.3,0,51.4c-0.1-1.5,0.1-3,0.8-4.3c0.9-2.1,1.9-4.2,3-6.2c0.6-1.3,1.5-2.4,2.6-3.4c0.9-0.8,1.7-2.4,2.2-3.2
	c0.7-1,1.4-1.9,2.2-2.8l2.8-2.1c0.2,0,0.4-0.2,0.4-0.4l-0.2-0.4c1.8-1.1,3.4-2.4,5-3.7c0.6-0.2,0.9-1.7,1.5-1.9
	c0.8-0.4,1.5-1,2.1-1.7c0.2-0.6,1.1-0.9,1.7-1.5c0.6,0.1,1.1,0,1.7-0.2l0.6-1.7c0.4-0.1,0.8-0.2,1.2-0.4c2-0.3,3.7-1.5,4.7-3.2
	c0.2-0.6,0.6-0.4,0.8-0.6l2.1-1.1c0.6-0.2,1.9-1.3,3.2-1.1c0.2,0.2,1.1-0.6,1.7-0.8c0.2-0.4,0.4-0.8,0.8-1.1
	c-0.2-0.2-0.4-0.4-0.6-0.4l0.4-0.4c1.2-0.3,2.4-0.4,3.5-0.4h0.6c0.2,0,0.8-0.2,1.5-0.4c0.9-0.8,2-1.2,3.2-1.1c0.2,0,1.3,0.2,3.5,0.6
	c2.4,0.6,4.3,0.4,5.6,0.9c1.3,0.5,2.6,1.1,3.7,1.9c0.5,0.1,1.1,0.4,1.5,0.8l2.2,1.7c1.5,1.7,1.5,1.7,3.7,2.2v-1.1
	c1.7,0.2,3.2,1.3,4.9,3.4c0.2,0.6,0.9,0.9,1.5,1.9c1,1.5,2.1,2.8,3.4,4.1l0.6,1.9l0.9,3.5c0.2,0.6,0,0.9,0.2,1.5l0.8,6.2
	c0.2,0.7,0.3,1.4,0.2,2.1c-0.4,1.9-0.6,2.8-0.6,3S81.5,42.4,81.7,43.3z M4.1,49.1C3.4,49,3,49.3,3,50.3L4.1,49.1z M18.9,31.2
	c-1.2,0.6-2.1,1.6-2.6,2.8h-1.1l-0.8,2.1c-0.8-0.6-0.6,0.8-1.1,0.8h-0.2c-0.8,0-1.1,0.8-0.6,1.5l0.4,1.5c-0.6,0-0.8-0.2-0.8-0.4
	c-0.2-0.2-0.2-0.8-0.4-0.9c-0.2,0.4-0.4,0.8-0.8,1.1l-1.3-1.1c-0.4,1.5-1.3,2.8-2.4,3.7c-0.9,0.8-2.6,3.4-3.4,4.1
	c-0.5,0.6-0.4,1.5,0.2,2.1c0,0,0,0,0,0l1.1-1.9l0.6,1.9l0.6-0.2c0.1-1.1,0-2.1-0.2-3.2l1.7-2.2l1.5-2.4l1.1,1.7
	c1.1-0.4,1.9-1.2,2.4-2.2c0.2-0.2,1.3-0.9,0.8-1.9c0.9-0.2,0.8-1.3,0.8-1.9l0.8,0.9c1-0.8,1.8-1.8,2.6-2.8c0.6-0.8,1.4-1.4,2.3-1.7
	c0-0.2,0.2-0.4,0.4-0.6L18.9,31.2z M5.8,49.9L6,50.1c0-0.2,0-0.2,0.2-0.2H5.8z M6.9,46.5v0.4h0.2v-0.4H6.9z M8.8,43l-0.2,0.4h0.2
	L9,43.2L8.8,43z M10.9,38.1H11v-0.2h-0.4L10.9,38.1z M11.8,37h-0.2l0.2,0.2V37z M19.2,34l0.4-0.2v-0.2c-0.2,0-0.4,0.2-0.6,0.4
	L19.2,34z M21.3,29.9l-0.8,1.3c0.8,0,1.1-0.2,1.1-0.8L21.3,29.9z M22.4,26l-0.6,0.9c0.6,0,1.3,0.8,2.1,0L22.4,26z M24.3,22.4v0.2
	h0.4v-0.2H24.3z M25.6,26.7l-0.8,0.4l0.8-0.2V26.7z M27.6,18.5v-0.2l-0.4,0.2l0.2,0.2L27.6,18.5z M27.8,20v-0.2L27.6,20l0.2,0.2V20z
	 M29.1,138.4h0.2c0.2,0,0.2,0,0.2-0.2L29.1,138.4z M29.9,18.9l0.4,0.2l0.4-0.6l-0.2-0.2L29.9,18.9z M33.5,133.8l-0.4,0.4v0.2
	L33.5,133.8z M44.8,129.7l-0.8-0.8l-1.7,0.4l-0.4-0.8l-1.1-0.6c-0.8,0.8-1,2-0.6,3c-0.5,0.4-1.1,0.7-1.7,0.9l0.8-1.5
	c-1.7,0-2.1-0.2-2.2,1.9c-0.1-0.1-0.4-0.2-0.6-0.2c-0.6,0-1.1,0.8-1.7,0.6c-0.2,0-0.2,0.6-0.4,0.8c0.6,0.2,0.8,0.6,0.6,0.9
	c-0.6,0.2-1.7,0.4-1.9,1.3l0.4,0.2c1.8-0.5,3.6-1.2,5.4-1.9c0.6-0.2,1.1-0.8,1.7-0.9c1.7-0.9,3.3-1.9,4.9-3c0.6-0.6,0.7-1.5,0.4-2.2
	L44.8,129.7z M35.3,15.9l0.9-0.4c0-0.2,0-0.2-0.2-0.2L35.3,15.9z M35.7,125.9l-0.4,0.4L35.7,125.9z M36.4,13.8h0.4
	c0-0.2-0.2-0.2-0.4-0.2V13.8z M40.7,74.9l-1.1-0.6l-0.2,0.2C40.4,74.7,40.9,74.9,40.7,74.9L40.7,74.9z M41.1,75.1
	c0.6,0.6,1.1,0.6,1.5,0H41.1z M41.7,129.2c-0.1,0.1-0.2,0.4-0.2,0.6h-0.2c0-0.2,0-0.4,0.2-0.6H41.7z M48.8,125.1
	c-0.8,0-1.3,1.5-1.9,1.7v1.5l1.9-1.3c0.7-0.6,0.9-1.1,0.6-1.7L48.8,125.1z M50.2,125.3l-0.2-0.2v0.4L50.2,125.3z M50.8,117.3v-0.6
	h-0.2c-0.1,0.1-0.2,0.4-0.2,0.6H50.8z M51.2,123.3l-0.4,1.1l0.6,0.2c0-0.2,0.2-0.6,0.4-1.3L51.2,123.3z"/>
<path class="st0" d="M164.2,34c0,0.4-0.4,0.8-1.1,1.3l-1.3,0.8l2.1-0.2c-0.2,0.5-0.3,1-0.4,1.5v0.6c0,0.9-0.4,1.5-0.9,1.7
	c0-0.2-0.2-0.9-0.4-2.2l-0.8,1.1c0,1.3-0.6,2.5-1.7,3.2c-0.2,0,0,0.9,0,1.1c0.2,0,0.4,0,0.6,0.2l0.9-2.2c0.9,0.4,1.3,0.9,1.1,1.7
	c-0.2,0.9-1.7,0.9-2.4,1.1c0.2,1.3,0.4,2.1,0.4,2.2c0.2,0.2,0,0.4-0.4,0.8v0.4c0,0.8-0.9,1.3-1.1,1.5v-0.2l-1.1,0.4l0.2-0.4
	l-0.4,0.2l-0.6,1.1l0.9,0.4l-1.3,2.1l-0.9-0.4c-0.9,0.7-1.5,1.8-1.5,3l1.7-2.1v0.6c0,0.9-0.6,1.3-1.5,1.5l-0.4,0.8l-0.2,0.2l0.2-0.2
	l0.9,0.9l-1.1,0.9c-0.2,1.5-0.4,1.5-1.7,0.9l0.6-0.4l-0.2-0.4l-0.4,0.8c-0.6,0.8-0.9,1.3,0,1.9c-0.2,0.6-1.5,0.7-0.8,1.7l-1.4,1.8
	c-0.2,0.6-0.8,0.8-0.8,0.9c0.1,0.1,0.2,0.4,0.2,0.6c0,0.6-0.9,1.3-1.1,2.1c0,0.6-0.4,0.8-0.9,0.8c-1,0.7-1.7,1.7-2.2,2.8l-1.7,3.2
	c-1.1,0-1.7,0.6-1.7,1.5c-0.2-0.2-0.4-0.2-0.9-0.2l-0.2,0.2l-0.6,2.1c-0.6,1.5-2.6,1.9-2.8,1.9l0.2,0.4v0.2l-0.2-0.4l0.2,0.4h-0.2
	l-3,3.7l-2.6,2.4c-1,0.8-1.8,1.8-2.6,2.8c-0.2,0.6-0.9,0.4-0.9,0.6c-0.1,0.5-0.3,0.9-0.6,1.3c0,0.2-0.2,0.2-0.8,0.2l-0.8,1.1
	c-0.2,0.6-0.6,0.9-0.8,0.9c-1.7,0.2-3,2.1-3.6,2.6c-0.7,1-1.8,1.7-3,1.9c-0.3,1.4-1.2,2.6-2.4,3.4c-3.6,3-5.8,4.9-6.9,5.4
	c-0.8,0.6-1.3,1.5-2.1,2.1l0.4-4.5l-0.4,0.2c-0.4,0.4-0.6,0.6-0.4,0.6c-0.4,0.9-0.6,2-0.6,3v0.2c0,0.6-0.9,1.7-0.4,2.6
	c-0.2,0.4-0.3,0.9-0.4,1.3c-0.2,2.8-0.6,4.9-0.8,6.5c0,0.8-0.2,2.1-0.4,3.7c0,0.8-0.8,2.1-0.2,3c0.2,0.2,0,0.6-0.4,1.3l0.6,0.6
	c-0.5,0.4-0.7,0.9-0.8,1.5c0,0.7,0.3,1.4,0.8,1.9c-0.8,1.7-1.1,2.8-0.9,3.4c0,0.2-0.2,0.9-0.4,2.2c0,0.2,0.4,0.4,0.4,0.6l-0.4,6.4
	l0.2,4.5c0,1.3-0.4,1.9-1.3,2.1c-0.8,0.2-1.5,2.2-2.2,2.4l-2.6-0.4l-1.1-1.7c-0.6-0.6-1.3-1.1-2.1-1.5c-0.7-0.1-1.2-0.6-1.3-1.3
	l-1.1-3.4c-0.2,0.6-0.6,1.7-1.3,1.5h0.2l-1.1-1.3v0.2c-0.2-0.7-0.4-1.4-0.8-2.1c1-2.1,1.4-4.4,1.1-6.7l-0.2-2.2l0.2-2.2
	c0.2-1,0.5-1.9,0.9-2.8c-0.6-1.3-0.8-2.7-0.8-4.1c0.1-2.4,0.6-4.8,1.7-6.9l-0.6-0.8c0.2-2.2,0.4-3.7,0.4-4.5c0-1.1,0.2-2.3,0.6-3.4
	c0.2-1.3,0.4-2.1,0.4-2.2c-0.1-0.9-0.4-1.8-0.9-2.6l-0.9-1.9c-0.4-0.8-0.9-1.6-1.5-2.2l1.1-1.9c2.2-0.2,3.7-0.8,3.9-2.8h0.4
	c0-0.2-0.2-0.4-0.6-0.8c0.8-0.2,1.1-0.8,1.1-1.9c0-0.2-0.2-1.5,0.4-2.1c0-0.2-0.4-0.6-0.4-0.8c0.8-1.5,0.8-5.2,1.3-6.7
	c0.2-1,0.4-2.1,0.4-3.2v-0.4c0-0.8,0.8-2.2,0.6-3l-0.2-1.5c0-0.2,0.2-0.9,0.4-1.9c0.5-1.8,0.8-3.6,0.9-5.4c0.1-0.6,0.3-1.3,0.6-1.9
	l-1.1-1.1c0-0.2,0-0.4,0.2-0.4c0.7-0.3,1.2-1.1,0.9-1.9c0-0.8,0.8-2.6,0-3.5c0.4-0.9,0.6-1.8,0.6-2.8c-0.1-0.9,0-1.9,0.2-2.8
	c0.1-0.5,0.4-1,0.8-1.3l-1.1-2.6c0.2-0.9,0.5-1.8,0.9-2.6l-0.4-0.2c-0.9,1.6-1.7,3.2-2.4,4.9c-0.2,0.7-0.3,1.4-0.2,2l-0.6,1.7
	l0.4,0.6c-1.9,1.2-3.1,3.3-3.2,5.6l-1.1-0.2l-1.1,2.1l-2.1,0.8c-0.8-0.6-2.4-1.3-3.2-2.2c-0.4-0.6-1-1.2-1.7-1.5
	c-1.7-0.6-2.4-2.1-3.2-3.5c-0.9-1.7-1.5-4.5-1.7-8.6c0.3-1.3,1-2.5,2.1-3.4c0.2-0.2,0.2-0.4,0.2-0.9L81.6,42l1.5-3.5l0.4,0.2v1.1
	l1.1-2.6l2.2-3.7h-0.2c0.4,0,0.6,0,0.6-0.2c2.1-3,4.5-5.9,7.1-8.6c-0.2,0.2,0.8-0.9,2.4-3l0.9-0.9c0.9-1.3,2-2.4,3.4-3.2
	c0.4,0.4,0.8,0.4,1.3-0.2l-1.3,0.2c1.3-2.1,1.9-2.6,3.6-2.4c0.6,0,1.2-0.4,1.5-0.9l-1.1,0.4l-0.2-0.4l1.5-1.3
	c1.5-1.3,2.8-1.9,3.7-2.6c0.6-0.5,1.4-0.7,2.2-0.6c0.2,0,0.8-0.9,1.3-0.8c1.3-1.5,4.9-2.2,5.8-3c1.7-0.9,5.4-1.7,7.5-2.4
	c0.7,0.1,1.4,0.1,2.1,0c0.9-0.2,1.7-0.4,2.6-0.4l5-0.2c1.8,0.1,3.7,0.4,5.4,0.9c1,0.5,2,0.9,3,1.3c0.6,0.2,1.7,1.1,4.1,2.4
	c1.7,0.9,3.6,3.2,4.3,3.9c1.5,1.5,3.9,4.5,5.4,6c-0.1-1.7-0.7-3.3-1.7-4.7l1.1-0.2c0.8,1.3,2.8,3.2,3,5.4c0,1.5,0.9,2.8,2.8,3.9v0.2
	c0,0.6-1.1,1.5,0.4,2.2l-0.8,0.8v4.3c0,0.9,0,1.3,0.2,1.5C164.2,32,164.3,33,164.2,34z M82.8,41.5v0.2l0.2-0.2L82.8,41.5z
	 M84.8,35.7l-0.4,0.8l0.2,0.8l-0.9,0.4l0.8-1.3c0-0.2,0-0.4,0.2-0.6L84.8,35.7z M85.6,34.4c0-0.6,0.2-0.8,0.8-0.9L85.6,34.4z
	 M87.1,32.7l-0.4,0.8h-0.4c0.2-0.2,0.2-0.4,0.2-0.8H87.1z M90.4,130.2v0.2h0.2v-0.2H90.4z M90.4,138.4h0.2l-0.2-0.2V138.4z
	 M91.7,62.6h-0.2c0-0.2,0-0.2,0.2-0.2V62.6z M92.3,134.9v0.4l0.2-0.2L92.3,134.9z M93,112.3l-0.2,0.2C93,112.5,93,112.5,93,112.3
	c0.6,0.4,0.8,0.8,0.2,1.3c-0.4,0.6-0.4,0.9,0.2,1.3c0.7-0.8,0.8-2.1,0.2-3C93.4,112.1,93.2,112.3,93,112.3L93,112.3z M92.9,121.1
	v0.6l0.4,0.2v-0.8H92.9z M93,129.9v-0.4c0,0.2,0,0.2-0.2,0.2L93,129.9z M93.6,118.1l-0.2-0.4l-0.2,0.4c0,0.2,0,0.2,0.2,0.2
	S93.6,118.3,93.6,118.1z M93.4,123.1l0.6-0.6l-0.2-0.2L93.4,123.1C93.4,123.1,93.4,123.1,93.4,123.1z M94,110.2c0,0.2,0,0.2-0.2,0.2
	c0.2,0.2,0.4,0.4,0.4,0.6L94,110.2z M94.7,107.8L94.7,107.8c0-0.2-0.2-0.4-0.4-0.4l-0.2,0.2L94.7,107.8z M94.5,114.9l-0.2,0.2h0.2
	V114.9z M96.4,101.6c-1.3-0.8-1.3,0.4-1.3,0.6L96.4,101.6z M96.2,128.5h-0.8v0.2L96.2,128.5c0.6,0.2,0.8,0,0.6-0.9
	C96.5,127.8,96.3,128.2,96.2,128.5L96.2,128.5z M97.3,120.6l-0.2,0.2h0.2V120.6z M98.8,133.9l-1.3,0.9l1.3,0.2V133.9z M98.3,110.4
	l0.2-0.2h-0.2V110.4z M99,123.8c0-0.2,0-0.2-0.2-0.2v0.2c0,0.2,0,0.2,0.2,0.2V123.8z M99.9,120.1l0.4-0.2l-0.6-0.8
	c0,0.2,0,0.2-0.2,0.2L99.9,120.1z M100.7,133.5c-1.1,0.2-1.3,0.6-0.6,1.1L100.7,133.5z M99.8,115.8v0.2c0.2,0,0.2,0,0.2-0.2H99.8z
	 M100.7,110.8l-0.4-0.4l-0.4,0.2l0.4,0.4L100.7,110.8z M100.3,112.8v0.2l0.2-0.2l-0.2-0.2V112.8z M100.7,122.4l0.6-0.6l-0.4-0.2
	L100.7,122.4z M101.3,122.7l-0.4,0.9l0.2,0.8c0.1-0.1,0.4-0.2,0.6-0.2L101.3,122.7z M103.5,16.6l-0.2-0.4c0,0.2-0.2,0.4-0.6,0.6
	L103.5,16.6z M104.8,126.8c0-0.2,0.2-0.3,0.4-0.3c0.2,0,0.3,0.2,0.3,0.4c0,0.1-0.1,0.3-0.3,0.3L104.8,126.8z M108.5,16.8
	c0-0.2,0.2-0.4,0.4-0.6c0.4-0.4,0.9-0.7,1.5-0.9l1.7-1.1c1.1-0.4,2.1-1,3-1.7l0.8-0.6c1.7-0.2,3.6-2.1,4.3-2.6l0.2,0.2l5-1.7
	c0.8-0.2,2.1-1.1,3.4-0.9c0.2,0,0.4-0.2,0.8-0.6c0.6-0.2,2.4-0.2,3.4-1.1c-0.9-0.1-1.8,0-2.6,0.2l-0.8,0.9L125.9,6
	c-1.7,1.3-2.4,1.5-3.7,0.8c-0.9,1.7-2.1,2.1-4.9,2.6c0.1,0.1,0.2,0.4,0.2,0.6l-5,3c-0.6,0.4-0.8,0.8-0.4,1.3h-0.2
	c-0.2,0-0.9-0.6-1.5,0.2c-1.1,0.6-1.7,1.3-1.5,1.9l-0.4,0.2L108.5,16.8l-0.9,0l-0.8,0.6h-0.6c-0.7,0.5-1.1,1.4-1.1,2.2L108.5,16.8z
	 M105.7,117.5c0.1-0.6,0.2-1.3,0.4-1.9C106.1,115.8,107.2,117,105.7,117.5L105.7,117.5z M105.9,119.6v0.1h-0.2v-0.2L105.9,119.6z
	 M107.2,13.3h0.2l-0.2-0.2l-0.2,0.2H107.2z M107.4,109.7h-0.4c0.2-0.5,0.3-1,0.4-1.5V109.7z M108.9,102.4l4.1-1.7h-2l0.9-0.9
	l-0.2-0.4l-1.9,1.3C109.4,101.2,109.1,101.8,108.9,102.4c-0.1,0.4-0.1,0.7,0,1.1c0,0.2,0.4,0.4,0.9,0.8L108.9,102.4z M109.1,105.2
	l-0.2,0.2l0.2,0.2c0-0.2,0-0.2,0.2-0.2C109.1,105.4,109.1,105.4,109.1,105.2L109.1,105.2z M109.3,93.6l0.2-0.8c-0.2,0-0.4,0-0.4,0.2
	L109.3,93.6c0,0.2,0,0.2,0.2,0.2L109.3,93.6z M109.5,92.1v-0.4l-0.2,0.2L109.5,92.1z M111,86.5v-0.2l-0.2,0.2l-1.1,1.1
	c0.5,0.1,1-0.3,1.1-0.9c0-0.1,0-0.2,0-0.3H111z M110.4,96.2l-0.4,0.4l-0.2,0.2l0.2-0.2l0.6-0.2L110.4,96.2z M110.2,90.2H110v0.2h0.2
	V90.2z M110.4,14.4c0,0.2,0,0.2,0.2,0.2l-0.2,0.2V14.4z M111.2,103.3l-0.2-0.2v0.2H111.2z M141.4,15.1c-3.6,0-7.5,1.3-12.1,3.5
	l-4.5,2l-2.6,1.5l-5.6,3.9c-1.4,0.5-2.1,2-1.6,3.3c0,0.1,0.1,0.2,0.1,0.3c0.2,0.6,1.1,2.2,0.9,3.2c-0.2,1.3,0.6,4.3,0,5.6v0.4
	c0,0.9,0.6,2.1,0.6,3c0,0.6-0.3,1.3-0.8,1.7l0.8,0.6c-0.4,1.1-0.6,1.7-0.4,1.9c0.1,0.4,0.2,0.8,0.4,1.1c0,0.6-0.6,1.3-1.5,2l1.1,0.6
	l-1.3,0.9l0.8,0.8c-0.2,0.9-0.2,1.9-0.2,2.8c0,0.9-0.6,3.4-0.4,4.9c-0.9,0.9-1.1,2.6-0.9,4.7c0,0.6,0,0.9-0.2,1.1
	c-0.8,0.2-0.6,1.3-0.6,1.9l0.9,0.8l0.4,0.4c0-0.2-0.2,0.2-0.4,0.9L114,68l-1.3,0.2c0.6,0.6,0.8,0.9,0.8,1.1s-0.4,0.6-1.1,1.3
	l2.4-0.6c-0.3,1.2-1.4,1.9-2.6,1.9l-0.2,4.5c-0.6,0.6-0.7,1.5-0.4,2.2h0.2c-0.4,1-0.5,2.1-0.4,3.2l2.2-2.4l3-3l1.5-1.5l3-2.8
	c1-1,2-2,2.8-3.2c0.6-0.8,2.1-1.9,2.6-2.6l4.1-5l2.8-3.4l7.7-11l2.8-4.9c1.3-2.4,2.2-3.5,2.4-4.1l2.1-5c0.6-1.5,0.8-3,1.3-4.5
	c0.2-0.6,0.6-0.9,0.6-1.5v-2.5c-0.1-0.8,0-1.6,0.2-2.4c0-0.8-0.8-3,0-4.3C147.9,15.8,144.7,14.8,141.4,15.1L141.4,15.1z M111.9,80.1
	l-0.2-1.5h0.8L111.9,80.1z M111.7,89.9l2.1,0.6c0-0.6,0-0.9-0.2-1.1c0.9-0.2,0.9-0.9,0.4-1.9L111.7,89.9z M112.3,77.2h-0.2
	c-0.2-0.2-0.2-0.4-0.2-0.8L112.3,77.2z M114.5,73.6l-2.2,0.4c0.2-0.6,0.6-0.8,0.8-1.3C113.4,73.1,113.9,73.5,114.5,73.6L114.5,73.6z
	 M112.7,75.7h-0.4v-0.2c0-0.2,0-0.2,0.2-0.2L112.7,75.7z M113,92.5l-0.4,0.2L113,92.5z M114.1,98.3v-0.4h0.8c-0.2-0.4-0.4-0.4-0.8,0
	c-0.9-0.2-1.1-0.2-1.1,1.1L114.1,98.3z M113.2,11.2l0.2,0.2v-0.2H113.2z M113.6,91.7l-0.4,0.4c0.2,0,0.4-0.2,0.6-0.4H113.6z
	 M113.8,83.5c-0.2-0.2-0.2-0.2-0.4,0v0.2l0.2,0.2L113.8,83.5z M115.1,62.6v1.3h-0.2v-1.3L115.1,62.6z M115.1,60.5h0.2l-0.2,0.2V60.5
	z M117,80.2l-1.7,1.9l0.9,0.6L117,80.2z M115.9,86.2h-0.2v0.2L115.9,86.2z M116.2,90.8V91c0-0.2,0-0.2,0.2-0.2H116.2z M116.2,94.7
	c0.9,0.4,1.3,0.9,1.3,1.5c-0.2,0-0.2,0-0.2,0.2c0-0.2,0-0.2,0.2-0.2c0.6-0.4,0.7-1.2,0.3-1.7c0,0-0.1-0.1-0.1-0.1L116.2,94.7z
	 M116.6,90.4L116.6,90.4z M119.8,78.9l-0.8-0.2l-0.8-0.2c-0.6,0-1.1,1.1-1.3,1.3h0.4c0.8,0,1.7,0.6,1.7-0.8L119.8,78.9z M118.7,83.2
	c-0.9,0-1.5,0.4-1.5,1.3C117.9,84.4,118.5,83.8,118.7,83.2L118.7,83.2z M117.4,89.9v0.2l0.2-0.2H117.4z M118.1,13.1l1.7-0.9
	l-0.2-0.4c-0.6,0.2-1.2,0.5-1.7,0.9L118.1,13.1z M118.3,86l0.2,0.2c0-0.2,0.2-0.2,0.4-0.2l-0.2-0.2L118.3,86z M119.1,93.1l-0.8,0.6
	l0.2,0.4l0.8-0.6L119.1,93.1z M118.9,77.4L118.9,77.4z M120.2,9.4L120.2,9.4z M121.7,75.4c-0.7,0-1.2,0.6-1.2,1.3
	c0,0.1,0,0.2,0.1,0.4L121.7,75.4z M120.7,95.7l-0.2,0.2h0.2V95.7z M121.1,91.6L121.1,91.6l0.2-0.1L121.1,91.6z M121.5,85.6l0.2,0.2
	l-0.2-0.4c0,0.2,0,0.2-0.2,0.2L121.5,85.6z M122.4,77.4v0.2l-0.8,0.9c0.3,0.1,0.7,0.1,0.9-0.2L122.4,77.4z M121.9,75.3
	c0.9,0,1.5-0.4,1.5-1.3C122.4,74,122,75.1,121.9,75.3L121.9,75.3z M123,90.5l-0.2-0.4l-0.6,0.9L123,90.5z M124.5,81.1
	c-1.1,0.2-1.7,0.6-1.9,1.5L124.5,81.1z M124.5,72.1v0.4c-0.6,0-0.9,0.4-1.1,1.3l1.1-1.3l0.2-0.2L124.5,72.1z M124.3,71.9L124.3,71.9
	z M125.4,74.9l-0.4-0.2c0,0.2,0,0.4-0.2,0.6L125.4,74.9z M127.6,68.6l-1.3,1.5c-0.2,0-1.7,0-1.1,1.3c0.7-0.1,1.2-0.6,1.1-1.3
	C127,69.9,127.6,69.3,127.6,68.6L127.6,68.6z M126.3,80.9l0.6-0.6c-0.2,0-0.2,0-0.2-0.2L126.3,80.9z M128,79.2l-0.6-1.1l-0.4,0.2
	c0.2,0.4,0.4,0.8,0.8,1.1L128,79.2z M128.6,85.2c-0.2,0-0.2,0-0.2-0.2l-0.9,0.8l0.2,0.2c0-0.2,0.2-0.2,0.4-0.2L128.6,85.2z
	 M130,65.9l-0.4-0.2l-0.6,0.9l0.4,0.2L130,65.9z M129.6,9.9h0.2l-0.2-0.4c-0.2,0.2-0.2,0.2,0,0.2V9.9z M130,11.6l-0.2-0.4l-0.2,0.2
	l0.2,0.2L130,11.6z M130.8,68.6l-0.2-0.4c-0.3,0.1-0.6,0.4-0.8,0.8c0.2,0,0.2,0,0.2,0.2L130.8,68.6z M129.8,76.6l0.4,0.4l0.2-0.4
	H129.8z M132.1,9.2l0.2,0.2c0.4,0,1.1-0.2,2.4-0.4c0-0.2,0-0.4-0.2-0.6L132.1,9.2z M133,73.1l-0.6,0.6c0,0.2,0,0.2,0.2,0.2l0.2,0.2
	c-0.2,0,0.2-0.2,0.9-0.4L133,73.1z M133.2,11.8h0.2v-0.6h-0.2V11.8z M134,70.4l0.2-0.8l-0.6,0.8H134z M134.9,68.7
	c0,0.2-0.2,0.4-0.4,0.4c0.2,0,0.4,0,0.6-0.2C135.1,68.7,135.1,68.7,134.9,68.7z M135.1,9.7v0.2l0.2-0.2H135.1z M136,8.8l0.2-0.2H136
	L136,8.8z M136.4,9.7l0.2-0.2h-0.2V9.7z M138.8,8.8l0.6,0.2c0.2,0,0.2,0,0.2-0.2H138.8c-0.6-0.8-0.9-1.1-1.7,0.2
	C137.7,8.8,138.3,8.7,138.8,8.8L138.8,8.8z M137.5,65c0,0.2-0.2,0.4-0.4,0.4c0.2,0,0.4,0,0.6-0.2L137.5,65z M137.5,55.5h0.4l0.2-0.2
	l-0.4-0.4L137.5,55.5z M137.5,67.6v0.2h0.2v-0.2H137.5z M138.8,55.5l-0.2,0.9l0.4,0.2c0-0.6,0-0.8,0.2-0.9L138.8,55.5z M139.9,55.9
	l-0.2-0.2v0.2H139.9z M139.7,56.6l0.2,0.2v-0.2L139.7,56.6z M140.1,60.9h-0.2l0.2,0.2V60.9z M140.5,51.6l1.1-1.9
	c-0.7,0.3-1.3,0.9-1.5,1.7L140.5,51.6z M142.5,9.6v0.1l1.3,0.8c-0.6-0.9-0.9-1.3-1.5-1.3L142.5,9.6z M142.5,47.7h-0.2v0.2
	L142.5,47.7z M148,30.1h0.4l-0.2,0.2L148,30.1z M150,63.7v-0.2l0.2,0.2H150z M153.6,57l-0.2-0.4l-0.2,0.2L153.6,57z M156.7,12.5
	l0.4,0.4L156.7,12.5z M158.4,45.8l1.1-0.8v-0.6c-0.2,0.2-0.8,0.2-1.5,0.2L158.4,45.8z M159.5,46.5l-0.8,0.6l0.2,0.2L159.5,46.5z
	 M158.8,49.9l0.2-0.2v0.2L158.8,49.9z M159,48.4l0.4,0.4h-0.2L159,48.4z M161.6,44.1l-0.2,1.7c-1.3-0.9-0.2-1.7-0.2-1.9L161.6,44.1z
	"/>
<path class="st0" d="M225.5,72.3l-1.3,5.6c-0.5,2-1.1,3.9-1.9,5.8c-0.4,1.3-1.1,2.6-2.1,3.6c-0.8,0.8,0,0.9,0,1.5
	c-0.8,0.6-1.7,2.8-2.6,3.6l0.2,0.6c0,0.8-1.5,2.1-1.5,2.6c-0.2,1.5-0.9,2.1-2.1,1.9c0,0.9,0,1.5-0.2,1.7h0.2L213,100
	c0.2,0.2,0.2,0.4,0.2,0.8c0,0.9-1.1,2.1-1.3,2.6l-2.4,3.6l-3.5,4.8c-1,1.4-2.4,2.7-3.9,3.6c-0.9,0.8-1.7,1.6-2.4,2.4
	c-0.2,0.2-0.9,1.3-1.5,1.1h-0.4c-0.9,0-2.6,0.8-3.4,0.6v-0.2h-0.2l0.2,0.2c-0.8,1.1-2,1.9-3.4,2.1c-1.5,0.4-3,0.6-4.5,0.6
	c-1.1,0-2.1-0.1-3.2-0.4c-0.8-0.2-1.5-0.8-2.2-0.9c-0.8,0-1.9-1.9-2.8-2.1c-1.3-0.2-2.8-2.1-3-2.2c-0.8-0.8-1.3-2.1-2.1-2.8
	c-1.7-1.3-3.7-5.2-4.7-6.2c-0.3-0.3-0.4-0.7-0.4-1.1l-0.4-1.3c-1.7-2.4-2.6-5.2-3.7-8.8l-0.6-1.9l-0.2-2.1v-0.8
	c-0.6-1-0.8-2.1-0.8-3.2l0.2-3c0-0.4,0.4-0.9,1.1-1.7c-0.4,0.2-0.7,0.3-1.1,0.4c-0.2-3.2,0-6.4,0.6-9.5l0.8-2.2h0.9
	c0-0.6,0.2-1.5,0.4-3c-0.4-0.4-0.8-0.6-1.3-0.8c0.2-0.2,0.6-0.9,0.8-0.9c0.5-0.1,0.9-0.6,0.9-1.1c-0.2,0-0.4,0.2-0.8,0.6
	c0-0.2-0.6-0.8-0.4-0.9c0.2-0.8,0.2-3.4,1.7-4.7c-0.2-0.2-0.2-0.4-0.2-0.9c0-0.2,0.2-0.9,0.4-1.9c0.9-3.9,2.8-7.7,4.3-12.1l2.1-5.8
	c0.9-1.5,1.5-2.8,2.1-3.7l1.5-1.7v-0.6c-0.1-1.3,0.6-2.5,1.9-3c0.3-1.6,1.2-2.9,2.6-3.7c1.5-3.5,5.4-5.8,6.7-7.1l1.1,0.6
	c-0.2-0.8-0.4-1.1-0.4-0.9c0.2-0.2,0.9-1.1,1.9-0.4c0.9-1.7,2.9-2.5,4.7-1.9c1.7,0.8,3.9,2.1,6.9,3.7l2.4,1.7c1.3,0.9,3.6,1.5,4.5,2
	c2,0.8,3.8,2.1,5.2,3.7l0.2,0.4c-0.2,1.7,2.2,4.7,2.4,5.6c0,0.6,0.6,1.7,0.4,2.6v1.1c0,1.1,0.4,1.7,1.3,1.9c0.6,0,1.1,1.9,1.9,2v0.4
	c0,0.8,0.9,1.3,1.5,1.9c2,2.6,3.2,5.7,3.6,9c0.4,2.4,0.6,4.8,0.6,7.3c0.2,2.2,0.4,3.9,0.4,5.2C226.1,67.1,225.9,68.9,225.5,72.3z
	 M164,77l-0.4,0.8h0.2l0.6-0.6L164,77z M163.8,79l-0.2,0.2h0.2V79z M164.2,70.2c0.8,0.9-0.2,1.9-0.2,2.1
	C163.3,71.6,164,70.8,164.2,70.2L164.2,70.2z M164.4,72.9c-0.6,1.3-0.2,1.5,0.8,1.5L164.4,72.9z M164.2,75.9h0.2v-0.2
	c-0.2,0-0.2,0-0.2-0.2V75.9z M165.9,64.3v1.3l0.4-1.3H165.9z M166,69l-0.2,0.2h0.6L166,69z M166,99.2v-0.4l-0.2,0.2L166,99.2z
	 M170,96.6l-0.2,0.2h0.2V96.6z M171,60.5c0,0.2,0,0.2-0.2,0.2v0.2L171,60.5c0.6-0.2,0.6-0.5,0-1.1V60.5z M172.3,56.6v0.2
	c-0.5,0.6-0.9,1.3-0.9,2.1c1.5-0.8,1.5-0.8,0.9-2.1V56.6z M173.6,55.1l-0.8,0.2c0.2,0,0.4,0.2,0.4,0.4L173.6,55.1z M173.6,54.9
	c0.8-0.7,1.2-1.7,1.1-2.8C173.6,52.6,173.1,53.8,173.6,54.9C173.6,54.9,173.6,54.9,173.6,54.9L173.6,54.9z M175.3,50.8l-0.4,0.2
	l0.4,0.4h0.2L175.3,50.8z M175.7,107.8v0.4c0.2-0.2,0.8-0.2,0.9-0.4H175.7z M192.7,101.5l5.4-8c1-1.3,1.9-2.8,2.6-4.3
	c0.7-1.5,1.6-2.9,2.6-4.3c0.6-0.6,1.7-3,3.6-6.9l0,0c0.6-1.5,1.3-5.6,3-7.3l0.4-2.2c0.2-1.7,0.8-3.2,0.9-4.9v-1.3
	c0-0.8-0.2-1.5-0.4-2.2c-0.2-0.2-0.2-0.4-0.2-0.9c0-0.8,0.6-1.3,1.5-1.7l-1.5-0.6c0.8-0.9,1-2.3,0.4-3.4c-0.4-0.6-0.5-1.4-0.4-2.1
	v-0.6c0-1.3-0.6-3.5-0.4-4.9c-1.7-4.1-3.6-6.9-5.8-8.6c-0.2-0.2-1.1-1.5-1.9-1.7h-0.2c-0.7,0.2-1.4,0.4-2.1,0.8
	c-0.2,0-1.3-0.2-1.5,0.8c-1.3,0.6-3.2,2.6-4.1,3.2c-0.2,0-0.6,0.8-0.8,0.9l-1.5,1.7l-1.9,2.1c-0.6,1.3-3,4.5-3.2,6.5
	c-2.1,2.4-3.4,7.3-4.1,9.3c-0.4,0.7-0.6,1.5-0.6,2.2c-0.2,0-0.2,0-0.2-0.2v0.2h0.2c-0.6,0.9-1.7,2.8-1.7,3.7v0.4
	c0,0.9-0.9,3-0.4,3.9l-0.8,0.4c0.2,0.2,0.6,1.1,0.4,1.3c-0.6,2-1.1,4.1-1.5,6.2c-0.5,2.2-0.9,4.3-1.1,6.5c-0.1,1.3-0.4,2.7-0.9,3.9
	c-0.2,0-0.2,0.2-0.2,0.4c-0.2,0,0.2,0.2,0.9,0.4c-0.2,0.6-0.6,0.8-0.6,1.5l0.2,1.5l-0.6,1.7c0.3,1.1,0.6,2.2,0.8,3.4
	c0,0.9,0.4,1.7,0.4,2.4c0.3,0.8,0.5,1.6,0.6,2.4c0.2,1.3,1.3,2.8,1.5,3.7c0.4,1.7,1.3,2.1,2.8,1.5l2.1-1.3c1.9-0.7,3.3-2.1,4.1-3.9
	l0.9,0.2c1.1,0,1.9-0.8,2.1-2.1l0.9-1.9c0-0.2,0.2-0.2,0.4-0.2L192.7,101.5z M176.9,40.5l0.9-0.6l-0.2-0.4l-0.9,0.6L176.9,40.5z
	 M191.9,104.4l-1.1-0.2c-0.6,0-0.9,0.4-1.3,1.3L191.9,104.4z M196.4,102.9c-0.2,0,0,1.7-0.9,1.9l-0.6-0.6l-1.1,2.8
	c0.2,0.2,0.4,0.4,0.6,0.4c0.9-1.3,2.8-3,3.6-4.3c0-0.2,0.9-1.3,0-1.9C197.3,101.4,197.1,102.7,196.4,102.9z M194.7,96.9v0.6h-0.4
	c0.1-0.1,0.2-0.4,0.2-0.6H194.7z M195.8,101.6c0.8-0.9,3-3,3.2-5C197.7,97.9,196,100.3,195.8,101.6L195.8,101.6z M201.2,99h-0.4
	c-1.3,0-1.9,0.8-1.9,2.4L201.2,99z M199.4,89.8h-0.2l0.2-0.2V89.8z M199.4,96l1.3-1.5l1.1-1.3c1-0.9,1.6-2.2,1.7-3.5
	C201.8,91.6,200.4,93.7,199.4,96L199.4,96z M199.9,88.7l0.2-0.4L199.9,88.7z M200.8,87l0.4-0.8l0.4,0.2c-0.2,0.2-0.4,0.4-0.4,0.6
	H200.8z M202.9,99c-0.2,0-0.2,0-0.2-0.2c-0.2,0.2-0.2,0.4-0.2,0.8L202.9,99z M207.2,85.2l0.2,0.8l0.4-0.8h-0.4v-0.8l0.8,0.4l1.1-1.1
	c0.6-0.9,0.8-2.1,1.3-2.8c0.5-0.4,0.7-1,0.8-1.7c0-0.6-0.2-1.2-0.6-1.7l-2.2,3.4c-0.6-0.6-0.8-0.4-0.8,0.4l0.9-0.4
	c-0.1,1.1-0.6,2-1.5,2.6v-1.3l-2.2,3.2c-0.2,0.2,0.2,1.1,0.2,1.7c-1,0.4-1.6,1.4-1.7,2.4c0.5,0.2,1.1,0,1.3-0.5c0,0,0,0,0,0l0.8-1.5
	l0.2-0.2l-0.2-0.2l1.3-0.9c0.2,0.2,0.2,0.4,0.2,0.8l0.2-0.8h-0.4v-0.9L207.2,85.2z M204,96.8l-0.2-0.2l-0.4,0.8l0.2,0.2L204,96.8z
	 M204.9,95.5l-0.4,0.2l0.2,0.2L204.9,95.5z M205.5,87.1v0.4l-0.4-0.6h0.4V87.1z M205.3,99.2c1.1-0.2,1.7-1.1,1.9-2.6L205.3,99.2z
	 M205.9,78.1h-0.2l0.2-0.4V78.1z M206,77.5h-0.2l0.2-0.2V77.5z M206.6,88.4l-0.4,0.4l0.2,0.2L206.6,88.4z M206.4,92.9L206.4,92.9z
	 M207.3,83.5l-0.2,0.9h-0.4L207.3,83.5z M206.8,88.2l0.4-0.4H207L206.8,88.2z M208,96h-0.2c0,0.2,0,0.2,0.2,0.2V96z M209.9,92.1
	l-1.1,1.3l1.1,0.4V92.1c1-0.9,1.6-2.1,1.6-3.4C210.5,89.6,209.9,90.8,209.9,92.1L209.9,92.1z M209.1,78.8L209.1,78.8z M209.1,78.7
	c0.7-0.2,0.9-0.7,0.6-1.7L209.1,78.7z M209.7,66.5v-0.2l0.2,0.2c0,0.2,0,0.2-0.2,0.2V66.5z M209.7,87.6h0.2l0.2-0.2
	c0-0.2-0.2-0.2-0.4-0.2L209.7,87.6z M211.5,70.4l0.9,0.6c-1.3,0.8-1.9,1.5-1.9,2.4c0.1,0.7,0.2,1.4,0.6,2.1c0.2,0.2,0,0.4-0.4,0.8
	c-0.2-0.2-0.4-0.2-0.8-0.2v0.2h0.8l0.4,0.8c2.1-2.4,3-5.6,2.8-9.9C213.6,68.5,212.7,69.7,211.5,70.4L211.5,70.4z M210.4,63.7h-0.2
	l0.2-0.2V63.7z M210.4,61.3c0.6,0.6,0.6,1.6,0,2.2V61.3z M210.6,84.8h0.4l-0.2-0.2L210.6,84.8z M211.9,59.8l-0.2-0.4l-0.4,0.2
	c0,0.2,0,0.4,0.2,0.4L211.9,59.8z M211.7,72.7h0.4V74c-0.1-0.1-0.4-0.2-0.6-0.2L211.7,72.7z M212.1,78.5h-0.2l0.2,0.2h0.2
	L212.1,78.5z M212.8,87.3c0-0.2-0.2-0.2-0.4-0.2v0.4c0.2,0,0.2,0,0.2,0.2L212.8,87.3z M213.4,66.4l-0.2-0.8H213v0.8H213.4z
	 M213.4,84.5c-0.2,0.8-0.4,1.1-0.4,1.3h0.4V84.5c0.8-0.5,1.4-1.2,1.7-2.1C213.4,82.9,213.4,83.9,213.4,84.5L213.4,84.5z M213.4,78.7
	l0.2,0.2l0.6-1.5c-0.2,0-0.4,0-0.6-0.2L213.4,78.7z M214.3,52l0.4-0.2l-0.6-2.2h-0.4L214.3,52z M214.1,55.3v-0.6l-0.2,0.4
	L214.1,55.3z M215,57.6c-1.5,0-0.6,1.5-0.6,1.7L215,57.6z M214.7,62.4h-0.4v0.2l0.2,0.2L214.7,62.4z M214.3,99.2L214.3,99.2z
	 M214.7,53.2c0,0.6,0,0.8,0.2,0.9h0.2c0-0.6,0-0.8-0.2-0.9H214.7z M215.6,80.1l-0.4,0.2h0.6L215.6,80.1z M215.8,72.3l-0.2,0.2h0.2
	V72.3z M216.2,70.8c0.9-0.5,1.4-1.5,1.1-2.4C215.8,69.1,216,69.1,216.2,70.8L216.2,70.8z M216.9,54.4h0.2c-0.2,0-0.2,0-0.2-0.2V54.4
	z M217.3,65.4c0.5-1.2,0.8-2.5,0.9-3.7c-0.1-1.4-0.4-2.8-0.9-4.1V65.4z M217.5,72.5c-0.2,0-0.2,0-0.2,0.2c0.2,0,0.4,0.2,0.4,0.4
	l0.2-0.2L217.5,72.5z M217.8,66.5c-0.2,0-0.2,0-0.2,0.2l0.6,0.6c0.2,0,0.2,0,0.2-0.2L217.8,66.5z M221,83.7v0.2c0.2,0,0.2,0,0.2-0.2
	H221z"/>
<path class="st0" d="M317.1,28.6h-1.7l-1.5,1.9l-6.9-0.4h-0.8c-1.7-0.2-3-0.4-3.7-0.4c-2.2,0-6.2,0.6-8.2,0.8l-6.7,0.6
	c-3.2,0.4-6.3,1.1-9.3,2.1l-3.4,0.6c1.5,0.4,2,1.1,1.7,2.1c-0.2,0.2,0.2,0.9,0.2,1.5c0,1.5,0,1.7,2.1,2.4c-0.6,0.8-1.3,1.6-2.1,2.2
	l-0.4-0.4c-0.2,0-0.2,0.2-0.2,0.4c0.2,1.5,0.1,3-0.4,4.5c-0.2,1.7-0.4,3-0.4,3.7c-0.1,1.5-0.3,3-0.6,4.5l-0.8,0.6
	c0.2,0.2,0.2,0.8,0.2,1.5c0,1.1-0.2,2.3-0.6,3.4c-0.2,0.6,0,0.9-0.2,1.5l-0.8,3l0.4,0.9l-0.8,0.9c0,0.2,0.2,0.6,0.4,1.3l-3.2,4.3
	l0.8,0.4c0.2,0.8,0.3,1.6,0.2,2.4c-0.2,2.3-0.5,4.5-0.9,6.7c0,0.6-0.6,0.8-0.8,1.3c0.9,0.9,0.9,1.5,0.4,1.7
	c-1.7,0.9-1.7,2.4-2.2,4.9c-0.4,3.7-0.6,6.5-0.6,8.4c-0.2,0.2-0.2,0.4-0.2,0.8c-0.8,1.7-0.6,5-1.1,7.1c0,0.6-0.4,1.1-0.4,1.7
	s0.2,1.1,0.4,2.4l-0.2,2.1c-0.5,4.5-0.8,9.1-0.8,13.6v0.8l0.2,3.4v0.4l-0.4,1.5l0.4,0.6c-0.2-0.2-0.4-0.4-0.6-0.4
	c0,0.2,0,0.4-0.2,0.6l0.8-0.2c0.2,0.4,0,0.8-0.4,1.1c0.6,0.7,0.9,1.6,0.8,2.4l-0.2,3l-3.6,1.8c-0.9-0.6-1.5-3.6-3-3.7l-0.6,1.1
	c-0.6,0-0.8,0-0.9-0.2l-0.4-2.1h-0.4v0.6l-0.4,1.1c0-0.9-0.2-1.8-0.6-2.6c-0.9-0.6-0.6-2.1-0.8-2.2c0,0.2-0.2,0.4-0.4,0.6v-0.4
	c0-1.3-2.8-2.2-2.8-3.6c2.4-1.3,1.9-3.9,1.9-4.7c0-1.3-0.4-2.2-0.4-3.6v-3.7c0-1.7-0.2-4.3,0-7.5c0-3,0.3-5.9,0.9-8.8
	c-0.2-0.2-0.2-0.4-0.2-0.9c0-0.8,0.6-2.1,0.4-2.8v-1.1c-0.1-1.5,0.3-3,1.1-4.3c-0.2-0.9-0.4-1.7-0.4-2.6c-0.1-0.8,0-1.5,0.2-2.2
	c0.8-3.4,1.1-5.8,0.9-7.3V79c0-0.6,0.6-1.9-0.2-2.6c0.6-0.8,0.8-1.8,0.8-2.8c0.5-1.9,0.8-3.8,0.9-5.8c0.3-0.9,0.5-1.8,0.6-2.8
	c0-0.5-0.2-1.1-0.6-1.5l0.6-1.9c0.9-2.8,1.3-5.7,1.1-8.6c0,0.2,0.2-0.4,0.4-1.3l-1.3-0.8l1.9-1.7l-0.5-5.2c0.5-0.3,0.9-0.9,0.9-1.5
	c0-0.6-0.4-2.1,0.4-2.8c-0.2-0.7-1-1.1-1.8-0.9c-0.1,0-0.2,0.1-0.3,0.1c-1.3,0.6-4.3,1.3-6,2.2c-0.9,0.3-1.7,0.7-2.4,1.3
	c-3.6,1.5-6.2,2.6-7.9,3.5h-0.2l-4.9,3.6l-1.1,1.1c-1.7,1.7-3.2,2.4-4.9,2.4c-0.6,0-1.3,0.9-1.9,1.1l-6.5-2.1c0-0.2-2.1-0.8-1.9-2.2
	l-1.9-1.1l0.2-1.3v-0.2c-1.5-0.6-1.7-1.7-1.7-3.4l0.2-5.2c0.2-0.4,0.5-0.7,0.9-0.9c2.1-1.7,4.3-3.3,6.6-4.7l5.2-3
	c1.7-0.9,4.7-1.9,5.6-2.4c0.1-0.1,0.4-0.2,0.6-0.2c1.3-1.5,2.4-1.9,5.2-2.4c0.2,0,0.4-0.2,0.8-0.6c0.3-0.3,0.7-0.6,1.1-0.8h0.4
	c1.5,0,3.4-1.3,4.1-1.5c0.7-0.2,2.1-0.2,2.8-0.9c0.6-0.8,2.2-1.1,2.8-1.3v1.5c0.2-0.2,0.6-1.9,1.9-1.3c1.7-1.7,5.4-2.2,6.4-2.4
	c2.1-0.6,4.3-1,6.5-1.3c0.4-0.2,0.7-0.3,1.1-0.4c0.2,0,1.3-0.8,2.2,0c0.7-0.7,1.3-1.1,1.7-1.1c1.5,0.1,3,0,4.5-0.2
	c1.4-0.1,2.9-0.1,4.3,0h0.4c0.8-0.1,1.6-0.3,2.4-0.6l2.1-0.2h1.1l1.7,1.7c0.7-1.3,2.1-1.9,3.9-1.7c0.9,0.2,1.9,0.2,2.8,0l1.1-0.2
	c0.9,0.1,1.7,0.4,2.4,0.9c0.2,0.2,0.8,0,0.9,0.2c1.7,0,5.8,0.6,7.9,2.6c0.9,0.9,1.3,1.7,1.1,2.4v0.4c0.1,0.7,0.4,1.4,0.9,1.9
	c0.8,0.5,1.4,1.2,1.9,2.1c0.6,1.7,1.7,2.4,3.7,3.4c0.2,0.2,0.4,0.4,0.4,0.6L317.1,28.6z M239.1,27.8h1.1v-0.4L239.1,27.8l-0.8-0.9
	c-0.9,0.6-1.1,0.9-0.6,1.5L239.1,27.8z M242,26.7l0.2-0.4h-0.4c-0.2,0-0.2,0.2-0.2,0.4H242z M244.8,25.4l-1.5,0.4l0.2,0.9
	c0.6-0.2,1.1-0.5,1.5-0.9L244.8,25.4z M246.7,25.4l-0.8-0.2l-0.4,0.2c0,0.4,0.2,0.4,0.4,0.2L246.7,25.4z M249.9,23.3
	c-0.6,0-0.9,0.4-0.9,1.1c0.6,0,1.2-0.5,1.3-1.1H249.9z M252.9,25l0.8-0.8l-0.2-0.4l-0.9,0.6L252.9,25z M257.3,23
	c-0.2-0.2-0.8-0.2-1.3-0.2c-0.8,0-1.1,0.4-1.3,1.3L257.3,23z M259.2,23.3v-0.7c0.2,0-0.4,0.2-1.7,0.4L259.2,23.3z M258.6,20.7h0.2
	v-1.3c-0.2,0-0.4,0-0.6,0.2L258.6,20.7z M259.9,20.3c-0.2,0-0.4,0.2-0.4,0.4l0.2,0.2c0.2,0,0.4-0.2,0.4-0.4L259.9,20.3z M260.4,38.5
	h-0.2v0.2L260.4,38.5z M266.2,21.1c0-0.5-0.4-0.9-0.9-0.9l-1.7,0.4c-0.5-0.4-1-0.7-1.5-0.9c-0.5,0.4-0.8,1-1.1,1.5L266.2,21.1z
	 M263.1,140.3h-0.4c0-0.2,0.2-0.2,0.4-0.2V140.3z M263.2,138.1l0.2-1.7h-0.4c-0.2,0.2-0.2,0.8-0.2,1.5L263.2,138.1z M265.3,22.4
	l0.4-0.2c-0.2-0.2-0.4-0.4-0.6-0.4s-0.2,0-0.2,0.2L265.3,22.4z M267.2,99.9l-0.4,0.2l-0.2-0.4c0.2,0,0.4,0,0.4-0.2L267.2,99.9z
	 M267.5,19l-0.5,2.1l3.2-0.9v-0.4L267.5,19z M267.4,96.9v0.8h-0.2V97L267.4,96.9z M267.9,91.9l-0.2-0.2l0.2-0.2c0,0.2,0,0.2,0.2,0.2
	L267.9,91.9z M267.9,93.4v0.9h-0.2v-0.9H267.9z M268.7,88.9l-0.2,0.4l-0.2-0.4l0.2-0.2L268.7,88.9z M268.5,83.5l0.4,0.2
	c0-0.4,0-0.6-0.2-0.8L268.5,83.5z M269,79c-0.6,0.6-0.6,1.1,0.2,1.7L269,79z M269,86.1V86c0.2,0,0.2,0,0.2,0.2H269z M269.2,77.7h0.4
	c0.2-0.9,0.2-1.5-0.4-2.1V77.7z M271.8,20.4h-0.4l0.4,0.9l0.4-0.2L271.8,20.4z M273.3,23.2v-0.4H273c0,0.2,0,0.4,0.2,0.4H273.3z
	 M273.1,20.6v0.4h1.1v-0.4H273.1z M275.4,21.3l-0.6,0.4v0.2l0.8-0.2L275.4,21.3z M277.8,22.6c-0.9-0.6-0.8-0.4-1.3,0.6L277.8,22.6z
	 M277.3,20.4h0.2l-0.2-0.2V20.4z M279.1,22.2h-0.2l0.2,0.8V22.2z M280.4,17v-0.4l-0.2,0.2L280.4,17z M284.9,21.9v-0.6h-1.3
	c-0.8-0.1-1.6,0.2-2.2,0.8L284.9,21.9z M283.4,18c0.8-0.2,1.6-0.2,2.4-0.2c-0.2-0.9-0.8-1.3-1.3-1.1L283.4,18z M286.8,16.8
	c0,2.1,0.2,1.9-1.9,2.4l-1.1,0.6l1.1,0.2c0.4,0.6,0.7,0.6,1.1,0l0.2,0.2l0.4-0.2v0.2c0.9-0.2,1.5-1.9,2.1-2.4L286.8,16.8z M286.2,15
	v-0.2H286V15H286.2z M286,20L286,20z M286.4,22c0.2-0.2,0.4-0.4,0.4-0.6c-0.2,0-0.4,0.2-0.6,0.4L286.4,22z M288.3,21.1
	c0.6,0.6,0.9,0.6,1.3,0H288.3z M288.5,19.8h0.8v-0.4h-0.8V19.8z M289.2,25.4l-0.4,0.2h0.4V25.4z M290.1,19c0,0.8,0,1.3-0.2,1.5
	c0.4-0.4,0.6-0.9,0.8-1.5H290.1z M292,20.7v-0.2c-0.2,0-0.2,0-0.2,0.2H292z M299.9,20c-0.1-0.5-0.6-0.8-1.1-0.8h-1.1
	c-1.3,0-1.5-0.2-1.7-1.7c-0.1-0.4-0.3-0.7-0.6-0.9l-0.5,2.1v-0.2c0,1.3-1.1,0.8-1.3,0.8l-0.2,2.1c0.9,0,1.3-0.4,1.5-0.9
	c1.1-0.4,1.7-0.6,1.9-0.4s0.6,0.2,1.1,0.2L300,20c0.7,0.5,1.7,0.4,2.2-0.2L299.9,20z M294.1,17.3c0-0.2,0.2-0.4,0.4-0.6l-0.6-0.2
	c-0.2,0-0.2,0.2-0.2,0.4L294.1,17.3z M296.7,16h-0.2l0.2,0.2V16z M300.6,21.3l-0.2,0.2h0.2V21.3z M306.6,20.5
	c-0.6-0.2-1.1-0.5-1.7-0.8v-1.5c-0.1,0.1-0.4,0.2-0.6,0.2c-0.2,0-1.1-0.6-1.3,0.8l0.6,0.2c0,0.6-1.3,0.8-0.6,1.7
	c0.3-0.4,0.8-0.6,1.3-0.6c0.2,0,0.9,0.2,2.2,0.4V20.5z"/>
<path class="st0" d="M399.5,67.6l0.6,0.6c-1.1,1.7-1.5,3.4-0.9,4.7V73h-0.2c-0.5,1-0.7,2.2-0.6,3.4V77c0,0.2-0.2,1.3-0.6,3.2
	l-1.7,8.2l-1.1,5.4c-0.6,1.5-0.9,3.4-1.5,5.4c-0.2,0.9-1.9,3.6-1.7,5.6c-1.3,0.6-1.3,2.4-1.5,3.2c-0.5,1.1-0.9,2.3-1.1,3.6l-0.9,1.9
	c-1.5,1.7-2.4,4.9-3,5.8c-1,1.9-2.6,3.6-4.5,4.7l-2.2,1.7c-0.2-0.2-0.4-0.2-0.9-0.2c-0.8,0.1-1.6,0.3-2.4,0.6
	c-0.9,0.2-1.5,0.4-1.7,0.4c-0.9,0-2-0.6-3.7-1.5c-0.6-0.5-1.3-1-2-1.3c0-0.2-0.4-0.2-0.4-0.4c-0.6-1.5-3.2-3.7-3.7-5
	c0,0-0.4-0.8-0.9-2.2c-1.3-0.2-1.5-2.6-2-3.4c-0.4-0.5-0.7-1.1-0.9-1.7c-0.6-1.1-1.1-2.3-1.5-3.6c-0.2-1.5-1.3-3.6-1.5-4.3
	c-0.5-0.7-0.7-1.6-0.8-2.4v-0.4c0-0.8-0.8-1.7-0.9-2.2l-1.7-6.3c0.1-0.5,0.2-1,0.4-1.5c0-0.9-0.4-1.9-0.4-3.2
	c0.1-1.4-0.5-2.8-1.5-3.7c0-0.9,1.3-1.9-0.4-2.4l-0.2-0.8c0-0.2,0.2-0.8,0.4-1.5c0.2-0.2,0.2-0.8,0.2-1.5c0-0.9-0.2-1.8-0.8-2.6
	c0.2,0,0.4-0.2,0.8-0.6c0-0.6-1.7-1.3-1.1-2.2h0.4v-1.2c0-0.8-0.2-1.7-0.6-2.4c0-0.2-1.1-1.3-0.2-2.1c0.2-0.2,0.2-0.6-0.2-0.9
	c-1.3-1.5-1.1-4.1-1.1-4.9c0-1.7-0.4-3.4-0.4-4.9c-0.2-1.4-0.3-2.9-0.2-4.3c-1.4,1.4-2.4,3-3,4.9c-0.9,2.2-2,4.4-3.2,6.5l-2.6,5.8
	l-0.8,1.1c-0.6,0.6-0.9,0.9-0.8,1.1s0,0.6-0.2,0.8c-1.5,1.3-1.7,4.7-2.2,5.6l-2.4,5.6c-0.1,0.1-0.2,0.4-0.2,0.6
	c0,2.4-1.9,5.8-2.4,7.3c-0.6,1.3-1.2,2.6-1.9,3.9l-2,4.7c-0.6,1.5-1.3,2.9-2,4.3l-1.7,3.6l-0.2,0.4c0.6,2.8-2.1,5.6-3.2,7.7
	c-1.5,3.6-3.5,6.2-4.5,7.8l-2.8,4.9l-0.9,1.9l-1.1-0.2c-0.2,0.6-0.5,1.2-0.9,1.7c-1.1,0.1-2.1-0.3-2.8-1.1c-0.8-0.8-1.3-1.1-1.9-1.1
	h-0.4c-0.6,0-1.1-0.4-1.3-0.9c-0.5-1.3-1.2-2.5-2.1-3.6c-0.8-0.8-1.3-1.9-1.3-3v-0.4c0-0.6-0.9-1.9-0.9-2.6l-0.8-3.2
	c-0.2-1.3-2.1-6.5-1.5-10.3v-0.6c0-0.6-0.2-1.3-0.4-2.6v-0.9h0.2l-0.2-0.4v-3c0.2-0.6,0.4-1.2,0.4-1.9c0-0.6-0.2-1.1-0.4-1.7v-1.7
	c0.5-1.3,0.7-2.7,0.6-4.1c0.1-2.1,0.3-4.3,0.8-6.3l-0.6-0.8l1.3-2.1c0.6-1.1,0.6-2.1,0-2.6l-0.4-0.9c0.2-1.5,0.4-3,0.8-4.5l1.1-3
	c-0.2-0.8-0.3-1.6-0.4-2.4c0-0.8,0-1.3,0.2-1.5c0.4-1.3,0.7-2.7,0.9-4.1c0.2-1.1,0.3-2.2,0.2-3.4c0.9-0.8,0.9-2.8,1.1-3.5
	c0.2-1.7,0.5-3.4,0.9-5c0-0.6,0.6-0.6,0.6-1.1v-2.6l0.2-1.3c0-0.6-0.4-0.8-1.3-0.8l2.2-1.5l-0.9-1.5c0.6-0.6,1-1.4,1.1-2.2
	c0.2-0.8,0.4-1.1,0.4-0.9c0-0.6-0.4-0.9-0.9-1.3c-0.1-0.1-0.2-0.4-0.2-0.6c0-0.2,0.4-0.9,0.2-1.5c-0.2-0.8-0.4-1.1-0.4-1.3
	c0.1-0.8,0.3-1.6,0.6-2.4c0.7-0.8,1.8-1.2,2.8-0.9l3.7,3.2c0.4,0.4,0.6,0.6,0.8,0.6h0.5c1.3,0,1.9,1.5,2.1,1.7
	c0.8,0.8,1.7,1.4,2.8,1.9c0.9,0.6,2.2,2.1,3.2,2.8l0.4,2.1c0.2,1.2,0.3,2.4,0.2,3.5c-0.6,1.7-1.9,5.2-1.7,7.5c0,0.6-0.6,1.1-0.6,1.7
	c0,0.8-1.5,2.4-1.5,3.4v0.6c0,1-0.3,2.1-0.8,3c-0.7,1.9-1.3,4-1.7,6c-0.2,1.5-1.7,5.4-1.5,7.8c-0.8,0.8-0.4,2.8-0.9,3.6
	c-0.2,0.8-0.2,2.4-0.4,3.4h-1.1v0.4c0.6,0.7,0.9,1.5,0.9,2.4c0.1,0.6,0,1.3-0.2,1.9l-1.1,4.1v0.7c0.1,1.1,0.1,2.2,0,3.4
	c0.1,1.1-0.2,2.1-0.8,3c-0.6,0.8-0.4,2.6-0.4,3.9c0.7-0.6,1.1-0.9,1.1-1.1c0.8-1.5,1.6-2.9,2.2-4.5l0.6-0.6c1.7-0.2,1.9-0.9,2.1-3
	c0.1-0.4,0.2-0.8,0.4-1.1c0.2-0.8,0.8-3.6,2.8-4.5c0-0.6,1.1-1.9,1.1-2.6c-0.1-1,0.4-2,1.3-2.4l0.2-3h0.4c0.8,0,1.3,0.4,1.9,1.3
	l1.7-0.6c-0.9,2.7-2.2,5.3-3.9,7.7v1.1c1.3,0.6,1.1-0.8,1.1-0.9c0-1.5,0.6-2.2,1.9-2.2c0.9-2.4,2.2-5,3.4-7.5l1.9-3.9l3-6.5l2.6-4.7
	c0.5-0.5,0.8-1.2,0.8-1.9c0.2-1.3,1.7-2.8,2.2-3.5l-0.2-1.1l1.5-1.3l0.4-0.2l0.4-0.4l-0.2-0.2c-0.2,0-0.4,0.2-0.6,0.4v0.4l-0.8-0.9
	c0.6-0.2,1.1-0.5,1.5-0.9c1.3-1.3,1.7-1.5,0.9-2.8c-0.2-0.4-0.1-0.8,0.2-1.1c0.8-0.6,0.8-2.1,1.3-2.8c0.9-1.3,1.9-4.9,2.6-5.8
	c0.1-0.6,0.1-1.1,0-1.7L338,49.9h-0.4v-2.6c0.9-0.8,1.6-1.8,2.1-3h-0.4c-0.8,0-1.5,1.9-2.8,1.3c0.2-1.3,1.3-3.2,1.5-4.1
	c0-0.2,0.9-0.6,1.7-1.1c-0.3-0.3-0.6-0.7-0.8-1.1c0.8-0.2,0.6-2.4,2-2.4v-0.8c0-1.4,0.5-2.8,1.3-3.9l0.9,1.5c1.3,0,0.6-0.9,0.6-1.1
	c0.8,0,1.5,0.7,1.7,1.5c-0.8,0.8,0.6,1.3,0.6,1.5l1.3-0.4c0.2,0,0.6,0.4,1.3,1.1c2.8,3.2,4.1,4.9,4.1,4.7c1.3,1.4,2.2,3.2,2.8,5
	c0.8,1.9,1.4,3.9,1.7,6L358,59l0.6,3.9l0.6-2.1c0.3,0.4,0.5,0.8,0.6,1.3l0.9,6.5l0.8,2.8l1.3,5.2c-0.2,0.2-0.2,0.4-0.2,0.8
	c0,0.8,0.8,1.9,0.6,2.8v0.6c0.2,1.1,0.2,2.1,0.2,3.2v0.4c-0.1,0.7,0.1,1.5,0.6,2.1c0.8,0.8,0.6,2.4,0.6,2.6c0.2,1.7,0.6,3.2,0.8,4.1
	c0.5,1.3,0.7,2.6,0.8,3.9l1.3,5.4c0.4,1.2,0.7,2.3,0.9,3.6c0,0.6,0.9,1.1,1.1,1.3l3.7-6.7c0-0.2,0-0.4,0.2-0.4
	c1.1-1.5,1.7-3.3,1.7-5.2c0.2,0.2,0.8,0.2,0.9,0.4l1.5-0.9c-1.3-0.2-1.9-0.4-1.7-0.4c0.1-1.8,0.8-3.5,2-4.9c0-0.2,0.6-1.3,0.4-1.5
	v-0.6c0-0.6,0.6-1.1,1.5-1.3l-0.8-0.9c0.2-0.8,1.5-2.1,1.3-3l0.9,0.4l-0.2-1.5h-0.4L380,82c-0.6-0.4-0.8-0.8-0.8-0.9
	c0.1-0.6,0.4-1.1,0.8-1.5c1.3-1.7,1.1-4.5,1.1-5.2l2.2-3.7c-0.5-0.3-0.8-0.8-0.8-1.3c0-0.6,0.4-1.5,0.2-2.1v-0.2
	c0-0.6,0.3-1.1,0.8-1.5c0.7-1,1.1-2,1.3-3.2c0.2,0-0.2-0.2-0.9-0.4c0.2-0.7,0.3-1.4,0.4-2.1h1.1l-0.8-2.1c1.3-0.8,1.1-3.4,1.3-4.1
	c0.2-0.2-0.6-0.6-0.8-1.1l0.8-0.4c0.2-1.7,0.6-4.1,0.8-7.1l-1.3-0.6l0.8-1.1l0.2-1.1c-0.3,0.1-0.6,0.2-0.9,0.4l-0.2-0.4l0.2-5.6
	c-0.2-0.4-0.3-0.7-0.4-1.1l-0.4-0.4v-0.8c0-2.1-1.5-3.7-1.7-4.5l-1.5-3c-0.3-1.1-1.3-1.9-2.4-1.9l0.2-1.7l2.4,0.6
	c0.2,0.6,1.1,1.1,1.1,2.1c0.2,1.3,1.9,1.9,3.4,1.3l2.4,3.2h0.2c0.2,0,0.2,0,0.4-0.2l3.7,3.7l0.6-0.8c1,1.7,2,3.6,2.8,5.4
	c0.6,1.3,2.1,4.7,1.9,7.5c0,0.9,0.9,2.6,1.1,3.4c-0.2,0.2-0.2,0.4-0.2,0.9c0.1,0.9,0.4,1.8,0.9,2.6l-0.9,0.9
	c0.6,0.8,0.8,1.3,0.6,1.9c-0.1,1.6-0.1,3.1,0,4.7l-0.2,3l-0.2,0.9l0.2,1.1c-0.1,0.6-0.4,1.2-0.8,1.7L399.5,67.6z M302.9,38.7
	l0.2-0.2c0.2,0,0.2,0,0.2,0.2H302.9z M311.6,100.4v-0.2h-0.4l0.2,0.2H311.6z M320.6,85.4l-0.2-1.3l-3,3.6l0.8,0.8l-2.4,1.5v1.5
	c0,1.7-0.6,2.8-1.7,3.2v0.6c0,0.9-0.9,2.4-1.1,3c-0.4,1.1-0.4,1.9,0.2,2.4c0.6-1.3,0.8-2.2,2.2-2.2l-0.6-0.9l0.9-0.6
	c-0.6-0.2-0.8-0.4-0.2-0.9c0.2,0.2,0.3,0.5,0.4,0.8c0.9-0.8-0.2-0.8-0.4-0.8c0-1.3,1.3-1.3,1.5-1.3c0-0.2-0.9-1.1,0-1.7l1.1,0.9
	c-0.2-0.2-0.2-0.8-0.2-1.5c0.2-1.2,0.5-2.3,0.9-3.4c0-0.2,1.5-1.7,0.6-3L320.6,85.4z M319.3,90.4l-0.2,0.4l0.2,0.4
	c0.2,0,0.4-0.2,0.6-0.4L319.3,90.4z M319.9,89.7l0.6-0.6v-0.8h-0.4c-0.2,0.4-0.3,0.7-0.4,1.1L319.9,89.7z M321,79l1.7,1.5l0.2-2.1
	L321,79z M322.1,74.5c0.7-1,1.3-2,1.9-3l1.1-0.4c-0.2,0.7-0.4,1.4-0.8,2.1c-0.4,0.7-0.9,1.3-1.5,1.9L322.1,74.5z M322.1,76.2
	l0.9-0.9l0.4,0.6l-0.9,0.6L322.1,76.2z M324.7,76.8h0.2l0.2,0.2l-0.2,0.2L324.7,76.8z M325.3,75.5c0-0.6-0.2-1.3,0-1.5
	c0.2-0.6,0.9-0.9,1.9-1.9c-0.1,1.2-0.5,2.4-1.3,3.4H325.3z M328.7,61.8l-0.2,2.2c-0.2,0.8,0.2,1.1,0.9,1.3c0.6-0.2,0.4-1.7,1.7-1.5
	c-0.5,1.9-1.3,3.8-2.4,5.4l0.2-3.4c-1.3,0.6-1.7,3.6-3.2,4.1C326,67.1,327,64.3,328.7,61.8L328.7,61.8z M327.5,71.7v0.2
	c-0.2,0-0.2,0-0.2-0.2H327.5z M328.3,70l-0.2,0.8l-0.4-0.2l0.2-0.9c0.2,0,0.4,0,0.6-0.2L328.3,70z M330.1,58.3v2.1l-0.9,1.5
	c-0.2-0.2-0.3-0.5-0.4-0.8C328.9,60,329.4,59,330.1,58.3L330.1,58.3z M332.2,54.5l0.2,1.7c-0.5,0.5-1.1,0.8-1.7,1.1
	c0.1-1.1,0.4-2.2,0.9-3.2c0.2-0.6,0.9-0.8,1.5-1.3c0.2-0.6,0.4-2.8,1.9-4.1c0.2,0.8,0.4,1.1,0.4,0.9c0,0.6-0.6,0.9-0.8,1.5l-0.4,0.8
	c0,0.2,0.4,0.6,1.3,0.9l0.4-2.1l1.5-0.2c-0.8,1.7-1.9,6-3.9,8.2c-0.6,0.9-1.1,3.5-2.1,4.5c-0.2-0.2-0.2-0.6-0.2-1.1
	c0.1-1.5,0.7-2.8,1.9-3.7v-1.8c1.1-0.2,1.5-0.8,1.3-2.1L332.2,54.5z M335.2,47.6c0-0.9,0.4-1.3,1.3-1.5c-0.5,0.8-0.9,1.7-1.1,2.6
	C335.2,48.6,335.2,48.2,335.2,47.6L335.2,47.6z M336.3,64c-0.2,0-0.4,0.2-0.8,0.6c0.2,0,0.4,0.4,0.6,0.4c0.2,0.2,0.6-0.2,0.8-0.2
	C336.7,64.3,336.5,64.1,336.3,64L336.3,64z M339.7,62.7l0.2,1.9c-0.7,0.5-1.2,1.4-1.3,2.2l-1.5-0.4l1.1,2.1c0.2-1.3,0.4-1.9,0.4-1.7
	c0.8-0.4,1.3-1.3,1.3-2.2c0.6-0.6,0.9-1.5,0.8-2.4L339.7,62.7z M339.9,43.7l0.8-2.2c-0.2,0.2-0.8,0.2-1.7,0.2L339.9,43.7z
	 M342.1,60.5c-0.9,0.6-1.3,0.9-1.5,1.5L342.1,60.5z M342.3,59.4l1.1-2.2l-1.9,1.6L342.3,59.4z M342.1,52.1l0.6-0.9l-0.2-0.2
	c-0.3,0.1-0.6,0.4-0.8,0.8L342.1,52.1z M342.7,37.3l1.5-2.2l-0.9-0.6c-0.6,1.7-0.9,2.6-0.9,2.6L342.7,37.3z M343,52.5l0.2,0.4
	l0.2-0.2c0-0.2,0-0.4-0.2-0.4L343,52.5z M343.8,32.3h-0.2v-0.2L343.8,32.3z M345.6,34.2c-0.2,0-0.2,0-0.2-0.2
	C345.5,34.2,345.5,34.2,345.6,34.2L345.6,34.2z M349.7,62v1.1h0.2V62H349.7z M350.1,71l0.4-0.2v0.6L350.1,71z M354.8,67.7l0.4-0.2
	c0-0.2,0-0.2-0.2-0.2l-0.2,0.2L354.8,67.7z M357,90.7h-0.2v0.6l0.4-0.4L357,90.7z M358.5,59.7c0.2,0,0.2,0.2,0.2,0.4h-0.2
	c0-0.2,0-0.2-0.2-0.2L358.5,59.7z M376.8,106.6l0.9-0.6l-0.2-0.4c-0.2,0-0.4,0-0.6,0.2c-0.2,0-0.4,0.2-0.4,0.6L376.8,106.6z
	 M378.7,103c-0.2-0.7-0.5-1.3-0.9-1.9c-0.3,0.3-0.4,0.7-0.4,1.1c0.1,0.7,0.4,1.3,0.9,1.7L378.7,103z M384.3,79.7
	c1.5-2.2,1.9-5.8,2.1-7.1l0.4-3.2c-0.2,0.2-1.1,0.8-1.1,0.9c-0.2,0.6-0.3,1.2-0.2,1.9c0,0.9-0.6,1.7-1.5,1.9
	c0.2,0.2,0.2,0.6,0.2,1.1c0,0.9-1.1,3.6-0.9,4.5c-0.6,0.2-0.8,0.4-0.8,0.8c0,0.6,0.6,1.1,0.4,1.7l-0.9,0.6l0.6,0.2
	c-0.1,1.3-0.3,2.5-0.6,3.7l-2.2,8l-1.3,5c0.9-0.8,1.6-1.8,1.9-3c0.2-1.7,1.5-4.5,1.7-6.2c0.4-1.2,0.7-2.3,0.9-3.6
	c0.1-0.7,0.3-1.5,0.8-2.1c0.8-0.6,1.1-1.7,0.8-2.6C384.1,81.3,384.1,80.4,384.3,79.7L384.3,79.7z M379.3,87.1h-0.2l-0.2,0.4
	c0.2,0,0.4,0,0.4,0.2l0.2-0.4L379.3,87.1z M380.2,100.8v-0.4c-0.2,0-0.4,0-0.4,0.2s0,0.2,0.2,0.2L380.2,100.8z M381.5,98.5l-0.4,0.2
	l0.2,0.4l0.4-0.2L381.5,98.5z M381.3,85.3l0.2,0.2V85L381.3,85.3z M381.9,76.3l0.6-0.4l-0.2-0.6c-0.4,0.4-0.6,0.6-0.6,0.4
	L381.9,76.3z M383.9,93.5l0.4-0.4l-0.4-0.4c-0.2,0-0.4,0.2-0.4,0.4L383.9,93.5z M384.7,86.9c0,0.2,0.2,0.8,0.4,1.7
	c0.2-0.9,1.7-2.4,1.1-3.7C385.4,85.2,384.8,86,384.7,86.9L384.7,86.9z M386,67.1c0.6,0.2,0.9-0.2,1.3-0.8c1.3-3.2,1.9-8,2.4-10.1
	c-0.8-0.8,0.2-1.7,0.4-1.9c-0.4-0.2-0.8-0.4-1.1-0.8l0.6-0.6c0.4-1.5,0.5-3,0.6-4.5c0-0.6-0.3-1.1-0.8-1.5c-0.2,0-0.4,0-0.6,0.2
	l-0.2,0.8c-0.2,2.4-0.8,6.7-1.5,12.7l0.2,0.8c0,0.6,0.4,1.3,0.2,1.5l-1.3,0.9c0.3,0.2,0.5,0.6,0.6,0.9
	C386.8,65.4,385.8,66.5,386,67.1z M386.2,83.7c0.6-0.6,0.8-1.1,0.2-1.5C386.2,82.4,386.2,82.8,386.2,83.7z M387.9,75.5
	c-0.7,2-1.1,4.1-1.3,6.2l1.3-0.8c0.6-2.8,0.8-4.7,0.9-6C388.2,74.9,387.9,75.1,387.9,75.5L387.9,75.5z M386.8,92.1
	c1.3-1.5,1.3-1.3,0-1.9V92.1z M389.5,66.1l-1.3,7.8l1.3,0.2v1.3l1.3-2.1l-1.3,0.8c-0.1-0.8,0-1.6,0.2-2.4c0.2-1.5,0.8-2.8,0.9-4.3
	l0.6-6c0.2-0.4,0.3-0.7,0.4-1.1c0.6-0.9,0.4-1.5-0.6-2.1C390.5,60.5,390.1,63.2,389.5,66.1L389.5,66.1z M389,38.5v-0.6h-0.4
	c0.1,0.1,0.2,0.4,0.2,0.6H389z M388.6,40.7v1.5c0,0.9,0.2,2.4,0.4,4.1c0.6-0.2,0.8-0.4,0.8-0.6c-0.2-2.2-0.4-3.7-0.4-5L388.6,40.7z
	 M388.6,85.2l0.2,0.8l0.4-0.2c-0.1-0.1-0.2-0.4-0.2-0.6H388.6z M391,78.8l-0.4-0.8l-0.6,0.8c0.2,0.2,0.5,0.3,0.8,0.4L391,78.8z
	 M390.6,70.6c-0.2,0-0.2,0-0.2,0.2l0.2,0.2c0.2,0,0.2,0,0.2-0.2L390.6,70.6z M392.9,52.1c-0.6-0.6-1.1-0.4-1.3-0.6
	C391.6,52.5,392,52.7,392.9,52.1L392.9,52.1z M393.2,54.2l-0.9-0.9c-0.6,0.6-0.6,1.1,0,1.9L393.2,54.2z"/>
<path class="st0" d="M470.8,72.3l-1.3,5.6c-0.5,2-1.1,3.9-1.9,5.8c-0.4,1.3-1.1,2.6-2,3.6c-0.8,0.8,0,0.9,0,1.5
	c-0.8,0.6-1.7,2.8-2.6,3.6l0.2,0.6c0,0.8-1.5,2.1-1.5,2.6c-0.2,1.5-0.9,2.1-2,1.9c0,0.9,0,1.5-0.2,1.7h0.2l-1.3,0.9
	c0.2,0.2,0.2,0.4,0.2,0.8c0,0.9-1.1,2.1-1.3,2.6l-2.4,3.6l-3.6,4.8c-1,1.4-2.4,2.7-3.9,3.6c-0.9,0.8-1.7,1.6-2.4,2.4
	c-0.2,0.2-0.9,1.3-1.5,1.1H443c-0.9,0-2.6,0.8-3.4,0.6v-0.2h-0.2l0.2,0.2c-0.8,1.1-2,1.9-3.4,2.1c-1.5,0.4-3,0.6-4.5,0.6
	c-1.1,0-2.1-0.1-3.2-0.4c-0.8-0.2-1.5-0.8-2.2-0.9c-0.8,0-1.9-1.9-2.8-2.1c-1.3-0.2-2.8-2.1-3-2.2c-0.8-0.8-1.3-2.1-2-2.8
	c-1.7-1.3-3.7-5.2-4.7-6.2c-0.3-0.3-0.4-0.7-0.4-1.1l-0.4-1.3c-1.7-2.4-2.6-5.2-3.7-8.8l-0.6-1.9l-0.2-2.1v-0.8
	c-0.6-1-0.8-2.1-0.8-3.2l0.2-3c0-0.4,0.4-0.9,1.1-1.7c-0.4,0.2-0.7,0.3-1.1,0.4c-0.2-3.2,0-6.4,0.6-9.5l0.8-2.2h0.9
	c0-0.6,0.2-1.5,0.4-3c-0.4-0.4-0.8-0.6-1.3-0.8c0.2-0.2,0.6-0.9,0.8-0.9c0.5-0.1,0.8-0.6,0.9-1.1c-0.2,0-0.4,0.2-0.8,0.6
	c0-0.2-0.6-0.8-0.4-0.9c0.2-0.8,0.2-3.4,1.7-4.7c-0.2-0.2-0.2-0.4-0.2-0.9c0-0.2,0.2-0.9,0.4-1.9c0.9-3.9,2.8-7.7,4.3-12.1l2.1-5.8
	c0.9-1.5,1.5-2.8,2-3.7l1.5-1.7v-0.6c-0.1-1.3,0.6-2.5,1.9-3c0.3-1.6,1.2-2.9,2.6-3.7c1.5-3.5,5.4-5.8,6.7-7.1l1.1,0.6
	c-0.2-0.8-0.4-1.1-0.4-0.9c0.2-0.2,0.9-1.1,1.9-0.4c0.9-1.7,2.9-2.5,4.7-1.9c1.7,0.8,3.9,2.1,6.9,3.7l2.4,1.7c1.3,0.9,3.5,1.5,4.5,2
	c2,0.8,3.8,2.1,5.2,3.7l0.2,0.4c-0.2,1.7,2.2,4.7,2.4,5.6c0,0.6,0.6,1.7,0.4,2.6v1.1c0,1.1,0.4,1.7,1.3,1.9c0.6,0,1.1,1.9,1.9,2v0.4
	c0,0.8,0.9,1.3,1.5,1.9c2,2.6,3.2,5.7,3.5,9c0.4,2.4,0.6,4.8,0.6,7.3c0.2,2.2,0.4,3.9,0.4,5.2C471.4,67.1,471.2,68.9,470.8,72.3z
	 M409.4,77l-0.4,0.7h0.2l0.6-0.6L409.4,77z M409.2,79l-0.2,0.2h0.2V79z M409.5,70.2c0.8,0.9-0.2,1.9-0.2,2.1
	C408.6,71.6,409.4,70.8,409.5,70.2L409.5,70.2z M409.7,72.9c-0.6,1.3-0.2,1.5,0.8,1.5L409.7,72.9z M409.5,75.9h0.2v-0.2
	c-0.2,0-0.2,0-0.2-0.2V75.9z M411.2,64.3v1.3l0.4-1.3H411.2z M411.4,68.9l-0.2,0.2h0.6L411.4,68.9z M411.4,99.2v-0.4l-0.2,0.2
	L411.4,99.2z M415.3,96.6l-0.2,0.2h0.2V96.6z M416.2,60.5c0,0.2,0,0.2-0.2,0.2v0.2L416.2,60.5c0.6-0.2,0.6-0.5,0-1.1V60.5z
	 M417.6,56.6v0.2c-0.5,0.6-0.9,1.3-0.9,2.1c1.5-0.8,1.5-0.8,0.9-2.1V56.6z M418.9,55.1l-0.8,0.2c0.2,0,0.4,0.2,0.4,0.4L418.9,55.1z
	 M418.9,54.9c0.8-0.7,1.2-1.7,1.1-2.8C418.9,52.6,418.4,53.9,418.9,54.9L418.9,54.9z M420.5,50.8l-0.4,0.2l0.4,0.4h0.2L420.5,50.8z
	 M420.9,107.8v0.4c0.2-0.2,0.8-0.2,0.9-0.4H420.9z M437.9,101.5l5.4-8c1-1.3,1.9-2.8,2.6-4.3c0.7-1.5,1.6-2.9,2.6-4.3
	c0.6-0.6,1.7-3,3.5-6.9l0,0c0.6-1.5,1.3-5.6,3-7.3l0.4-2.2c0.2-1.7,0.8-3.2,0.9-4.9v-1.3c0-0.8-0.2-1.5-0.4-2.2
	c-0.2-0.2-0.2-0.4-0.2-0.9c0-0.8,0.6-1.3,1.5-1.7l-1.5-0.6c0.8-0.9,1-2.3,0.4-3.4c-0.4-0.6-0.5-1.4-0.4-2.1v-0.6
	c0-1.3-0.6-3.5-0.4-4.9c-1.7-4.1-3.5-6.9-5.8-8.6c-0.2-0.2-1.1-1.5-1.9-1.7h-0.2c-0.7,0.2-1.4,0.4-2.1,0.8c-0.2,0-1.3-0.2-1.5,0.8
	c-1.3,0.6-3.2,2.6-4.1,3.2c-0.2,0-0.6,0.8-0.8,0.9l-1.5,1.7l-1.9,2.1c-0.6,1.3-3,4.5-3.2,6.5c-2,2.4-3.4,7.3-4.1,9.3
	c-0.4,0.7-0.6,1.5-0.6,2.2c-0.2,0-0.2,0-0.2-0.2v0.2h0.2c-0.6,0.9-1.7,2.8-1.7,3.7v0.4c0,0.9-0.9,3-0.4,3.9l-0.8,0.4
	c0.2,0.2,0.6,1.1,0.4,1.3c-0.6,2-1.1,4.1-1.5,6.2c-0.5,2.2-0.8,4.3-1.1,6.5c-0.1,1.3-0.4,2.7-0.9,3.9c-0.2,0-0.2,0.2-0.2,0.4
	c-0.2,0,0.2,0.2,0.9,0.4c-0.2,0.6-0.6,0.8-0.6,1.5l0.2,1.5l-0.6,1.7c0.3,1.1,0.6,2.2,0.8,3.4c0,0.9,0.4,1.7,0.4,2.4
	c0.3,0.8,0.5,1.6,0.6,2.4c0.2,1.3,1.3,2.8,1.5,3.7c0.4,1.7,1.3,2.1,2.8,1.5l2.1-1.3c1.9-0.7,3.3-2.1,4.1-3.9l0.9,0.2
	c1.1,0,1.9-0.8,2.1-2.1l0.9-1.9c0-0.2,0.2-0.2,0.4-0.2L437.9,101.5z M422.2,40.5l0.9-0.6l-0.2-0.4l-0.9,0.6L422.2,40.5z
	 M437.2,104.4l-1.1-0.2c-0.6,0-0.9,0.4-1.3,1.3L437.2,104.4z M441.7,102.9c-0.2,0,0,1.7-0.9,1.9l-0.6-0.6l-1.1,2.8
	c0.2,0.2,0.4,0.4,0.6,0.4c0.9-1.3,2.8-3,3.5-4.3c0-0.2,0.9-1.3,0-1.9C442.6,101.4,442.4,102.7,441.7,102.9L441.7,102.9z M440,96.9
	v0.6h-0.4c0.1-0.1,0.2-0.4,0.2-0.6H440z M441.1,101.6c0.8-0.9,3-3,3.2-5C443,97.9,441.3,100.3,441.1,101.6L441.1,101.6z M446.5,99
	h-0.4c-1.3,0-1.9,0.8-1.9,2.4L446.5,99z M444.7,89.8h-0.2l0.2-0.2V89.8z M444.7,96l1.3-1.5l1.1-1.3c1-0.9,1.6-2.2,1.7-3.5
	C447.1,91.6,445.7,93.7,444.7,96L444.7,96z M445.2,88.7l0.2-0.4L445.2,88.7z M446.2,87l0.4-0.8l0.4,0.2c-0.2,0.2-0.4,0.4-0.4,0.6
	H446.2z M448.2,99c-0.2,0-0.2,0-0.2-0.2c-0.2,0.2-0.2,0.4-0.2,0.8L448.2,99z M452.5,85.2l0.2,0.8l0.4-0.8h-0.4v-0.8l0.8,0.4l1.1-1.1
	c0.6-0.9,0.8-2.1,1.3-2.8c0.5-0.4,0.7-1,0.8-1.7c0-0.6-0.2-1.2-0.6-1.7l-2.2,3.4c-0.6-0.6-0.8-0.4-0.8,0.4l0.9-0.4
	c-0.1,1.1-0.6,2-1.5,2.6v-1.3l-2.2,3.2c-0.2,0.2,0.2,1.1,0.2,1.7c-1,0.4-1.6,1.4-1.7,2.4c0.5,0.2,1.1,0,1.3-0.5c0,0,0,0,0,0l0.8-1.5
	l0.2-0.2l-0.2-0.2l1.3-0.9c0.2,0.2,0.2,0.4,0.2,0.8l0.2-0.8h-0.4v-0.9L452.5,85.2z M449.3,96.8l-0.2-0.2l-0.4,0.8l0.2,0.2
	L449.3,96.8z M450.3,95.5l-0.4,0.2l0.2,0.2L450.3,95.5z M450.8,87.1v0.4l-0.4-0.6h0.4V87.1z M450.6,99.2c1.1-0.2,1.7-1.1,1.9-2.6
	L450.6,99.2z M451.2,78.1H451l0.2-0.4L451.2,78.1z M451.4,77.5h-0.2l0.2-0.2V77.5z M452,88.4l-0.4,0.4l0.2,0.2L452,88.4z
	 M451.8,92.9L451.8,92.9z M452.7,83.5l-0.2,0.9h-0.4L452.7,83.5z M452.2,88.2l0.4-0.4h-0.2L452.2,88.2z M453.3,96h-0.2
	c0,0.2,0,0.2,0.2,0.2V96z M455.2,92.1l-1.2,1.3l1.1,0.4L455.2,92.1c1-0.9,1.6-2.1,1.6-3.4C455.8,89.6,455.2,90.8,455.2,92.1
	L455.2,92.1z M454.4,78.8L454.4,78.8z M454.4,78.7c0.7-0.2,0.9-0.7,0.6-1.7L454.4,78.7z M455,66.5v-0.2l0.2,0.2c0,0.2,0,0.2-0.2,0.2
	V66.5z M455,87.6h0.2l0.2-0.2c0-0.2-0.2-0.2-0.4-0.2L455,87.6z M456.8,70.4l0.9,0.6c-1.3,0.8-1.9,1.5-1.9,2.4
	c0.1,0.7,0.2,1.4,0.6,2.1c0.2,0.2,0,0.4-0.4,0.8c-0.2-0.2-0.4-0.2-0.8-0.2v0.2h0.8l0.4,0.8c2.1-2.4,3-5.6,2.8-9.9
	C458.9,68.5,458,69.6,456.8,70.4L456.8,70.4z M455.7,63.7h-0.2l0.2-0.2V63.7z M455.7,61.3c0.6,0.6,0.6,1.6,0,2.2V61.3z M455.9,84.8
	h0.4l-0.2-0.2L455.9,84.8z M457.2,59.8l-0.2-0.4l-0.4,0.2c0,0.2,0,0.4,0.2,0.4L457.2,59.8z M457,72.7h0.4V74
	c-0.1-0.1-0.4-0.2-0.6-0.2L457,72.7z M457.4,78.5h-0.2l0.2,0.2h0.2L457.4,78.5z M458.1,87.3c0-0.2-0.2-0.2-0.4-0.2v0.4
	c0.2,0,0.2,0,0.2,0.2L458.1,87.3z M458.7,66.4l-0.2-0.8h-0.2v0.8H458.7z M458.7,84.5c-0.2,0.8-0.4,1.1-0.4,1.3h0.4V84.5
	c0.8-0.5,1.4-1.2,1.7-2.1C458.7,82.9,458.7,83.9,458.7,84.5L458.7,84.5z M458.7,78.7l0.2,0.2l0.6-1.5c-0.2,0-0.4,0-0.6-0.2
	L458.7,78.7z M459.6,52l0.4-0.3l-0.6-2.2h-0.4L459.6,52z M459.4,55.3v-0.6l-0.2,0.4L459.4,55.3z M460.3,57.6c-1.5,0-0.6,1.5-0.6,1.7
	L460.3,57.6z M460,62.4h-0.4v0.2l0.2,0.2L460,62.4z M459.6,99.2L459.6,99.2z M460,53.2c0,0.6,0,0.8,0.2,0.9h0.2c0-0.6,0-0.8-0.2-0.9
	H460z M460.9,80.1l-0.4,0.2h0.6L460.9,80.1z M461.1,72.3l-0.2,0.2h0.2V72.3z M461.5,70.8c0.9-0.5,1.4-1.5,1.1-2.4
	C461.1,69.1,461.3,69.1,461.5,70.8L461.5,70.8z M462.2,54.3h0.2c-0.2,0-0.2,0-0.2-0.2V54.3z M462.6,65.3c0.5-1.2,0.8-2.5,0.9-3.7
	c-0.1-1.4-0.4-2.8-0.9-4.1V65.3z M462.8,72.4c-0.2,0-0.2,0-0.2,0.2c0.2,0,0.4,0.2,0.4,0.4l0.2-0.2L462.8,72.4z M463.2,66.4
	c-0.2,0-0.2,0-0.2,0.2l0.6,0.6c0.2,0,0.2,0,0.2-0.2L463.2,66.4z M466.3,83.7v0.2c0.2,0,0.2,0,0.2-0.2H466.3z"/>
<path class="st0" d="M549.3,104.8l1.7,1.7l-1.1,0.2l1.3,0.8l-0.9,0.6l-0.4,0.9h-1.5v0.4l1.7,0.6v0.4l-1.9,0.6
	c-0.5,0.3-1.1,0.6-1.7,0.8c-0.6,0-1.1,0.2-2.4,0.4l2.1,0.6c-0.6,0.2-1.1,0.9-1.3,0.9l-7.3-0.2c-1.1,0-2.2,0.3-3.2,0.8
	c-1.1,0.7-2.5,0.9-3.7,0.6c-1-0.2-2-0.3-3-0.2l-0.6,0.2c-0.9-0.2-1.8-0.6-2.4-1.3c-0.9,0.9-1.5,1.1-2,0.9c-1.8-0.1-3.6-0.1-5.4,0
	l0.2-1.3l-0.4-0.2c-0.2,0.8-0.4,1.1-0.4,1.3c-3,0.2-3.9,0.4-4.1-0.4c-1.1,0.6-2.3,0.9-3.5,0.9l-3.5-0.2c-1.1,0-2.1-0.2-3.2-0.6
	L500,113c0-0.2-0.2,0-0.6,0.4c-0.9-0.2-3.4-1.5-5-0.9c-0.6-0.1-1.2-0.3-1.7-0.6c-0.8-0.2-1.1-0.4-1.3-0.4c-1.9,0.1-3.6-1-4.5-2.6
	c-0.6,3.2-0.9,4.9-0.9,5.4l-0.4,4.1l-0.9,1.9c0,0.2,0.2,0.6,0.4,1.3c-0.3,0.3-0.7,0.6-1.1,0.8l-0.6,4.9c0.6,0,0.9,0.4,1.5,0.6
	l-0.4,0.4c-0.6,0-1.1,0-1.3,0.2c-0.6,2.8-0.8,4.9-0.9,6.2c-0.2,0.4,0,0.9,0.2,1.9c0.6,0.6,0,0.9,0,1.1c-0.4,0.9-0.2,1.3,0.6,1.5
	c0.2,0,0.4,0.4,0.6,1.1c-0.6-0.1-1.3,0-1.9,0.2c0.3,0.4,0.5,1,0.6,1.5c0,0.9-0.9,2.4-1.1,3.2c0.6,0.2,1.2,0.3,1.9,0.4l-0.4,0.6h-2.4
	l-1.7,2.4c-0.9-0.2-1.3-0.6-1.1-1.1h-1.7c-0.2,0-0.4-0.2-0.4-0.6v-0.6c0-0.4-0.4-0.6-0.9-0.6c-0.2,0-0.6-1.3-1.5-1.1
	c-0.2-0.6-1.1-1.7-1.3-2.4s-1.1-2.6-0.6-3.9c0.2-0.2-0.4-0.8-0.4-0.9l-0.6,1.1c-1.3-0.9-0.8-2.8-0.8-3c0.1-0.7,0-1.4-0.4-2.1
	c-0.6-0.6-0.2-0.9,0.9-1.3l0.4-3.6c0.4-3,0.8-5.2,0.9-6.7c0.8-4.7,1.5-8.6,2.2-11.6c0.1-0.5,0.4-1,0.8-1.3c-0.3-0.3-0.4-0.7-0.4-1.1
	l1.9-8.4l0.9-4.9V94c0.1-0.7-0.1-1.3-0.6-1.9c-0.4-0.7-0.7-1.4-0.8-2.2c0.1-0.9,0.5-1.7,1.1-2.2c1.6-1.3,2.6-3.2,2.8-5.2
	c0.4-1,0.6-2.1,0.6-3.2v-0.4c1.5-1.5,1.5-4.5,1.7-5.8c0.6-1.9,0.9-3.8,0.9-5.8c0-0.9,1.1-3,0.9-4.3v-0.4c0-0.9,0.8-2.8,0.8-3.5v-0.6
	c0-0.9,1.3-3.7,0.8-5.2c1.3-0.6,0.8-2.8,0.9-3.4c0.6-0.8,0.6-2.6,0.6-3.4l0.4-3.7c0.1-0.8,0.3-1.6,0.6-2.4c0.8-2.4,0.4-6.5,0.4-8.6
	l-0.9,0.6c-0.6,0.6-0.9,1.9-1.7,2.4c-1.7,1.5-3.1,3.4-3.9,5.6c-0.2,0-0.4,0.2-0.6,0.4c-0.2-0.2-0.4-0.2-0.8-0.2
	c-0.6,0-1.1,0.4-1.7,1.3c-0.7,1.3-2.1,2-3.5,1.7l-0.8,0.4l-1.1-1.3c-0.8-0.4-1.4-1-1.7-1.9c-0.6-0.8-1.4-1.4-2.2-2
	c-0.9-0.4-1.3-1.3-1.1-2.2c0.2-0.1,0.2-0.3,0.1-0.5c0,0,0-0.1-0.1-0.1c-0.9-0.9-0.8-3.2-0.9-3.7c-0.4-0.8-0.4-1.6-0.2-2.4l4.3-4.9
	h0.4c0.4-0.4,0.6-0.6,0.6-0.4c0.8-1.7,3.4-3.4,4.3-4.3l0.6,0.2c0.2-0.6,0.6-1.7,1.1-1.9c0.6-0.8,1.5-0.9,2.1-1.7
	c0.8-0.6,2.2-0.8,2.8-1.7c0.7-0.9,1.6-1.5,2.6-1.9l0.8,0.6c0.6-1.5,0.9-1.9,2.4-1.7c0.7-0.4,1.3-0.9,1.9-1.5c0.2-0.6,0.4-0.6,0.6,0
	c1.3-0.6,3.7-1.3,5-2.1c1.5-0.7,3.1-1.1,4.7-1.1c1.3,0,2.7-0.3,3.9-0.8c0.5,0.1,1,0.4,1.3,0.8c0.9-0.9,2.1-1.4,3.4-1.3
	c1.7,0.2,3.9,0,5.6,0.2c0.8,0.1,1.5,0.2,2.2,0.6c1.1-0.1,2.1,0,3.2,0.2c0.4,0,0.8,0.2,1.1,0.6l0.2-0.2c0.6,0,1.5-0.2,3-0.4v0.2
	c-0.4,0.4-0.9,0.6-1.5,0.8c0.2,0.2,0.4,0.4,0.6,0.4l1.3,0.6V8.8c0.5,0.5,1.2,0.6,1.8,0.1c0,0,0.1-0.1,0.1-0.1L526.5,9l2.8,1.9
	c0.2,0.2,0.4,0.4,0.6,0.4c0.2-0.2,0.6-0.2,1.1-0.2c1.3,0,2.4,1.7,3,1.9c1.7,1.7,3.5,3.2,5.4,4.5l3.2,2.2c2,1.5,3.4,3.2,3.5,5
	c0.3,1.3,0.6,2.5,1.1,3.7l0.9,0.2l-1.1,1.1l0.8,1.9l-0.8,0.4l0.4,1.3l-0.6,2.6c-0.6,1.3-1.1,2.6-1.5,3.9c-0.2,0.2-1.1,1.5-0.2,2.2
	l0.2-0.2l-0.2,0.4l-2,2.2l-1.5,1.9l-0.8,1.5h-0.2V48c0-0.2,0-0.2,0.2-0.2s1.5-0.9,1.7,0.6c-0.6,0.2-3.5,1.3-4.3,3.7l0.6,0.2l1.5-1.7
	c0.2,0,0.2,0,0.2,0.2c0,0.6,0,1.1-0.2,1.3c-0.4,0.2-0.7,0.5-0.9,0.9c-0.9,0.6-1.3,0.4-1.5-0.6l-1.1,0.6c-0.5,2.8-1.8,5.3-3.8,7.3
	v0.4c-1.5,0.6-2.1,1.3-1.7,2.6c0,0.2-0.2,0.4-0.6,0.8c0-0.4,0-0.6-0.2-0.8c-0.8,0.8-2.8,2.2-3.5,3.9l-1.5,1.1l0.8,0.8
	c-0.9,0.1-1.8,0.5-2.6,0.9l0.2,1.1l-1.1-0.2v0.2c0,1.3-2.1,1.7-2.2,2.2c-0.7,1-1.6,1.8-2.6,2.4l-0.8,0.4c-0.8,1.3-3.2,2.8-3.7,3.7
	c-0.9,1.5-3.5,2.4-4.5,3.2c-0.2,0.2-1.1,0-1.7,0c0,0.6,0,0.8-0.2,0.9c-1,1.3-2.2,2.5-3.5,3.4c-1.4,0.8-2.7,1.8-3.7,3
	c-0.2,0.2-1.7,1.7-3.2,1.7c-0.2,0-0.2,0.2-0.2,0.6v0.2l-0.2-0.2c-1.5,1.9-2.2,2.8-2,2.6l-2.6,1.3l0.8,0.8c1.3,0.2,3.9,0.9,5.4,0.8
	c0.7,0.1,1.4,0.4,2.1,0.8c-0.3,0.1-0.6,0.2-0.9,0.4l-2.1-0.6c0.8,1.5,1.9,0.6,2.1,0.6l0.8,0.4c0.6,0,0.9-0.9,1.5-1.1v0.2
	c0,0.9,1.5,1.1,2.1,1.3l0.8-0.9h6.2l0.6,1.5c0.2-0.2,0.8-1.1,1.3-1.3l1.9-0.2c0.7,0,1.3,0.2,1.9,0.6v0.4l0.2-0.4
	c1.6,0.1,3.2,0.5,4.7,1.1c-0.4,0.4-0.6,0.6-0.8,0.6v1.4l3,0.2l-0.6-1.1c1-0.1,2,0,3,0.2c0.8-0.9-0.6-1.1-0.8-1.1
	c1.1-0.3,2.2-0.5,3.4-0.6c1.5,0.2,4.9,0.8,6.5,0.8c1.2,0.2,2.4,0.3,3.5,0.4c0.8,0,1.5-0.2,2.2-0.4c0.4,0.1,0.7,0.3,0.9,0.6l2.4-0.2
	c0.9,0.2,2.2,0,3.2,0.2c1.2,0.1,2.3,0.4,3.4,0.9c0.5,0.4,1,0.9,1.3,1.5L549.3,104.8z M469.7,139.6h0.6v0.6c-0.2,0-0.2,0-0.2,0.2
	L469.7,139.6z M475.7,117.9l-0.2,0.8c0,0.2,0.2,0.4,0.4,0.6c0,0.2,0.2-0.2,0.4-0.9L475.7,117.9z M476.1,134l-0.2-0.8
	c-0.1,0.1-0.2,0.4-0.2,0.6L476.1,134z M476.8,113.4c0.5-0.8,0.8-1.7,0.9-2.6C476.4,111.3,476.2,111.7,476.8,113.4L476.8,113.4z
	 M477,109.9h0.2v-0.1L477,109.9z M479.4,125.5H479l-0.6-0.4v0.2c0.1,0.1,0.4,0.2,0.6,0.2l-1.6,3.2l0.9,0.9l-0.4,1.5
	C479.2,130.6,479.4,129.5,479.4,125.5c0.5-0.8,0.5-1.3,0-1.9L479.4,125.5z M478.9,136.9c-0.2-1.3-0.4-2.2-0.4-2.8
	c-0.5,0.5-0.9,1.2-1.1,1.9C477.4,136.2,477.9,136.6,478.9,136.9L478.9,136.9z M478.7,103.1l-1.1-0.6l0.4,1.9
	C478.1,103.9,478.3,103.5,478.7,103.1c0,0.6,0,1.1,0.2,1.3c0.8-0.6,0.9-0.9,0.6-1.5L478.7,103.1z M478.3,108.7h0.2V108h-0.2V108.7z
	 M478.7,105.4h0.2v-0.2h-0.2V105.4z M480,123.1l0.4-2.1c-0.6,0.2-1,0.7-1.1,1.3L480,123.1z M480.2,113.6l-0.2,0.2v0.4l0.2-0.2V113.6
	z M480.8,120.3v-2.4l-0.4-0.2c-0.2,0.7-0.2,1.4-0.2,2.1L480.8,120.3c0,0.2,0,0.2,0.2,0.2C480.7,120.5,480.7,120.5,480.8,120.3
	L480.8,120.3z M482.2,106.7c0,1.7-0.2,4.9-1.9,6.2l1.3,1.9c0.9-4.7,1.5-6.9,1.5-7.1c0.2-0.2,0-0.4-0.4-0.9L482.2,106.7z
	 M481.1,147.3h-0.4c-0.2-0.2-0.4-0.4-0.4-0.6s0.2-0.2,0.4-0.2L481.1,147.3z M481.3,116.4c-0.2-0.2-0.2-0.4-0.2-0.8h-0.4
	c0.2,0.2,0.2,0.4,0.2,0.9L481.3,116.4z M483,134.9v-1.5h0.2c0.2,0.2,0.2,0.8,0.2,1.5H483z M485,121.6l0.4,0.2L485,121.6z M487,112.8
	v0.4l-0.2-0.4H487z M488.4,80.9h-0.2l0.2,0.8l0.2-0.2L488.4,80.9z M492.8,84.5h0.2v-0.2L492.8,84.5c-0.5,0.3-0.6,1-0.4,1.5
	L492.8,84.5z M496,82.6l-0.2-0.6c-1.1,0-2.1,0.8-2.4,1.9L496,82.6z M494.1,79.8l-0.4,1.3C494,80.9,495.1,80.5,494.1,79.8
	c0-0.2,0.8-0.9-0.6-1.1L494.1,79.8z M494,77.7c0.2,0.2,0.2,0.2,0.2,0l0.2-0.2l-0.2-0.2L494,77.7z M500,72.3
	c-0.7-0.4-1.7-0.2-2.2,0.4c-0.7,1.1-1.6,2-2.8,2.6c-0.9,0-0.9,0.4-0.4,1.3C495.9,75.7,497.5,74,500,72.3L500,72.3z M494.8,72.5
	c1.5,0,2.8-2.1,3.5-2.2l-0.6-1.5c0.4,0.2,0.9,0.3,1.3,0.4c0.6,0,1.1-0.3,1.5-0.8l7.3-6l6.7-5.8c1.1-0.9,1.9-2,2.2-3.4l0.8,0.9
	l2.1-2.4c0.5-0.9,1.2-1.7,2.1-2.2c1-0.6,1.8-1.5,2.2-2.6c0.2-0.8,0.9-1.3,1.5-2.2l1.5-1.5c-0.1-0.1-0.2-0.4-0.2-0.6
	c0-0.2,1.1-0.6,0.9-1.1c0-0.6,0.9-1.7,1.1-1.9l0.8,0.8c0.2-0.6-0.2-0.8-0.8-0.8c0-0.4,0-0.6,0.2-0.8l2.2-3.4c0.5-1.2,1.2-2.3,2-3.2
	c1.3-2.1,2-4.5,2.1-6.9c-2.2-2.2-6.9-3.2-7.7-3.4c-2.8-0.7-5.6-1.2-8.4-1.5c-1.1-0.2-2.2-0.3-3.4-0.2c-1.3,0-3.2,0.2-5.4,0.4
	c-0.8,0-5.4,0.2-8.2,2.2c0,0.3,0.1,0.7,0.4,0.9c0.5,1.1,0.7,2.2,0.8,3.4c0,0.9,0,1.5-0.2,1.7s0,0.6,0.2,1.5
	c-0.4,1.4-0.7,2.7-0.9,4.1l1.3,0.4l-1.1,0.6c0.2,0.2,1.1,0.8,0.2,1.5c-0.6-0.8-1.1-0.4-1.1,0.4l0.2,1.1c0,0.2-0.4,1.7-0.9,4.1
	l0.2,0.2l0.9-1l0.4,0.4c-0.2,0.7-0.5,1.4-0.9,2.1c-1.3,2.2-1.8,4.7-1.4,7.2l-1.7,1.5c0.5,0.1,0.9,0.4,1.3,0.8
	c-0.4,1-0.8,1.9-1.3,2.8l1.5-0.8c-0.1,0.5-0.3,1-0.6,1.5c-1.3,0.2-1.1,1.7-1.1,1.9c-1.3,0.2-0.4,1.7-0.9,1.9
	c0.5,0.2,1.1,0.2,1.7,0.2c-0.5,0.6-1.2,1.1-1.9,1.5c0.2,0.6,1.5,1.1,0.6,1.9l-0.9-0.4c0.1,0.7,0.1,1.4,0,2.1
	c-0.2,0.7-0.1,1.4,0.2,2.1c0.1,0.4,0.2,0.8,0.4,1.1c0,0.4-0.4,0.8-0.9,1.1c-0.6,0.2-1.1,1.5-1.7,2.1L494.8,72.5z M495.1,79l0.2,0.2
	V79H495.1z M496.3,68.9l-0.3-0.2l-0.8,0.2v0.4l0.9-0.2L496.3,68.9z M496.6,77.9v-0.2l-0.2,0.2L496.6,77.9z M498.5,76.2
	c-0.6-0.2-1.1-0.6-1.9,0.8L498.5,76.2z M498.1,59.1h0.4l-0.2,0.8h-0.2L498.1,59.1z M498.3,67.8l0.4,0.2c-0.4,0-0.6,0-0.6-0.2H498.3z
	 M499.6,62.8c0,0.6-0.4,0.6-0.9,0.4C499.4,63,499.8,62.8,499.6,62.8L499.6,62.8z M499.4,78.9c-0.2,0.2-0.4,0.2-0.8,0.2l0.2,0.4
	L499.4,78.9l0.8,0.6v-0.2c0.6-0.4,0.4-0.8-0.2-1.1L499.4,78.9z M499.2,60.6l0.9,0.2c-0.4,0.4-0.6,0.6-0.8,0.6c0,0.2-0.2,0.2-0.6-0.2
	C499.2,60.7,499.4,60.5,499.2,60.6L499.2,60.6z M499.2,76.3c0.9-0.6,1.3-1.1,1.3-1.7L499.2,76.3z M500.7,65.6l0.4,0.4l-0.8,0.9
	l-0.4-0.2L500.7,65.6z M500.5,71.6L500.5,71.6c0-0.1,0-0.1,0.2-0.1L500.5,71.6z M501.5,51.3l-0.2,0.8h-0.4c0-0.3,0.2-0.5,0.4-0.8
	H501.5z M502.8,70.3c-1.3-0.6-1.1-0.6-1.7,0.8l1.5,1.3l2.4-2.5c-0.2-0.2-0.4-1.5-1.3-1.7c-0.9,0.6,0,1.1,0,1.7
	C503.5,69.9,503,70.4,502.8,70.3L502.8,70.3z M502,65.3l-0.2-0.4h0.4L502,65.3z M502,65.7h-0.2v-0.2L502,65.7z M502.2,73.7v-0.2
	c-0.2,0-0.2,0-0.2,0.2c0.2,0,0.2,0,0.2,0.2V73.7z M502.8,99.1h-0.6c-0.2-0.2-0.2-0.2,0-0.2l0.2-0.2L502.8,99.1z M502.8,38.4
	c-0.6-0.8-0.6-1.1,0-1.3V38.4z M502.4,40.1v-0.5l0.4,0.2L502.4,40.1z M503.7,76c-1.3-0.6-1.3,0.8-1.3,0.9L503.7,76z M505.8,61.6
	c0.4-0.3,0.8-0.6,1.3-0.8c0,1.3-0.6,2.1-1.5,2.2c-0.5,0.4-1,0.9-1.3,1.5c-0.6-0.1-1.1-0.7-1-1.3c0-0.1,0-0.1,0-0.2
	C504.4,62.9,505.3,62.3,505.8,61.6L505.8,61.6z M505,74.4c-0.2,0.2-0.4,0.4-0.4,0.6c0.2,0,0.4-0.2,0.6-0.4L505,74.4z M508.9,65.2
	l-0.6-0.2c-0.4,0-0.8,0.2-1.3,0.8l-2,1.3c-0.2,0.6,0.1,1.3,0.7,1.5c0,0,0,0,0,0c0.1,0.3,0.3,0.6,0.4,0.9l1.7-1.7
	c0.2-0.2,0.2-0.6,0.2-1.5L508.9,65.2z M505.9,68.4c0,0.2,0,0.2-0.2,0.2L505.9,68.4z M507.4,72.5h-1.3c0.2,1.5,1.1,0.6,1.3,0.6V72.5z
	 M506.9,99.8c0.6,0.6,0.9,0.6,1.1,0H506.9z M508.7,61.1l-1.7-0.4c0.6-1,1.8-1.4,2.8-0.9L508.7,61.1z M508.5,66.9l0.8,0.4
	c0.4,0,0.8-0.4,1.1-1.3L508.5,66.9z M516,60c-0.7-0.2-1.4-0.4-2.1-0.8c-0.8,1.7-2.4,3.4-4.1,3.5l-0.4,2.1c1.1,0,1.9-0.4,2-0.9
	l1.1-1.5h1.4c0.2-0.2,0.2-0.6,0.2-1.3L516,60z M511.5,101.4c-0.4,0.1-0.8,0.2-1.1,0.4l-0.9-0.2v0.6c0.7-0.2,1.4-0.2,2-0.2V101.4z
	 M511.7,58.3c-0.3,0.3-0.7,0.6-1.1,0.8c-0.6-0.4-0.8-0.8-0.2-1.3S511.5,57.7,511.7,58.3L511.7,58.3z M511.7,67.8l-0.4,0.6l-0.2,0.8
	c0.6,0.2,1.3-0.1,1.5-0.8L511.7,67.8z M513,66.5h-0.2l0.2,0.2V66.5z M515.8,102.2c-1.3-0.9-1.1-0.9-2.4-0.2L515.8,102.2z
	 M513.8,113.8l0.2-0.4h0.2v-0.2c0,0.2,0,0.2-0.2,0.2c0,0.2,0,0.2-0.2,0.2V113.8z M515.4,65.8l-1.3,0.6l0.2,0.4l1.3-0.6L515.4,65.8z
	 M516.7,63.9l0.4,0.2c0.1-0.3,0.3-0.6,0.4-0.9L516.7,63.9z M516.9,101.1v0.2h0.8v-0.2H516.9z M518.7,58.7l-0.2-0.4l-0.6,0.8
	L518.7,58.7z M519.6,101.5c-0.8-0.6-0.9,0-1.5,0.9L519.6,101.5z M520.3,7.7c0.4,0.6,0.8,0.6,0.9,0H520.3z M521.8,48.2l-0.4,0.4
	l0.2-0.6l0.9-1.1c0.2,0,0.4,0.2,0.4,0.4L521.8,48.2z M521.8,100.8v0.2c0-0.2,0-0.2-0.2-0.2H521.8z M523.1,53.1l-0.2,0.2l0.4,0.8
	c0-0.2,0-0.2,0.2-0.2L523.1,53.1z M524.4,100.9c0,0.2,0,0.2-0.2,0.2L524.4,100.9z M525,8.8c0.6-0.6,0.9-0.6,1.3,0H525z M525.2,44.6
	h0.2l-0.2,0.2V44.6z M525.6,102.9h0.8c-0.2-0.2-0.4-0.2-0.8-0.2V102.9z M527.2,67.6c-0.2,0-0.2-0.2-0.2-0.4L527.2,67.6z
	 M527.8,102.9L527.8,102.9z M527.8,104.1h-0.2v0.2L527.8,104.1z M529.3,103.3l1.5-0.2H528L529.3,103.3z M529.7,40.5L529.7,40.5z
	 M530.2,64.6v-0.4h0.4L530.2,64.6z M532.7,103.5v-0.8c-0.3,0-0.5,0.2-0.8,0.4L532.7,103.5c0.6,0.9,0.8,1.1,1.7,0.3
	C533,103.5,532.5,103.3,532.7,103.5z M533.2,61.8l-0.4,0.2l-0.4-0.2l0.4-0.2L533.2,61.8z M534.1,60.2c0,0.9,0.2,1.1-1.1,0.6
	L534.1,60.2z M536,104.4v0.2h0.8v-0.2H536z M536.4,56.8c-0.4-0.4-0.2-0.8,0.4-1.1C536.6,56,536.5,56.4,536.4,56.8L536.4,56.8z
	 M536.4,114.3v-0.2l0.2-0.2l0.2,0.2L536.4,114.3z M537.5,56.8c-0.6,0.6-0.8,0.6-0.9,0H537.5z M537.5,100.7l-0.2,0.2l-0.2-0.4
	c0.2,0,0.2,0,0.2,0.2L537.5,100.7z M538.2,104.4c-0.2,0-0.4,0-0.6,0.2v0.2c0.1-0.1,0.4-0.2,0.6-0.2V104.4z M538.4,114.7
	c0.5-0.4,1.3-0.3,1.7,0.2L538.4,114.7z M539.9,104.6l-0.2,0.2l0.4,0.8l0.2-0.2C540.3,105.1,540.2,104.8,539.9,104.6L539.9,104.6z
	 M540.9,53.1l-0.6-0.9l1.1-0.4c-0.2,0.2-0.2,0.8-0.2,1.3L540.9,53.1z M540.7,103.9h0.8c0-0.2-0.2-0.4-0.6-0.6L540.7,103.9z
	 M544.8,27.3c0.6-0.8,0.8-1.1,0.6-1.3c0-0.8-0.3-1.6-0.8-2.2L541,20c-0.2,0-0.2,0-0.2,0.2C541.5,21.5,542.8,23.7,544.8,27.3
	L544.8,27.3z M542.7,105.2l-1.3-0.4v0.6c0.6,0,0.9,0,1.1,0.2L542.7,105.2z M542.4,104.3v-0.4c-0.2,0-0.4,0-0.6,0.2
	C542,104.1,542.2,104.1,542.4,104.3L542.4,104.3z M546.3,104.5l0.6,0.8l0.4-0.2l-0.8-0.8c-0.5-0.3-1.1-0.5-1.7-0.6
	c-0.6,0-1.1,0.3-1.5,0.8H546.3z M548.9,105h-0.4l-0.2,0.2c0,0.2,0.2,0.2,0.4,0.2L548.9,105z"/>
<path class="st0" d="M648.3,14.4l-0.6,6.7l-0.6,3.9l-0.6,3.7l-0.6,6.2c0.1,1.9-0.1,3.9-0.6,5.8c-0.9,3-1.7,7.7-2.2,9.9
	c-0.3,1.2-0.5,2.5-0.6,3.7l-0.6,2.4c-0.5,1.8-0.8,3.6-0.8,5.4c-0.2,0.8-0.9,2.6-0.8,3.6c-0.8,0.2,0,1.3-0.6,1.5h0.2V69
	c0.1,1.1-0.1,2.2-0.6,3.2l-0.7,1.7c-0.2,1.3-0.4,1.9-0.4,2.1l0.2,2.2c-0.6,0.6-0.6,1.1-0.4,2.1s0.4,1.5,0.4,1.7s-0.2,0.9-0.4,1.9
	v1.7c-0.1,0.6-0.2,1.3-0.4,1.9c-0.4,1-0.5,2.1-0.4,3.2l0.2,1.7c0,0.2-0.2,0.9-0.4,2.2c-0.1,1.1-0.2,2.2-0.2,3.4
	c-0.2,1.2-0.3,2.4-0.2,3.6l0.2,8.2l-0.2,2.4c0.2,0-0.4,0.2-1.3,0.4c0.9,0.1,1.6,0.9,1.5,1.9l-1.1-0.4l-0.2,1.5c0,1.5,0.4,2.4,1.3,3
	c-0.4,0.5-0.5,1.1-0.6,1.7c0,0.9,0.2,1.8,0.6,2.6c0.3,1.8,0.7,3.6,1.1,5.4c0,0.4,0,0.6,0.2,0.8c0.7,0.7,1.1,1.6,1.3,2.6l0.9,3.2
	L640,134l-0.6,1.9l-2.4-0.2c0-0.2,0-0.2-0.2-0.2c-0.4,0.4-0.9,0.8-1.5,0.9c-0.2,0.2-0.6,0.2-1.1,0.2c-0.7,0-1.4-0.2-1.9-0.8
	c-2.8-2.2-4.3-6.7-5-8c-1.3-1.7-1.9-4.9-2.1-5.6c-0.8-3.6-1.9-6.3-2.2-8.6l-1.2-6.9c-0.2-1.7-0.4-3.2-0.4-4.1c0-0.7,0.2-1.4,0.6-2.1
	c-0.2-0.4-0.3-0.9-0.4-1.3c-0.2-0.8-0.2-1.6,0-2.4l0.2-1.3c0-0.2-0.2-0.8-0.4-1.7l-0.2-1.5l0.2-1.5c0.3-1,0.4-2,0.4-3v-1.7l0.6-7.3
	c0.2-1.4,0.4-2.9,0.8-4.3l0.6-0.2l-0.6-2.8c0.2,0,0.2,0,0.2-0.2l0.6,0.6h0.1c0.2-2.2,0.5-4.4,0.9-6.5c0.6-2.8,0.9-7.3,1.1-9.3
	c0-0.6,0.2-1.1,0.6-1.5c0.2-0.4,0.2-0.9,0-1.3c0-0.6,0.6-2.2-0.4-3.2c-0.2,0-0.2-0.6,0-0.6c0.6-0.2,0.2-1.7,0.9-2.2l-0.6-1.3
	c1.7-1.3,1.1-3.5,1.1-4.1s-0.6-0.6-0.6-1.1c0-0.2,0.8-1.5,0.2-2.4l0.2-0.4c0.9-1.3,1.1-1.3,0.6-3c0-0.6,0-0.9,0.2-1.1
	c0.5-0.4,0.6-1.1,0.4-1.7h-0.2c1.3-1.3,0.6-4.3,0.8-5.2l-0.6,0.8V23l-1.1,1.1l-0.8,0.9c-0.7,2.2-1.7,4.3-2.8,6.3
	c-0.5,1.5-1.1,3-1.9,4.5l-3.1,7.5l-1.9,4.9l-0.4,2.1c-0.8,2.2-2.2,6.7-2.8,9.1c-0.6,2.1-1.7,5.2-1.9,7.5c-0.1,0.4-0.3,0.7-0.6,0.9
	c-0.6,0.7-0.8,1.6-0.8,2.4c0,0.6,0,0.8-0.2,0.9l-0.8,2.6l-2.4,7.8v1.5c0,2.1-0.4,3.4-1.1,4.1c-0.2,0.2-0.2,0.6-0.2,1.1
	c0,1-0.5,2-1.3,2.6c-0.2,0-0.2,0-0.2,0.2v0.8c-0.4,2.1-1.7,2.8-3.7,2.2c-0.6-0.2-1.2-0.3-1.9-0.2l-0.2,1.3l-0.4,0.2
	c-0.9-0.1-1.7-0.1-2.6,0l-2.2,0.6l-0.2,1.3l-1.9,0.6c-1.5-1.1-2.7-2.5-3.5-4.1c-0.4-1.2-0.9-2.2-1.7-3.2l-2.4-5.2
	c-1.3-3-2.1-5.2-2.6-6.9c-0.6-1.8-1-3.6-1.3-5.4c-0.2-1.1-0.6-2.1-1.1-3c-0.3-0.9-0.5-1.9-0.6-2.8c-0.2-0.9-0.4-1.7-0.4-1.9
	l-0.6-2.6l-1-2c0.4-0.9,0.4-1.9,0.2-2.8c-0.6-1.3-0.6-3.9-1.5-5.4c0.3-0.3,0.4-0.8,0.2-1.1c0-0.7-0.2-1.3-0.6-1.9
	c0-0.2-0.2-0.2-0.8-0.2v0.8c0,0.9-0.2,1.8-0.8,2.6c-0.4,0.5-0.6,1.1-0.6,1.7c-0.1,0.9-0.3,1.8-0.6,2.6c-0.6,1.5-0.9,5-1.5,6.5
	c-1.3,3.9-1.9,10.5-2,12c-0.4,3.2-0.7,6.3-0.8,9.5c-0.2,1.7-0.2,3.3-0.2,5l0.2,0.8c-0.2,1-0.4,2-0.8,3l-0.2,2.6l0.2,2.8v4.9
	l-0.2,2.6c0,0.6,0.2,1.1,0.4,1.7c0.2,0.2,0.2,0.6,0.2,1.1c-0.2,0.6-0.3,1.2-0.2,1.9c0.1,0.6,0,1.3-0.2,1.9c-0.2,0.2-0.2,0.8-0.2,1.7
	l0.2,3.6c-0.1,1.1,0,2.3,0.2,3.4l-0.2,0.6l1.1,6.2c0.2,0.8,0.5,1.5,0.9,2.2c-0.1,1-0.7,2-1.5,2.6c-1.3,0.9-1.9,2.1-1.5,3.4
	c0,0.2-0.2,0.6-0.4,1.3c-1.7,1.5-3.4,2.2-4.7,2.1c-0.2-0.2-0.6-0.2-1.5-0.2l-0.8,0.2c-0.9,0-2-0.9-2.6-1.1c-2.4-1.7-4.1-2.4-4.9-3
	c-2.1-0.6-3.7-2.5-4.1-4.7c-0.2-0.2-0.2-0.8-0.2-1.7c0-0.6,0.2-1.5,0.4-2.8c0.4-1.3,0.5-2.7,0.4-4.1v-6l0.4-8.2v-0.4l-0.2-2.6
	c-0.2-2.4,0.6-6.5,0.6-8.2c0-3.6,0-6,0.2-7.7c0.2-3,0.6-5,0.8-6.3c0.2-2.4,0.6-4.5,0.8-5.8l0.8-6.2c0.6-2.9,1-5.8,1.3-8.8l1.7-6.3
	c0-0.8,1.3-3,1.1-4.3c0-0.2,0.2-0.4,0.6-0.8c0-0.2-0.9-1.5,0.4-2.1c0.4-0.5,0.6-1.1,0.6-1.7c-0.1-0.8-0.1-1.6,0-2.4
	c0.6-2.8,1.9-6.5,3.2-11.8l1.5-5.8c0.6-2.1,1.1-4.1,2-6.9c0.6-1.5,0.8-2.6,1.3-3.2c1.5-3.5,2.8-5.2,5.6-6.2c0.2-0.2,0.6-0.2,1.3-0.2
	c0.7,0,1.3,0.2,1.9,0.6c1.5,1.2,3.2,2,5,2.6c0.6,0.2,0.6,0.8,1.1,0.9c0.2,0.2,0.6,0.2,1.5,0.2c0,0.2,0,0.4,0.2,0.4
	c0.9,0.2,2.2,2.2,3.7,6.2c1.1,2.9,2,4.5,2.6,4.9c0.8,0.6,1.1,1.1,1.1,1.5c0.2,0.7,1.1,1.5,1.3,2.2l-0.2,3.5c0,0.6,0.2,1.3,0.4,2.6
	c0,0.2,0.2,0.4,0.8,0.6c-0.6,0.7-0.8,1.7-0.6,2.6c0.3,1.4,0.4,2.7,0.4,4.1c0,0.6,0.1,1.3,0.4,1.9c0.8,1.7,0.4,4.3,0.4,5.2
	c0,0.6,0.2,1.5,0.4,2.8v1.3c0,1.3,0.6,3.9,0.8,5.4v1.9c0.6,0.4,0.9,0.2,1.1-0.4l0.9-3.4c0-0.2,0-0.4,0.2-0.6c1.3-2.5,2.3-5.2,3-8
	c0.2-1.3,1.1-2.8,1.9-4.9c1.2-3.5,2.6-7,4.3-10.3l2.6-5h-0.2c1.7-3.9,3.6-7.6,5.8-11.2c1-1.7,2-3.3,3.2-4.9l0.9-0.9
	c1.1-0.5,1.8-1.5,2-2.6l0.8-0.8V9.2c1.7-2.1,3.7-3.9,5.8-5.5c1.6-1.2,3.2-2.2,4.9-3.2c0.4-0.3,0.9-0.5,1.5-0.6
	c0.2,0,0.8,0.2,1.7,0.4l3,0.9l2.4,0.6c1.7,0.7,3.6,1,5.4,0.9c1.5,0,3,1.9,3.2,2l1.5,1.5c0.9,1.2,1.2,2.7,0.8,4.1
	C648.8,11.7,648.4,13,648.3,14.4z M552.3,69.9c-0.6,0.8-0.8,1.3-0.4,1.7L552.3,69.9z M552.3,66.3h0.2c0-0.2,0-0.4-0.2-0.6V66.3z
	 M552.9,64.8l-0.2-0.2c0,0.2,0,0.2-0.2,0.2l0.2,0.2L552.9,64.8z M553.1,62.6v0.6h0.2l0.2-0.6H553.1z M555.9,49.9h-0.2l0.2,0.2V49.9z
	 M556.2,47.8c0,0.2,0,0.2-0.2,0.2L556.2,47.8z M560,59.8l-0.4-0.2c0,0.2,0,0.4,0.2,0.6L560,59.8z M560,58.3l0.6-0.8l-0.4-0.2
	L560,58.3l-0.2,0l0.2,0.2V58.3z M560.3,64.9l-0.2,0.2c0.2,0,0.2,0,0.2,0.2l0.2-0.2L560.3,64.9z M561.8,60.2c-0.2,0-0.4,0-0.6-0.2
	c-0.9,1.3-0.6,3.4-0.6,3.9L561.8,60.2z M562.6,49.2l0.2-0.6c0-0.2,0-0.2-0.2-0.2c0,0.2-0.2,0.4-0.4,0.6L562.6,49.2z M562.2,52.6
	c0.2,0.2,0.4,0.2,0.8,0.2v-0.2c-0.4,0-0.6,0-0.8-0.2V52.6z M562.6,47.6l0.2-0.8h-0.2l-0.2,0.8H562.6z M563.1,53.4h-0.4l0.2,0.4h0.4
	L563.1,53.4z M563.9,52.6h-0.2c0,0.2,0,0.2,0.2,0.2V52.6z M564.3,47.4v-0.2c0-0.2,0-0.2-0.2-0.2c0,0.2,0,0.2-0.2,0.2L564.3,47.4z
	 M564.3,40.1v0.2h0.2v-0.2H564.3z M564.8,41.4h0.2l-0.2-0.2L564.8,41.4z M565.2,36.2v0.8h0.4c0-0.4,0-0.6-0.2-0.8H565.2z M565.6,42
	h0.2c-0.2,0-0.2,0-0.2-0.2c0,0.2,0,0.2-0.2,0.2H565.6z M569.1,32.1l-0.2,0.2h0.2V32.1z M574.9,48.5c-0.4,0-0.6,0-0.8,0.2v0.2
	c0.4,0,0.6,0,0.8-0.2V48.5z M604.8,91.1l-0.2,0.4L604.8,91.1z M616.9,25.7l-0.2-0.2v0.2H616.9z M623.8,96v0.4h0.2V96H623.8z
	 M625.3,55.2h0.2l-0.2,0.2V55.2z M625.9,48.3v0.4h-0.2L625.9,48.3z M627.8,33h0.2c0,0.6,0,0.8-0.2,0.9V33z M628.5,75.4h-0.2l0.2,0.2
	V75.4z M629.1,32.3v-0.2c-0.2,0-0.2,0-0.2,0.2H629.1z M628.9,73.2v0.2h0.2v-0.2H628.9z M629.2,26.1c0.6-0.6,0.6-0.9,0.2-1.3
	c-0.2,0.1-0.2,0.4-0.2,1.2L629.2,26.1z M631.3,108.7c0.7-0.9,0.7-1.7,0-2.2V108.7z M631.7,104.8v-0.4h-0.2v0.4H631.7z M633,123.9
	c0-0.8-0.3-1.7-0.9-2.2c-0.2,0.6-0.4,0.9-0.2,1.1L633,123.9z M632.6,124.4h0.2l-0.2-0.2c-0.2,0-0.2,0-0.2,0.2H632.6z M635.8,132.3
	l-0.8-3c-0.8-1.7-1.1-2.8-0.9-3.4c-0.1-0.4-0.3-0.7-0.6-0.9c-0.4,0.1-0.7,0.5-0.6,0.9c0,0.1,0,0.1,0.1,0.2c0-0.2,0-0.2,0.2-0.2
	c0-0.2,0-0.2,0.2-0.2c0.1,0.1,0.2,0.4,0.2,0.6c-0.2,0.5-0.3,1-0.2,1.5c0.6,1.4,1.1,2.8,1.5,4.3c0,0.2,0,0.2,0.2,0.2H635.8z
	 M635.4,102.6l-0.4,0.6l0.2,0.4v-0.2h0.4c0-0.2,0-0.4,0.2-0.6L635.4,102.6z M636.4,134l-0.2-0.6H636v0.6H636.4z M636.6,93.6V94
	l0.4-0.2l0.2-0.4c0-0.2-0.2-0.2-0.4-0.2L636.6,93.6z M636.6,116.2c0.2,0,0.2,0,0.2-0.2c0-0.3,0-0.7,0.2-0.9
	C637.5,115.8,637.3,116.2,636.6,116.2L636.6,116.2z M637.1,88.9h-0.2v0.2L637.1,88.9z M638.2,119.7h-0.6v-0.2l0.2-0.2L638.2,119.7z
	 M639,79.2h-0.4c0.2-0.2,0.2-0.6,0.2-1.1L639,79.2z"/>
</svg>
