<?xml version="1.0" encoding="utf-8"?>
<!-- Generator: Adobe Illustrator 21.0.2, SVG Export Plug-In . SVG Version: 6.00 Build 0)  -->
<svg version="1.1" id="Layer_1" xmlns="http://www.w3.org/2000/svg" xmlns:xlink="http://www.w3.org/1999/xlink" x="0px" y="0px"
	 viewBox="0 0 70 39.1" style="enable-background:new 0 0 70 39.1;" xml:space="preserve">
<style type="text/css">
	.st0{fill:#4BC9F3;}
	.st1{fill:#FFFFFF;}
</style>
<g>
	<g id="Layer_27">
		<g>
			<g>
				<g>
					<path class="st0" d="M11.2,5.6c0,3.1-2.5,5.6-5.6,5.6S0,8.7,0,5.6C0,2.5,2.5,0,5.6,0C8.7,0,11.2,2.5,11.2,5.6"/>
					<path class="st0" d="M23.5,5.6c0,3.1-2.5,5.6-5.6,5.6c-3.1,0-5.6-2.5-5.6-5.6c0-3.1,2.5-5.6,5.6-5.6C21,0,23.5,2.5,23.5,5.6"/>
					<path class="st0" d="M11.2,17.9c0,3.1-2.5,5.6-5.6,5.6S0,21,0,17.9c0-3.1,2.5-5.6,5.6-5.6C8.7,12.3,11.2,14.8,11.2,17.9"/>
					<path class="st0" d="M23.5,17.9c0,3.1-2.5,5.6-5.6,5.6c-3.1,0-5.6-2.5-5.6-5.6c0-3.1,2.5-5.6,5.6-5.6
						C21,12.3,23.5,14.8,23.5,17.9"/>
					<path class="st0" d="M5.6,24.5c-3.1,0-5.6,2.3-5.6,5.6c0,3.3,2.5,5.6,5.6,5.6s5.6-2.4,5.6-5.6C11.2,26.9,8.7,24.5,5.6,24.5"/>
					<path class="st0" d="M38.7,22.8c0.8,0,1.5-0.7,1.5-1.5c0-0.8-0.7-1.5-1.5-1.5s-1.5,0.7-1.5,1.5C37.2,22.1,37.9,22.8,38.7,22.8"
						/>
				</g>
				<g>
					<path class="st1" d="M30.2,24.5c-3.1,0-5.6,2.3-5.6,5.6c0,3.3,2.5,5.6,5.6,5.6c3.1,0,5.6-2.4,5.6-5.6
						C35.8,26.9,33.3,24.5,30.2,24.5z M30.2,33.7c-1.9,0-3.5-1.5-3.5-3.5c0-2,1.6-3.5,3.5-3.5c1.9,0,3.5,1.5,3.5,3.5
						C33.7,32.2,32.2,33.7,30.2,33.7z"/>
					<path class="st1" d="M17.9,24.5c-3.1,0-5.6,2.3-5.6,5.6l0,0V39h2v-4.5c1,0.8,2.2,1.3,3.6,1.3c3.1,0,5.6-2.4,5.6-5.6
						C23.5,26.9,21,24.5,17.9,24.5z M17.9,33.7c-1.9,0-3.5-1.5-3.5-3.5c0-2,1.6-3.5,3.5-3.5c1.9,0,3.5,1.5,3.5,3.5
						C21.4,32.2,19.8,33.7,17.9,33.7z"/>
					<path class="st1" d="M52.9,33.3v-4.6c0-2.7-1.1-4.1-3.7-4.1c-2.3,0-3.6,1.5-4,2.5h0c0,0,0-0.3,0-0.6V26c0-0.8-0.4-1.2-1.4-1.2
						h-2v1.8h0.9c0.3,0,0.5,0.1,0.5,0.5v8.5h2.1v-5c0-0.5,0-1,0.2-1.4c0.4-1.5,1.7-2.6,3.4-2.6c1.7,0,2,1.2,2,2.7v5
						c0,1,0.4,1.4,1.4,1.4h1.6v-1.8h-0.4C53.1,33.7,52.9,33.6,52.9,33.3z M38.7,24.8h-2v1.8h0.9c0.3,0,0.5,0.1,0.5,0.5v7.1
						c0,1,0.4,1.4,1.4,1.4h0.6H40v-9.4C40,25.2,39.7,24.8,38.7,24.8z M58,31.3v-4.9h2.6v-1.6H58v-2.9h-2v2.9h-1.4v1.6H56v5.1
						c0,3.6,2.7,4,4.1,4c0.4,0,0.7,0,0.7,0v-1.8c0,0-0.2,0-0.5,0C59.5,33.8,58,33.5,58,31.3z M64.1,27.4c0-0.9,0.8-1.3,2-1.3
						c0.3,0,0.6,0,0.9,0.1c0,0.1,0,0.2,0,0.3c0,0.7,0.6,1.3,1.3,1.3c0.7,0,1.3-0.6,1.3-1.3c0-0.3-0.1-0.5-0.2-0.8
						c-0.6-1-2.3-1.3-3.3-1.3c-2.2,0-4,1-4,3c0,3.4,5.9,3.2,5.9,5.2c0,0.9-0.9,1.4-1.9,1.4c-2,0-3.2-1.6-3.2-1.6l-1.1,1.4
						c0,0,1.4,1.9,4.3,1.9c2.2,0,3.9-1.2,3.9-3.1C70,29,64.1,29.5,64.1,27.4z"/>
				</g>
			</g>
		</g>
	</g>
	<g id="RULERS">
	</g>
</g>
</svg>
