<svg xmlns="http://www.w3.org/2000/svg" xmlns:xlink="http://www.w3.org/1999/xlink" viewBox="0 0 247.51 322.4"><defs><style>.cls-1,.cls-5,.cls-8{fill:none;}.cls-1{clip-rule:evenodd;}.cls-10,.cls-2{fill:#fff;}.cls-3,.cls-4,.cls-6,.cls-9{fill:#231f20;}.cls-3,.cls-5,.cls-6,.cls-8,.cls-9{stroke:#fff;}.cls-3{stroke-width:0.5px;}.cls-5{stroke-width:8px;}.cls-5,.cls-6,.cls-9{fill-rule:evenodd;}.cls-6{stroke-width:2px;}.cls-7{clip-path:url(#clip-path);}.cls-8{stroke-width:0.75px;}.cls-9{stroke-width:5px;}.cls-10{stroke:#231f20;stroke-width:3px;}</style><clipPath id="clip-path"><path class="cls-1" d="M71.37,80.6V195.44c0,41.78,53.5,61.89,53.5,61.89s53.49-20.12,53.49-61.89V80.6l-53.5-7.05Z"/></clipPath></defs><title>metropolis-crest</title><g id="Layer_2" data-name="Layer 2"><g id="Logo"><g id="on_black"><g id="on_black-2" data-name="on_black"><path class="cls-2" d="M29,306.25h1.14v15.84h-1V308.34h0l-3.67,8.8-3.67-8.8,0,0v13.71h-1V306.25h1.14L25.36,315Z"/><path class="cls-2" d="M51.82,307.13H45.11v6.38h4.82v.88H45.11v6.82H52v.88h-7.9V306.25h7.75Z"/><path class="cls-2" d="M74.44,307.13H69.86v15h-1v-15H64.27v-.88H74.44Z"/><path class="cls-2" d="M87.92,306.25h3.76c2.66,0,4.2,1.78,4.2,4.36a4.47,4.47,0,0,1-3.06,4.4l4.27,7.08H95.8l-3.94-6.84H89v6.84h-1Zm1,8.12h2.57c1.41,0,3.26-1.08,3.26-3.85,0-1.85-.88-3.39-3.1-3.39H89Z"/><path class="cls-2" d="M108.69,314.17c0-3.61.44-8.23,4.71-8.23,4.66,0,4.64,5.54,4.64,8.23,0,6.73-2.11,8.23-4.64,8.23S108.69,320.95,108.69,314.17Zm4.71,7.35c2.11,0,3.54-1.65,3.54-7.35,0-5.9-1.52-7.35-3.54-7.35-2.29,0-3.61,1.89-3.61,7.35C109.79,320.09,111.42,321.52,113.4,321.52Z"/><path class="cls-2" d="M131.95,306.25h3.56c3.28,0,4.36,2.33,4.36,4.73,0,3.12-1.92,4.67-4.88,4.67h-2v6.45h-1Zm1,.88v7.63h1.85c2.77,0,3.94-1.52,3.94-3.76,0-3-1.58-3.87-3.19-3.87Z"/><path class="cls-2" d="M152.69,314.17c0-3.61.44-8.23,4.71-8.23,4.67,0,4.64,5.54,4.64,8.23,0,6.73-2.11,8.23-4.64,8.23S152.69,320.95,152.69,314.17Zm4.71,7.35c2.11,0,3.54-1.65,3.54-7.35,0-5.9-1.52-7.35-3.54-7.35-2.29,0-3.61,1.89-3.61,7.35C153.79,320.09,155.42,321.52,157.4,321.52Z"/><path class="cls-2" d="M177.51,321.21h7v.88h-8V306.25h1Z"/><path class="cls-2" d="M204.06,307.13h-2.2v14.08h2.2v.88h-5.43v-.88h2.2V307.13h-2.2v-.88h5.43Z"/><path class="cls-2" d="M226.85,308.49a5.48,5.48,0,0,0-3.48-1.67,2.77,2.77,0,0,0-2.93,2.77c0,1.23.55,2,2.49,3.24l1.3.79c2.51,1.52,3.65,2.42,3.65,4.38a4.15,4.15,0,0,1-4.49,4.4,5.49,5.49,0,0,1-4.47-2.33l.79-.64a4.55,4.55,0,0,0,3.67,2.09,3.28,3.28,0,0,0,3.39-3.26c0-1.5-.18-2.07-3.1-3.81l-1.47-.88c-1.52-.9-2.86-2-2.86-3.87,0-2.38,1.8-3.76,4.09-3.76a6.22,6.22,0,0,1,4,1.78Z"/><g id="Rule_Line"><line class="cls-3" x1="2.76" y1="287.59" x2="244.76" y2="287.59"/><circle class="cls-2" cx="2.76" cy="287.59" r="2.76"/><circle class="cls-2" cx="244.76" cy="287.59" r="2.76"/><circle class="cls-4" cx="2.76" cy="287.59" r="1.69"/><circle class="cls-4" cx="244.76" cy="287.59" r="1.69"/></g><g id="Insignia"><path id="Spaceneedle" class="cls-2" d="M155.27,58.48l-3.62-2,.77-4.11L162.94,50l-7.11-2.72.84-3.21A83.37,83.37,0,0,0,134,36.39V33.88l2.86-4.6h-3.41V26.21H127.6V22.86h-.84l-1.19-22L124.86,0l-.71.91-1.18,22h-.84v3.35h-5.86v3.07h-3.42l2.86,4.6v2.51a83.37,83.37,0,0,0-22.65,7.74l.84,3.21L86.79,50l10.53,2.3.77,4.11-3.62,2s3.88,2.76,11.54,4.59l8.68,50.88-.08.09v25.55h20.53V114l-.13-.14,8.67-50.81C151.37,61.26,155.27,58.48,155.27,58.48Zm-35.19,41.61-2.63-35.51c.85,0,1.73.05,2.63.05Zm9.56-35.45c.88,0,1.73,0,2.57-.05l-2.57,34.7Zm-21.29-1.07a59.71,59.71,0,0,0,6.86.89l3.35,45.25-2,2.15Zm24.74,48.24-2-2.16,3.35-45.18a59.58,59.58,0,0,0,6.86-.88Z"/><path id="Main_Outline" class="cls-5" d="M62.18,90.83V197.64c0,47.54,62.69,70.42,62.69,70.42s62.68-22.89,62.68-70.42V90.83H62.18Z"/><path id="Narrow_Shield" class="cls-6" d="M71.37,80.6V195.44c0,41.78,53.5,61.89,53.5,61.89s53.49-20.12,53.49-61.89V80.6l-53.5-7.05Z"/><g id="Honeycomb"><g class="cls-7"><polygon class="cls-8" points="56.8 164.72 64.26 160.41 71.72 164.72 71.72 173.33 64.26 177.64 56.8 173.33 56.8 164.72"/><polygon class="cls-8" points="56.8 195.3 64.26 190.99 71.72 195.3 71.72 203.91 64.26 208.22 56.8 203.91 56.8 195.3"/><polygon class="cls-8" points="56.8 225.88 64.26 221.57 71.72 225.88 71.72 234.5 64.26 238.8 56.8 234.5 56.8 225.88"/><polygon class="cls-8" points="56.8 134.13 64.26 129.82 71.72 134.13 71.72 142.75 64.26 147.05 56.8 142.75 56.8 134.13"/><polygon class="cls-8" points="108.98 225.88 116.44 221.57 123.89 225.88 123.89 234.5 116.44 238.8 108.98 234.5 108.98 225.88"/><polygon class="cls-8" points="108.98 134.13 116.44 129.82 123.89 134.13 123.89 142.75 116.44 147.05 108.98 142.75 108.98 134.13"/><polygon class="cls-8" points="108.97 195.3 116.44 190.99 123.89 195.3 123.89 203.91 116.44 208.22 108.97 203.91 108.97 195.3"/><polygon class="cls-8" points="108.98 164.72 116.44 160.41 123.89 164.72 123.89 173.33 116.44 177.64 108.98 173.33 108.98 164.72"/><polygon class="cls-8" points="152.45 149.17 159.91 144.87 167.37 149.17 167.37 157.79 159.91 162.09 152.45 157.79 152.45 149.17"/><polygon class="cls-8" points="152.45 240.92 159.91 236.62 167.37 240.92 167.37 249.54 159.91 253.84 152.45 249.54 152.45 240.92"/><polygon class="cls-8" points="152.45 210.34 159.91 206.03 167.37 210.34 167.37 218.96 159.91 223.26 152.45 218.96 152.45 210.34"/><polygon class="cls-8" points="152.45 118.59 159.91 114.28 167.37 118.59 167.37 127.2 159.91 131.51 152.45 127.2 152.45 118.59"/><polygon class="cls-8" points="152.45 179.76 159.91 175.45 167.37 179.76 167.37 188.37 159.91 192.68 152.45 188.37 152.45 179.76"/><polygon class="cls-8" points="91.58 164.72 99.04 160.41 106.5 164.72 106.5 173.33 99.04 177.64 91.58 173.33 91.58 164.72"/><polygon class="cls-8" points="91.58 195.3 99.04 190.99 106.5 195.3 106.5 203.91 99.04 208.22 91.58 203.91 91.58 195.3"/><polygon class="cls-8" points="91.58 134.13 99.04 129.82 106.5 134.13 106.5 142.75 99.04 147.05 91.58 142.75 91.58 134.13"/><polygon class="cls-8" points="91.58 225.88 99.04 221.57 106.5 225.88 106.5 234.5 99.04 238.8 91.58 234.5 91.58 225.88"/><polygon class="cls-8" points="169.84 118.59 177.31 114.28 184.76 118.59 184.76 127.2 177.31 131.51 169.84 127.2 169.84 118.59"/><polygon class="cls-8" points="169.84 179.76 177.3 175.45 184.76 179.76 184.76 188.37 177.3 192.68 169.84 188.37 169.84 179.76"/><polygon class="cls-8" points="169.84 149.17 177.31 144.87 184.76 149.17 184.76 157.79 177.31 162.09 169.84 157.79 169.84 149.17"/><polygon class="cls-8" points="169.84 210.34 177.31 206.03 184.76 210.34 184.76 218.96 177.31 223.26 169.84 218.96 169.84 210.34"/><polygon class="cls-8" points="169.84 240.92 177.31 236.62 184.76 240.92 184.76 249.54 177.31 253.84 169.84 249.54 169.84 240.92"/><polygon class="cls-8" points="74.19 164.72 81.65 160.41 89.11 164.72 89.11 173.33 81.65 177.64 74.19 173.33 74.19 164.72"/><polygon class="cls-8" points="74.19 195.3 81.65 190.99 89.11 195.3 89.11 203.91 81.65 208.22 74.19 203.91 74.19 195.3"/><polygon class="cls-8" points="74.19 225.88 81.65 221.57 89.11 225.88 89.11 234.5 81.65 238.8 74.19 234.5 74.19 225.88"/><polygon class="cls-8" points="74.19 134.13 81.65 129.82 89.11 134.13 89.11 142.75 81.65 147.05 74.19 142.75 74.19 134.13"/><polygon class="cls-8" points="126.37 134.13 133.83 129.82 141.29 134.13 141.29 142.75 133.83 147.05 126.37 142.75 126.37 134.13"/><polygon class="cls-8" points="126.37 225.88 133.83 221.57 141.29 225.88 141.29 234.5 133.83 238.8 126.37 234.5 126.37 225.88"/><polygon class="cls-8" points="126.37 195.3 133.83 190.99 141.29 195.3 141.29 203.91 133.83 208.22 126.37 203.91 126.37 195.3"/><polygon class="cls-8" points="126.37 164.72 133.83 160.41 141.29 164.72 141.29 173.33 133.83 177.64 126.37 173.33 126.37 164.72"/><polygon class="cls-8" points="178.54 225.88 186 221.57 193.46 225.88 193.46 234.5 186 238.8 178.54 234.5 178.54 225.88"/><polygon class="cls-8" points="178.54 134.13 186 129.82 193.46 134.13 193.46 142.75 186 147.05 178.54 142.75 178.54 134.13"/><polygon class="cls-8" points="178.54 164.72 186 160.41 193.46 164.72 193.46 173.33 186 177.64 178.54 173.33 178.54 164.72"/><polygon class="cls-8" points="178.54 195.3 186 190.99 193.46 195.3 193.46 203.91 186 208.22 178.54 203.91 178.54 195.3"/><polygon class="cls-8" points="143.76 134.13 151.22 129.82 158.68 134.13 158.68 142.75 151.22 147.05 143.76 142.75 143.76 134.13"/><polygon class="cls-8" points="143.76 164.72 151.22 160.41 158.68 164.72 158.68 173.33 151.22 177.64 143.76 173.33 143.76 164.72"/><polygon class="cls-8" points="143.76 225.88 151.22 221.57 158.68 225.88 158.68 234.5 151.22 238.8 143.76 234.5 143.76 225.88"/><polygon class="cls-8" points="143.76 195.3 151.22 190.99 158.68 195.3 158.68 203.91 151.22 208.22 143.76 203.91 143.76 195.3"/><polygon class="cls-8" points="161.15 195.3 168.61 190.99 176.07 195.3 176.07 203.91 168.61 208.22 161.15 203.91 161.15 195.3"/><polygon class="cls-8" points="161.15 134.13 168.61 129.82 176.07 134.13 176.07 142.75 168.61 147.05 161.15 142.75 161.15 134.13"/><polygon class="cls-8" points="161.15 164.72 168.61 160.41 176.07 164.72 176.07 173.33 168.61 177.64 161.15 173.33 161.15 164.72"/><polygon class="cls-8" points="161.15 225.88 168.61 221.57 176.07 225.88 176.07 234.5 168.61 238.8 161.15 234.5 161.15 225.88"/><polygon class="cls-8" points="117.67 179.76 125.13 175.45 132.59 179.76 132.59 188.37 125.13 192.68 117.67 188.37 117.67 179.76"/><polygon class="cls-8" points="117.67 149.17 125.13 144.87 132.59 149.17 132.59 157.79 125.13 162.09 117.67 157.79 117.67 149.17"/><polygon class="cls-8" points="117.67 118.59 125.13 114.28 132.59 118.59 132.59 127.2 125.13 131.51 117.67 127.2 117.67 118.59"/><polygon class="cls-8" points="117.67 240.92 125.13 236.62 132.59 240.92 132.59 249.54 125.13 253.84 117.67 249.54 117.67 240.92"/><polygon class="cls-8" points="117.67 210.34 125.13 206.03 132.59 210.34 132.59 218.96 125.13 223.26 117.67 218.96 117.67 210.34"/><polygon class="cls-8" points="82.89 118.59 90.35 114.28 97.81 118.59 97.81 127.2 90.35 131.51 82.89 127.2 82.89 118.59"/><polygon class="cls-8" points="82.89 240.92 90.35 236.62 97.81 240.92 97.81 249.54 90.35 253.84 82.89 249.54 82.89 240.92"/><polygon class="cls-8" points="82.89 149.17 90.35 144.87 97.81 149.17 97.81 157.79 90.35 162.09 82.89 157.79 82.89 149.17"/><polygon class="cls-8" points="82.89 179.76 90.35 175.45 97.81 179.76 97.81 188.37 90.35 192.68 82.89 188.37 82.89 179.76"/><polygon class="cls-8" points="82.89 210.34 90.35 206.03 97.81 210.34 97.81 218.96 90.35 223.26 82.89 218.96 82.89 210.34"/><polygon class="cls-8" points="48.11 118.59 55.57 114.28 63.03 118.59 63.03 127.2 55.57 131.51 48.11 127.2 48.11 118.59"/><polygon class="cls-8" points="48.11 240.92 55.57 236.62 63.03 240.92 63.03 249.54 55.57 253.84 48.11 249.54 48.11 240.92"/><polygon class="cls-8" points="48.11 149.17 55.57 144.87 63.03 149.17 63.03 157.79 55.57 162.09 48.11 157.79 48.11 149.17"/><polygon class="cls-8" points="48.11 179.76 55.57 175.45 63.03 179.76 63.03 188.37 55.57 192.68 48.11 188.37 48.11 179.76"/><polygon class="cls-8" points="48.11 210.34 55.57 206.03 63.03 210.34 63.03 218.96 55.57 223.26 48.11 218.96 48.11 210.34"/><polygon class="cls-8" points="135.06 210.34 142.52 206.03 149.98 210.34 149.98 218.96 142.52 223.26 135.06 218.96 135.06 210.34"/><polygon class="cls-8" points="135.06 179.76 142.52 175.45 149.98 179.76 149.98 188.37 142.52 192.68 135.06 188.37 135.06 179.76"/><polygon class="cls-8" points="135.06 149.17 142.52 144.87 149.98 149.17 149.98 157.79 142.52 162.09 135.06 157.79 135.06 149.17"/><polygon class="cls-8" points="135.06 118.59 142.52 114.28 149.98 118.59 149.98 127.2 142.52 131.51 135.06 127.2 135.06 118.59"/><polygon class="cls-8" points="135.06 240.92 142.52 236.62 149.98 240.92 149.98 249.54 142.52 253.84 135.06 249.54 135.06 240.92"/><polygon class="cls-8" points="100.28 210.34 107.74 206.03 115.2 210.34 115.2 218.96 107.74 223.26 100.28 218.96 100.28 210.34"/><polygon class="cls-8" points="100.28 118.59 107.74 114.28 115.2 118.59 115.2 127.2 107.74 131.51 100.28 127.2 100.28 118.59"/><polygon class="cls-8" points="100.28 149.17 107.74 144.87 115.2 149.17 115.2 157.79 107.74 162.09 100.28 157.79 100.28 149.17"/><polygon class="cls-8" points="100.28 179.76 107.74 175.45 115.2 179.76 115.2 188.37 107.74 192.68 100.28 188.37 100.28 179.76"/><polygon class="cls-8" points="100.28 240.92 107.74 236.62 115.2 240.92 115.2 249.54 107.74 253.84 100.28 249.54 100.28 240.92"/><polygon class="cls-8" points="65.5 149.17 72.96 144.87 80.42 149.17 80.42 157.79 72.96 162.09 65.5 157.79 65.5 149.17"/><polygon class="cls-8" points="65.5 118.59 72.96 114.28 80.42 118.59 80.42 127.2 72.96 131.51 65.5 127.2 65.5 118.59"/><polygon class="cls-8" points="65.5 210.34 72.96 206.03 80.42 210.34 80.42 218.96 72.96 223.26 65.5 218.96 65.5 210.34"/><polygon class="cls-8" points="65.5 179.76 72.96 175.45 80.42 179.76 80.42 188.37 72.96 192.68 65.5 188.37 65.5 179.76"/><polygon class="cls-8" points="65.5 240.92 72.96 236.62 80.42 240.92 80.42 249.54 72.96 253.84 65.5 249.54 65.5 240.92"/></g></g><path id="Main_Shield" class="cls-9" d="M48.32,101.77l19,113.39H182.4l20-113.39-77.54-17Z"/><g id="Banner"><path class="cls-10" d="M57.69,192.23s68.31,22.59,134.34,0l6.11,25.2s-67.55,26.72-145.61,0Z"/><path class="cls-2" d="M54.79,199.21,51,218.08l10.57,3.12S52.08,220,39.21,228.4c0,0,1.55-9.25,4.31-14.9,0,0-7.64-4.44-8.43-6.35C35.09,207.16,39.79,201.54,54.79,199.21Z"/><path class="cls-2" d="M195.49,199.45l4.27,18.87-10.58,3.12s20.32,1.71,25.57-3.2a22.81,22.81,0,0,1-7.6-8.63s8.49-6.6,8.49-12.21C215.63,197.4,205.81,202,195.49,199.45Z"/></g><g id="M"><path class="cls-2" d="M86.6,111.14l38.46,28.13,38.35-28.13-2,73.3H140V158.07l-14.95,11-15.06-11v26.38H88.6Z"/></g></g></g></g></g></g></svg>