<?xml version="1.0" encoding="utf-8"?>
<!-- Generator: Adobe Illustrator 21.0.2, SVG Export Plug-In . SVG Version: 6.00 Build 0)  -->
<svg version="1.1" id="Layer_1" xmlns="http://www.w3.org/2000/svg" xmlns:xlink="http://www.w3.org/1999/xlink" x="0px" y="0px"
	 viewBox="0 0 2624 2527" style="enable-background:new 0 0 2624 2527;" xml:space="preserve">
<style type="text/css">
	.st0{fill:#764ABC;}
</style>
<path class="st0" d="M1794.2,1729.6c92.3-9.6,162.2-89.1,159.1-184.5c-3.2-95.4-82.7-171.8-178.2-171.8h-6.4
	c-98.6,3.2-175,85.9-171.8,184.5c3.2,47.7,22.3,89.1,50.9,117.7c-108.2,213.2-273.6,369.1-521.7,499.5
	c-168.6,89.1-343.6,120.9-518.6,98.6c-143.2-19.1-254.5-82.7-324.5-187.7c-101.8-155.9-111.3-324.5-25.4-493.1
	c60.4-120.9,155.9-210,216.3-254.5c-12.7-41.4-31.8-111.3-41.4-162.2C-28.7,1510.1,19,1961.9,159,2175
	c105,159.1,318.1,257.7,553.6,257.7c63.6,0,127.2-6.4,190.9-22.3C1310.7,2330.9,1619.3,2089.1,1794.2,1729.6L1794.2,1729.6z
	 M2354.2,1335.1c-241.8-283.2-598.1-439-1005.3-439H1298c-28.6-57.3-89.1-95.4-155.9-95.4h-6.4c-98.6,3.2-175,85.9-171.8,184.5
	c3.2,95.4,82.7,171.8,178.2,171.8h6.4c70-3.2,130.4-47.7,155.9-108.2h57.3c241.8,0,470.8,70,677.6,206.8
	c159.1,105,273.6,241.8,337.2,407.2c54.1,133.6,50.9,264.1-6.4,375.4c-89.1,168.6-238.6,260.9-435.8,260.9
	c-127.3,0-248.1-38.2-311.8-66.8c-35,31.8-98.6,82.7-143.2,114.5c136.8,63.6,276.8,98.6,410.4,98.6c305.4,0,531.3-168.6,617.2-337.2
	C2599.1,1923.7,2592.8,1605.6,2354.2,1335.1L2354.2,1335.1z M738,1783.7c3.2,95.4,82.7,171.8,178.2,171.8h6.4
	c98.6-3.2,175-85.9,171.8-184.5c-3.2-95.4-82.7-171.8-178.2-171.8h-6.4c-6.4,0-15.9,0-22.3,3.2C757.1,1386,703,1150.6,722.1,896.1
	c12.7-190.9,76.3-356.3,187.7-493.1c92.3-117.7,270.4-175,391.3-178.2c337.2-6.4,480.4,413.6,489.9,582.2
	c41.4,9.5,111.3,31.8,159.1,47.7c-38.2-515.4-356.3-782.6-661.7-782.6C1002.1,72.1,738,278.9,633,584.3
	c-146.3,407.2-50.9,798.5,127.3,1107.1C744.4,1713.7,734.8,1748.7,738,1783.7L738,1783.7z"/>
</svg>
