<?xml version="1.0" encoding="utf-8"?>
<!-- Generator: Adobe Illustrator 21.0.2, SVG Export Plug-In . SVG Version: 6.00 Build 0)  -->
<svg version="1.1" id="Layer_1" xmlns="http://www.w3.org/2000/svg" xmlns:xlink="http://www.w3.org/1999/xlink" x="0px" y="0px"
	 viewBox="0 0 105.2 243" style="enable-background:new 0 0 105.2 243;" xml:space="preserve">
<style type="text/css">
	.st0{fill:none;stroke:#000000;stroke-width:4.58;stroke-linecap:round;stroke-linejoin:round;}
</style>
<title>right-brain</title>
<g id="Layer_2">
	<g id="icons">
		<path class="st0" d="M26.3,192.7c13.3,0,24,10.7,24,24s-10.7,24-24,24s-24-10.7-24-24V22.2c0-11,8.9-19.9,19.9-19.9
			s19.9,8.9,19.9,19.9s-8.9,19.9-19.9,19.9"/>
		<path class="st0" d="M42.1,23c12.9-3.3,26.1,4.4,29.5,17.4s-4.4,26.1-17.4,29.5c-2,0.5-4,0.8-6.1,0.8"/>
		<path class="st0" d="M67.2,142.6c13.4,0,24.2,10.8,24.2,24.2S80.6,191,67.2,191s-24.2-10.8-24.2-24.2l0,0"/>
		<path class="st0" d="M71,190.7c3.5,10.9-2.6,22.5-13.4,25.9c-2,0.6-4.1,1-6.2,1h-1"/>
		<path class="st0" d="M70.8,54.8c15.7,3.6,25.5,19.3,21.8,35c-1.1,4.6-3.3,9-6.4,12.6"/>
		<path class="st0" d="M73.8,99.6c16.1,0,29.2,13.1,29.1,29.2c0,10.6-5.8,20.3-15,25.5"/>
		<path class="st0" d="M23.1,108.8c-0.2-10.6,8.2-19.4,18.8-19.6s19.4,8.2,19.6,18.8c0,0.3,0,0.6,0,0.9"/>
		<path class="st0" d="M24.2,136.6c5.8,0,10.5,4.7,10.5,10.5c0,0,0,0,0,0"/>
	</g>
</g>
</svg>
