<?xml version="1.0" encoding="utf-8"?>
<!-- Generator: Adobe Illustrator 21.0.2, SVG Export Plug-In . SVG Version: 6.00 Build 0)  -->
<svg version="1.1" id="Layer_1" xmlns="http://www.w3.org/2000/svg" xmlns:xlink="http://www.w3.org/1999/xlink" x="0px" y="0px"
	 viewBox="0 0 2500 1875" style="enable-background:new 0 0 2500 1875;" xml:space="preserve">
<style type="text/css">
	.st0{fill:#CF649A;}
</style>
<path class="st0" d="M1786.8,1356.8c-52.1,0.3-97.2,12.8-135,31.4c-14-27.6-27.9-51.8-30.3-69.8c-2.6-20.9-5.8-33.7-2.6-58.8
	c3.2-25,17.7-60.5,17.7-63.4c-0.3-2.6-3.2-15.4-33.2-15.7c-30-0.3-55.9,5.8-58.8,13.7c-2.9,7.9-8.7,25.9-12.5,44.5
	c-5.2,27.3-59.9,124.2-91.1,175.1c-10.2-19.8-18.9-37.2-20.7-51.2c-2.6-20.9-5.8-33.7-2.6-58.8c3.2-25,17.7-60.5,17.7-63.4
	c-0.3-2.6-3.2-15.4-33.2-15.7c-30-0.3-55.9,5.8-58.8,13.7c-2.9,7.9-6.1,26.5-12.5,44.5c-6.1,18-78.8,179.8-97.8,222
	c-9.6,21.5-18,38.7-24.1,50.3c-6.1,11.6-0.3,0.9-0.9,2c-5.2,9.9-8.1,15.4-8.1,15.4v0.3c-4.1,7.3-8.4,14.3-10.5,14.3
	c-1.5,0-4.4-19.5,0.6-46.3c10.8-56.1,36.9-143.7,36.7-146.9c0-1.5,4.9-16.9-16.9-24.7c-21.2-7.9-28.8,5.2-30.5,5.2
	c-1.7,0-3.2,4.7-3.2,4.7s23.6-98.6-45.1-98.6c-43.1,0-102.4,46.8-131.8,89.6c-18.6,10.2-58.2,31.7-100.1,54.7
	c-16,8.7-32.6,18-48.3,26.5l-3.2-3.5c-83.2-88.7-237.1-151.6-230.7-270.8c2.3-43.3,17.5-157.7,295.6-296.1
	c227.8-113.5,410.2-82.3,441.9-13.1c45.1,98.9-97.5,282.8-334.3,309.2c-90.2,10.2-137.6-24.7-149.5-37.8
	c-12.5-13.7-14.3-14.3-18.9-11.6c-7.6,4.1-2.9,16.3,0,23.6c7,18.3,36.1,50.9,85.5,67.2c43.3,14.3,149.2,22.1,277.2-27.3
	c143.4-55.6,255.4-209.7,222.5-338.6c-33.5-131.2-251.1-174.3-456.7-101.2c-122.5,43.6-255.1,111.7-350.6,201
	c-113.5,105.9-131.5,198.4-123.9,236.8c26.5,137,215.3,226.3,290.9,292.4c-3.8,2-7.3,4.1-10.5,5.8c-37.8,18.6-181.8,94-217.9,173.7
	c-40.7,90.2,6.4,155.1,37.8,163.8c97.2,27.1,196.7-21.5,250.5-101.5c53.5-80,47.1-183.9,22.4-231.3l-0.9-1.7l29.7-17.5
	c19.2-11.3,38.1-21.8,54.7-30.8c-9.3,25.3-16,55.3-19.5,98.9c-4.1,51.2,16.9,117.5,44.5,143.7c12.2,11.3,26.8,11.6,35.8,11.6
	c32,0,46.5-26.5,62.5-58.2c19.8-38.7,37.2-83.5,37.2-83.5s-21.8,121.3,37.8,121.3c21.8,0,43.6-28.2,53.5-42.8v0.3
	c0,0,0.6-0.9,1.7-2.9c1.2-1.8,2.4-3.6,3.5-5.5v-0.6c8.7-15.1,28.2-49.7,57.3-107.1c37.5-73.9,73.6-166.4,73.6-166.4
	s3.5,22.7,14.3,59.9c6.4,22.1,20.4,46.3,31.1,69.8c-8.7,12.2-14,19.2-14,19.2l0.3,0.3c-7,9.3-14.8,19.2-23,29.1
	c-29.7,35.5-65.2,75.9-69.8,87.6c-5.5,13.7-4.4,23.9,6.4,32c7.9,5.8,21.8,7,36.7,5.8c26.8-1.7,45.4-8.4,54.7-12.5
	c14.5-5.2,31.1-13.1,47.1-24.7c29.1-21.5,46.8-52.1,45.1-92.8c-0.9-22.4-8.1-44.5-17.2-65.5c2.6-3.8,5.2-7.6,7.9-11.6
	c46-67.2,81.5-141.1,81.5-141.1s3.5,22.7,14.3,59.9c5.5,18.9,16.6,39.6,26.5,59.9c-43.1,35.2-70.1,75.9-79.4,102.7
	c-17.2,49.5-3.8,71.9,21.5,77.1c11.3,2.3,27.6-2.9,39.9-8.1c15.1-4.9,33.5-13.4,50.3-25.9c29.1-21.5,57-51.5,55.6-91.9
	c-0.9-18.6-5.8-36.9-12.5-54.4c36.7-15.1,84.1-23.9,144.3-16.6c129.5,15.1,155.1,96,150.1,129.7c-4.9,33.7-32,52.4-41,58.2
	c-9,5.5-11.9,7.6-11.1,11.6c1.2,6.1,5.2,5.8,13.1,4.7c10.8-1.7,68.1-27.6,70.4-89.9C1997.4,1443.2,1921.4,1355.9,1786.8,1356.8
	L1786.8,1356.8z M788.3,1693.3c-42.8,46.8-103,64.6-128.6,49.5c-27.6-16-16.9-84.9,35.8-134.7c32-30.3,73.6-58.2,100.9-75.3
	c6.1-3.8,15.4-9.3,26.5-16c1.7-1.2,2.9-1.7,2.9-1.7c2-1.2,4.4-2.6,6.7-4.1C852,1581.9,833.4,1644.2,788.3,1693.3L788.3,1693.3z
	 M1101.1,1480.7c-14.8,36.4-46.3,129.7-65.2,124.5c-16.3-4.4-26.2-75.1-3.2-144.9c11.6-35.2,36.4-77.1,50.9-93.4
	c23.6-26.2,49.2-34.9,55.6-24.1C1146.7,1356.8,1110.4,1458,1101.1,1480.7z M1359.1,1604c-6.4,3.2-12.2,5.5-14.8,3.8
	c-2-1.2,2.6-5.5,2.6-5.5s32.3-34.6,45.1-50.6c7.3-9.3,16-20.1,25.3-32.3v3.5C1417.3,1564.8,1377.1,1592.7,1359.1,1604L1359.1,1604z
	 M1558.1,1558.7c-4.7-3.5-4.1-14.3,11.6-48c6.1-13.4,20.1-35.8,44.2-57c2.9,8.7,4.7,17.2,4.4,25
	C1618,1531,1580.8,1550.5,1558.1,1558.7z"/>
</svg>
