<?xml version="1.0" encoding="utf-8"?>
<!-- Generator: Adobe Illustrator 21.0.2, SVG Export Plug-In . SVG Version: 6.00 Build 0)  -->
<svg version="1.1" id="Layer_1" xmlns="http://www.w3.org/2000/svg" xmlns:xlink="http://www.w3.org/1999/xlink" x="0px" y="0px"
	 viewBox="0 0 4706.3 5771.8" style="enable-background:new 0 0 4706.3 5771.8;" xml:space="preserve">
<style type="text/css">
	.st0{fill:#FFFFFF;}
</style>
<path class="st0" d="M764,2394.9h181v574c0,302-193,408-473,408c-279,0-472-106-472-408v-551c0-16,8-23,24-23h181v565
	c0,181,80,256,267,256c188,0,268-75,268-256v-542C740,2401.9,748,2394.9,764,2394.9z M2813,2551.9v242h458c8,0,11,4,8,12l-50,124
	c-5,11-12,16-27,16h-269c-88,0-120,27-120,86v171h620c8,0,11,4,8,12l-52,129c-5,11-12,16-27,16h-679c-52,0-72-18-72-57v-841
	c0-47,26-67,94-67h728c8,0,11,4,8,11l-52,130c-5,11-12,16-27,16H2813z M2238,3092.9c0,193-136,267-327,267h-506c-53,0-72-18-72-57
	v-841c0-47,25-67,94-67h411c180,0,354,31,354,245c0,92-33,170-112,211C2189,2879.9,2238,2977.9,2238,3092.9z M1532,2796.9h321
	c106,0,136-41,136-125s-30-124-136-124h-321V2796.9z M2035,3074.9c0-89-31-133-145-133h-237c-88,0-121,27-121,86v179h358
	C2004,3206.9,2035,3162.9,2035,3074.9z M4695,3359.9h-184c-15,0-21-6-27-16l-195-352h-179c-88,0-121,27-121,86v282h-176
	c-16,0-24-8-24-23v-875c0-47,26-67,94-67h413c241,0,386,63,386,297c0,181-87,252-195,280l217,371
	C4708,3348.9,4708,3359.9,4695,3359.9z M4479,2695.9c0-98-27-146-153-146h-337v292h337C4452,2841.9,4479,2794.9,4479,2695.9z"/>
</svg>
