<svg xmlns="http://www.w3.org/2000/svg" viewBox="0 0 830.87 173.09"><defs><style>.cls-1{fill:#332532;}.cls-2,.cls-6,.cls-7{fill:none;stroke-miterlimit:10;}.cls-2{stroke:#ccc;}.cls-3{fill:#ccc;}.cls-4{fill:#644d52;}.cls-5{fill:#f77a52;}.cls-6{stroke:#d66b4d;stroke-width:3px;}.cls-7{stroke:#000;stroke-width:0.75px;opacity:0.18;}.cls-8{fill:#666463;}</style></defs><title>body</title><g id="Layer_2" data-name="Layer 2"><g id="Layer_1-2" data-name="Layer 1"><g id="body"><path id="shadow" class="cls-1" d="M281.89,68.1h16L334,29.36a16.51,16.51,0,0,1,12.08-5.26H467.72A19,19,0,0,1,481.52,30l36,38.06,29-.56L491.89,8.1l-169-2-12,9,10,11Z"/><polygon id="windshield" class="cls-2" points="309.56 8.44 223.89 68.1 251.89 68.1 323.39 6.6 309.56 8.44"/><polygon id="winshieldBorder" class="cls-3" points="245.89 65.77 308.89 11.1 323.23 11.1 262.56 65.86 245.89 65.77"/><path id="roof" class="cls-4" d="M308.89,11.1h167.4a15.48,15.48,0,0,1,11.17,4.77L528.89,68.1h85s-59-53-72-57-75-10-97-10S308.89-4.9,308.89,11.1Z"/><path class="cls-1" d="M420.89,68.1s6-10,10-12,11.5-1.5,12.5,2.5-3,14-3,14Z"/><path id="body-2" data-name="body" class="cls-5" d="M819.68,154.35c2.59-2.67,10.72-12.68,11.19-33.33a3.3,3.3,0,0,0-1.57-2.83,17.32,17.32,0,0,1-3.76-3.26,3.22,3.22,0,0,1-.75-1.76c-.42-4-2.16-19.85-3.9-25.07-1.67-5-11-14.85-14-18a3.27,3.27,0,0,0-2.36-1S82.89,64.68,74.89,64.89s-11.68,4.28-11.68,4.28l-39.16.93a3.28,3.28,0,0,0-2.08.75C18.8,73.45,8.43,82.35,5.89,89.1S5,107.17,5.67,110.89a3.27,3.27,0,0,1-.45,2.28L1.1,119.77a3.2,3.2,0,0,0-.34.74c-.53,1.69-2.18,8.13,2.14,11.59,5,4,10,8,11,12s5,11,20,12c3.42.23,13.82,1.13,27.83,2.39,2.48.22-3.86-27.51,8.17-41.39,10-11.56,19-10,41-10,63.81,0,82.85,50.27,86.36,61.7a3.28,3.28,0,0,0,3.12,2.31l331.69,2a3.29,3.29,0,0,0,3.27-2.79l5.14-33.41a3.29,3.29,0,0,1,3.25-2.79H652.56a3.29,3.29,0,0,1,2.28.92l27.05,26.12a3.29,3.29,0,0,0,2.37.92l113.35-3a3.29,3.29,0,0,0,.53-.06l19.78-3.77A3.26,3.26,0,0,0,819.68,154.35Z"/><g id="accents"><path id="accent1" class="cls-6" d="M4.89,97.1l791-6.84a18.82,18.82,0,0,1,19,18.82v6"/><path id="accent2" class="cls-6" d="M61.39,158.6s0-36,13-45c12.22-8.46,53.64-6.21,71-1,20,6,31,18,31,18l639-15"/></g><path id="door" class="cls-7" d="M250.9,66.1a12,12,0,0,0-3.51,8.47v88H434.9a10.5,10.5,0,0,0,10.5-10.5V67.6"/><g id="bumpers"><path id="frontBumper" class="cls-8" d="M37.89,157.1c-20,1-23-9-24-13s-6-8-11-12c-4.32-3.46-2.67-9.9-2.14-11.59a3.2,3.2,0,0,1,.34-.74l4.12-6.59a3.27,3.27,0,0,0,.45-2.28H20.54c5.36,0,17.36-.79,17.36,5.21Z"/><path id="rearBumper" class="cls-8" d="M821.35,115a9.05,9.05,0,0,0-9,9c0,5.35-.44,11.94-1.5,16.17-2,8-8.17,18-8,18l15-2.82a3.26,3.26,0,0,0,1.74-.93c2.58-2.67,10.69-12.65,11.19-33.23a3.29,3.29,0,0,0-1.48-2.87,17.33,17.33,0,0,1-3.85-3.32Z"/></g></g></g></g></svg>