<svg xmlns="http://www.w3.org/2000/svg" viewBox="0 0 270.68 67.45"><defs><style>.cls-1{fill:#fff;}</style></defs><title>lowrider-type_1</title><g id="Layer_2" data-name="Layer 2"><g id="Layer_1-2" data-name="Layer 1"><path class="cls-1" d="M41,1.76c2.06,1.32,3.25,3,1.44,8.82-3.74,12-18,34.53-29.12,33.42A90.61,90.61,0,0,0,8.66,55.06c-1.16,3.75-.57,5.49,2.09,5.51,5,0,13-6.73,18.24-12.81.77-1,1.45-1.3,1.92-1.3s.56.35.37,1a4.8,4.8,0,0,1-.66,1.22C25.59,55.34,14,66.17,5.89,66.13c-6.45,0-7-5.36-4.54-13.2A110,110,0,0,1,8.89,35.69C17.81,18.29,29.13-.05,37.76,0A3.49,3.49,0,0,1,41,1.76ZM14.36,41.92C23.84,36.22,35,17.43,38.17,7.24A23.35,23.35,0,0,0,39,3.5C35.33,4.44,22.26,26,14.36,41.92Z"/><path class="cls-1" d="M51.07,55.92c-5.57,6-11.92,10.23-17.33,10.19-7.59,0-8.69-6.6-6.2-14.61A53.42,53.42,0,0,1,37.25,34c1.25-1.56,3.51-3.64,5.77-3.28,3.51-5.48,8.7-9.63,14.68-9.6,7.59,0,8.88,6,6.55,13.48-1.87,6-5.93,13-10.88,18.78a15.17,15.17,0,0,0,11-5.43c.84-.87,1.5-1.47,2.17-1.47.28,0,.52.18.38.61a5.85,5.85,0,0,1-.87,1.57C63.83,51.9,57.52,56,51.07,55.92ZM45,55c-4.54-1.6-6.28-5.18-6.5-9.37a46,46,0,0,0-3.59,8.18c-1.44,4.62-1.28,8.11,1.85,8.13a3.12,3.12,0,0,0,.88-.08C39.51,61.61,42.15,58.92,45,55Zm-.13-15.79c-1.6,5.14-1.49,10.29,2.21,12.75,4-6.17,8-14,9.73-19.66,1.41-4.53,1.58-7.84-.69-7.86C52.88,24.43,47.22,31.64,44.86,39.22Z"/><path class="cls-1" d="M85.65,58.13c-.79,2.53-.66,4.27,1.14,4.28,2.94,0,9-7.8,14.92-16.49-.64-1.92-.39-4.54.47-7.33,2.57-8.27,10.55-18.35,15.49-18.32,1.71,0,3.5,1,2.25,5-1.41,4.53-6.66,12.87-12.12,20.35a6,6,0,0,0,2.24.45c5.22,0,12-6.47,15.72-11.43.68-1,1.26-1.3,1.64-1.3s.58.27.39.88a5.31,5.31,0,0,1-.51,1c-3.83,5.91-12.15,14.33-19.55,14.28a8.07,8.07,0,0,1-2.64-.36c-7.26,9.29-15.61,17.18-21.78,17.15-4.74,0-5.31-4.31-3.7-10.41-4.8,6.25-9.58,10.33-14.32,10.3-5.22,0-5.4-5.27-3.18-12.41C65.15,44,72.71,30.66,77.34,23.09a5.22,5.22,0,0,1,4.5-2.24c2.37,0,4.47,1.51,3.55,4.47C83.44,31.59,70.68,48.18,67.62,58c-.79,2.53-.59,4.36,1.11,4.37,6.36,0,18.3-25.55,26.64-39.19A5.22,5.22,0,0,1,99.87,21c2.37,0,4.47,1.51,3.55,4.47C101.71,30.92,88.49,49,85.65,58.13Z"/><path class="cls-1" d="M117.22,63.9a4.92,4.92,0,0,1-4.4,2.85c-1.8,0-3.23-1.24-2.41-3.85,1.9-6.1,10.46-23.24,18.9-36.62a5,5,0,0,1,4.28-2.16c2.18,0,4.22,1.42,3.46,3.86-.46,1.48-2.28,3.65-3.24,5.22,5.5-6.69,11.19-11.54,15.84-11.51,3.51,0,4.24,1.94,3.08,5.69-1.52,4.88-8.59,13-9.54,16-.38,1.22.16,1.92,1.59,1.93,3.13,0,9-6.32,11.67-9.7,1-1.3,1.88-2.08,2.45-2.08,1,0,.1,1.83-.28,2.44-3,5-10.91,12.76-17.45,12.72-3.79,0-6.94-1.52-5.32-6.75,1.49-4.79,7.48-10.6,8.32-13.3.19-.61,0-1-.62-1.05-3.23,0-14.88,12.39-21.92,27.09Z"/><path class="cls-1" d="M152.48,58.09c-.57,1.83-.42,2.88.81,2.88,3.51,0,12-10.49,13.65-12.4.87-1,1.6-1.47,2.07-1.47s.56.35.39.88a4.55,4.55,0,0,1-.84,1.48c-2.28,3-12.22,17.29-20.19,17.24-3.7,0-6.07-2.48-4-9,1.62-5.23,10.24-21.32,18-34.1a5.22,5.22,0,0,1,4.5-2.24c2.37,0,4.47,1.51,3.55,4.47C169,30.44,154.56,51.38,152.48,58.09Zm14.16-44.94c1.16-3.75,6-8.6,11.22-8.57,3.89,0,4.95,2.12,4.19,4.56-1.14,3.66-6.46,8.25-12.44,8.22C166.67,17.34,165.94,15.42,166.64,13.15Z"/><path class="cls-1" d="M188.71,58c-.73,2.35-.57,3.66.76,3.67,3.32,0,9.85-8.14,13.9-12.92a3.6,3.6,0,0,1,2.17-1.47c.38,0,.46.35.3.87a5,5,0,0,1-.84,1.48C201,55,193.44,67,184.14,66.92c-3.8,0-4.81-3.78-3.19-9a8.92,8.92,0,0,1,.5-1.31c-5.2,6.34-10.22,10.24-13.44,10.22-5.12,0-5.73-5.09-3.62-11.89,4.12-13.24,18.59-32.87,29.5-32.81,2.56,0,3.43,2.11,3.63,4.21,4.54-8.18,9.16-16,12.07-20.78a4.11,4.11,0,0,1,3.63-1.9c2.37,0,4.68,1.77,3.67,5C215.14,14.31,191.85,47.94,188.71,58Zm6.85-28.14c.26-1.13.27-2.7-1.82-2.72-6.36,0-18.48,20.31-21.33,29.45-.81,2.61-.85,4.27.29,4.28,3.79,0,10.2-8.67,16.3-19.1C191,38.07,193.24,34,195.56,29.9Z"/><path class="cls-1" d="M237.81,31.89c-2.6,8.36-13.09,20.08-23.14,20a11.73,11.73,0,0,1-3.44-.54c-1.19,3.83-2.87,10.45,3,10.49,9,.05,16.78-9.32,20.35-12.88.84-.87,1.42-1.21,1.9-1.21s.56.35.39.88a4.28,4.28,0,0,1-.66,1.22c-7.3,9.73-16.33,17.35-27.24,17.29-8.16,0-9.37-6.86-6.8-15.13,4-13,17.42-29.74,27.38-29.68,2.09,0,4.08.64,4.95,1.51C238.36,24.31,239.13,27.63,237.81,31.89ZM212.87,49.11c5.6,0,17.94-13.68,20.05-20.47.43-1.39.7-2.88-.72-2.88-5.41,0-15.68,12.82-20.07,23.27A2,2,0,0,0,212.87,49.11Z"/><path class="cls-1" d="M234.67,64.6a5,5,0,0,1-4.4,2.85c-1.8,0-3.23-1.24-2.41-3.85,1.49-4.79,10.46-23.24,18.9-36.62A5,5,0,0,1,251,24.82c2.18,0,4.22,1.42,3.46,3.86-.46,1.48-2.28,3.65-3.24,5.22,5.5-6.69,11.19-11.54,15.84-11.51,3.51,0,4.24,1.94,3.08,5.69-1.52,4.88-6.73,10.34-8.87,15.39a4.36,4.36,0,0,1-4.19,2.77,3.26,3.26,0,0,1-3.27-4.47c1.62-5.23,6.92-9.73,7.76-12.43.19-.61,0-1-.62-1.05-3.23,0-14.88,12.39-21.92,27.09Z"/></g></g></svg>