<svg xmlns="http://www.w3.org/2000/svg" viewBox="0 0 94 94"><defs><style>.cls-1{fill:#333;}.cls-2{fill:#fffffd;}.cls-3{fill:#e0ba22;}.cls-4{fill:none;stroke:#e0ba22;stroke-miterlimit:10;}</style></defs><title>wheel</title><g id="Layer_2" data-name="Layer 2"><g id="Layer_1-2" data-name="Layer 1"><g id="wheel"><path id="wheel-2" data-name="wheel" class="cls-1" d="M94,47A47,47,0,1,1,47,0,47,47,0,0,1,94,47ZM47,4A43,43,0,1,0,90,47,43,43,0,0,0,47,4Z"/><path id="wheel-3" data-name="wheel" class="cls-2" d="M91,47A44,44,0,1,1,47,3,44,44,0,0,1,91,47ZM47,6.74A40.26,40.26,0,1,0,87.26,47,40.26,40.26,0,0,0,47,6.74Z"/><path id="wheel-4" data-name="wheel" class="cls-3" d="M90,47A43,43,0,1,1,47,4,43,43,0,0,1,90,47ZM47,7.66A39.34,39.34,0,1,0,86.34,47,39.34,39.34,0,0,0,47,7.66Z"/><g id="spokes"><line class="cls-4" x1="90" y1="47" x2="47" y2="47"/><line class="cls-4" x1="89.06" y1="38.06" x2="47" y2="47"/><line class="cls-4" x1="86.28" y1="29.51" x2="47" y2="47"/><line class="cls-4" x1="81.79" y1="21.73" x2="47" y2="47"/><line class="cls-4" x1="75.77" y1="15.04" x2="47" y2="47"/><line class="cls-4" x1="68.5" y1="9.76" x2="47" y2="47"/><line class="cls-4" x1="60.29" y1="6.1" x2="47" y2="47"/><line class="cls-4" x1="51.49" y1="4.24" x2="47" y2="47"/><line class="cls-4" x1="42.51" y1="4.24" x2="47" y2="47"/><line class="cls-4" x1="33.71" y1="6.1" x2="47" y2="47"/><line class="cls-4" x1="25.5" y1="9.76" x2="47" y2="47"/><line class="cls-4" x1="18.23" y1="15.04" x2="47" y2="47"/><line class="cls-4" x1="12.21" y1="21.73" x2="47" y2="47"/><line class="cls-4" x1="7.72" y1="29.51" x2="47" y2="47"/><line class="cls-4" x1="4.94" y1="38.06" x2="47" y2="47"/><line class="cls-4" x1="4" y1="47" x2="47" y2="47"/><line class="cls-4" x1="4.94" y1="55.94" x2="47" y2="47"/><line class="cls-4" x1="7.72" y1="64.49" x2="47" y2="47"/><line class="cls-4" x1="12.21" y1="72.27" x2="47" y2="47"/><line class="cls-4" x1="18.23" y1="78.96" x2="47" y2="47"/><line class="cls-4" x1="25.5" y1="84.24" x2="47" y2="47"/><line class="cls-4" x1="33.71" y1="87.9" x2="47" y2="47"/><line class="cls-4" x1="42.51" y1="89.76" x2="47" y2="47"/><line class="cls-4" x1="51.49" y1="89.76" x2="47" y2="47"/><line class="cls-4" x1="60.29" y1="87.9" x2="47" y2="47"/><line class="cls-4" x1="68.5" y1="84.24" x2="47" y2="47"/><line class="cls-4" x1="75.77" y1="78.96" x2="47" y2="47"/><line class="cls-4" x1="81.79" y1="72.27" x2="47" y2="47"/><line class="cls-4" x1="86.28" y1="64.49" x2="47" y2="47"/><line class="cls-4" x1="89.06" y1="55.94" x2="47" y2="47"/></g></g></g></g></svg>